<svg width="35" height="78" viewBox="0 0 35 78" fill="none" xmlns="http://www.w3.org/2000/svg">
<path d="M20.8061 77.3844C19.8827 77.3844 19.1358 77.0026 18.6456 76.2811C17.8699 75.1432 18.224 73.5934 18.5937 72.5985C18.3163 72.5974 18.0671 72.4838 17.8918 72.2761C17.5382 71.8574 17.6155 71.1953 17.6473 71.0027L17.717 70.8089C17.5867 70.8297 17.4454 70.8418 17.2914 70.8418C17.2839 70.8418 17.2776 70.8418 17.2701 70.8418L17.0117 72.0864L16.9788 72.1539C16.0843 74.0341 14.5663 75.2014 13.0194 75.2014C12.5153 75.2014 12.0222 75.0791 11.551 74.8386C11.1144 74.6131 10.8128 74.2348 10.6801 73.7445C10.2868 72.2917 11.4928 70.0141 12.0234 69.1104C11.9663 69.0585 11.9138 69.0008 11.8671 68.9356C11.5822 68.5446 11.6145 68.0549 11.6445 67.849C11.6427 67.8029 11.6335 67.7458 11.6335 67.7458C10.1553 66.6517 9.99553 63.6878 9.98169 63.3538C9.95862 63.0193 10.0688 62.7027 10.3012 62.4535C10.6455 62.0856 11.2442 61.8981 12.0811 61.8935C12.1295 61.5325 12.2627 61.2579 12.3838 61.0745C12.3227 60.2325 12.5655 59.5098 12.7109 59.1649C12.6376 58.6545 12.6757 57.8142 12.7414 56.667C12.761 56.2962 12.7806 55.9565 12.7864 55.7027C12.8095 54.8197 12.6941 53.6547 12.4917 52.7336C12.3366 52.0254 12.4329 51.2185 12.5171 50.5074C12.5615 50.1348 12.6059 49.7864 12.5961 49.5067C12.5892 49.2731 12.5488 49.0764 12.5102 48.8861C12.415 48.4126 12.3083 47.8762 12.5799 47.0584C12.7645 46.5053 12.8078 46.165 12.8158 46.0093C12.4582 45.3726 12.6365 44.9279 12.7264 44.7041C12.7287 44.6989 12.7305 44.6955 12.7328 44.6943C12.5747 44.2035 12.5494 43.1382 12.5494 42.5211C12.4611 41.9507 12.5517 41.4968 12.663 41.1831C12.5142 40.9691 12.396 40.713 12.2662 40.4339C12.148 40.1784 12.0124 39.8854 11.8296 39.5791C11.528 39.0774 10.9005 38.0306 10.2903 37.7162C9.60508 37.3621 9.42686 36.9832 9.27863 36.5593C9.2521 36.4837 9.22499 36.403 9.18405 36.3165C9.07562 36.0869 9.06985 35.9006 9.06754 35.7887C9.06524 35.708 9.05889 35.464 7.77966 34.2955C6.03039 32.6951 5.02396 30.2537 4.74193 29.5039C4.08675 29.0823 3.87335 28.5327 3.85259 28.084C3.72455 27.9813 3.64092 27.8677 3.58498 27.7673C3.28103 27.2183 3.51288 26.5544 3.68245 26.07C3.77415 25.807 3.7655 25.548 3.74012 25.3796C3.62131 25.2487 3.5423 25.086 3.51115 24.9038C3.4356 24.466 3.6663 23.9544 3.94371 23.5271C3.81798 23.4561 3.73954 23.3956 3.72051 23.38C3.18241 22.8811 3.05898 22.1567 3.07109 21.5534L2.25096 21.8384L1.70766 20.0343L1.62749 19.6265L1.56347 19.5475C1.32758 19.3653 1.18686 19.1178 1.16552 18.8439C1.14129 18.5515 1.25664 18.3063 1.37315 18.1368V17.3045L0.888679 17.0513L0.937702 16.4636L0.696045 15.5322L1.36565 15.0033C1.0617 10.1598 5.36713 9.41289 5.41154 9.40597C5.90869 9.28889 6.43007 9.22545 6.918 9.22545C9.90902 9.22545 11.2586 11.6091 11.6341 13.1214L12.1647 13.3567C12.3262 12.9143 12.5038 12.3249 12.6393 11.7493C12.787 10.8963 13.0114 10.1171 13.1342 9.71626C13.0563 9.50633 13.0852 9.3235 13.1106 9.23237C13.1769 8.99071 13.3395 8.82518 13.5183 8.71387C13.2392 7.53846 13.621 6.77542 13.9468 6.36824C13.8344 5.72805 14.2104 5.04806 14.4209 4.72797C14.5472 3.90091 15.278 3.54102 15.8351 3.48335C16.4741 3.24284 17.1247 3.12115 17.7707 3.12115C19.2212 3.12115 20.3113 3.73077 20.8494 4.11142L20.9388 4.05836C21.2646 3.62522 21.7531 3.38876 22.3276 3.38876C22.7503 3.38876 23.1442 3.51506 23.3945 3.61715C25.0798 2.9758 27.7104 1.52874 28.0495 1.15674C28.3678 0.803772 28.8229 0.615173 29.361 0.615173C29.6765 0.615173 29.9141 0.680924 29.9585 0.693036L32.104 1.339C33.1076 1.62737 33.7137 2.00514 33.9485 2.49134C34.1255 2.857 34.0286 3.15229 33.994 3.23534L33.746 4.15699L33.2362 4.52207C30.8352 6.78004 27.8292 7.53154 26.4577 7.76743C26.686 9.03281 26.4784 10.7227 26.449 10.9499L26.3919 11.3744L25.8878 11.4903C25.8694 11.6478 25.8227 11.7931 25.7442 11.9264C25.4772 12.382 24.9639 12.4852 24.7943 12.5193L24.7343 12.5314L24.5786 12.5394C24.2551 12.5394 23.7492 12.4103 23.3473 12.2903C23.2209 12.7632 23.0716 13.5701 22.9753 14.2587L22.902 14.7899H22.7024C22.6926 15.106 22.6817 15.5264 22.6707 15.9971C22.6505 16.906 22.4418 17.8328 22.3679 18.1339C22.4048 19.1392 21.8333 20.6214 21.651 21.0655C21.5899 21.2137 21.4942 21.4237 21.3817 21.6682C21.1187 22.2438 20.7207 23.1141 20.6123 23.6038C20.497 24.128 20.1844 24.4816 19.8573 24.7065C20.4018 25.4915 21.1441 26.7165 21.4192 27.175L23.9996 31.8818C24.6403 33.0486 25.5977 34.6341 25.9449 35.2039C26.4202 35.3891 26.7651 35.8712 26.9975 36.328C27.1521 36.4307 27.3822 36.5916 27.7213 36.8378C29.0438 37.8004 29.8253 39.9321 30.3974 41.4893C30.5353 41.8665 30.6633 42.2131 30.7815 42.4986C31.2487 43.6198 32.0804 45.1499 32.378 45.6846C33.6762 46.2631 33.904 48.032 33.8227 49.0372C33.8181 49.0713 33.7299 49.8181 33.7299 51.3183C33.7299 52.1747 33.6434 52.7919 33.4651 53.1823C33.5903 53.8848 33.3198 54.51 33.137 54.8347C33.1791 55.397 32.9697 55.8256 32.8134 56.0609C32.7298 57.0062 32.4333 57.5443 32.2044 57.8263C32.1467 58.4278 31.8006 58.8679 31.6121 59.0663C31.3306 59.7238 29.8766 63.118 29.0398 65.0039C28.2917 66.6915 26.539 70.6411 26.1312 72.7202C26.0395 73.1926 25.7627 74.6102 24.7643 74.676C24.3877 75.4021 23.695 76.0267 23.2423 76.4356L23.045 76.6144C22.6511 76.9882 21.7312 77.3844 20.8061 77.3844ZM19.1751 62.4743C19.5586 62.6739 20.0165 63.0562 20.2593 63.678L22.9747 55.8763L23.3305 54.7724C23.1385 54.2672 22.7965 53.1119 23.3415 52.3731C23.2094 51.7947 23.1771 51.0339 23.5024 50.4301L23.1569 50.1861C22.7267 51.042 21.9417 52.7215 21.3379 54.687C20.8776 57.0442 20.452 57.892 20.1619 58.2225L19.1531 62.3936L19.1751 62.4743ZM16.98 17.8588C17.3283 17.064 17.8976 16.0265 18.2505 15.4463C18.5764 14.9168 18.9028 14.0563 19.0534 13.5499C18.9496 13.4755 18.8532 13.3751 18.7788 13.2431C18.5793 12.8901 18.5937 12.446 18.8221 11.8883L18.9542 11.018L18.9023 10.86L19.1076 10.4926C19.1197 10.4753 19.1312 10.4603 19.1451 10.4447L19.0459 10.2082C18.9253 10.2503 18.7684 10.3293 18.5839 10.4764C18.3549 11.3185 17.401 14.847 17.2181 15.9428C17.112 16.5773 17.003 17.011 16.8623 17.2993C16.8934 17.4453 16.9355 17.6425 16.98 17.8588Z" fill="#333334"/>
<path d="M29.3628 1.23135C29.6062 1.23135 29.7873 1.28499 29.7873 1.28499L31.9276 1.9298C33.6642 2.42753 33.4277 2.99967 33.4277 2.99967L33.2126 3.78347L32.8804 4.02167C29.7879 6.92213 25.6739 7.25376 25.6739 7.25376C26.174 8.32363 25.8412 10.87 25.8412 10.87L25.2229 11.0119C25.4369 11.6786 25.0332 11.8441 24.6762 11.9162C24.6496 11.9214 24.6179 11.9237 24.5822 11.9237C24.134 11.9237 23.0117 11.535 23.0117 11.535C22.7025 11.7726 22.3698 14.1742 22.3698 14.1742H22.1079C22.1079 14.1742 22.0837 14.9591 22.0595 15.9823C22.037 17.0043 21.7515 18.0753 21.7515 18.0753C21.8224 18.8839 21.2999 20.3102 21.0859 20.8321C20.8702 21.3564 20.1827 22.7118 20.0155 23.4713C19.8488 24.2321 19.065 24.3993 19.065 24.3993L18.9462 24.5187C19.3268 24.8757 20.8962 27.4913 20.8962 27.4913C20.8962 27.4913 22.6558 30.7015 23.4644 32.1774C24.2724 33.6504 25.5574 35.7428 25.5574 35.7428C26.0263 35.7607 26.3891 36.4591 26.5241 36.7544C26.6469 36.8259 26.8967 36.9961 27.3638 37.3364C28.838 38.4074 29.6229 41.3084 30.2181 42.7347C30.811 44.1604 31.9542 46.1831 31.9542 46.1831C33.4053 46.6111 33.2144 48.9884 33.2144 48.9884C33.2144 48.9884 33.1192 49.7491 33.1192 51.3185C33.1192 52.8878 32.8101 53.0793 32.8101 53.0793C33.095 53.911 32.5026 54.6971 32.5026 54.6971C32.6439 55.3857 32.2172 55.8373 32.2172 55.8373C32.1439 57.195 31.5995 57.5739 31.5995 57.5739C31.6468 58.2395 31.0988 58.7135 31.0988 58.7135C31.0988 58.7135 29.4107 62.6643 28.4827 64.7556C27.5541 66.848 25.9381 70.5334 25.5332 72.6039C25.2973 73.8128 24.9472 74.0637 24.6992 74.0637C24.5204 74.0637 24.3936 73.9357 24.3936 73.9357C24.2038 74.8388 23.093 75.7322 22.6304 76.1654C22.368 76.4122 21.6038 76.7686 20.8097 76.7686C20.2052 76.7686 19.5829 76.5599 19.1578 75.9347C18.1733 74.4888 19.5656 71.9378 19.5656 71.9378L19.1613 71.7475C18.915 71.917 18.7334 71.9828 18.5996 71.9828C18.111 71.9828 18.2581 71.1038 18.2581 71.1038L18.9243 69.298C18.8216 69.4503 18.7057 69.4953 18.607 69.4953C18.4767 69.4953 18.3758 69.4186 18.3758 69.4186C18.3758 70.098 17.7604 70.226 17.2949 70.226C17.0112 70.226 16.7822 70.1781 16.7822 70.1781L16.4269 71.8894C15.702 73.4131 14.4141 74.5862 13.023 74.5862C12.6314 74.5862 12.2328 74.4945 11.8354 74.2909C10.0291 73.3635 12.7646 69.0829 12.7646 69.0829L12.7392 68.7749C12.0979 68.7046 12.2651 67.8948 12.2651 67.8948C12.2651 67.325 12.0039 67.2529 12.0039 67.2529C10.7194 66.3018 10.6006 63.3304 10.6006 63.3304C10.5533 62.6314 11.4686 62.5103 12.1106 62.5103C12.452 62.5103 12.7167 62.5455 12.7167 62.5455C12.5495 61.6896 13.027 61.2599 13.027 61.2599C12.8598 60.1681 13.3575 59.2401 13.3575 59.2401C13.1902 58.7164 13.3823 56.6476 13.4054 55.7202C13.4296 54.7928 13.3102 53.5793 13.0968 52.6029C12.884 51.6293 13.241 50.2965 13.2156 49.489C13.1902 48.681 12.8355 48.2525 13.1677 47.2536C13.5005 46.2558 13.4296 45.8284 13.4296 45.8284C12.9307 45.0907 13.5005 44.9235 13.3344 44.5428C13.1677 44.1622 13.1677 42.5231 13.1677 42.5231C13.027 41.5709 13.4054 41.0702 13.4054 41.0702C13.027 40.8338 12.8598 40.0973 12.3603 39.2644C11.8602 38.4305 11.2662 37.5279 10.5758 37.1703C9.88719 36.8133 9.95756 36.5059 9.74301 36.0525C9.52961 35.6009 10.1473 35.6252 8.19847 33.8413C6.24791 32.058 5.24898 29.086 5.24898 29.086C4.20276 28.5387 4.51305 27.7289 4.51305 27.7289C3.77539 27.5616 4.10933 26.7323 4.29793 26.1849C4.48883 25.6382 4.29793 25.0424 4.29793 25.0424C3.63178 24.686 4.98656 23.1876 4.98656 23.1876C4.46518 23.1876 4.10933 22.9009 4.10933 22.9009C3.36994 22.2135 3.82326 20.643 3.82326 20.643L2.65765 21.0467L2.29892 19.8574L2.20548 19.358L1.99151 19.0961C1.51512 18.7899 1.99151 18.3602 1.99151 18.3602V16.9327L1.53934 16.6957L1.56299 16.4125L1.39688 15.7677L1.63566 15.5785L1.82541 15.7204L1.99151 15.6005V15.101C1.65815 10.6312 5.51141 10.0147 5.51141 10.0147C6.02644 9.89469 6.49361 9.84163 6.92098 9.84163C10.4726 9.84221 11.0989 13.557 11.0989 13.557L11.9566 13.9371L12.0973 14.6275L12.2173 14.5312C12.6919 14.2209 13.2404 11.8908 13.2404 11.8908C13.4521 10.6785 13.8102 9.634 13.8102 9.634C13.429 9.27526 14.1655 9.10916 14.1655 9.10916L14.2365 8.96613C13.6188 7.23069 14.665 6.51783 14.665 6.51783C14.2607 5.96934 15.0208 4.94734 15.0208 4.94734C15.0456 4.11683 15.973 4.09145 15.973 4.09145C16.6207 3.83537 17.2257 3.73675 17.7731 3.73675C19.6123 3.73675 20.801 4.85334 20.801 4.85334L21.3708 4.52055C21.6159 4.12375 21.9804 4.00436 22.33 4.00436C22.8658 4.00436 23.3698 4.28351 23.3698 4.28351C24.9859 3.71195 28.0288 2.09475 28.5058 1.57164C28.7544 1.29711 29.0958 1.23135 29.3628 1.23135ZM16.6859 19.6677C16.6859 19.6677 17.1133 19.3107 17.3515 18.5978C17.5891 17.885 18.3267 16.5071 18.7778 15.7683C19.2294 15.0324 19.73 13.628 19.7536 13.2237L19.5396 13.106C19.5396 13.106 18.9929 13.0351 19.4208 12.0587L19.5869 10.9669C19.5869 10.9669 19.516 10.7512 19.9428 10.7512L19.4433 9.56248C19.4433 9.56248 19.3857 9.54576 19.2842 9.54576C19.0546 9.54576 18.599 9.62477 18.0418 10.1329C18.0418 10.1329 16.8284 14.556 16.6127 15.8415C16.4004 17.1237 16.2089 17.1715 16.2089 17.1715C16.2089 17.1715 16.5198 18.6699 16.6611 19.3107L16.6859 19.6677ZM19.7998 66.8734L23.5573 56.0784L23.987 54.7455C23.987 54.7455 23.2256 53.0799 24.0348 52.5573C24.0348 52.5573 23.4633 50.9396 24.4132 50.3213L22.9402 49.2756C22.9402 49.2756 21.6546 51.5578 20.7508 54.5062C20.7508 54.5062 20.1337 57.6448 19.61 57.8836L18.5165 62.4018L18.6584 62.9244C18.6584 62.9244 19.5149 63.1626 19.7525 64.1142C19.7525 64.1142 20.2756 65.3502 19.5149 66.2545L19.7998 66.8734ZM29.3628 0C28.6557 0 28.0271 0.265303 27.5916 0.746888C27.2565 1.0566 24.9968 2.31449 23.39 2.95872C23.1016 2.86125 22.7302 2.773 22.3294 2.773C21.7267 2.773 21.1943 2.96737 20.7785 3.33072C20.1066 2.93564 19.0731 2.50481 17.7725 2.50481C17.0775 2.50481 16.3802 2.63055 15.695 2.87855C14.8553 2.98813 14.0473 3.54239 13.8385 4.4946C13.5236 4.99925 13.2987 5.60022 13.3148 6.18389C12.9613 6.71681 12.7063 7.48735 12.8476 8.47416C12.7035 8.62988 12.5841 8.8254 12.5172 9.06994C12.4589 9.28161 12.4537 9.49846 12.4941 9.70724C12.3632 10.1502 12.1705 10.8602 12.0327 11.6417C11.9987 11.7801 11.9629 11.9208 11.9254 12.0615C11.2495 10.4628 9.7257 8.61027 6.91809 8.61027C6.39441 8.61027 5.84015 8.67602 5.26917 8.80579C3.60352 9.09243 0.662683 10.6791 0.738237 14.7157L0.630961 14.7999L0 15.2982L0.202437 16.0763L0.316058 16.5181L0.31029 16.5925L0.240504 17.4063L0.75727 17.6785V17.9628C0.624041 18.2079 0.520226 18.5228 0.550793 18.8954C0.583091 19.2911 0.759578 19.6481 1.05718 19.9255L1.08717 20.0841L1.09928 20.1493L1.11889 20.211L1.47647 21.4008L1.84617 22.6293L2.5175 22.398C2.6069 22.849 2.79492 23.3018 3.14732 23.6824C2.94199 24.1138 2.82895 24.5695 2.9045 25.009C2.94257 25.2316 3.02735 25.438 3.14962 25.6197C3.15077 25.6809 3.14616 25.7414 3.13347 25.7783L3.1029 25.8672C2.91892 26.3943 2.60979 27.2767 3.04869 28.0663C3.11098 28.1805 3.18538 28.2849 3.27247 28.38C3.36244 28.9003 3.64505 29.458 4.23679 29.9015C4.60937 30.8514 5.64579 33.1774 7.36623 34.7496C8.11888 35.4371 8.37438 35.7601 8.4557 35.8789C8.46551 36.0496 8.49377 36.2936 8.62642 36.5768C8.66045 36.6466 8.68006 36.7083 8.69967 36.7637C8.86923 37.2481 9.12531 37.8058 10.0083 38.2626C10.4645 38.4979 11.0741 39.5142 11.3031 39.8966C11.4658 40.1671 11.5898 40.4358 11.7097 40.6942C11.7997 40.8897 11.8925 41.0887 11.9998 41.279C11.9145 41.632 11.8683 42.0761 11.9347 42.6067C11.9387 43.7262 12.0142 44.3294 12.0892 44.6634C11.9825 44.9881 11.8966 45.4979 12.1861 46.1254C12.1636 46.276 12.1129 46.5176 11.9992 46.8631C11.6745 47.8366 11.8101 48.5132 11.9087 49.0063C11.9468 49.203 11.9785 49.3564 11.9848 49.5259C11.9912 49.7388 11.9508 50.0779 11.9075 50.4349C11.8193 51.195 11.7161 52.0561 11.8937 52.8653C12.0858 53.7431 12.1953 54.8505 12.1734 55.6868C12.1677 55.9371 12.148 56.2704 12.1279 56.6332C12.0633 57.7994 12.0315 58.5526 12.0834 59.0827C11.9283 59.4887 11.7414 60.1496 11.7622 60.919C11.6999 61.0361 11.6428 61.163 11.5949 61.3014C10.8192 61.3723 10.2465 61.614 9.85374 62.035C9.50712 62.4053 9.33582 62.8944 9.37043 63.4129C9.39177 63.9435 9.5746 66.6848 11.013 68.028C11.002 68.3383 11.0459 68.7651 11.2823 69.1636C10.6174 70.3546 9.68129 72.4015 10.0873 73.9051C10.2667 74.5689 10.6762 75.0811 11.272 75.3867C11.8314 75.6722 12.4191 75.8176 13.0218 75.8176C14.7388 75.8176 16.4027 74.6168 17.4155 72.6639C17.4189 72.6674 17.4213 72.6708 17.4253 72.6749C17.5389 72.8093 17.6727 72.9212 17.8198 73.0077C17.5158 74.0937 17.3751 75.5061 18.1399 76.6279C18.7414 77.5121 19.6896 78 20.8091 78C21.9037 78 22.9776 77.5294 23.4731 77.0628L23.6588 76.8926C24.0919 76.5033 24.7246 75.9335 25.1601 75.2333C25.9416 75.0159 26.4733 74.2131 26.7415 72.8393C27.1348 70.8293 28.8686 66.9218 29.6085 65.2539C30.409 63.4504 31.7881 60.235 32.1451 59.3999C32.3735 59.1363 32.6907 58.6743 32.7968 58.0693C33.0517 57.7054 33.317 57.1327 33.4156 56.2681C33.6123 55.9267 33.7605 55.4832 33.7628 54.9826C33.9624 54.5846 34.1816 53.9663 34.1048 53.2592C34.2721 52.7903 34.3511 52.1542 34.3511 51.3196C34.3511 49.8685 34.4359 49.147 34.4359 49.1395C34.5322 47.9653 34.2686 46.0084 32.8285 45.2194C32.483 44.5907 31.769 43.2578 31.3555 42.2641C31.2401 41.985 31.1161 41.647 30.9818 41.2784C30.3825 39.6474 29.5635 37.4131 28.0882 36.3415C27.8125 36.1408 27.6182 36.0023 27.4751 35.9049C27.1308 35.2785 26.745 34.9209 26.3799 34.7248C25.9785 34.0627 25.1289 32.648 24.5458 31.5856L21.9776 26.9007C21.5629 26.2092 21.09 25.4375 20.6735 24.8071C20.9204 24.5326 21.1222 24.1807 21.2191 23.7372C21.3132 23.3116 21.7105 22.4447 21.9487 21.9251C22.0635 21.6725 22.1633 21.4539 22.2261 21.3005C22.4678 20.7116 22.9984 19.2916 22.9903 18.2004C23.082 17.8146 23.2718 16.9068 23.292 16.0111C23.2966 15.7971 23.3018 15.5935 23.3064 15.4061H23.4425L23.5902 14.3443C23.6513 13.9014 23.732 13.4365 23.8105 13.0495C24.089 13.1118 24.3624 13.1556 24.5833 13.1556C24.7125 13.1556 24.8261 13.1424 24.9213 13.1227C25.5534 12.9953 26.0096 12.6983 26.279 12.2374C26.3182 12.1705 26.3568 12.0938 26.3914 12.0073L26.9526 11.8793L27.0628 11.0303C27.1054 10.701 27.2508 9.44541 27.1458 8.25903C28.7353 7.91183 31.4184 7.05248 33.6636 4.97676L33.9313 4.78413L34.2865 4.53035L34.4001 4.11048L34.6066 3.36013C34.7202 3.00082 34.6856 2.59363 34.5057 2.22451C34.1867 1.56241 33.475 1.09236 32.2679 0.746311L30.1426 0.106697C30.0515 0.0790131 29.7516 0 29.3628 0ZM21.9464 54.8084C22.0998 54.3118 22.2648 53.8354 22.432 53.3867C22.4286 53.855 22.5261 54.3406 22.6795 54.7882L22.3853 55.7006L20.0703 62.3505C19.9947 62.2819 19.9168 62.2213 19.8419 62.1665L20.7243 58.5198C21.0801 58.037 21.5035 57.0387 21.9464 54.8084Z" fill="white"/>
</svg>
