<svg width="20" height="20" viewBox="0 0 20 20" fill="none" xmlns="http://www.w3.org/2000/svg">
<path d="M9.33008 14.3526H10.6686V15.691H9.33008V14.3526Z" fill="#666666"/>
<path d="M14.6641 14.3526H16.0025V15.691H14.6641V14.3526Z" fill="#666666"/>
<path d="M3.99609 9.32812H5.33459V10.6665H3.99609V9.32812Z" fill="#666666"/>
<path d="M3.99609 14.3526H5.33459V15.691H3.99609V14.3526Z" fill="#666666"/>
<path d="M17.8437 1.2551H17.4049V3.09614C17.4049 3.4197 17.1426 3.68203 16.8191 3.68203C16.4955 3.68203 16.2332 3.4197 16.2332 3.09614V1.2551V0.585894C16.2332 0.262324 15.9708 0 15.6473 0C15.3237 0 15.0614 0.262324 15.0614 0.585894V1.2551H13.6396V3.09614C13.6396 3.4197 13.3773 3.68203 13.0537 3.68203C12.7301 3.68203 12.4678 3.4197 12.4678 3.09614V1.2551V0.585894C12.4678 0.262324 12.2055 0 11.8819 0C11.5584 0 11.296 0.262324 11.296 0.585894V1.2551H9.87426V3.09614C9.87426 3.4197 9.61194 3.68203 9.28837 3.68203C8.9648 3.68203 8.70247 3.4197 8.70247 3.09614V1.2551V0.585894C8.70247 0.262324 8.44015 0 8.11658 0C7.79301 0 7.53069 0.262324 7.53069 0.585894V1.2551H6.10892V3.09614C6.10892 3.4197 5.84659 3.68203 5.52302 3.68203C5.19945 3.68203 4.93713 3.4197 4.93713 3.09614V1.2551V0.585894C4.93713 0.262324 4.67481 0 4.35124 0C4.02767 0 3.76534 0.262324 3.76534 0.585894V1.2551H2.15476C0.966646 1.2551 0 2.22175 0 3.4099V5.02044H19.9985V3.4099C19.9985 2.22175 19.0319 1.2551 17.8437 1.2551Z" fill="#666666"/>
<path d="M0 17.8442C0 19.0323 0.966646 19.999 2.15476 19.999H17.8437C19.0319 19.999 19.9985 19.0323 19.9985 17.8442V6.19269H0V17.8442ZM11.8402 16.2753C11.8402 16.5988 11.5779 16.8611 11.2544 16.8611H8.74407C8.4205 16.8611 8.15818 16.5988 8.15818 16.2753V13.765C8.15818 13.4415 8.4205 13.1792 8.74407 13.1792H11.2544C11.5779 13.1792 11.8402 13.4415 11.8402 13.765V16.2753ZM13.4925 8.74461C13.4925 8.42104 13.7548 8.15871 14.0784 8.15871H16.5886C16.9122 8.15871 17.1745 8.42104 17.1745 8.74461V11.2548C17.1745 11.5784 16.9122 11.8407 16.5886 11.8407H14.0784C13.7548 11.8407 13.4925 11.5784 13.4925 11.2548V8.74461ZM13.4925 13.765C13.4925 13.4415 13.7548 13.1792 14.0784 13.1792H16.5886C16.9122 13.1792 17.1745 13.4415 17.1745 13.765V16.2753C17.1745 16.5988 16.9122 16.8611 16.5886 16.8611H14.0784C13.7548 16.8611 13.4925 16.5988 13.4925 16.2753V13.765ZM8.25376 9.58544C8.48253 9.35667 8.85352 9.35667 9.08233 9.58544L9.55557 10.0586L10.9162 8.69797C11.145 8.4692 11.5159 8.46912 11.7448 8.69797C11.9736 8.92674 11.9736 9.29769 11.7448 9.52654L9.96992 11.3015C9.86004 11.4114 9.71099 11.4732 9.55561 11.4732C9.40023 11.4732 9.25122 11.4114 9.14135 11.3015L8.2538 10.414C8.02495 10.1852 8.02495 9.81421 8.25376 9.58544ZM2.82397 8.74461C2.82397 8.42104 3.08629 8.15871 3.40986 8.15871H5.92014C6.24371 8.15871 6.50604 8.42104 6.50604 8.74461V11.2548C6.50604 11.5784 6.24371 11.8407 5.92014 11.8407H3.40986C3.08629 11.8407 2.82397 11.5784 2.82397 11.2548V8.74461ZM2.82397 13.765C2.82397 13.4415 3.08629 13.1792 3.40986 13.1792H5.92014C6.24371 13.1792 6.50604 13.4415 6.50604 13.765V16.2753C6.50604 16.5988 6.24371 16.8611 5.92014 16.8611H3.40986C3.08629 16.8611 2.82397 16.5988 2.82397 16.2753V13.765Z" fill="#666666"/>
<path d="M14.6641 9.32812H16.0025V10.6665H14.6641V9.32812Z" fill="#666666"/>
</svg>
