<svg width="29" height="79" viewBox="0 0 29 79" fill="none" xmlns="http://www.w3.org/2000/svg">
<path d="M16.9799 77.5606C16.7882 77.5606 16.6199 77.5145 16.4771 77.4238L16.4081 77.3787L16.3533 77.3169C16.2632 77.2142 15.85 76.7136 15.7685 76.1761C15.5975 75.8579 15.2093 75.006 15.2679 73.9467C15.1121 73.8832 14.9818 73.7773 14.8867 73.6378C14.5838 73.1871 14.8178 72.6154 14.8949 72.4275L14.921 72.364L15.1267 72.0811L15.1338 72.0034C15.1257 71.9931 15.118 71.9828 15.1104 71.9725C14.9671 71.7759 14.921 71.5278 14.9715 71.2346C14.8922 71.1157 14.7277 70.8866 14.4127 70.5184C14.0875 70.1378 13.7959 69.735 13.79 69.3256L13.0912 68.9949C12.5325 68.7397 11.2239 68.0377 11.2885 67.1043C11.3385 66.3947 12.0492 64.9015 12.5569 64.2554L12.5982 63.309L12.1616 61.3799C12.1524 61.3652 11.642 59.8645 12.1801 58.3616C12.1035 58.2866 12.0346 58.1954 11.9814 58.083C11.8956 57.9006 11.8364 57.6253 11.9613 57.268C11.8141 56.9629 11.6409 56.4536 11.6545 55.7624C11.6056 55.4225 11.4476 53.8925 12.3544 52.8375L12.3278 52.787C12.3088 52.7381 12.1491 52.2918 12.2034 51.6555C12.2176 51.4942 12.1915 51.1614 12.1643 50.7563C12.1024 49.7947 12.0226 48.5959 12.2083 47.8645C12.5412 46.5522 12.4814 46.183 12.4651 46.1216C12.3929 45.8425 12.4206 45.5222 12.4467 45.2116C12.463 45.0102 12.4814 44.8017 12.4641 44.673C12.4478 44.5557 12.4358 44.3831 12.4239 44.1854C12.4054 43.9042 12.3625 43.2461 12.2735 43.0827C11.92 42.6537 11.5883 41.5814 11.6936 40.6339C11.7142 40.4526 11.7007 40.2625 11.6914 40.0774C11.6583 39.4779 11.6116 38.5897 12.5553 38.1336C12.2317 37.9441 11.8478 37.6498 11.5285 37.2008C10.8612 36.2577 10.3851 35.4953 10.2254 34.8416C10.17 34.6163 9.98979 34.1558 9.81604 33.7112C9.57008 33.0878 9.29263 32.3798 9.16612 31.8537C9.00649 31.1918 8.74044 30.1369 8.61936 29.6596C8.10789 29.3816 6.89166 28.6806 6.15975 27.92C5.23726 26.9622 4.87239 26.575 4.66986 26.3117C4.61719 26.2438 4.56887 26.2118 4.34246 26.0793C4.21812 26.0066 4.06337 25.9159 3.86682 25.7883C3.34395 25.4517 2.77873 25.0873 2.76461 24.4602C2.75592 24.0638 2.9818 23.7006 3.43463 23.3792C3.46123 23.3325 3.57634 23.1321 3.57363 23.0583L3.54973 22.9008C3.44711 22.2373 3.13328 20.2197 3.5519 18.5115C3.8918 17.1248 3.8728 16.3212 3.86139 15.8413C3.85759 15.7251 3.85542 15.6279 3.85759 15.5481C3.87442 15.0963 3.88854 14.7173 3.43028 14.145C2.88406 13.468 2.27757 13.1384 2.2716 13.1351L2.19233 13.0923L2.12663 13.026C2.12229 13.0211 1.77969 12.6682 1.31057 12.2371C0.958186 12.0237 0.484179 11.5057 0.598744 10.6924L0.618288 10.555C0.710048 9.91539 0.755118 9.59396 1.02606 9.21986C1.26387 8.89191 1.49898 8.69047 1.52612 8.66821C1.56196 8.60848 1.8671 8.28705 2.26129 8.28705H2.39105L2.56915 8.35601C2.69457 8.41356 2.81999 8.49609 2.91284 8.6112C3.2435 8.61174 3.54159 8.70296 3.78375 8.87508L4.17468 8.70078C4.23115 8.67635 4.43313 8.59437 4.65249 8.59437C4.98641 8.59437 5.25789 8.77897 5.36376 9.07597C5.37191 9.09986 5.37897 9.12375 5.38603 9.14655C5.57769 9.24863 5.7042 9.40664 5.74981 9.60862C5.87632 10.1668 5.3996 10.4752 5.22042 10.5908C5.2215 10.5903 5.22314 10.5903 5.22314 10.5903C5.26169 10.5903 5.13735 10.9801 5.43706 11.3325C5.57063 11.49 5.68737 11.6062 5.78782 11.7061C6.18364 12.1003 6.43014 12.4011 6.4638 13.1813C6.51973 13.3947 6.59031 13.7226 6.56262 13.9507C6.56262 13.9822 6.59846 14.0636 6.61475 14.0978C6.72551 14.34 6.83301 15.0002 6.83301 15.4291C6.83301 15.8163 6.90577 16.7209 6.90903 16.773C6.91337 16.7735 7.23915 18.334 7.42538 19.2836C7.42538 19.2836 7.64474 20.3478 7.67569 20.5113C7.70501 20.5145 7.7365 20.5194 7.76745 20.5248C8.15078 20.3315 8.95056 19.9721 9.63795 19.9618C9.67107 19.9102 9.70745 19.8602 9.74654 19.8146C9.43217 19.4313 8.80884 18.6429 8.59057 18.1651C8.52488 18.0234 8.37068 17.6879 8.57211 17.3713L8.74261 17.1036L9.09987 17.0852C9.30185 17.0852 9.46854 17.1748 9.63035 17.2611C9.67541 17.2855 9.72102 17.3127 9.76011 17.3273C9.76229 17.3268 9.84753 17.3301 9.92083 17.3387C9.92083 17.3317 9.92083 17.3246 9.91975 17.3181C9.85459 17.2774 9.79323 17.228 9.74111 17.1699C9.55596 16.9684 9.47832 16.6948 9.50873 16.3565C9.54456 15.9618 9.59126 15.7946 9.63632 15.6567C9.63904 15.3168 9.77206 15.0301 9.98435 14.8612L10.0316 14.227C10.0213 14.1744 9.95938 13.2063 10.5083 12.6964C10.568 12.0655 10.947 11.3103 11.9032 11.0762C12.0509 10.9899 12.2892 10.8938 12.6226 10.8938C12.8121 10.8938 13.0086 10.9258 13.2101 10.9877C13.3914 11.0437 13.5809 11.0708 13.7867 11.0708C13.9491 11.0708 14.0837 11.054 14.1776 11.0426L14.3123 11.0285L14.5126 11.0209C15.2098 11.0209 15.7832 11.3836 16.1258 12.0427C16.2094 12.2029 16.2936 12.3446 16.3712 12.4782C16.5786 12.8305 16.7779 13.1699 16.8604 13.6081C16.8946 13.5027 16.9418 13.393 17.0043 13.279C17.0401 12.8827 17.1411 12.6296 17.2693 12.4722C17.3496 11.9705 17.5657 10.9666 18.0924 10.2906C18.0777 10.2732 18.0565 10.2542 18.0305 10.2298C17.4653 9.74218 15.6458 8.25719 15.6458 8.25719L13.0456 6.3856L12.6606 6.17765C12.476 6.13856 12.0742 6.04299 11.7387 5.88011C11.6089 5.81767 11.5617 5.81061 11.5595 5.81061C11.2435 6.1239 10.0539 6.33945 10.0414 6.34216C9.9697 6.35411 9.88717 6.37311 9.79758 6.39266C9.54184 6.45076 9.22258 6.52189 8.92286 6.52189C8.52976 6.52189 8.27892 6.39429 8.12037 6.24932C7.95857 6.19557 7.77234 6.08969 7.65614 5.88282C7.54864 5.6917 7.53507 5.46583 7.61325 5.24756C7.59045 5.08738 7.59913 4.88595 7.70609 4.68505C7.73487 4.63239 7.77179 4.57537 7.82012 4.51999C7.76637 4.41683 7.72998 4.29901 7.71641 4.16815C7.68437 3.84781 7.80165 3.64311 7.90481 3.52854C8.13992 3.26847 8.46135 3.26847 8.6541 3.26847C8.6541 3.26847 8.90332 3.26358 8.92016 3.26304C8.74478 3.02631 8.62967 2.68967 8.8702 2.26562C9.04014 1.96428 9.3138 1.79162 9.62166 1.79162C9.74817 1.79162 9.86273 1.81985 9.96372 1.8622C9.88391 1.62058 9.84644 1.34802 9.93657 1.10206C10.0213 0.874015 10.1967 0.706239 10.4323 0.629682C10.5311 0.597647 10.6294 0.58136 10.7255 0.58136C11.1577 0.58136 11.4536 0.854467 11.604 1.39254C11.7609 1.75469 11.8527 1.92627 11.9075 2.01097C12.3435 2.07938 12.7573 2.36227 13.0705 2.81129C13.1916 2.97093 13.8388 3.20766 14.1157 3.30919C14.3536 3.39606 14.5534 3.47316 14.6668 3.5356C14.8954 3.66211 17.0282 4.70351 18.4062 5.37298C18.6299 5.46257 20.874 6.40189 21.7356 7.5698C21.9333 7.74517 22.3894 8.23113 22.4638 9.03796C22.5099 9.55758 22.4741 9.96534 22.442 10.3248C22.4268 10.5126 22.4089 10.6907 22.4089 10.8737C22.4089 11.0513 22.3926 11.3868 22.372 11.7794C22.3421 12.3245 22.2927 13.2774 22.3161 13.6982C22.562 13.9518 22.8254 14.2129 22.9008 14.2699C23.3624 14.5718 23.636 14.9291 23.7098 15.3254C23.7511 15.5497 23.7446 15.8939 23.4824 16.2593C23.0675 16.83 22.7608 17.3594 22.7553 17.3697L22.5501 17.7742C22.5067 18.0207 22.378 18.8313 22.3519 19.7022C22.3177 20.8126 22.1765 22.2645 22.1706 22.3264L22.1581 22.5653C22.2716 22.827 22.3954 23.3118 22.3144 24.1105L22.3383 24.3853L22.6348 26.4208L22.6397 27.0262C22.8851 27.8206 23.3689 29.4451 23.4449 30.1369C23.6767 30.5832 24.3989 32.1415 24.249 33.9772L24.2691 33.9995C24.3136 33.9968 24.3598 33.9957 24.4103 33.9957C25.4071 33.9957 26.0994 34.4382 26.3199 35.213C26.9177 35.6446 27.9249 36.528 27.5806 37.3908L27.5138 37.5868L27.4574 37.6829L27.3624 39.4785C27.2858 40.4178 26.9714 43.3102 25.9246 44.2717C25.7193 46.3849 25.1188 46.6852 24.7865 46.7281C24.7751 46.9713 24.7844 47.182 24.8137 47.2602C24.8229 47.2667 24.9087 47.3465 24.9712 47.4057C25.3154 47.7299 25.9572 48.3342 25.7134 49.4337C25.4728 50.5152 25.2193 51.2895 24.7458 51.7108L24.7165 52.8272C24.8072 53.0753 24.9896 53.6546 25.0987 54.5636C25.1373 54.885 25.1883 55.2499 25.2399 55.6142C25.3952 56.7408 25.4919 57.4744 25.4365 57.8751C25.4365 58.2568 25.3805 59.5843 24.6231 60.0942C24.1366 60.4216 23.5855 60.7924 22.8455 60.7924C22.7352 60.7924 22.6212 60.7842 22.5023 60.7674C22.4127 60.7538 22.3182 60.7506 22.2238 60.7457C21.228 60.6963 20.3125 60.37 20.3446 58.3447C20.3772 56.2967 20.3674 55.2113 20.3674 55.2064C20.3674 54.828 20.3468 53.7649 20.2572 53.3392C19.9091 51.6902 20.2626 51.2537 20.3799 51.1109C20.3842 51.106 20.3886 51.1 20.3929 51.0957L20.3837 51.0653C20.293 50.9827 20.1915 50.8855 20.0861 50.7786C19.9667 51.4752 19.831 52.2538 19.7544 52.6322C19.6501 53.1481 19.5595 53.4934 19.478 53.8083C19.4378 53.9658 19.3988 54.1145 19.3613 54.2752C19.2587 54.7161 19.2397 54.8953 19.1848 55.6989C19.1294 56.5242 18.9655 57.8094 18.8857 58.4267C18.8178 58.9452 18.8384 59.3671 18.9519 59.922C19.0588 60.4465 19.0187 61.198 18.821 62.2888C18.707 62.9116 18.726 63.2042 18.726 63.2069C18.7309 63.2759 18.7602 63.8275 18.5387 64.8993C18.3753 65.6948 18.2368 66.8393 18.1879 67.2628C18.2938 67.4849 18.4741 67.8878 18.5474 68.2049C18.5523 68.2271 18.5577 68.2467 18.562 68.2662C18.6207 68.3053 18.6788 68.3564 18.732 68.4183C18.9557 68.68 19.0181 69.0465 18.9161 69.5074L18.8992 69.5791C19.0513 69.8452 19.1555 70.2263 19.0361 70.6824C19.1957 70.8638 19.4167 71.1309 19.5524 71.3617C19.7739 71.7423 19.8386 71.9893 19.8505 72.0344L19.9493 72.2342C20.2669 72.8179 20.5922 73.6562 20.2691 74.1829L20.4065 74.2942L20.3598 74.513C20.4505 74.6205 20.5308 74.7584 20.5694 74.93C20.6155 75.1363 20.6133 75.4534 20.3408 75.7949L20.2919 75.8547L20.2311 75.9003C19.6995 76.2901 17.8926 77.5606 16.9799 77.5606Z" fill="#333334"/>
<path d="M10.7228 1.15922C10.9943 1.15922 11.0274 1.54798 11.0758 1.6468C11.1317 1.75865 11.4542 2.57255 11.6991 2.57255C11.944 2.57255 12.2893 2.70666 12.5906 3.13994C12.8914 3.57485 14.0609 3.86425 14.3851 4.04234C14.7076 4.22152 18.1489 5.8922 18.1489 5.8922C18.1489 5.8922 20.5575 6.87333 21.3035 7.96468C21.3035 7.96468 21.815 8.34258 21.8828 9.08915C21.9496 9.83518 21.8264 10.3374 21.8264 10.8717C21.8264 11.406 21.6597 13.4459 21.7596 13.9573C21.7596 13.9573 22.4187 14.6491 22.5735 14.7479C22.7282 14.85 23.4422 15.3175 23.0084 15.9196C22.5735 16.5196 22.2504 17.0783 22.2504 17.0783L21.9936 17.5897C21.9936 17.5897 21.8041 18.5812 21.7715 19.685C21.7373 20.7872 21.5934 22.269 21.5934 22.269L21.5701 22.693C21.5701 22.693 21.8389 23.0481 21.7379 24.0521L21.7596 24.4186L22.0609 26.5024V27.1154C22.0609 27.1154 22.896 29.8107 22.8748 30.301C22.8748 30.301 23.888 32.0499 23.6551 34.1006L23.7322 34.2668L24.0335 34.6018C24.0335 34.6018 24.1899 34.5741 24.4109 34.5741C24.8648 34.5741 25.5913 34.6914 25.771 35.4026L25.8378 35.5818C25.8378 35.5818 27.2869 36.5619 27.0426 37.1743L26.9861 37.3415L26.8868 37.5093L26.7847 39.4472C26.7847 39.4472 26.4627 43.414 25.3708 43.9608C25.3708 43.9608 25.2036 46.1543 24.647 46.1543C24.0894 46.1543 24.2567 46.1657 24.2567 46.1657C24.2567 46.1657 24.1231 47.1023 24.2795 47.4802C24.4342 47.8587 25.3931 48.2046 25.1493 49.3073C24.9033 50.4095 24.6574 51.1018 24.2567 51.357L24.1671 51.4791V51.7582L24.1339 52.9283C24.1339 52.9283 24.3891 53.5082 24.5249 54.6327C24.6568 55.7577 24.9468 57.4066 24.8577 57.8291C24.8577 57.8291 24.88 59.2228 24.3006 59.6121C23.7989 59.9493 23.3895 60.2121 22.846 60.2121C22.763 60.2121 22.6761 60.2062 22.586 60.1931C21.9056 60.091 20.8925 60.4146 20.9251 58.3536C20.9576 56.2914 20.9478 55.2001 20.9478 55.2001C20.9478 55.2001 20.9479 53.7976 20.8251 53.2182C20.7035 52.6433 20.5048 51.3684 21.0548 51.3684C21.0592 51.3684 21.0651 51.3684 21.0695 51.3684L20.9473 50.9226V50.789C20.9473 50.789 19.8429 49.8313 19.7436 49.3187C19.7436 49.3187 19.3429 51.7474 19.187 52.5157C19.0318 53.2845 18.909 53.6635 18.7972 54.1424C18.6848 54.6223 18.6631 54.8341 18.6072 55.6583C18.5512 56.4825 18.384 57.7856 18.3064 58.3878C18.2282 58.9883 18.2722 59.49 18.384 60.0367C18.4958 60.5813 18.384 61.4506 18.2515 62.1852C18.1163 62.9209 18.1494 63.2549 18.1494 63.2549C18.1494 63.2549 18.1836 63.7566 17.9724 64.7822C17.7612 65.8079 17.594 67.3656 17.594 67.3656C17.594 67.3656 17.8953 67.9564 17.9838 68.3359C18.0685 68.6942 18.1234 68.7035 18.1288 68.7035C18.1288 68.7035 18.4969 68.7252 18.352 69.3827L18.2732 69.7074C18.2732 69.7074 18.6636 70.0511 18.4405 70.6533L18.4296 70.8748C18.4296 70.8748 18.8645 71.3325 19.0535 71.655C19.2419 71.9792 19.2875 72.1686 19.2875 72.1686L19.42 72.4695C19.42 72.4695 20.0107 73.5608 19.7669 73.8942L19.6214 74.0733L19.6431 74.4181L19.7669 74.5197L19.7213 74.7314C19.7213 74.7314 20.2458 74.9877 19.8891 75.4335C19.8891 75.4335 17.7743 76.982 16.981 76.982C16.9055 76.982 16.8409 76.969 16.792 76.9369C16.792 76.9369 16.3354 76.413 16.3354 76.0009C16.3354 76.0009 15.6225 74.8758 15.9124 73.4956L15.8896 73.4061C15.8896 73.4061 15.7827 73.4403 15.6611 73.4403C15.4336 73.4403 15.1561 73.3224 15.4325 72.6476L15.6893 72.2924L15.7452 71.7131C15.7452 71.7131 15.7436 71.7131 15.7403 71.7131C15.6996 71.7131 15.4129 71.6947 15.5894 71.1566C15.5894 71.1566 15.5107 70.9106 14.8542 70.1423C14.1961 69.3735 14.3189 69.1612 14.5865 69.0607L13.3388 68.4716C13.3388 68.4716 11.8234 67.7799 11.8679 67.1463C11.9119 66.511 12.7253 64.8626 13.1276 64.4836L13.1824 63.257L12.7269 61.253C12.7269 61.253 12.1362 59.5595 12.9272 58.1103C12.9272 58.1103 12.1573 57.999 12.615 57.2421C12.615 57.2421 12.2013 56.7073 12.2355 55.7262C12.2355 55.7262 11.9358 54.0555 12.9044 53.0977C12.9044 53.0977 13.2161 52.8414 12.8702 52.5846C12.8702 52.5846 12.7367 52.2295 12.7806 51.705C12.8246 51.1811 12.5249 48.9756 12.7692 48.0064C13.0158 47.0366 13.1151 46.3237 13.0266 45.9795C12.937 45.6325 13.0934 45.0092 13.038 44.5971C12.9815 44.185 12.9929 43.0491 12.7367 42.7369C12.4809 42.4247 12.1796 41.5006 12.2692 40.6992C12.3577 39.8956 11.9456 38.9818 12.9272 38.6039C13.9062 38.226 13.7515 38.2021 13.6733 38.0137C13.6195 37.884 13.5044 37.8639 13.4365 37.8639C13.404 37.8639 13.3828 37.8682 13.3828 37.8682C13.3828 37.8682 12.5689 37.6684 12.001 36.8665C11.4336 36.0634 10.9313 35.2951 10.7874 34.7044C10.6419 34.1147 9.93988 32.5982 9.72921 31.7186C9.51692 30.8391 9.11675 29.2683 9.11675 29.2683C9.11675 29.2683 7.44443 28.4207 6.57624 27.5189C5.70587 26.6165 5.31711 26.2043 5.12762 25.9584C4.93758 25.7141 4.74918 25.6684 4.1807 25.3019C3.61222 24.9338 2.85534 24.4995 3.7686 23.8533C3.7686 23.8533 4.20351 23.3972 4.14758 22.9851C4.09166 22.573 3.679 20.4218 4.11337 18.6507C4.54774 16.8785 4.42449 15.9766 4.4359 15.5645C4.44784 15.1524 4.51408 14.5725 3.88044 13.783C3.24409 12.9925 2.54259 12.6238 2.54259 12.6238C2.54259 12.6238 2.16414 12.2329 1.65105 11.7654C1.65105 11.7654 1.0728 11.4755 1.17216 10.7745C1.27315 10.0714 1.29487 9.83735 1.49468 9.5599C1.69666 9.28136 1.89701 9.11413 1.89701 9.11413C1.89701 9.11413 2.09845 8.86817 2.26134 8.86817C2.28197 8.86817 2.30043 8.87197 2.31998 8.8812C2.48667 8.95776 2.54205 8.99196 2.40848 9.28136C2.40848 9.28136 2.63381 9.19177 2.90746 9.19177C3.16211 9.19177 3.45748 9.26887 3.6562 9.56533L4.40875 9.23141C4.40875 9.23141 4.53634 9.17494 4.65091 9.17494C4.72366 9.17494 4.78936 9.1972 4.81542 9.26996C4.8822 9.45891 4.86049 9.57076 4.76981 9.59248C4.76981 9.59248 5.14988 9.59248 5.18301 9.73799C5.21613 9.88242 5.09342 9.98341 4.90501 10.1056C4.71443 10.2283 4.42449 11.0416 4.99406 11.71C5.56254 12.3789 5.86225 12.3789 5.88505 13.2705C5.88505 13.2705 6.00776 13.7049 5.98605 13.8829C5.96216 14.0616 6.03056 14.2163 6.08595 14.339C6.14187 14.4612 6.25264 15.0194 6.25264 15.4315C6.25264 15.8436 6.33082 16.8242 6.33082 16.8242C6.33082 16.8242 6.66583 18.4281 6.85478 19.3973C7.04427 20.3659 7.17784 20.8122 7.17784 21.3036C7.17784 21.3036 7.2544 21.0848 7.54162 21.0848C7.62144 21.0848 7.71863 21.1027 7.83591 21.1461C7.83591 21.1461 8.89957 20.544 9.66949 20.544C9.78785 20.544 9.89808 20.5576 9.99744 20.5907C9.99744 20.5907 10.1201 20.1558 10.2863 20.1335L10.3645 19.6546C10.3645 19.6546 9.37303 18.4851 9.1173 17.9269C9.02662 17.732 9.03803 17.6679 9.09992 17.6679C9.21449 17.6679 9.50334 17.8867 9.64017 17.8938C9.85192 17.9052 10.6544 18.0285 10.7543 18.3184L10.7994 18.117C10.7994 18.117 10.3417 17.6495 10.554 16.847C10.554 16.847 10.4834 16.8709 10.3965 16.8709C10.2483 16.8709 10.0512 16.8003 10.0865 16.4126C10.1424 15.8001 10.2201 15.8669 10.2201 15.6552C10.2201 15.4787 10.2988 15.2854 10.4405 15.2854C10.4693 15.2854 10.4991 15.2936 10.5323 15.3093L10.6104 14.2733C10.6104 14.2733 10.5214 13.214 11.0882 13.0137C11.0882 13.0137 10.9449 11.8441 12.1372 11.6221C12.1372 11.6221 12.2952 11.4765 12.6237 11.4765C12.741 11.4765 12.8789 11.4945 13.0396 11.5444C13.3149 11.6291 13.5717 11.6536 13.7878 11.6536C14.0528 11.6536 14.2564 11.6166 14.3542 11.6101C14.39 11.6079 14.4448 11.6036 14.5138 11.6036C14.7891 11.6036 15.2837 11.6796 15.6127 12.3132C16.0248 13.1038 16.4369 13.4822 16.2914 14.4178C16.1481 15.3538 16.0466 15.7551 16.0466 15.7551C16.0466 15.7551 16.1041 15.8664 16.1926 15.8664C16.2822 15.8664 16.3702 15.9886 16.3604 16.1563C16.3604 16.1563 16.7611 15.4087 17.0619 15.3305C17.0619 15.3305 16.8382 14.5063 17.3627 14.3059C17.3627 14.3059 17.2742 13.9166 17.5739 13.4594C17.5739 13.4594 17.6048 12.8177 17.7759 12.8177C17.7862 12.8177 17.7971 12.8204 17.809 12.8253C17.809 12.8253 17.9529 11.3989 18.5664 10.6301C18.5664 10.6301 18.9785 10.2842 18.4101 9.79337C17.8432 9.30362 16.0151 7.81048 16.0151 7.81048L13.3861 5.91772L12.8621 5.62778C12.8621 5.62778 12.3604 5.53819 11.9934 5.3601C11.8126 5.27214 11.6801 5.23305 11.5698 5.23305C11.4585 5.23305 11.3711 5.2754 11.2804 5.34924C11.1029 5.49421 10.3889 5.69457 9.94314 5.77275C9.67546 5.81999 9.25847 5.94379 8.92455 5.94379C8.70628 5.94379 8.52384 5.89112 8.44023 5.72769C8.44023 5.72769 8.01617 5.70488 8.18286 5.39431L8.22793 5.30472C8.22793 5.30472 8.00477 4.84755 8.56239 4.77045C9.11892 4.69226 9.36326 4.80357 9.49845 4.48051L8.68401 4.46802C8.68401 4.46802 8.32783 4.44684 8.29471 4.11292C8.26865 3.86045 8.42013 3.84904 8.65469 3.84904C8.67858 3.84904 8.70247 3.84904 8.72745 3.84904C8.78392 3.84904 8.84364 3.8485 8.90717 3.8447C8.95983 3.84198 9.01468 3.84036 9.07386 3.84036C9.42896 3.84036 9.86495 3.88868 9.86495 3.88868C9.86495 3.88868 10.1668 3.75511 9.92088 3.42173C9.67654 3.08727 9.14064 2.96565 9.3752 2.55354C9.45121 2.41997 9.53701 2.37273 9.62279 2.37273C9.79925 2.37273 9.973 2.57472 10.0327 2.62032C10.1223 2.68602 10.523 3.05469 10.523 3.05469C10.523 3.05469 10.9129 3.04329 10.7006 2.07356C10.7006 2.07356 10.2336 1.30582 10.6121 1.18256C10.6506 1.16573 10.6886 1.15922 10.7228 1.15922ZM10.7228 0C10.5665 0 10.4079 0.0255188 10.2521 0.0760141C9.84921 0.20741 9.53592 0.506581 9.39041 0.898599C9.3486 1.01316 9.32253 1.12827 9.31113 1.24338C8.91911 1.33188 8.58302 1.58924 8.36204 1.97855C8.27245 2.136 8.153 2.40748 8.153 2.73652C7.93093 2.79081 7.68442 2.90375 7.47267 3.13777C7.32335 3.30337 7.08011 3.66389 7.13712 4.2264C7.14526 4.30187 7.15775 4.37517 7.1735 4.44521C7.05296 4.68629 7.01224 4.93931 7.02419 5.17333C6.93623 5.50507 6.97531 5.85745 7.14852 6.16531C7.29783 6.43191 7.53728 6.6366 7.8256 6.75823C8.06721 6.945 8.4185 7.10083 8.9202 7.10083C9.28507 7.10083 9.638 7.02156 9.92251 6.95803C10.0023 6.94012 10.0762 6.92328 10.1397 6.91188C10.2488 6.89234 11.0562 6.7452 11.6361 6.47046C11.9363 6.59697 12.2485 6.67895 12.45 6.7251L12.76 6.89559L15.3043 8.72808C15.4976 8.88554 16.6612 9.83735 17.3301 10.3988C17.0347 10.9401 16.8626 11.5482 16.7649 12.0059C16.7236 11.9326 16.6807 11.8561 16.6373 11.7736C16.1959 10.9271 15.4205 10.4411 14.5105 10.4411C14.4253 10.4411 14.3531 10.4455 14.2993 10.4487C14.2271 10.4531 14.1717 10.4596 14.106 10.4672C14.0289 10.477 13.9181 10.4911 13.7846 10.4911C13.6374 10.4911 13.5039 10.4726 13.3784 10.433C13.1238 10.3537 12.8681 10.3141 12.6205 10.3141C12.2225 10.3141 11.9108 10.4189 11.6936 10.5313C10.5876 10.8283 10.0919 11.6715 9.95725 12.4376C9.54461 12.9398 9.41375 13.656 9.44579 14.2652L9.41918 14.6094C9.2134 14.857 9.08254 15.1823 9.06191 15.5471C9.01359 15.7089 8.96418 15.919 8.92943 16.3035C8.924 16.3741 8.9202 16.4414 8.9202 16.5054H8.46248L8.08187 17.0582C7.83374 17.4459 7.82777 17.9003 8.06341 18.4091C8.20838 18.7272 8.48855 19.1388 8.76872 19.5107C8.53307 19.5737 8.30829 19.6524 8.10522 19.7328C8.07047 19.5667 8.03137 19.3821 7.99119 19.1714C7.82451 18.32 7.54705 16.9816 7.47972 16.6558C7.45529 16.3507 7.41023 15.7035 7.41023 15.4277C7.41023 14.9705 7.30164 14.2223 7.14526 13.8667C7.14906 13.6468 7.11214 13.3878 7.03721 13.0902C6.98237 12.1509 6.6376 11.7339 6.19563 11.2936C6.10387 11.2024 5.99799 11.0981 5.87637 10.9558C5.84705 10.9206 5.83076 10.8869 5.82316 10.8576C6.36883 10.3776 6.39815 9.85418 6.31345 9.47737C6.2559 9.22489 6.11038 8.96373 5.86007 8.76446C5.64615 8.30349 5.18409 8.01192 4.64982 8.01192C4.32513 8.01192 4.04441 8.12106 3.93745 8.16829L3.81257 8.22422C3.60951 8.12974 3.38852 8.06785 3.15668 8.04233C3.04917 7.95491 2.93026 7.88269 2.80592 7.82514C2.64032 7.74695 2.45409 7.70515 2.26025 7.70515C1.70372 7.70515 1.29378 8.04558 1.06845 8.29643C0.954972 8.40014 0.75462 8.60158 0.554811 8.87794C0.200257 9.36824 0.137816 9.80695 0.0444266 10.4715L0.0237971 10.6073C-0.127146 11.6747 0.470649 12.3762 0.951169 12.6944C1.38608 13.094 1.69937 13.4176 1.7086 13.4274L1.83783 13.5604L2.0018 13.6473C2.0018 13.6473 2.51436 13.9329 2.97642 14.5068C3.30056 14.9097 3.29242 15.1209 3.28047 15.4402L3.27667 15.527C3.2745 15.6188 3.27667 15.7258 3.28047 15.8534C3.29188 16.3046 3.3098 17.0598 2.98836 18.3721C2.54151 20.1927 2.85696 22.2228 2.97587 22.9879C2.97207 22.9938 2.96772 22.9993 2.96392 23.0058C2.30857 23.5254 2.17555 24.0835 2.18369 24.4707C2.20487 25.4067 3.00411 25.9209 3.483 26.2293L3.54978 26.2728C3.75774 26.4063 3.91845 26.5008 4.04713 26.5774C4.12804 26.6251 4.19102 26.6566 4.24043 26.6957C4.43101 26.9509 4.78611 27.3299 5.74172 28.3208C6.43888 29.0467 7.50036 29.6978 8.11825 30.0447C8.25291 30.5768 8.46629 31.4249 8.60149 31.9874C8.73723 32.5526 9.02228 33.2797 9.2753 33.922C9.43493 34.3297 9.61573 34.7902 9.66243 34.978C9.84378 35.7203 10.3504 36.5363 11.054 37.5327C11.224 37.7727 11.4097 37.9752 11.5965 38.1468C11.0421 38.8075 11.0877 39.6703 11.1105 40.1074C11.1208 40.2833 11.13 40.4511 11.1165 40.57C11.0014 41.6098 11.338 42.7592 11.7539 43.3554C11.8012 43.5508 11.8299 43.9972 11.8446 44.2214C11.8576 44.4359 11.8717 44.6243 11.8886 44.753C11.8983 44.8208 11.8793 45.0266 11.8685 45.1623C11.8397 45.5044 11.8077 45.8915 11.9043 46.2673C11.9032 46.2662 11.9032 46.2662 11.9032 46.2662C11.9 46.2662 11.9266 46.6131 11.6459 47.7197C11.4537 48.4804 11.5041 49.563 11.5851 50.7945C11.6062 51.1078 11.6312 51.4987 11.6247 51.6105C11.585 52.0883 11.6475 52.4809 11.7061 52.7269C10.8988 53.8893 11.0111 55.3352 11.073 55.7995C11.0671 56.4423 11.2006 56.9506 11.3467 57.3138C11.2517 57.7699 11.3603 58.125 11.458 58.3308C11.4803 58.3802 11.5063 58.428 11.5351 58.4741C11.1371 59.888 11.4955 61.2085 11.6073 61.5619L12.0162 63.3608L11.9852 64.0541C11.4222 64.849 10.7652 66.2754 10.7093 67.0643C10.6235 68.3131 12.0178 69.1416 12.8572 69.525L13.2644 69.7172C13.3833 70.1521 13.6744 70.5474 13.9719 70.8949C14.1603 71.1137 14.2879 71.2787 14.3742 71.3938C14.3645 71.6327 14.4074 71.8336 14.4703 71.9982L14.4106 72.0801L14.3579 72.2088C14.0751 72.9011 14.0914 73.4913 14.4057 73.961C14.4839 74.0766 14.5778 74.1781 14.6832 74.2661C14.7027 75.2223 15.0198 75.9867 15.2147 76.3679C15.3385 76.9749 15.7305 77.4831 15.9179 77.6971L16.0259 77.8225L16.1655 77.9115C16.4022 78.0636 16.6764 78.1401 16.9804 78.1401C17.9496 78.1401 19.4699 77.1769 20.5738 76.3674L20.6981 76.2767L20.7942 76.1561C21.1194 75.7495 21.24 75.2679 21.1363 74.8015C21.101 74.6483 21.0456 74.511 20.9788 74.3921L21.0478 74.0685L20.9457 73.9854C21.0521 73.4299 20.887 72.7561 20.4619 71.9596L20.3761 71.7663C20.3273 71.617 20.2322 71.377 20.0536 71.0713C19.9445 70.884 19.7952 70.6864 19.6551 70.5159C19.6947 70.1429 19.6328 69.7965 19.5079 69.5011C19.6209 68.8088 19.4227 68.3668 19.2278 68.11C19.1816 68.0503 19.1317 67.9933 19.0774 67.9406C19.0014 67.6735 18.8819 67.3852 18.7831 67.1664C18.8417 66.6696 18.9655 65.7031 19.1072 65.0152C19.3396 63.8923 19.3135 63.2864 19.3059 63.1767C19.3049 63.1691 19.2945 62.9199 19.3912 62.3937C19.6019 61.2258 19.6426 60.4038 19.5188 59.8033C19.42 59.319 19.4026 58.9508 19.4553 58.5365C19.5405 57.8768 19.7067 56.5792 19.7631 55.736C19.7724 55.6013 19.78 55.4846 19.7886 55.383C19.7897 55.7723 19.7897 56.7784 19.7642 58.3357C19.7186 61.2003 21.5831 61.2937 22.1956 61.3241C22.27 61.3279 22.3444 61.3301 22.4122 61.3404C22.5659 61.3616 22.7092 61.3719 22.845 61.3719C23.7615 61.3719 24.419 60.9294 24.9468 60.5737C25.9035 59.9309 26.0126 58.485 26.0159 57.9149C26.0691 57.468 25.992 56.8235 25.8128 55.534C25.7623 55.174 25.7118 54.814 25.6749 54.4969C25.5728 53.651 25.4067 53.0597 25.2981 52.7394L25.3209 51.9537C25.7845 51.4216 26.0425 50.6186 26.2786 49.5603C26.5718 48.2382 25.8503 47.4471 25.4523 47.0643C25.9903 46.6761 26.3286 45.8356 26.4806 44.5276C27.4769 43.3939 27.8212 41.0071 27.9401 39.5416L28.0281 37.8563L28.0443 37.8302L28.0834 37.7156L28.1323 37.5696C28.5493 36.4554 27.6045 35.4591 26.8107 34.8548C26.5072 34.0642 25.8025 33.5598 24.8479 33.442C24.8387 31.8365 24.2708 30.5008 24.008 29.9671C23.9493 29.5528 23.7664 28.7161 23.2201 26.9406V26.503V26.4199L23.2087 26.3374L22.9145 24.3018L22.9014 24.0716C22.9617 23.3343 22.8667 22.8163 22.744 22.4737L22.7521 22.3309C22.7543 22.32 22.8965 20.8486 22.9307 19.7203C22.953 18.9656 23.0573 18.2565 23.1072 17.9568L23.2701 17.6315C23.3369 17.5192 23.6062 17.069 23.9472 16.5999C24.2485 16.1813 24.3652 15.6921 24.2767 15.2186C24.1752 14.6708 23.8283 14.1935 23.243 13.8004C23.1773 13.7434 23.0372 13.605 22.8851 13.4524C22.8841 13.0066 22.9248 12.2296 22.9476 11.8078C22.9693 11.4016 22.9856 11.0541 22.9856 10.8711C22.9856 10.705 23.0019 10.5432 23.0165 10.3733C23.0496 10.0084 23.0887 9.55447 23.0382 8.98436C22.9628 8.16829 22.5496 7.52923 22.1581 7.16979C21.2231 5.95844 19.1349 5.04355 18.624 4.83289C16.9859 4.03745 15.1501 3.13885 14.9476 3.02809C14.7701 2.93035 14.5686 2.85651 14.3123 2.76204C14.0962 2.68277 13.6592 2.52314 13.4984 2.41454C13.1678 1.96389 12.7464 1.65114 12.2882 1.50508C12.2561 1.44101 12.2192 1.35957 12.1725 1.25532L12.1568 1.22111C11.8305 0.117276 11.0475 0 10.7228 0Z" fill="white"/>
</svg>
