<svg width="500" height="373" viewBox="0 0 500 373" fill="none" xmlns="http://www.w3.org/2000/svg">
<g clip-path="url(#clip0_905_845)">
<path d="M500 327.449H0V327.699H500V327.449Z" fill="#EBEBEB"/>
<path d="M449.901 343.539H416.781V343.789H449.901V343.539Z" fill="#EBEBEB"/>
<path d="M331.221 346.262H322.531V346.512H331.221V346.262Z" fill="#EBEBEB"/>
<path d="M415.78 334.262H396.59V334.512H415.78V334.262Z" fill="#EBEBEB"/>
<path d="M95.6509 335.941H52.4609V336.191H95.6509V335.941Z" fill="#EBEBEB"/>
<path d="M110.889 335.941H104.559V336.191H110.889V335.941Z" fill="#EBEBEB"/>
<path d="M225.149 340.16H131.469V340.41H225.149V340.16Z" fill="#EBEBEB"/>
<path d="M237.009 282.85H43.9092C40.7592 282.85 38.1992 280.29 38.1992 277.14V5.71C38.1992 2.56 40.7592 0 43.9092 0H237.009C240.159 0 242.719 2.56 242.719 5.71V277.14C242.719 280.29 240.159 282.85 237.009 282.85ZM43.9092 0.25C40.8992 0.25 38.4492 2.7 38.4492 5.71V277.14C38.4492 280.15 40.8992 282.6 43.9092 282.6H237.009C240.019 282.6 242.469 280.15 242.469 277.14V5.71C242.469 2.7 240.019 0.25 237.009 0.25H43.9092Z" fill="#EBEBEB"/>
<path d="M453.31 282.85H260.21C257.06 282.85 254.5 280.29 254.5 277.14V5.71C254.5 2.56 257.06 0 260.21 0H453.31C456.46 0 459.02 2.56 459.02 5.71V277.14C459.02 280.29 456.46 282.85 453.31 282.85ZM260.21 0.25C257.2 0.25 254.75 2.7 254.75 5.71V277.14C254.75 280.15 257.2 282.6 260.21 282.6H453.31C456.32 282.6 458.77 280.15 458.77 277.14V5.71C458.77 2.7 456.32 0.25 453.31 0.25H260.21Z" fill="#EBEBEB"/>
<path d="M106.333 327.453H139.223L139.223 207.043H106.333L106.333 327.453Z" fill="#E6E6E6"/>
<path d="M114.092 327.453H106.332V305.383H122.232L114.092 327.453Z" fill="#F0F0F0"/>
<path d="M311.661 327.453H344.551V207.043H311.661V327.453Z" fill="#E6E6E6"/>
<path d="M106.341 316.582H318.441V207.042L106.341 207.042V316.582Z" fill="#F0F0F0"/>
<path d="M209.032 214.234V301.584H113.102V214.234H209.032ZM209.782 213.484H112.352V302.334H209.782V213.484Z" fill="#FAFAFA"/>
<path d="M311.672 214.234V301.584H215.742V214.234H311.672ZM312.422 213.484H214.992V302.334H312.422V213.484Z" fill="#FAFAFA"/>
<path d="M229.88 234.084C233.691 234.084 236.78 232.235 236.78 229.954C236.78 227.673 233.691 225.824 229.88 225.824C226.07 225.824 222.98 227.673 222.98 229.954C222.98 232.235 226.07 234.084 229.88 234.084Z" fill="#FAFAFA"/>
<path d="M194.892 234.084C198.703 234.084 201.792 232.235 201.792 229.954C201.792 227.673 198.703 225.824 194.892 225.824C191.081 225.824 187.992 227.673 187.992 229.954C187.992 232.235 191.081 234.084 194.892 234.084Z" fill="#FAFAFA"/>
<path d="M310.683 327.453H318.443V305.383H302.543L310.683 327.453Z" fill="#F0F0F0"/>
<path d="M214.16 193.062C214.16 193.062 214.76 207.042 237.58 207.042C260.4 207.042 261 193.062 261 193.062H214.16Z" fill="#F5F5F5"/>
<path d="M273.101 128.262L450.281 128.262V20.1217L273.101 20.1217V128.262Z" fill="#E6E6E6"/>
<path d="M268.67 128.262L449.66 128.262V20.1217L268.67 20.1217V128.262Z" fill="#F0F0F0"/>
<path d="M273.101 132.383L450.281 132.383V128.253L273.101 128.253V132.383Z" fill="#E6E6E6"/>
<path d="M261.26 132.383L442.25 132.383V128.253L261.26 128.253V132.383Z" fill="#F0F0F0"/>
<path d="M443.434 122.032V26.332L274.884 26.332V122.032L443.434 122.032Z" fill="#FAFAFA"/>
<path d="M391.53 122.032L381.57 26.332H364.34L374.3 122.032H391.53Z" fill="white"/>
<path d="M440.55 94.7123C440.81 94.7123 441.03 94.5023 441.03 94.2323V30.3823C441.03 30.1223 440.82 29.9023 440.55 29.9023C440.28 29.9023 440.07 30.1123 440.07 30.3823V94.2323C440.07 94.4923 440.28 94.7123 440.55 94.7123Z" fill="#F0F0F0"/>
<path d="M370.6 122.032L360.63 26.332H353.91L363.88 122.032H370.6Z" fill="white"/>
<path d="M275.672 122.032V26.332H274.882V122.032H275.672Z" fill="#E6E6E6"/>
<path opacity="0.5" d="M267.191 34.45H445.821L446.391 28.75H267.771L267.191 34.45Z" fill="#E0E0E0"/>
<path opacity="0.5" d="M267.191 43.8311H445.821L446.391 38.1211H267.771L267.191 43.8311Z" fill="#E0E0E0"/>
<path opacity="0.5" d="M267.191 53.2H445.821L446.391 47.5H267.771L267.191 53.2Z" fill="#E0E0E0"/>
<path opacity="0.5" d="M267.191 62.5711H445.821L446.391 56.8711H267.771L267.191 62.5711Z" fill="#E0E0E0"/>
<path opacity="0.5" d="M267.191 71.9422H445.821L446.391 66.2422H267.771L267.191 71.9422Z" fill="#E0E0E0"/>
<path opacity="0.5" d="M267.191 81.3094H445.821L446.391 75.6094H267.771L267.191 81.3094Z" fill="#E0E0E0"/>
<path d="M122.693 94.4023L230.633 94.4023V22.9423L122.693 22.9423L122.693 94.4023Z" fill="#E0E0E0"/>
<path d="M116.193 94.4023L227.793 94.4023V22.9423L116.193 22.9423L116.193 94.4023Z" fill="#F5F5F5"/>
<path d="M125.531 35.4628V81.8828H218.431V35.4628L125.531 35.4628Z" fill="white"/>
<path d="M65.4819 182.133H173.422V110.673L65.4819 110.673L65.4819 182.133Z" fill="#E0E0E0"/>
<path d="M58.9625 182.133H170.562V110.673L58.9625 110.673L58.9625 182.133Z" fill="#F5F5F5"/>
<path d="M68.3203 123.193V169.613H161.22V123.193H68.3203Z" fill="white"/>
<path d="M249.999 372.609C357.082 372.609 443.889 367.541 443.889 361.289C443.889 355.037 357.082 349.969 249.999 349.969C142.917 349.969 56.1094 355.037 56.1094 361.289C56.1094 367.541 142.917 372.609 249.999 372.609Z" fill="#F5F5F5"/>
<path d="M426.636 113.8L426.238 122.07L427.257 122.119L427.654 113.849L426.636 113.8Z" fill="#F6CB03"/>
<path d="M428.079 84.2716L426.965 107.465L427.984 107.514L429.098 84.3205L428.079 84.2716Z" fill="#F6CB03"/>
<path d="M289.407 71.3789H413.357C420.387 71.3789 425.857 77.1289 425.527 84.1489L412.967 348.509C412.637 355.539 406.617 361.279 399.587 361.279H275.637C268.607 361.279 263.137 355.529 263.467 348.509L276.027 84.1489C276.357 77.1189 282.387 71.3789 289.407 71.3789Z" fill="#F6CB03"/>
<path d="M455.697 184.727L455.987 178.657L452.267 177.577C452.137 175.507 451.827 173.487 451.357 171.537L454.537 169.097L452.477 163.487L448.567 163.927C447.657 162.127 446.587 160.417 445.387 158.807L447.447 155.377L443.357 151.087L439.847 152.987C438.307 151.707 436.647 150.557 434.897 149.557L435.527 145.677L430.027 143.357L427.447 146.417C425.517 145.857 423.517 145.447 421.457 145.217L420.557 141.457H414.487L413.227 145.217C411.147 145.447 409.107 145.857 407.127 146.417L404.837 143.357L399.117 145.677L399.377 149.557C397.527 150.557 395.757 151.707 394.097 152.987L390.757 151.087L386.257 155.377L387.997 158.807C386.647 160.407 385.407 162.117 384.327 163.927L380.467 163.487L377.877 169.097L380.827 171.537C380.177 173.487 379.667 175.507 379.337 177.577L375.517 178.657L375.227 184.727L378.947 185.807C379.077 187.877 379.387 189.897 379.857 191.847L376.677 194.287L378.737 199.897L382.647 199.457C383.557 201.257 384.627 202.967 385.827 204.567L383.767 207.997L387.857 212.287L391.377 210.387C392.917 211.667 394.567 212.817 396.327 213.817L395.697 217.697L401.197 220.017L403.777 216.957C405.697 217.517 407.697 217.927 409.757 218.157L410.657 221.917H416.727L417.987 218.157C420.067 217.927 422.107 217.517 424.087 216.957L426.377 220.017L432.097 217.697L431.837 213.817C433.687 212.817 435.457 211.667 437.117 210.387L440.457 212.287L444.957 207.997L443.217 204.567C444.567 202.967 445.797 201.257 446.887 199.447L450.757 199.887L453.347 194.277L450.397 191.837C451.047 189.887 451.547 187.867 451.877 185.797L455.697 184.717V184.727ZM441.587 181.687C440.907 196.037 428.717 207.667 414.387 207.667C400.057 207.667 388.957 196.037 389.647 181.687C390.327 167.347 402.517 155.707 416.867 155.707C431.217 155.707 442.277 167.347 441.597 181.687H441.587Z" fill="#F6CB03"/>
<path d="M413.207 74.5703H289.258C283.968 74.5703 279.477 78.8603 279.217 84.1503L267.277 335.48C267.187 337.31 268.607 338.79 270.427 338.79H406.918C408.748 338.79 410.298 337.31 410.388 335.48L422.327 84.1503C422.577 78.8603 418.497 74.5703 413.207 74.5703Z" fill="white"/>
<path opacity="0.2" d="M390.916 327.3H287.586C284.516 327.3 281.676 326.1 279.586 323.91C277.496 321.72 276.426 318.82 276.576 315.74L279.746 248.93C280.046 242.58 285.456 237.41 291.816 237.41H395.146C398.216 237.41 401.056 238.62 403.146 240.8C405.236 242.99 406.306 245.89 406.156 248.97L402.986 315.78C402.686 322.13 397.276 327.3 390.916 327.3ZM291.816 238.33C285.946 238.33 280.946 243.1 280.676 248.97L277.506 315.78C277.376 318.6 278.356 321.26 280.266 323.27C282.176 325.27 284.776 326.38 287.596 326.38H390.926C396.796 326.38 401.796 321.61 402.066 315.74L405.236 248.93C405.366 246.11 404.386 243.45 402.476 241.44C400.566 239.44 397.966 238.33 395.146 238.33H291.816Z" fill="#F6CB03"/>
<path opacity="0.1" d="M309.436 243.07H270.076L266.816 311.61H306.176C310.656 311.61 314.496 307.95 314.706 303.47L317.186 251.22C317.396 246.74 313.906 243.08 309.426 243.08L309.436 243.07Z" fill="#F6CB03"/>
<path opacity="0.1" d="M362.168 276.268H335.408C333.118 276.268 331.328 274.388 331.438 272.098L332.708 245.338C332.818 243.048 334.788 241.168 337.078 241.168H363.838C366.128 241.168 367.918 243.048 367.808 245.338L366.538 272.098C366.428 274.388 364.468 276.268 362.168 276.268Z" fill="#F6CB03"/>
<path opacity="0.1" d="M404.888 255.199C401.598 255.199 398.768 257.899 398.618 261.189L396.788 299.619C396.628 302.909 399.198 305.609 402.498 305.609H413.858L416.258 255.199H404.898H404.888Z" fill="#F6CB03"/>
<path opacity="0.1" d="M372.989 318.498H346.229C343.939 318.498 342.149 316.618 342.259 314.328L343.529 287.568C343.639 285.278 345.599 283.398 347.899 283.398H374.659C376.949 283.398 378.739 285.278 378.629 287.568L377.359 314.328C377.249 316.618 375.289 318.498 372.989 318.498Z" fill="#F6CB03"/>
<path opacity="0.2" d="M344.507 349.228C344.337 352.718 341.377 355.558 337.877 355.558C334.377 355.558 331.687 352.728 331.847 349.228C332.007 345.728 334.977 342.898 338.477 342.898C341.977 342.898 344.667 345.728 344.507 349.228Z" fill="white"/>
<path opacity="0.2" d="M402.97 221.921H285.52C283.3 221.921 281.59 220.121 281.7 217.901L285.2 144.161C285.31 141.941 287.19 140.141 289.41 140.141H406.86C409.08 140.141 410.79 141.941 410.68 144.161L407.18 217.901C407.07 220.121 405.19 221.921 402.97 221.921Z" fill="#F6CB03"/>
<path opacity="0.6" d="M409.288 122.5H288.648C287.308 122.5 286.278 121.42 286.338 120.08L287.518 95.17C287.578 93.83 288.718 92.75 290.058 92.75H410.698C412.038 92.75 413.068 93.83 413.008 95.17L411.828 120.08C411.768 121.42 410.628 122.5 409.288 122.5Z" fill="#F6CB03"/>
<path d="M298.84 164.93H292.47L290.32 210.16H296.69L298.84 164.93Z" fill="#F6CB03"/>
<path d="M310.871 181.57H304.501L303.141 210.16H309.511L310.871 181.57Z" fill="#F6CB03"/>
<path d="M323.239 191.172H316.869L315.969 210.162H322.339L323.239 191.172Z" fill="#F6CB03"/>
<path d="M335.619 200.672H329.239L328.789 210.162H335.159L335.619 200.672Z" fill="#F6CB03"/>
<path d="M349.621 175.809H343.251L341.621 210.159H347.991L349.621 175.809Z" fill="#F6CB03"/>
<path d="M363.321 157.461H356.941L354.441 210.161H360.811L363.321 157.461Z" fill="#F6CB03"/>
<path d="M376.41 151.91H370.03L367.27 210.16H373.64L376.41 151.91Z" fill="#F6CB03"/>
<path d="M388.16 174.531H381.78L380.09 210.161H386.46L388.16 174.531Z" fill="#F6CB03"/>
<path d="M400.432 186.051H394.062L392.922 210.161H399.292L400.432 186.051Z" fill="#F6CB03"/>
<path d="M300.128 297.589H247.878C243.398 297.589 239.908 293.929 240.118 289.449L242.598 237.199C242.808 232.719 246.648 229.059 251.128 229.059H303.378C307.858 229.059 311.348 232.719 311.138 237.199L308.658 289.449C308.448 293.929 304.608 297.589 300.128 297.589Z" fill="#F6CB03"/>
<path d="M299.87 267.308L300.25 259.328L296.53 256.868C296.17 255.508 295.68 254.208 295.06 252.978L296.07 249.188L290.69 243.548L286.86 244.378C285.66 243.708 284.39 243.148 283.05 242.728L280.77 238.898H272.79L270.15 242.728C268.77 243.158 267.44 243.708 266.18 244.378L262.43 243.548L256.52 249.188L257.17 252.978C256.44 254.208 255.82 255.508 255.33 256.868L251.38 259.328L251 267.308L254.71 269.758C255.07 271.118 255.57 272.418 256.18 273.658L255.17 277.448L260.55 283.088L264.38 282.258C265.58 282.928 266.85 283.488 268.19 283.908L270.47 287.748H278.45L281.09 283.908C282.47 283.488 283.79 282.928 285.05 282.258L288.81 283.088L294.72 277.448L294.07 273.658C294.8 272.428 295.42 271.128 295.91 269.768L299.86 267.308H299.87ZM275.17 272.888C269.89 272.888 265.8 268.598 266.05 263.318C266.3 258.028 270.8 253.738 276.08 253.738C281.36 253.738 285.45 258.028 285.2 263.318C284.95 268.598 280.46 272.888 275.17 272.888Z" fill="white"/>
<path d="M355.618 264.151H328.858C326.568 264.151 324.778 262.271 324.888 259.981L326.158 233.221C326.268 230.931 328.228 229.051 330.528 229.051H357.288C359.578 229.051 361.368 230.931 361.258 233.221L359.988 259.981C359.878 262.271 357.918 264.151 355.618 264.151Z" fill="#F6CB03"/>
<path d="M434.377 293.488H395.947C392.657 293.488 390.087 290.788 390.237 287.498L392.067 249.068C392.227 245.778 395.047 243.078 398.337 243.078H436.767C440.057 243.078 442.627 245.778 442.477 249.068L440.647 287.498C440.487 290.788 437.667 293.488 434.377 293.488Z" fill="#F6CB03"/>
<path d="M428.957 268.277L409.487 256.727L408.387 279.837L428.957 268.277Z" fill="white"/>
<path d="M366.438 306.377H339.678C337.388 306.377 335.598 304.497 335.708 302.207L336.978 275.447C337.088 273.157 339.048 271.277 341.348 271.277H368.108C370.398 271.277 372.188 273.157 372.078 275.447L370.808 302.207C370.698 304.497 368.738 306.377 366.438 306.377Z" fill="#F6CB03"/>
<path d="M350.617 299.046L341.117 289.066L343.327 286.966L350.727 294.726L364.847 281.246L366.947 283.456L350.617 299.046Z" fill="white"/>
<path d="M169.839 108.871C169.789 114.591 168.799 124.871 164.199 127.751C164.199 127.751 166.669 135.271 175.679 139.401C185.159 136.501 181.279 131.261 181.279 131.261C175.449 128.541 176.549 124.021 178.489 119.981L169.849 108.881L169.839 108.871Z" fill="#FFB573"/>
<path d="M164.059 138.95C165.369 143.68 166.799 148.52 168.269 153.23C169.019 155.59 169.819 157.92 170.659 160.2C171.489 162.49 172.389 164.72 173.379 166.77C173.869 167.78 174.389 168.75 174.899 169.53C175.029 169.71 175.159 169.93 175.269 170.06L175.439 170.29C175.499 170.37 175.639 170.52 175.729 170.64L176.979 172.12C178.599 174.11 180.219 176.08 181.779 178.1C184.929 182.11 187.969 186.21 190.859 190.43L187.269 193.6C183.429 190.23 179.719 186.74 176.089 183.19L170.679 177.86L169.349 176.53C169.229 176.41 169.149 176.34 168.999 176.17L168.559 175.67C168.249 175.33 168.019 175.02 167.769 174.69C166.799 173.41 166.059 172.17 165.359 170.94C162.699 166.03 160.869 161.17 159.149 156.24C157.429 151.31 155.979 146.42 154.699 141.33L164.059 138.93V138.95Z" fill="#FFB573"/>
<path d="M151.519 131.599C147.539 137.439 152.619 151.859 152.619 151.859H170.549C170.549 151.859 170.709 139.929 168.219 135.339C164.989 129.389 154.099 127.809 151.519 131.599Z" fill="#263238"/>
<path d="M196.28 191.698L189.36 189.668L185.73 191.108C185.77 195.038 191.14 197.858 191.14 197.858L195.33 201.718C196.22 202.538 197.54 202.678 198.58 202.068L201.18 200.538C202.57 199.718 202.96 197.888 202.02 196.568L200.89 194.988C199.76 193.408 198.13 192.258 196.27 191.708L196.28 191.698Z" fill="#FFB573"/>
<path d="M261.638 151.418L252.418 142.198C250.408 140.188 250.408 136.908 252.418 134.898C254.428 132.888 257.708 132.888 259.718 134.898L268.938 144.118C270.948 146.128 270.948 149.408 268.938 151.418C266.928 153.428 263.648 153.428 261.638 151.418Z" fill="#263238"/>
<path d="M261.491 143.096L260.72 142.325C259.08 140.685 256.42 140.685 254.78 142.325L248.833 148.272C247.193 149.912 247.193 152.572 248.833 154.212L249.604 154.983C251.244 156.623 253.904 156.623 255.544 154.983L261.491 149.036C263.131 147.396 263.131 144.736 261.491 143.096Z" fill="#263238"/>
<path d="M169.149 243.289L160.539 234.679C159.519 233.659 159.529 231.989 160.569 230.989L248.219 146.419C249.239 145.439 250.849 145.449 251.849 146.449L257.379 151.979C258.379 152.979 258.389 154.589 257.409 155.609L172.839 243.259C171.839 244.299 170.169 244.319 169.149 243.289Z" fill="#263238"/>
<path d="M259.16 130.7C257.05 127.69 255.27 124.53 253.82 121.26L256.19 71.3002C256.2 70.9602 256.23 70.6302 256.26 70.3002C257.32 58.5702 267.13 49.0102 278.83 48.2202C279.35 48.1802 279.89 48.1602 280.42 48.1602H332.33C335.37 49.7902 338.31 51.7202 341.08 53.9502C342.68 55.2302 344.23 56.6202 345.72 58.1102C353.9 66.2902 359.05 76.3302 361.18 86.8802C364.84 104.89 359.69 124.33 345.71 138.3C344.85 139.16 343.97 139.99 343.06 140.78C320.8 160.41 286.81 159.59 265.52 138.3C263.14 135.92 261.01 133.38 259.15 130.71L259.16 130.7Z" fill="#F6CB03"/>
<path d="M265.53 138.291C263.15 135.911 261.02 133.371 259.16 130.701L261.98 71.3014C262.43 61.7114 270.57 53.9414 280.15 53.9414H341.09C342.69 55.2214 344.24 56.6114 345.73 58.1014C353.91 66.2814 359.06 76.3214 361.19 86.8714C364.85 104.881 359.7 124.321 345.72 138.291C344.86 139.151 343.98 139.981 343.07 140.771C320.81 160.401 286.82 159.581 265.53 138.291Z" fill="white"/>
<path opacity="0.6" d="M345.719 138.291C344.859 139.151 343.979 139.981 343.069 140.771H279.049C276.629 140.771 274.749 138.811 274.869 136.381L277.019 91.2611C277.139 88.8411 279.189 86.8711 281.609 86.8711H361.199C364.859 104.881 359.709 124.321 345.729 138.291H345.719Z" fill="#F6CB03"/>
<path opacity="0.5" d="M265.531 138.291C243.381 116.141 243.391 80.2408 265.531 58.1008C287.681 35.9508 323.581 35.9508 345.731 58.1008C367.881 80.2508 367.871 116.151 345.731 138.301C323.591 160.441 287.691 160.451 265.541 138.301L265.531 138.291Z" fill="white"/>
<path d="M327.607 106.179C319.387 114.399 310.027 113.729 303.847 107.549C297.667 101.369 296.997 92.0094 305.217 83.7894C313.437 75.5694 325.117 73.9094 331.297 80.0994C337.477 86.2794 335.827 97.9594 327.607 106.179Z" fill="#263238"/>
<path d="M325.327 86.0701C322.067 82.8101 321.407 78.1801 323.867 75.7301C326.327 73.2801 330.947 73.9301 334.207 77.1901C337.467 80.4501 338.127 85.0801 335.667 87.5301C333.217 89.9801 328.587 89.3301 325.327 86.0701Z" fill="#263238"/>
<path d="M322.717 89.9387C322.327 89.9387 321.937 89.7587 321.687 89.4087L311.337 74.9787C311.157 74.7187 311.067 74.4087 311.107 74.0887L312.167 65.1887C312.247 64.4987 312.877 63.9987 313.577 64.0787C314.267 64.1587 314.767 64.7887 314.687 65.4887L313.687 73.8987L323.747 87.9287C324.157 88.4987 324.027 89.2887 323.457 89.6987C323.237 89.8587 322.977 89.9387 322.717 89.9387Z" fill="#263238"/>
<path d="M337.156 100.288C336.896 100.288 336.636 100.208 336.416 100.048L321.986 89.6977C321.416 89.2877 321.286 88.4977 321.696 87.9277C322.106 87.3577 322.896 87.2277 323.466 87.6377L337.496 97.6977L345.906 96.6977C346.606 96.6077 347.226 97.1077 347.316 97.8077C347.396 98.4977 346.906 99.1277 346.206 99.2177L337.306 100.278C337.306 100.278 337.206 100.278 337.156 100.278V100.288Z" fill="#263238"/>
<path d="M314.458 98.1986C314.198 98.1986 313.948 98.1186 313.718 97.9586L299.688 87.8986L291.278 88.8986C290.578 88.9886 289.958 88.4886 289.868 87.7886C289.788 87.0986 290.278 86.4686 290.978 86.3786L299.878 85.3186C300.188 85.2786 300.508 85.3586 300.768 85.5486L315.198 95.8986C315.768 96.3086 315.898 97.0986 315.488 97.6686C315.238 98.0086 314.848 98.1986 314.458 98.1986Z" fill="#263238"/>
<path d="M323.758 121.527C323.758 121.527 323.658 121.527 323.608 121.527C322.918 121.447 322.418 120.817 322.498 120.117L323.498 111.707L313.438 97.6772C313.028 97.1072 313.158 96.3172 313.728 95.9072C314.298 95.4972 315.088 95.6272 315.498 96.1972L325.848 110.627C326.028 110.887 326.118 111.197 326.078 111.517L325.018 120.417C324.938 121.057 324.398 121.537 323.768 121.537L323.758 121.527Z" fill="#263238"/>
<path d="M337.899 113.38C337.579 113.38 337.249 113.26 337.009 113.01L298.399 74.3995C297.909 73.9095 297.909 73.1095 298.399 72.6095C298.889 72.1095 299.689 72.1195 300.189 72.6095L338.799 111.22C339.289 111.71 339.289 112.51 338.799 113.01C338.549 113.26 338.229 113.38 337.909 113.38H337.899Z" fill="#263238"/>
<path d="M332.706 79.9587C332.536 79.9587 332.366 79.9287 332.206 79.8587C331.566 79.5787 331.266 78.8387 331.546 78.1987C331.656 77.9387 334.107 71.9287 328.417 67.6087C327.857 67.1887 327.756 66.3887 328.176 65.8387C328.596 65.2787 329.397 65.1687 329.947 65.5987C335.787 70.0287 335.066 76.4387 333.876 79.1987C333.666 79.6787 333.206 79.9587 332.716 79.9587H332.706Z" fill="#263238"/>
<path d="M344.798 83.487C344.418 83.487 344.038 83.317 343.788 82.987C339.468 77.297 333.448 79.747 333.198 79.857C332.558 80.127 331.818 79.837 331.538 79.187C331.268 78.547 331.558 77.807 332.198 77.527C334.968 76.337 341.368 75.617 345.798 81.447C346.218 82.007 346.108 82.797 345.558 83.217C345.328 83.387 345.058 83.477 344.798 83.477V83.487Z" fill="#263238"/>
<path d="M350.59 53.2395C325.76 28.4095 285.5 28.3995 260.67 53.2395C235.84 78.0695 235.85 118.33 260.67 143.16C285.5 167.99 325.76 168 350.59 143.16C375.43 118.32 375.42 78.0595 350.59 53.2395ZM267.72 136.11C246.78 115.17 246.79 81.2195 267.72 60.2895C288.66 39.3495 322.61 39.3395 343.55 60.2895C364.49 81.2395 364.48 115.18 343.55 136.12C322.62 157.05 288.67 157.06 267.73 136.12L267.72 136.11Z" fill="#F6CB03"/>
<path d="M196.56 141.388C195.74 147.308 192.32 160.878 180.54 191.828L142.93 184.098C146.28 170.648 148.19 161.708 147.99 136.928C147.94 131.138 152.89 126.538 158.66 127.078C160.45 127.248 162.33 127.468 164.21 127.758C170.6 128.748 175.83 129.618 181.29 131.268C185.58 132.568 190.14 134.298 193.12 135.488C195.49 136.438 196.92 138.868 196.57 141.398L196.56 141.388Z" fill="#263238"/>
<path d="M197.968 143.789C198.268 146.009 198.658 148.469 199.108 150.789C199.578 153.139 200.058 155.479 200.648 157.759C201.238 160.049 201.928 162.289 202.728 164.419C203.508 166.569 204.438 168.589 205.508 170.359C206.048 171.229 206.618 172.029 207.218 172.709L207.678 173.179C207.838 173.359 207.908 173.389 208.018 173.519C208.268 173.719 208.568 173.929 208.928 174.139C210.388 174.989 212.548 175.569 214.758 175.989C219.228 176.769 224.198 176.989 228.998 177.009L229.698 181.749C224.568 183.039 219.468 183.759 213.968 183.559C211.218 183.419 208.378 183.079 205.288 181.819C204.518 181.489 203.738 181.069 202.958 180.549C202.588 180.279 202.128 179.959 201.848 179.699L200.938 178.879C199.798 177.759 198.838 176.569 197.978 175.359C194.678 170.489 192.858 165.399 191.378 160.319C190.658 157.779 190.018 155.229 189.538 152.659C189.048 150.069 188.628 147.579 188.348 144.829L197.958 143.809L197.968 143.789Z" fill="#FFB573"/>
<path d="M193.86 135.941C201.79 141.241 201.81 154.341 201.81 154.341L185.58 164.441C185.58 164.441 181.08 152.241 182.34 143.011C183.07 137.621 188.99 132.691 193.87 135.951L193.86 135.941Z" fill="#263238"/>
<path d="M226.859 177.018L237.089 176.598L231.949 184.408C231.949 184.408 226.629 183.698 225.449 180.048L226.859 177.018Z" fill="#FFB573"/>
<path d="M240.669 182.489L239.689 183.899C239.019 184.869 237.849 185.359 236.689 185.179L231.949 184.419L237.089 176.609L239.669 178.089C241.229 178.979 241.689 181.019 240.669 182.499V182.489Z" fill="#FFB573"/>
<path d="M191.499 102.591C191.539 103.351 191.979 103.951 192.469 103.921C192.969 103.891 193.339 103.261 193.299 102.491C193.259 101.721 192.819 101.131 192.329 101.161C191.829 101.191 191.459 101.821 191.499 102.591Z" fill="#263238"/>
<path d="M192.109 101.21L193.909 100.59C193.909 100.59 193.049 102.07 192.109 101.21Z" fill="#263238"/>
<path d="M192.238 104.238C192.238 104.238 193.698 107.448 195.208 108.958C194.248 109.948 192.518 109.608 192.518 109.608L192.238 104.238Z" fill="#ED893E"/>
<path d="M192.09 108.458C189.76 108.458 187.93 105.198 187.93 101.028C187.93 96.8577 189.76 93.5977 192.09 93.5977C194.42 93.5977 196.25 96.8577 196.25 101.028C196.25 105.198 194.42 108.458 192.09 108.458ZM192.09 94.1377C190.09 94.1377 188.47 97.2277 188.47 101.038C188.47 104.848 190.09 107.938 192.09 107.938C194.09 107.938 195.71 104.848 195.71 101.038C195.71 97.2277 194.09 94.1377 192.09 94.1377Z" fill="#F6CB03"/>
<path d="M188.598 100.74C188.788 100.76 188.968 100.66 189.048 100.48C189.888 98.5798 192.498 98.0398 192.518 98.0298C192.758 97.9798 192.918 97.7498 192.868 97.4998C192.818 97.2598 192.588 97.0998 192.338 97.1498C192.208 97.1798 189.248 97.7998 188.218 100.11C188.118 100.34 188.218 100.6 188.448 100.7C188.488 100.72 188.538 100.73 188.588 100.74H188.598Z" fill="#263238"/>
<path d="M165.587 101.148C166.647 110.468 166.907 114.438 171.877 118.988C179.357 125.838 190.577 122.488 192.317 113.038C193.887 104.528 191.877 90.7182 182.537 87.4782C173.327 84.2882 164.527 91.8282 165.587 101.148Z" fill="#FFB573"/>
<path d="M188.2 104.669C192.53 98.0194 194.72 89.7894 190.55 84.9194C186.37 80.0594 180.09 84.9194 180.09 84.9194C180.09 84.9194 163.25 78.8094 157.79 85.8694C149.88 96.0994 160.23 102.579 157.69 105.429C155.15 108.279 151.66 112.269 154.82 118.199C158.27 124.669 184.48 119.679 188.21 127.119C199.19 126.519 193.48 108.639 188.21 104.669H188.2Z" fill="#263238"/>
<path d="M156.478 108.188C156.418 108.188 156.348 108.168 156.298 108.118C156.188 108.018 156.178 107.848 156.278 107.738C157.058 106.858 156.388 105.498 155.458 103.608C153.748 100.148 151.168 94.918 156.368 88.188C156.458 88.068 156.628 88.048 156.738 88.138C156.858 88.228 156.878 88.398 156.788 88.508C151.798 94.968 154.188 99.818 155.938 103.368C156.918 105.358 157.698 106.938 156.678 108.088C156.628 108.148 156.548 108.178 156.478 108.178V108.188Z" fill="#263238"/>
<path d="M192.058 126.059C191.588 126.059 191.068 125.999 190.488 125.879C190.348 125.849 190.248 125.709 190.288 125.559C190.318 125.409 190.468 125.319 190.608 125.359C192.948 125.869 194.468 125.249 195.128 123.529C196.928 118.829 191.818 107.439 187.728 105.119C187.598 105.049 187.558 104.879 187.628 104.759C187.698 104.629 187.858 104.589 187.988 104.659C192.318 107.119 197.528 118.739 195.618 123.729C195.188 124.869 194.218 126.079 192.068 126.079L192.058 126.059Z" fill="#263238"/>
<path d="M185.969 104.05C185.849 104.05 185.739 103.97 185.709 103.85C185.569 103.28 185.669 102.75 186.019 102.28C187.099 100.84 190.609 100.02 196.429 99.84C196.569 99.81 196.699 99.95 196.699 100.1C196.699 100.25 196.589 100.37 196.439 100.38C189.389 100.6 187.109 101.72 186.439 102.61C186.189 102.95 186.109 103.31 186.219 103.72C186.259 103.86 186.169 104.01 186.029 104.04C186.009 104.04 185.989 104.04 185.959 104.04L185.969 104.05Z" fill="#F6CB03"/>
<path d="M187.057 106.088C187.967 107.858 190.147 108.738 191.257 108.908C192.927 109.168 192.467 106.628 191.667 104.258C190.947 102.128 189.197 99.4183 187.687 100.258C186.197 101.088 186.007 104.068 187.057 106.088Z" fill="#FFB573"/>
<path d="M97.6681 350.998C98.6081 351.088 99.4781 351.038 100.008 350.648C100.338 350.398 100.518 350.048 100.518 349.608C100.518 349.338 100.408 349.118 100.198 348.978C99.1081 348.228 95.1681 349.768 94.7181 349.948C94.6281 349.988 94.5781 350.068 94.5781 350.168C94.5781 350.258 94.6481 350.348 94.7381 350.368C95.5181 350.608 96.6281 350.898 97.6681 350.998ZM99.5381 349.218C99.7081 349.238 99.8481 349.278 99.9481 349.338C100.038 349.398 100.068 349.478 100.068 349.598C100.068 349.898 99.9581 350.128 99.7381 350.288C99.1181 350.748 97.5581 350.678 95.5081 350.118C96.8581 349.628 98.6381 349.128 99.5381 349.218Z" fill="#F6CB03"/>
<path d="M94.7901 350.378C94.7901 350.378 94.8501 350.378 94.8801 350.368C96.0501 349.978 98.4701 348.168 98.4101 347.088C98.3901 346.828 98.2501 346.498 97.6401 346.378C97.1901 346.288 96.7601 346.378 96.3701 346.638C95.0901 347.508 94.6201 350.018 94.6001 350.118C94.5901 350.198 94.6101 350.278 94.6701 350.328C94.7101 350.358 94.7501 350.378 94.7901 350.378ZM97.4101 346.788C97.4101 346.788 97.5001 346.798 97.5401 346.808C97.9401 346.888 97.9501 347.058 97.9601 347.108C98.0001 347.758 96.3301 349.198 95.1201 349.778C95.3001 349.048 95.7701 347.568 96.6101 346.998C96.8601 346.828 97.1301 346.758 97.4101 346.788Z" fill="#F6CB03"/>
<path d="M83.8594 352.168L93.1294 353.968L103.379 331.128L94.1094 329.328L83.8594 352.168Z" fill="#FFB573"/>
<path d="M95.5086 349.929L85.4986 346.379C85.1386 346.249 84.7986 346.419 84.6986 346.779L81.7186 354.599C81.4786 355.439 82.0586 356.519 82.9086 356.799C86.4086 357.969 90.0486 358.539 94.5886 359.649C97.3786 360.329 101.759 361.279 105.719 361.279C109.679 361.279 109.109 357.359 107.389 356.999C99.6586 355.409 98.9686 353.989 96.9186 351.039C96.5486 350.509 96.0486 350.109 95.5086 349.929Z" fill="#263238"/>
<g opacity="0.2">
<path d="M103.37 331.128L98.0903 342.908L88.8203 341.108L94.1003 329.328L103.37 331.128Z" fill="black"/>
</g>
<path d="M142.519 183.738C129.389 195.948 128.479 236.348 118.969 263.718C103.679 291.258 89.6094 335.768 89.6094 335.768L102.379 339.278C102.379 339.278 121.949 300.488 134.449 273.298C148.259 243.278 166.569 188.748 166.569 188.748C166.569 188.748 152.579 185.828 142.519 183.738Z" fill="#F6CB03"/>
<path opacity="0.2" d="M151.739 204.551C151.419 211.711 152.009 219.261 153.139 226.711C155.549 220.181 157.779 213.951 159.719 208.521L151.739 204.551Z" fill="black"/>
<path d="M183.958 351.201C184.898 351.201 185.768 351.051 186.248 350.621C186.558 350.341 186.688 349.981 186.648 349.531C186.628 349.261 186.488 349.061 186.268 348.931C185.108 348.301 181.338 350.221 180.918 350.441C180.838 350.481 180.788 350.581 180.798 350.671C180.808 350.761 180.878 350.841 180.978 350.861C181.778 351.021 182.908 351.201 183.948 351.201H183.958ZM185.638 349.241C185.808 349.241 185.958 349.271 186.058 349.321C186.148 349.371 186.198 349.451 186.208 349.561C186.238 349.861 186.148 350.101 185.948 350.281C185.378 350.801 183.818 350.891 181.728 350.541C183.028 349.921 184.748 349.241 185.648 349.241H185.638Z" fill="#F6CB03"/>
<path d="M181.027 350.859C181.027 350.859 181.087 350.859 181.117 350.839C182.247 350.329 184.477 348.289 184.297 347.219C184.257 346.969 184.077 346.649 183.457 346.589C182.997 346.539 182.577 346.669 182.217 346.979C181.027 347.969 180.807 350.509 180.797 350.619C180.797 350.699 180.827 350.779 180.887 350.819C180.927 350.849 180.967 350.859 181.017 350.859H181.027ZM183.277 347.029C183.277 347.029 183.367 347.029 183.407 347.029C183.817 347.069 183.847 347.229 183.847 347.289C183.947 347.929 182.437 349.539 181.287 350.229C181.397 349.489 181.717 347.959 182.487 347.309C182.727 347.109 182.977 347.019 183.257 347.019L183.277 347.029Z" fill="#F6CB03"/>
<path d="M171.07 352.93L180.42 354.35L184.94 332.89L175.59 331.48L171.07 352.93Z" fill="#FFB573"/>
<path d="M181.989 350.539H171.369C170.979 350.539 170.669 350.809 170.619 351.189L169.409 359.589C169.279 360.459 170.029 361.289 170.929 361.269C174.629 361.209 176.419 360.989 181.089 360.989C183.959 360.989 190.529 361.289 194.499 361.289C198.469 361.289 198.679 357.369 197.029 357.009C189.619 355.419 186.079 353.219 183.579 351.119C183.129 350.739 182.569 350.539 181.999 350.539H181.989Z" fill="#263238"/>
<g opacity="0.2">
<path d="M184.928 332.9L182.608 343.96L173.258 342.54L175.578 331.48L184.928 332.9Z" fill="black"/>
</g>
<path d="M180.53 191.818C180.53 191.818 205 239.158 202.29 267.868C199.47 297.728 184.31 341.268 184.31 341.268L172.92 339.208C172.92 339.208 181.6 284.118 186.97 263.718C173.82 233.418 135.5 221.938 152.98 186.168C158.1 187.058 180.52 191.828 180.52 191.828L180.53 191.818Z" fill="#F6CB03"/>
<path d="M171.117 340.469L185.947 342.709L187.557 336.989L171.217 335.699L171.117 340.469Z" fill="#263238"/>
<path d="M87.918 338.42L102.308 342.63L105.518 337.03L89.048 333.84L87.918 338.42Z" fill="#263238"/>
<path d="M142.819 181.78L141.169 184.95C140.979 185.18 141.239 185.51 141.669 185.6L180.369 193.55C180.709 193.62 181.019 193.51 181.089 193.3L182.119 190C182.189 189.77 181.939 189.51 181.569 189.44L143.489 181.62C143.209 181.56 142.939 181.62 142.819 181.78Z" fill="white"/>
<path d="M147.057 187.089L146.037 186.879C145.837 186.839 145.697 186.699 145.737 186.579L147.117 182.299C147.157 182.169 147.357 182.109 147.557 182.149L148.577 182.359C148.777 182.399 148.917 182.539 148.877 182.659L147.497 186.939C147.457 187.069 147.257 187.129 147.057 187.089Z" fill="#F6CB03"/>
<path d="M177.428 193.327L176.408 193.117C176.208 193.077 176.068 192.937 176.108 192.817L177.488 188.537C177.528 188.407 177.728 188.347 177.928 188.387L178.948 188.597C179.148 188.637 179.288 188.777 179.248 188.897L177.868 193.177C177.828 193.307 177.628 193.367 177.428 193.327Z" fill="#F6CB03"/>
<path d="M162.237 190.21L161.217 190C161.017 189.96 160.877 189.82 160.917 189.7L162.297 185.42C162.337 185.29 162.537 185.23 162.737 185.27L163.757 185.48C163.957 185.52 164.097 185.66 164.057 185.78L162.677 190.06C162.637 190.19 162.437 190.25 162.237 190.21Z" fill="#F6CB03"/>
</g>
<defs>
<clipPath id="clip0_905_845">
<rect width="500" height="372.61" fill="white"/>
</clipPath>
</defs>
</svg>
