<svg width="21" height="23" viewBox="0 0 21 23" fill="none" xmlns="http://www.w3.org/2000/svg">
<path fill-rule="evenodd" clip-rule="evenodd" d="M9.26903 0.0158932C5.65403 0.462269 2.99003 3.32583 2.80583 6.96323C2.70247 9.00415 3.97328 11.9149 7.51724 17.7545C7.96551 18.4931 8.59495 19.5383 8.91597 20.0771C9.64146 21.2946 9.69591 21.3555 10.059 21.3555C10.3988 21.3555 10.5083 21.2483 10.961 20.4721C11.1485 20.1505 11.5366 19.5035 11.8234 19.0343C16.2182 11.8433 17.4667 9.04172 17.2944 6.75745C17.04 3.38359 14.6546 0.72344 11.3119 0.0859494C10.9703 0.0207909 9.60775 -0.0259131 9.26903 0.0158932ZM10.5962 1.32326C13.4346 1.61698 15.5809 3.70518 15.9547 6.53663C16.2018 8.4084 15.0044 11.2084 11.4075 17.1699C10.8517 18.091 10.3263 18.962 10.2398 19.1054C10.0485 19.4228 10.0695 19.4228 9.87821 19.1054C9.79178 18.962 9.26634 18.091 8.71057 17.1699C5.0811 11.1545 3.92822 8.45564 4.16392 6.52646C4.55238 3.34725 7.45619 0.998294 10.5962 1.32326ZM9.66402 4.15532C8.05238 4.48452 7.02681 5.68091 7.02681 7.23182C7.02681 10.0162 10.4243 11.3842 12.352 9.37614C13.8913 7.77278 13.2771 5.07799 11.2003 4.32346C10.7517 4.16047 10.0271 4.08115 9.66402 4.15532ZM10.691 5.25843C12.1842 5.70439 12.6636 7.5797 11.5635 8.67109C10.2972 9.92733 8.18586 9.12224 8.07902 7.34242C7.99553 5.95119 9.36149 4.86135 10.691 5.25843ZM6.80426 19.2245C1.55174 19.5064 -0.373246 20.1251 0.0586262 21.3925C0.41033 22.4247 3.98933 23 10.059 23C16.1487 23 19.6937 22.4275 20.0616 21.3847C20.5053 20.1272 18.4784 19.4838 13.2632 19.2263C12.0493 19.1664 11.8416 19.2453 11.8028 19.7808C11.7624 20.3398 11.9825 20.4839 12.9526 20.5336C15.0591 20.6414 16.9348 20.834 17.7693 21.0282L18.0063 21.0834L17.8167 21.1246C14.3756 21.8722 5.73493 21.8723 2.30131 21.1247L2.11172 21.0834L2.34871 21.0282C3.18291 20.8341 5.05945 20.6414 7.1632 20.5337C8.17815 20.4818 8.44109 20.2939 8.31687 19.7093C8.21622 19.2358 7.98368 19.1612 6.80426 19.2245Z" fill="#333333"/>
</svg>
