<svg width="12" height="12" viewBox="0 0 12 12" fill="none" xmlns="http://www.w3.org/2000/svg">
<path d="M4 8.5L6 10.5L8 8.5" stroke="#333333" stroke-width="0.8" stroke-linecap="round" stroke-linejoin="round"/>
<path d="M6 6V10.5" stroke="#333333" stroke-width="0.8" stroke-linecap="round" stroke-linejoin="round"/>
<path d="M10.4396 9.04497C10.8743 8.73929 11.2003 8.30304 11.3702 7.79954C11.5402 7.29604 11.5453 6.75148 11.3848 6.24488C11.2243 5.73828 10.9065 5.29601 10.4776 4.98225C10.0487 4.66848 9.53102 4.49955 8.9996 4.49997H8.3696C8.21922 3.9139 7.93784 3.36959 7.54666 2.90801C7.15548 2.44642 6.66467 2.0796 6.1112 1.83514C5.55774 1.59069 4.95602 1.47498 4.35136 1.49672C3.7467 1.51847 3.15486 1.6771 2.62038 1.96068C2.0859 2.24426 1.62271 2.64539 1.26569 3.13388C0.908675 3.62237 0.667126 4.18549 0.559231 4.78084C0.451335 5.37619 0.479905 5.98826 0.64279 6.57098C0.805675 7.15369 1.09863 7.69186 1.4996 8.14497" stroke="#333333" stroke-width="0.8" stroke-linecap="round" stroke-linejoin="round"/>
</svg>
