<svg width="12" height="13" viewBox="0 0 12 13" fill="none" xmlns="http://www.w3.org/2000/svg">
<g clip-path="url(#clip0_714_16026)">
<path d="M8.5 2.29849C8.63132 2.16717 8.78722 2.063 8.95881 1.99193C9.13039 1.92086 9.31428 1.88428 9.5 1.88428C9.68572 1.88428 9.86962 1.92086 10.0412 1.99193C10.2128 2.063 10.3687 2.16717 10.5 2.29849C10.6313 2.42981 10.7355 2.58571 10.8066 2.75729C10.8776 2.92888 10.9142 3.11277 10.9142 3.29849C10.9142 3.48421 10.8776 3.66811 10.8066 3.83969C10.7355 4.01127 10.6313 4.16717 10.5 4.29849L3.75 11.0485L1 11.7985L1.75 9.04849L8.5 2.29849Z" stroke="#737373" stroke-width="0.9" stroke-linecap="round" stroke-linejoin="round"/>
</g>
<defs>
<clipPath id="clip0_714_16026">
<rect width="12" height="12" fill="white" transform="translate(0 0.79834)"/>
</clipPath>
</defs>
</svg>
