<svg width="234" height="190" viewBox="0 0 234 190" fill="none" xmlns="http://www.w3.org/2000/svg">
<path fill-rule="evenodd" clip-rule="evenodd" d="M169.488 91.9704C164.014 87.5975 157.764 85.8013 150.734 86.5804L116.972 90.344C114.6 90.604 112.511 90.0191 110.705 88.569C108.893 87.1231 107.859 85.2156 107.595 82.8436C107.331 80.469 107.917 78.3788 109.367 76.5673C110.814 74.7614 112.72 73.724 115.096 73.4641C115.096 73.4641 123.526 72.6607 133.567 71.6655C150.172 70.0116 171.174 67.8239 165.731 67.8239C156.991 67.8239 147.344 52.1869 147.344 52.1869L133.567 53.9619L113.215 56.5801C106.179 57.3664 100.478 60.4932 96.1018 65.9636C91.7289 71.4373 89.9328 77.6875 90.7159 84.7201C91.5015 91.7551 94.625 97.457 100.099 101.832C105.569 106.21 111.819 108.001 118.852 107.219L152.612 103.459C154.986 103.191 157.073 103.787 158.882 105.23C160.688 106.676 161.724 108.585 161.988 110.955C162.249 113.334 161.663 115.424 160.22 117.23C158.774 119.039 156.866 120.075 154.495 120.335L131.612 122.873L102.965 125.474L103.039 143.323C103.039 143.323 126.308 141.216 140.092 139.276L140.098 139.295L156.371 137.215C163.403 136.432 169.104 133.306 173.484 127.835C177.857 122.365 179.653 116.114 178.867 109.082C178.085 102.048 174.955 96.3465 169.488 91.9704Z" fill="url(#paint0_linear_1_3370)"/>
<path fill-rule="evenodd" clip-rule="evenodd" d="M63.3594 101.197V149.021L97.0949 144.194C97.0949 144.194 97.0503 110.613 97.0503 108.091C96.4174 107.651 95.7862 107.193 95.1705 106.699C88.4222 101.305 84.5172 94.1884 83.5554 85.5335C82.5928 76.8844 84.8349 69.0768 90.2281 62.3318C92.2606 59.7916 94.5401 57.6543 97.0503 55.9232C97.0503 37.8507 97.0503 21.6515 97.0503 13.705C96.0738 13.705 95.164 13.705 94.2517 13.705C91.1729 13.705 88.09 13.7018 85.0079 13.7018C81.098 13.7018 77.193 13.7115 73.2872 13.7489C72.5488 13.7554 71.6 14.1518 71.115 14.6937C68.2303 17.9228 64.9484 20.5581 61.322 22.6409C58.9971 23.9789 56.5324 25.0934 53.9304 25.9781C50.3666 27.1942 46.5859 27.801 42.6711 28.7417C42.6711 36.8214 42.6711 45.2651 42.6711 53.8736C45.3129 54.1376 47.949 54.253 50.5981 54.253C54.1392 54.253 57.7046 54.0328 61.322 53.677C62.028 53.6088 62.7347 53.5413 63.4463 53.4601C63.4463 54.2156 63.4463 54.9475 63.4463 55.6754C63.448 60.6178 63.3968 81.0136 63.3594 101.197Z" fill="url(#paint1_linear_1_3370)"/>
<path fill-rule="evenodd" clip-rule="evenodd" d="M42.3368 0C38.4334 0 34.5219 0.00974873 30.6153 0.0471171C29.8777 0.053616 28.9288 0.450858 28.4438 0.992699C23.7127 6.29332 17.9206 10.0164 11.2601 12.2788C7.69301 13.4949 3.91637 14.1017 0 15.04C0 23.1221 0 31.5641 0 40.1743C2.64341 40.4391 5.27788 40.5536 7.92372 40.5536C12.165 40.5536 16.4234 40.2522 20.7793 39.7616C20.7793 40.513 20.7793 41.2458 20.7793 41.9769C20.7793 46.2824 20.7687 98.4966 20.6948 133.567L20.6168 133.574V155.322L54.3856 150.356C54.3856 150.356 54.3856 70.2184 54.3856 60.4214C53.0948 60.4653 51.8283 60.4994 50.5992 60.4994C47.6715 60.4994 44.799 60.3605 42.0524 60.0859L36.4334 59.527V53.873V28.742V23.8207L41.223 22.6696C42.5195 22.3577 43.7901 22.0823 45.02 21.8223C47.4887 21.2902 49.8234 20.7858 51.9193 20.0709C52.7634 19.7866 53.5798 19.4649 54.3856 19.1261C54.3856 11.1244 54.3856 4.42084 54.3856 0.00649993C53.4067 0.00649993 52.492 0.00649993 51.5846 0.00649993C48.505 0.00568757 45.4196 0 42.3368 0Z" fill="url(#paint2_linear_1_3370)"/>
<path fill-rule="evenodd" clip-rule="evenodd" d="M233.957 164.262L64.7283 190L20.4321 165.553L189.659 139.816L233.957 164.262Z" fill="#333334"/>
<path d="M55.8055 181.642C54.5049 181.642 53.4529 181.105 52.7624 180.088C51.6698 178.486 52.1685 176.303 52.6893 174.902C52.2985 174.9 51.9476 174.74 51.7006 174.447C51.2027 173.858 51.3115 172.925 51.3562 172.654L51.4545 172.381C51.2709 172.41 51.0719 172.427 50.855 172.427C50.8444 172.427 50.8355 172.427 50.8249 172.427L50.461 174.18L50.4147 174.275C49.1547 176.924 47.0166 178.568 44.8378 178.568C44.1278 178.568 43.4333 178.395 42.7696 178.057C42.1546 177.739 41.7298 177.206 41.5429 176.516C40.9889 174.469 42.6875 171.261 43.4349 169.988C43.3545 169.915 43.2805 169.834 43.2147 169.742C42.8134 169.192 42.8589 168.502 42.9012 168.212C42.8987 168.147 42.8857 168.066 42.8857 168.066C40.8037 166.525 40.5787 162.351 40.5592 161.88C40.5267 161.409 40.6818 160.963 41.0092 160.612C41.4942 160.094 42.3374 159.83 43.5161 159.823C43.5844 159.315 43.772 158.928 43.9426 158.67C43.8565 157.484 44.1985 156.466 44.4032 155.98C44.3001 155.261 44.3537 154.078 44.4463 152.462C44.4739 151.939 44.5015 151.461 44.5096 151.104C44.5421 149.86 44.3797 148.219 44.0945 146.922C43.876 145.924 44.0117 144.788 44.1303 143.786C44.1928 143.261 44.2554 142.77 44.2416 142.376C44.2318 142.047 44.175 141.77 44.1205 141.502C43.9865 140.835 43.8362 140.08 44.2188 138.928C44.4788 138.149 44.5397 137.67 44.5511 137.45C44.0474 136.553 44.2984 135.927 44.4252 135.612C44.4284 135.605 44.4308 135.6 44.4341 135.598C44.2115 134.907 44.1758 133.406 44.1758 132.537C44.0515 131.734 44.179 131.094 44.3358 130.653C44.1262 130.351 43.9597 129.99 43.7769 129.597C43.6104 129.237 43.4195 128.825 43.162 128.393C42.7371 127.687 41.8532 126.212 40.9938 125.769C40.0287 125.271 39.7777 124.737 39.5689 124.14C39.5315 124.033 39.4933 123.92 39.4357 123.798C39.2829 123.475 39.2748 123.212 39.2716 123.055C39.2683 122.941 39.2594 122.597 37.4576 120.951C34.9937 118.697 33.5761 115.258 33.1789 114.202C32.2561 113.608 31.9555 112.834 31.9262 112.202C31.7459 112.058 31.6281 111.898 31.5493 111.756C31.1212 110.983 31.4478 110.048 31.6866 109.366C31.8158 108.995 31.8036 108.63 31.7678 108.393C31.6005 108.209 31.4892 107.98 31.4453 107.723C31.3389 107.106 31.6639 106.386 32.0546 105.784C31.8775 105.684 31.767 105.599 31.7402 105.577C30.9823 104.874 30.8084 103.854 30.8255 103.004L29.6703 103.405L28.9051 100.864L28.7922 100.29L28.702 100.179C28.3698 99.9219 28.1715 99.5734 28.1415 99.1875C28.1074 98.7757 28.2698 98.4304 28.4339 98.1916V97.0193L27.7516 96.6627L27.8206 95.8349L27.4802 94.523L28.4234 93.778C27.9953 86.9559 34.0595 85.9039 34.122 85.8941C34.8223 85.7292 35.5567 85.6399 36.2439 85.6399C40.4568 85.6399 42.3577 88.9973 42.8866 91.1273L43.6339 91.4588C43.8614 90.8357 44.1116 90.0055 44.3025 89.1947C44.5105 87.9933 44.8265 86.8958 44.9995 86.3312C44.8898 86.0355 44.9305 85.778 44.9662 85.6496C45.0596 85.3092 45.2887 85.0761 45.5405 84.9193C45.1473 83.2637 45.6851 82.189 46.1441 81.6155C45.9857 80.7137 46.5154 79.756 46.8119 79.3051C46.9898 78.1402 48.019 77.6333 48.8038 77.552C49.7039 77.2133 50.6202 77.0419 51.53 77.0419C53.5731 77.0419 55.1085 77.9005 55.8664 78.4367L55.9923 78.362C56.4513 77.7519 57.1393 77.4188 57.9485 77.4188C58.5439 77.4188 59.0988 77.5967 59.4513 77.7405C61.825 76.8372 65.5302 74.799 66.0078 74.275C66.4563 73.7778 67.0972 73.5122 67.8551 73.5122C68.2995 73.5122 68.6342 73.6048 68.6967 73.6219L71.7187 74.5317C73.1322 74.9379 73.986 75.47 74.3166 76.1548C74.566 76.6698 74.4295 77.0858 74.3808 77.2027L74.0315 78.5009L73.3134 79.0151C69.9315 82.1955 65.6975 83.254 63.7657 83.5862C64.0874 85.3685 63.795 87.7487 63.7536 88.0688L63.6731 88.6667L62.9631 88.83C62.9371 89.0518 62.8713 89.2565 62.7609 89.4441C62.3847 90.0859 61.6617 90.2313 61.4229 90.2792L61.3384 90.2963L61.1191 90.3077C60.6633 90.3077 59.9509 90.1257 59.3847 89.9567C59.2068 90.6229 58.9964 91.7593 58.8607 92.7293L58.7576 93.4775H58.4765C58.4627 93.9226 58.4472 94.5149 58.4318 95.1777C58.4034 96.458 58.1093 97.7635 58.0053 98.1875C58.0573 99.6035 57.2523 101.691 56.9956 102.317C56.9095 102.525 56.7746 102.821 56.6162 103.166C56.2458 103.976 55.6852 105.202 55.5325 105.892C55.37 106.63 54.9297 107.128 54.4691 107.445C55.236 108.551 56.2815 110.276 56.669 110.922L60.3035 117.552C61.206 119.195 62.5545 121.428 63.0436 122.231C63.7129 122.492 64.1987 123.171 64.5261 123.814C64.7438 123.959 65.0679 124.185 65.5456 124.532C67.4083 125.888 68.5091 128.891 69.3149 131.084C69.5091 131.615 69.6894 132.103 69.856 132.506C70.514 134.085 71.6854 136.24 72.1046 136.993C73.9332 137.808 74.2541 140.299 74.1395 141.715C74.133 141.763 74.0087 142.815 74.0087 144.928C74.0087 146.134 73.8869 147.004 73.6359 147.554C73.8122 148.543 73.4312 149.424 73.1736 149.881C73.2329 150.673 72.9381 151.277 72.7179 151.608C72.6001 152.94 72.1826 153.697 71.8601 154.095C71.7788 154.942 71.2914 155.562 71.0258 155.841C70.6293 156.767 68.5814 161.548 67.4027 164.204C66.349 166.581 63.8803 172.144 63.3059 175.073C63.1768 175.738 62.7868 177.735 61.3807 177.828C60.8502 178.85 59.8746 179.73 59.2369 180.306L58.959 180.558C58.4042 181.084 57.1085 181.642 55.8055 181.642ZM53.5081 160.641C54.0483 160.923 54.6933 161.461 55.0353 162.337L58.8599 151.348L59.3611 149.793C59.0906 149.082 58.6089 147.454 59.3766 146.414C59.1906 145.599 59.1451 144.528 59.6032 143.677L59.1166 143.333C58.5106 144.539 57.405 146.905 56.5545 149.673C55.9062 152.993 55.3067 154.187 54.8981 154.653L53.4772 160.528L53.5081 160.641ZM50.4163 97.8C50.907 96.6806 51.7087 95.2192 52.2059 94.4019C52.6649 93.6562 53.1247 92.4442 53.3367 91.7309C53.1905 91.6261 53.0548 91.4848 52.95 91.2987C52.669 90.8016 52.6893 90.1761 53.011 89.3905L53.197 88.1647L53.1239 87.9421L53.4131 87.4246C53.4301 87.4002 53.4464 87.3791 53.4659 87.3572L53.3262 87.0241C53.1564 87.0834 52.9354 87.1947 52.6755 87.4019C52.3529 88.5879 51.0093 93.5579 50.7518 95.1014C50.6023 95.995 50.4488 96.6059 50.2506 97.012C50.2944 97.2176 50.3537 97.4954 50.4163 97.8Z" fill="#333334"/>
<path d="M67.8581 74.3803C68.2009 74.3803 68.456 74.4559 68.456 74.4559L71.4707 75.3641C73.9167 76.0652 73.5836 76.871 73.5836 76.871L73.2806 77.975L72.8127 78.3105C68.4568 82.3959 62.6623 82.863 62.6623 82.863C63.3666 84.3699 62.8979 87.9564 62.8979 87.9564L62.027 88.1563C62.3284 89.0954 61.7598 89.3285 61.2569 89.4301C61.2195 89.4374 61.1749 89.4406 61.1245 89.4406C60.4933 89.4406 58.9124 88.8931 58.9124 88.8931C58.477 89.2278 58.0083 92.6104 58.0083 92.6104H57.6395C57.6395 92.6104 57.6054 93.716 57.5712 95.1572C57.5396 96.5967 57.1374 98.1052 57.1374 98.1052C57.2374 99.2441 56.5014 101.253 56.2 101.988C55.8962 102.727 54.9278 104.636 54.6923 105.706C54.4575 106.777 53.3535 107.013 53.3535 107.013L53.1861 107.181C53.7223 107.684 55.9327 111.368 55.9327 111.368C55.9327 111.368 58.4112 115.889 59.5501 117.968C60.6883 120.043 62.4982 122.99 62.4982 122.99C63.1586 123.015 63.6696 123.999 63.8597 124.415C64.0327 124.516 64.3845 124.755 65.0425 125.235C67.1189 126.743 68.2245 130.829 69.0628 132.838C69.8979 134.846 71.508 137.695 71.508 137.695C73.5519 138.298 73.283 141.647 73.283 141.647C73.283 141.647 73.149 142.718 73.149 144.929C73.149 147.139 72.7136 147.409 72.7136 147.409C73.1149 148.58 72.2806 149.687 72.2806 149.687C72.4796 150.657 71.8785 151.293 71.8785 151.293C71.7753 153.206 71.0084 153.739 71.0084 153.739C71.075 154.677 70.3033 155.345 70.3033 155.345C70.3033 155.345 67.9255 160.909 66.6185 163.855C65.3106 166.802 63.0343 171.993 62.4641 174.909C62.1318 176.612 61.6387 176.965 61.2894 176.965C61.0376 176.965 60.8588 176.785 60.8588 176.785C60.5916 178.057 59.027 179.316 58.3755 179.926C58.0059 180.273 56.9295 180.775 55.8109 180.775C54.9595 180.775 54.083 180.481 53.4843 179.601C52.0976 177.564 54.0586 173.971 54.0586 173.971L53.4892 173.703C53.1423 173.942 52.8864 174.035 52.6979 174.035C52.0099 174.035 52.217 172.796 52.217 172.796L53.1553 170.253C53.0107 170.467 52.8474 170.531 52.7085 170.531C52.5249 170.531 52.3827 170.423 52.3827 170.423C52.3827 171.38 51.5159 171.56 50.8604 171.56C50.4607 171.56 50.1382 171.493 50.1382 171.493L49.6378 173.903C48.6166 176.049 46.8027 177.701 44.8432 177.701C44.2917 177.701 43.7303 177.572 43.1706 177.286C40.6263 175.979 44.4793 169.95 44.4793 169.95L44.4436 169.516C43.5402 169.417 43.7758 168.277 43.7758 168.277C43.7758 167.474 43.4078 167.372 43.4078 167.372C41.5987 166.033 41.4313 161.848 41.4313 161.848C41.3647 160.863 42.6539 160.692 43.5581 160.692C44.039 160.692 44.4119 160.742 44.4119 160.742C44.1763 159.536 44.8489 158.931 44.8489 158.931C44.6133 157.393 45.3144 156.086 45.3144 156.086C45.0788 155.349 45.3493 152.435 45.3818 151.128C45.416 149.822 45.2478 148.113 44.9472 146.738C44.6475 145.366 45.1503 143.489 45.1146 142.352C45.0788 141.214 44.5792 140.61 45.0472 139.203C45.5159 137.798 45.416 137.196 45.416 137.196C44.7133 136.157 45.5159 135.921 45.2819 135.385C45.0471 134.849 45.0472 132.54 45.0472 132.54C44.8489 131.199 45.3818 130.494 45.3818 130.494C44.8489 130.161 44.6134 129.123 43.9099 127.95C43.2055 126.776 42.3688 125.504 41.3964 125.001C40.4265 124.498 40.5256 124.065 40.2234 123.426C39.9228 122.79 40.7928 122.824 38.0479 120.312C35.3005 117.8 33.8935 113.614 33.8935 113.614C32.4199 112.843 32.8569 111.702 32.8569 111.702C31.8179 111.467 32.2883 110.299 32.5539 109.528C32.8228 108.758 32.5539 107.918 32.5539 107.918C31.6157 107.416 33.5239 105.306 33.5239 105.306C32.7895 105.306 32.2883 104.902 32.2883 104.902C31.2468 103.934 31.8854 101.722 31.8854 101.722L30.2436 102.29L29.7383 100.615L29.6067 99.9119L29.3053 99.5431C28.6343 99.1117 29.3053 98.5065 29.3053 98.5065V96.4959L28.6684 96.162L28.7017 95.7632L28.4678 94.855L28.8041 94.5885L29.0713 94.7884L29.3053 94.6194V93.9159C28.8358 87.6201 34.2631 86.7517 34.2631 86.7517C34.9886 86.5827 35.6466 86.508 36.2485 86.508C41.251 86.5088 42.1332 91.7412 42.1332 91.7412L43.3412 92.2765L43.5394 93.2489L43.7084 93.1133C44.377 92.6762 45.1495 89.3943 45.1495 89.3943C45.4476 87.6867 45.9521 86.2156 45.9521 86.2156C45.4151 85.7103 46.4525 85.4763 46.4525 85.4763L46.5524 85.2749C45.6824 82.8305 47.156 81.8264 47.156 81.8264C46.5866 81.0538 47.6572 79.6144 47.6572 79.6144C47.6922 78.4446 48.9984 78.4088 48.9984 78.4088C49.9107 78.0481 50.7629 77.9092 51.5338 77.9092C54.1244 77.9092 55.7987 79.4819 55.7987 79.4819L56.6013 79.0132C56.9465 78.4543 57.4599 78.2862 57.9522 78.2862C58.7069 78.2862 59.4169 78.6793 59.4169 78.6793C61.6931 77.8743 65.9791 75.5964 66.6509 74.8596C67.0011 74.473 67.482 74.3803 67.8581 74.3803ZM50.0025 100.348C50.0025 100.348 50.6045 99.8453 50.94 98.8412C51.2747 97.8371 52.3137 95.8964 52.9489 94.8558C53.585 93.8192 54.2901 91.8411 54.3234 91.2717L54.0221 91.1059C54.0221 91.1059 53.2519 91.006 53.8547 89.6307L54.0887 88.0929C54.0887 88.0929 53.9888 87.7891 54.5899 87.7891L53.8864 86.1148C53.8864 86.1148 53.8052 86.0913 53.6622 86.0913C53.3389 86.0913 52.6971 86.2026 51.9124 86.9183C51.9124 86.9183 50.2032 93.1482 49.8994 94.9589C49.6004 96.7648 49.3307 96.8322 49.3307 96.8322C49.3307 96.8322 49.7686 98.9427 49.9676 99.8453L50.0025 100.348ZM54.3884 166.838L59.6809 151.633L60.2861 149.756C60.2861 149.756 59.2138 147.41 60.3536 146.674C60.3536 146.674 59.5485 144.395 60.8865 143.524L58.8117 142.051C58.8117 142.051 57.001 145.266 55.728 149.418C55.728 149.418 54.8588 153.839 54.1212 154.176L52.5809 160.54L52.7808 161.276C52.7808 161.276 53.9871 161.611 54.3218 162.952C54.3218 162.952 55.0586 164.692 53.9871 165.966L54.3884 166.838ZM67.8581 72.646C66.8622 72.646 65.9767 73.0196 65.3634 73.698C64.8914 74.1342 61.7086 75.9059 59.4454 76.8134C59.0392 76.6761 58.516 76.5518 57.9514 76.5518C57.1025 76.5518 56.3527 76.8255 55.767 77.3373C54.8206 76.7809 53.3649 76.174 51.533 76.174C50.5541 76.174 49.572 76.3511 48.6069 76.7004C47.4241 76.8548 46.286 77.6355 45.9919 78.9767C45.5484 79.6875 45.2316 80.5339 45.2543 81.356C44.7563 82.1067 44.3973 83.192 44.5963 84.5819C44.3932 84.8013 44.225 85.0766 44.1308 85.4211C44.0488 85.7192 44.0415 86.0247 44.0983 86.3187C43.9139 86.9426 43.6426 87.9426 43.4484 89.0434C43.4005 89.2383 43.3501 89.4365 43.2973 89.6348C42.3453 87.3829 40.199 84.7736 36.2445 84.7736C35.5068 84.7736 34.7262 84.8662 33.9219 85.049C31.5758 85.4528 27.4336 87.6876 27.5401 93.3732L27.389 93.4918L26.5002 94.1937L26.7854 95.2896L26.9454 95.9118L26.9373 96.0166L26.839 97.1629L27.5669 97.5463V97.9468C27.3792 98.2921 27.233 98.7356 27.276 99.2604C27.3215 99.8176 27.5701 100.321 27.9893 100.711L28.0315 100.935L28.0486 101.026L28.0762 101.113L28.5799 102.789L29.1006 104.52L30.0462 104.194C30.1721 104.829 30.4369 105.467 30.9333 106.003C30.6441 106.611 30.4849 107.252 30.5913 107.871C30.6449 108.185 30.7643 108.476 30.9365 108.732C30.9381 108.818 30.9316 108.903 30.9138 108.955L30.8707 109.08C30.6116 109.823 30.1762 111.066 30.7944 112.178C30.8821 112.338 30.9869 112.486 31.1096 112.62C31.2363 113.352 31.6343 114.138 32.4678 114.763C32.9926 116.101 34.4524 119.377 36.8757 121.591C37.9358 122.56 38.2957 123.014 38.4102 123.182C38.424 123.422 38.4638 123.766 38.6507 124.165C38.6986 124.263 38.7262 124.35 38.7538 124.428C38.9927 125.11 39.3533 125.896 40.5971 126.539C41.2396 126.871 42.0983 128.302 42.4208 128.841C42.6499 129.222 42.8245 129.6 42.9935 129.964C43.1202 130.24 43.251 130.52 43.4021 130.788C43.2819 131.285 43.2169 131.911 43.3103 132.658C43.316 134.235 43.4224 135.084 43.528 135.555C43.3778 136.012 43.2567 136.73 43.6645 137.614C43.6328 137.826 43.5614 138.167 43.4013 138.653C42.944 140.024 43.1349 140.977 43.2738 141.672C43.3274 141.949 43.3721 142.165 43.381 142.404C43.3899 142.704 43.3331 143.181 43.2721 143.684C43.1479 144.755 43.0025 145.968 43.2527 147.107C43.5232 148.344 43.6775 149.903 43.6466 151.081C43.6385 151.434 43.6109 151.903 43.5825 152.414C43.4915 154.057 43.4468 155.118 43.5199 155.865C43.3014 156.436 43.0382 157.367 43.0674 158.451C42.9797 158.616 42.8993 158.795 42.8319 158.99C41.7392 159.09 40.9326 159.43 40.3793 160.023C39.8911 160.545 39.6499 161.233 39.6986 161.964C39.7287 162.711 39.9862 166.572 42.0122 168.464C41.9968 168.901 42.0585 169.502 42.3916 170.064C41.4549 171.741 40.1365 174.624 40.7084 176.742C40.961 177.677 41.5378 178.398 42.3769 178.829C43.1649 179.231 43.9927 179.436 44.8416 179.436C47.26 179.436 49.6037 177.745 51.0302 174.994C51.035 174.999 51.0383 175.004 51.044 175.009C51.204 175.199 51.3925 175.356 51.5996 175.478C51.1715 177.008 50.9733 178.997 52.0505 180.577C52.8978 181.823 54.2333 182.51 55.8101 182.51C57.3519 182.51 58.8645 181.847 59.5623 181.19L59.8239 180.95C60.434 180.402 61.3251 179.599 61.9385 178.613C63.0392 178.307 63.7882 177.176 64.166 175.241C64.72 172.41 67.1619 166.906 68.2042 164.557C69.3317 162.017 71.2741 157.488 71.7769 156.311C72.0986 155.94 72.5454 155.289 72.6949 154.437C73.0539 153.925 73.4276 153.118 73.5665 151.9C73.8435 151.419 74.0523 150.795 74.0556 150.089C74.3367 149.529 74.6453 148.658 74.5373 147.662C74.7729 147.002 74.8842 146.106 74.8842 144.93C74.8842 142.886 75.0036 141.87 75.0036 141.86C75.1393 140.206 74.768 137.449 72.7396 136.338C72.253 135.452 71.2473 133.575 70.6648 132.175C70.5023 131.782 70.3277 131.306 70.1384 130.787C69.2944 128.49 68.1408 125.343 66.0628 123.833C65.6745 123.551 65.4007 123.356 65.1993 123.218C64.7143 122.336 64.1708 121.832 63.6566 121.556C63.0912 120.624 61.8946 118.631 61.0733 117.135L57.4559 110.536C56.8718 109.562 56.2057 108.475 55.6192 107.587C55.9668 107.2 56.2512 106.705 56.3876 106.08C56.5201 105.481 57.0798 104.26 57.4153 103.528C57.5769 103.172 57.7175 102.864 57.806 102.648C58.1464 101.818 58.8938 99.8185 58.8824 98.2815C59.0116 97.738 59.2788 96.4594 59.3073 95.1978C59.3138 94.8964 59.3211 94.6096 59.3276 94.3456H59.5193L59.7272 92.8501C59.8133 92.2262 59.9271 91.5714 60.0376 91.0263C60.4299 91.1141 60.815 91.1758 61.1261 91.1758C61.3081 91.1758 61.4681 91.1571 61.6022 91.1295C62.4925 90.95 63.1351 90.5316 63.5144 89.8825C63.5697 89.7883 63.6241 89.6803 63.6729 89.5584L64.4633 89.3781L64.6184 88.1823C64.6785 87.7184 64.8833 85.9499 64.7354 84.2789C66.9743 83.7899 70.7533 82.5795 73.9158 79.6558L74.2928 79.3845L74.7932 79.027L74.9532 78.4356L75.2441 77.3787C75.4041 76.8727 75.3553 76.2991 75.1019 75.7792C74.6527 74.8466 73.6502 74.1846 71.9499 73.6972L68.9564 72.7962C68.8281 72.7573 68.4056 72.646 67.8581 72.646ZM57.412 149.844C57.6281 149.145 57.8604 148.474 58.096 147.842C58.0912 148.501 58.2284 149.185 58.4445 149.816L58.0302 151.101L54.7694 160.467C54.663 160.371 54.5533 160.285 54.4477 160.208L55.6906 155.072C56.1919 154.392 56.7881 152.986 57.412 149.844Z" fill="white"/>
<path d="M79.8139 170.387C79.1925 170.49 78.6247 170.481 78.1112 170.359C77.5978 170.24 77.1738 169.994 76.8383 169.623C76.5028 169.251 76.2794 168.732 76.1697 168.066L75.4597 163.783L77.4451 163.454L78.1283 167.573C78.2014 168.012 78.3509 168.321 78.5784 168.504C78.8042 168.687 79.1267 168.744 79.5442 168.675C79.9715 168.604 80.2607 168.445 80.4102 168.2C80.5621 167.955 80.6011 167.613 80.528 167.175L79.8448 163.055L81.7124 162.745L82.4224 167.029C82.5865 168.015 82.4297 168.781 81.9545 169.329C81.4785 169.877 80.7652 170.228 79.8139 170.387Z" fill="white"/>
<path d="M83.5696 163.042C83.7231 162.923 83.9303 162.793 84.191 162.651C84.4494 162.51 84.7386 162.375 85.0546 162.248C85.3706 162.121 85.6923 162.006 86.0188 161.905C86.3438 161.804 86.6492 161.73 86.9335 161.683C87.5379 161.583 88.0676 161.577 88.5209 161.666C88.9734 161.754 89.343 161.958 89.6281 162.277C89.9133 162.595 90.1074 163.06 90.209 163.671L90.9807 168.325L88.9945 168.655L88.2902 164.41C88.2626 164.237 88.2114 164.083 88.1375 163.944C88.0643 163.806 87.9701 163.693 87.8556 163.604C87.7394 163.516 87.5924 163.456 87.4145 163.424C87.2349 163.393 87.0253 163.397 86.7865 163.438C86.5818 163.471 86.3811 163.53 86.1854 163.614C85.9896 163.698 85.8426 163.776 85.7443 163.849L86.6078 169.05L84.6208 169.379L83.5696 163.042Z" fill="white"/>
<path d="M91.4356 160.165L91.1748 158.59L93.2285 158.25L93.4884 159.824L91.4356 160.165ZM92.7808 168.028L91.6476 161.198L93.6338 160.868L94.7792 167.696L92.7808 168.028Z" fill="white"/>
<path d="M97.0584 167.316L96.1689 161.95L95.1697 162.116L94.9114 160.556L95.9252 160.388L95.8976 160.223C95.8237 159.777 95.805 159.387 95.8407 159.053C95.8765 158.718 95.9569 158.431 96.0812 158.189C96.2055 157.95 96.3655 157.751 96.5588 157.597C96.7522 157.443 96.9731 157.32 97.2233 157.227C97.4727 157.134 97.7343 157.066 98.0097 157.019C98.1535 156.995 98.3103 156.981 98.4825 156.975C98.6547 156.97 98.7993 156.982 98.913 157.009L99.212 158.816C99.1161 158.73 99.0146 158.667 98.9074 158.629C98.8001 158.591 98.662 158.585 98.4931 158.613C98.3769 158.631 98.2729 158.664 98.1795 158.706C98.0869 158.75 98.0089 158.809 97.9496 158.886C97.8887 158.961 97.8489 159.063 97.8286 159.187C97.8091 159.313 97.8131 159.466 97.844 159.648L97.9122 160.059L99.3785 159.815L99.6369 161.375L98.1576 161.621L99.0471 166.987L97.0584 167.316Z" fill="white"/>
<path d="M103.718 168.969C103.496 169.007 103.274 169.019 103.053 169.01C102.833 168.999 102.641 168.97 102.477 168.922L102.203 167.265C102.355 167.297 102.493 167.315 102.623 167.317C102.75 167.319 102.881 167.309 103.015 167.287C103.236 167.25 103.421 167.165 103.569 167.033C103.715 166.901 103.822 166.701 103.887 166.433C103.952 166.164 103.98 165.81 103.971 165.371L104.203 166.529L100.099 159.697L102.379 159.32L104.718 163.924L104.517 163.957L105.233 158.846L107.365 158.492L105.879 165.968C105.745 166.647 105.568 167.196 105.351 167.616C105.133 168.037 104.887 168.355 104.612 168.569C104.336 168.781 104.038 168.916 103.718 168.969Z" fill="white"/>
<path d="M108.407 157.348L108.147 155.774L110.2 155.434L110.46 157.008L108.407 157.348ZM109.753 165.212L108.62 158.382L110.607 158.053L111.751 164.882L109.753 165.212Z" fill="white"/>
<path d="M112.474 158.248C112.627 158.129 112.834 157.999 113.095 157.858C113.354 157.716 113.643 157.581 113.958 157.454C114.275 157.326 114.597 157.213 114.922 157.111C115.248 157.01 115.554 156.936 115.838 156.89C116.441 156.789 116.972 156.783 117.424 156.873C117.878 156.961 118.247 157.165 118.532 157.484C118.818 157.802 119.012 158.267 119.113 158.878L119.884 163.532L117.898 163.862L117.194 159.617C117.166 159.444 117.115 159.289 117.042 159.151C116.968 159.014 116.874 158.9 116.759 158.811C116.643 158.723 116.497 158.663 116.318 158.631C116.139 158.6 115.929 158.604 115.69 158.645C115.485 158.677 115.285 158.737 115.09 158.821C114.893 158.906 114.747 158.984 114.649 159.056L115.512 164.257L113.526 164.586L112.474 158.248Z" fill="white"/>
<path d="M124.266 163.018C123.647 163.084 123.096 163.025 122.614 162.843C122.131 162.661 121.726 162.341 121.4 161.883C121.074 161.426 120.847 160.819 120.721 160.062C120.594 159.297 120.582 158.643 120.685 158.107C120.788 157.57 120.982 157.131 121.268 156.792C121.555 156.454 121.924 156.188 122.376 155.991C122.827 155.795 123.341 155.648 123.919 155.553C124.479 155.46 124.979 155.451 125.422 155.528C125.864 155.605 126.222 155.761 126.499 155.998C126.776 156.232 126.948 156.552 127.014 156.953L127.9 162.29C127.98 162.774 127.975 163.214 127.884 163.609C127.795 164.002 127.621 164.349 127.365 164.65C127.109 164.95 126.78 165.199 126.379 165.397C125.979 165.595 125.503 165.739 124.951 165.83C124.356 165.93 123.84 165.97 123.404 165.954C122.966 165.937 122.626 165.882 122.383 165.792L122.087 164C122.229 164.032 122.436 164.073 122.709 164.12C122.982 164.168 123.283 164.196 123.614 164.203C123.943 164.209 124.268 164.186 124.588 164.133C125.005 164.064 125.318 163.951 125.525 163.795C125.732 163.639 125.863 163.452 125.918 163.237C125.974 163.021 125.98 162.785 125.938 162.53L125.752 161.407L126.186 161.631C126.078 161.865 125.939 162.074 125.769 162.262C125.6 162.449 125.39 162.609 125.143 162.739C124.897 162.869 124.604 162.962 124.266 163.018ZM124.518 161.401C124.749 161.362 124.958 161.302 125.145 161.22C125.333 161.137 125.506 161.031 125.669 160.9L125.143 157.725C125.111 157.533 125.032 157.397 124.91 157.313C124.787 157.23 124.642 157.185 124.475 157.174C124.31 157.164 124.138 157.173 123.96 157.203C123.551 157.271 123.244 157.417 123.039 157.638C122.833 157.858 122.707 158.141 122.657 158.48C122.608 158.822 122.619 159.198 122.687 159.608C122.791 160.237 123.011 160.712 123.347 161.033C123.684 161.353 124.074 161.475 124.518 161.401Z" fill="white"/>
<path d="M136.424 160.975C135.942 161.054 135.477 161.057 135.026 160.982C134.575 160.906 134.161 160.75 133.783 160.511C133.406 160.274 133.088 159.948 132.826 159.532C132.565 159.116 132.386 158.61 132.288 158.017C132.184 157.387 132.181 156.823 132.281 156.324C132.38 155.825 132.562 155.394 132.827 155.031C133.09 154.668 133.424 154.374 133.825 154.148C134.226 153.922 134.684 153.766 135.199 153.681C135.563 153.622 135.945 153.597 136.346 153.611C136.744 153.624 137.102 153.676 137.419 153.764L137.709 155.516C137.374 155.422 137.048 155.351 136.736 155.305C136.42 155.257 136.109 155.26 135.798 155.312C135.239 155.405 134.811 155.624 134.516 155.968C134.222 156.312 134.128 156.809 134.236 157.456C134.349 158.142 134.585 158.632 134.946 158.928C135.305 159.226 135.836 159.316 136.538 159.199C136.867 159.145 137.175 159.031 137.463 158.862C137.75 158.693 137.993 158.525 138.194 158.362L138.482 160.1C138.198 160.317 137.895 160.498 137.572 160.645C137.25 160.79 136.866 160.901 136.424 160.975Z" fill="white"/>
<path d="M139.925 160.21L138.896 154.009C139.003 153.878 139.204 153.716 139.501 153.521C139.796 153.326 140.143 153.137 140.537 152.956C140.931 152.772 141.337 152.647 141.756 152.577C142.173 152.508 142.507 152.486 142.757 152.509C143.008 152.534 143.203 152.586 143.345 152.665L143.593 154.158C143.435 154.145 143.24 154.15 143.005 154.17C142.771 154.189 142.529 154.22 142.279 154.256C142.029 154.292 141.795 154.334 141.575 154.379C141.354 154.425 141.169 154.474 141.022 154.527L141.91 159.879L139.925 160.21Z" fill="white"/>
<path d="M144.325 151.393L144.063 149.818L146.117 149.478L146.378 151.052L144.325 151.393ZM145.67 159.257L144.536 152.427L146.523 152.097L147.669 158.925L145.67 159.257Z" fill="white"/>
<path d="M152.636 158.286C152.155 158.366 151.69 158.368 151.239 158.293C150.788 158.218 150.375 158.062 149.997 157.824C149.619 157.586 149.302 157.26 149.04 156.843C148.78 156.427 148.599 155.922 148.502 155.329C148.396 154.699 148.394 154.135 148.494 153.636C148.594 153.137 148.776 152.705 149.04 152.343C149.304 151.98 149.636 151.686 150.038 151.46C150.44 151.235 150.897 151.079 151.413 150.993C151.776 150.934 152.159 150.909 152.558 150.923C152.958 150.936 153.316 150.988 153.631 151.075L153.922 152.828C153.586 152.733 153.261 152.663 152.948 152.616C152.634 152.569 152.322 152.572 152.011 152.624C151.452 152.717 151.024 152.936 150.73 153.28C150.435 153.624 150.341 154.12 150.448 154.768C150.563 155.453 150.799 155.942 151.158 156.24C151.518 156.537 152.049 156.628 152.751 156.511C153.08 156.456 153.388 156.343 153.676 156.175C153.963 156.006 154.205 155.837 154.407 155.674L154.694 157.412C154.41 157.629 154.108 157.809 153.785 157.957C153.463 158.105 153.079 158.213 152.636 158.286Z" fill="white"/>
<path d="M158.11 157.195L156.137 157.522L154.555 147.983L156.555 147.65L158.11 157.195ZM157.051 153.446L159.014 149.928L161.429 149.528L158.356 154.216L157.051 153.446ZM158.409 152.307L162.749 156.426L160.229 156.844L157.225 153.924L158.409 152.307Z" fill="white"/>
<path d="M166.412 156.029C165.736 156.141 165.115 156.097 164.546 155.896C163.979 155.694 163.507 155.351 163.129 154.864C162.751 154.378 162.502 153.766 162.379 153.026C162.18 151.822 162.316 150.841 162.789 150.083C163.261 149.324 164.039 148.855 165.124 148.676C165.87 148.552 166.499 148.617 167.011 148.869C167.524 149.121 167.939 149.545 168.256 150.139C168.574 150.733 168.803 151.483 168.945 152.388L163.812 153.239L163.383 151.974L167.09 151.359L166.904 152.052C166.773 151.314 166.583 150.81 166.34 150.542C166.093 150.273 165.748 150.177 165.305 150.25C165.055 150.292 164.842 150.394 164.663 150.554C164.483 150.714 164.363 150.952 164.302 151.267C164.24 151.583 164.252 152 164.339 152.52C164.447 153.177 164.685 153.658 165.05 153.962C165.416 154.268 165.937 154.364 166.613 154.252C166.861 154.211 167.103 154.14 167.338 154.039C167.573 153.941 167.79 153.831 167.99 153.714C168.189 153.597 168.359 153.493 168.5 153.405L168.79 155.156C168.493 155.346 168.154 155.517 167.773 155.67C167.388 155.822 166.935 155.942 166.412 156.029Z" fill="white"/>
<path d="M173.621 154.903C172.84 155.033 172.226 154.94 171.781 154.626C171.336 154.309 171.056 153.805 170.941 153.112L170.367 149.648L169.381 149.813L169.122 148.252L170.108 148.088L169.793 146.185L171.873 145.841L172.189 147.743L173.668 147.497L173.927 149.058L172.447 149.304L172.978 152.506C173.018 152.744 173.096 152.912 173.212 153.01C173.329 153.107 173.502 153.136 173.734 153.098C173.868 153.077 174.01 153.024 174.161 152.943C174.311 152.861 174.433 152.771 174.527 152.672L174.816 154.423C174.646 154.554 174.456 154.658 174.245 154.735C174.034 154.814 173.826 154.869 173.621 154.903Z" fill="white"/>
<path d="M113.359 178.113C113.225 178.135 113.028 178.156 112.765 178.171C112.504 178.187 112.226 178.171 111.935 178.12C111.644 178.07 111.383 177.962 111.154 177.794L111.445 177.085L112.049 180.67L110.102 180.996L108.767 173.06C108.716 172.759 108.757 172.489 108.89 172.251C109.024 172.013 109.226 171.801 109.496 171.615C109.766 171.429 110.089 171.269 110.464 171.135C110.838 171.002 111.248 170.897 111.692 170.823C112.368 170.709 112.981 170.726 113.53 170.873C114.08 171.02 114.546 171.342 114.927 171.84C115.309 172.339 115.579 173.062 115.738 174.011C115.857 174.723 115.843 175.371 115.695 175.953C115.546 176.537 115.277 177.016 114.888 177.391C114.499 177.767 113.989 178.007 113.359 178.113ZM112.496 176.569C112.851 176.51 113.133 176.397 113.344 176.23C113.552 176.062 113.693 175.822 113.763 175.505C113.833 175.188 113.825 174.779 113.741 174.277C113.67 173.857 113.566 173.509 113.428 173.232C113.29 172.956 113.099 172.755 112.855 172.633C112.61 172.51 112.292 172.481 111.901 172.548C111.474 172.619 111.176 172.714 111.011 172.831C110.842 172.948 110.77 173.076 110.793 173.212L111.341 176.469C111.526 176.542 111.726 176.583 111.937 176.594C112.15 176.604 112.336 176.596 112.496 176.569Z" fill="white"/>
<path d="M119.669 176.838L117.696 177.17L116.091 167.633L118.063 167.302L119.669 176.838Z" fill="white"/>
<path d="M124.062 176.31C123.654 176.379 123.264 176.405 122.89 176.388C122.517 176.372 122.18 176.297 121.879 176.166C121.579 176.033 121.326 175.827 121.124 175.546C120.921 175.266 120.782 174.898 120.705 174.442C120.632 174.014 120.656 173.625 120.775 173.275C120.895 172.928 121.118 172.637 121.445 172.404C121.77 172.171 122.205 172.009 122.747 171.917C123.049 171.866 123.348 171.85 123.643 171.865C123.938 171.881 124.208 171.924 124.454 171.996C124.698 172.067 124.898 172.156 125.052 172.261L125.299 173.232C125.103 173.152 124.875 173.102 124.615 173.08C124.355 173.058 124.083 173.07 123.799 173.119C123.364 173.192 123.057 173.311 122.879 173.476C122.702 173.643 122.636 173.866 122.684 174.15C122.714 174.323 122.789 174.47 122.909 174.591C123.03 174.71 123.178 174.794 123.355 174.839C123.532 174.885 123.71 174.892 123.887 174.862C124.34 174.786 124.652 174.7 124.823 174.607C124.995 174.512 125.065 174.368 125.032 174.178L124.604 171.633C124.533 171.213 124.351 170.933 124.058 170.789C123.764 170.646 123.377 170.615 122.897 170.696C122.506 170.762 122.125 170.898 121.753 171.106C121.382 171.314 121.089 171.539 120.874 171.783L120.57 169.976C120.776 169.79 121.111 169.595 121.573 169.384C122.036 169.175 122.57 169.019 123.174 168.918C123.388 168.881 123.626 168.862 123.89 168.854C124.153 168.848 124.422 168.871 124.696 168.922C124.969 168.973 125.23 169.074 125.479 169.219C125.728 169.365 125.943 169.569 126.123 169.829C126.304 170.088 126.429 170.428 126.5 170.848L127.038 174.12C127.104 174.512 127.027 174.851 126.812 175.136C126.594 175.422 126.253 175.66 125.787 175.851C125.32 176.041 124.746 176.194 124.062 176.31Z" fill="white"/>
<path d="M130.555 177.763C130.333 177.8 130.11 177.814 129.89 177.805C129.67 177.795 129.478 177.766 129.314 177.719L129.036 176.063C129.188 176.094 129.326 176.111 129.455 176.113C129.583 176.115 129.714 176.104 129.846 176.082C130.069 176.045 130.253 175.96 130.4 175.828C130.547 175.695 130.653 175.494 130.717 175.226C130.781 174.956 130.809 174.603 130.8 174.164L131.035 175.319L126.914 168.499L129.193 168.115L131.543 172.716L131.343 172.749L132.045 167.636L134.177 167.276L132.708 174.756C132.576 175.435 132.401 175.985 132.184 176.405C131.967 176.828 131.722 177.145 131.448 177.361C131.171 177.574 130.874 177.709 130.555 177.763Z" fill="white"/>
<path d="M139.215 173.759C138.539 173.873 137.917 173.829 137.349 173.63C136.782 173.43 136.308 173.087 135.929 172.602C135.55 172.116 135.299 171.504 135.175 170.766C134.972 169.562 135.106 168.581 135.576 167.822C136.046 167.062 136.824 166.591 137.908 166.408C138.655 166.284 139.284 166.347 139.797 166.596C140.309 166.849 140.726 167.271 141.045 167.865C141.364 168.459 141.595 169.208 141.738 170.112L136.608 170.976L136.176 169.711L139.882 169.087L139.696 169.781C139.562 169.042 139.373 168.541 139.127 168.273C138.881 168.004 138.536 167.908 138.092 167.983C137.843 168.024 137.631 168.126 137.451 168.287C137.273 168.448 137.152 168.686 137.092 169.001C137.031 169.317 137.044 169.734 137.132 170.256C137.243 170.912 137.481 171.392 137.847 171.696C138.214 172 138.735 172.096 139.41 171.982C139.659 171.941 139.9 171.869 140.135 171.768C140.369 171.668 140.587 171.56 140.786 171.441C140.985 171.322 141.155 171.221 141.295 171.13L141.59 172.88C141.293 173.072 140.954 173.244 140.574 173.398C140.19 173.55 139.739 173.671 139.215 173.759Z" fill="white"/>
<path d="M143.618 172.807L142.576 166.608C142.682 166.478 142.882 166.316 143.178 166.12C143.474 165.924 143.82 165.735 144.213 165.552C144.606 165.368 145.011 165.241 145.431 165.17C145.847 165.1 146.182 165.077 146.432 165.101C146.682 165.124 146.879 165.175 147.02 165.253L147.272 166.746C147.115 166.735 146.919 166.739 146.685 166.76C146.45 166.781 146.209 166.811 145.959 166.847C145.708 166.883 145.474 166.927 145.253 166.973C145.033 167.019 144.85 167.068 144.703 167.122L145.603 172.472L143.618 172.807Z" fill="white"/>
<path d="M151.263 171.731C150.783 171.811 150.363 171.828 150.004 171.782C149.645 171.735 149.303 171.672 148.979 171.596L148.677 169.803C148.885 169.9 149.116 169.994 149.369 170.088C149.623 170.181 149.896 170.246 150.19 170.28C150.483 170.316 150.786 170.307 151.097 170.255C151.417 170.202 151.632 170.106 151.741 169.97C151.852 169.835 151.892 169.684 151.863 169.52C151.838 169.365 151.75 169.251 151.601 169.177C151.451 169.104 151.264 169.053 151.041 169.025C150.818 168.996 150.581 168.975 150.332 168.962C150.111 168.952 149.885 168.916 149.655 168.857C149.427 168.797 149.213 168.7 149.017 168.563C148.821 168.427 148.651 168.248 148.508 168.023C148.366 167.799 148.265 167.513 148.207 167.166C148.132 166.719 148.154 166.334 148.272 166.009C148.391 165.684 148.573 165.407 148.818 165.178C149.063 164.951 149.338 164.77 149.645 164.638C149.952 164.507 150.258 164.42 150.562 164.379C151.115 164.304 151.563 164.293 151.905 164.343C152.247 164.394 152.565 164.478 152.859 164.598L153.129 166.198C152.797 166.076 152.47 165.965 152.147 165.863C151.824 165.764 151.472 165.745 151.09 165.81C150.742 165.868 150.502 165.965 150.371 166.099C150.238 166.235 150.187 166.393 150.218 166.576C150.247 166.749 150.321 166.878 150.441 166.961C150.559 167.045 150.708 167.101 150.887 167.132C151.065 167.163 151.262 167.188 151.476 167.208C151.707 167.226 151.947 167.255 152.196 167.292C152.445 167.33 152.685 167.403 152.918 167.508C153.15 167.615 153.352 167.783 153.523 168.012C153.694 168.241 153.814 168.561 153.883 168.971C153.967 169.53 153.896 170 153.668 170.38C153.439 170.76 153.112 171.058 152.688 171.277C152.263 171.491 151.788 171.642 151.263 171.731Z" fill="white"/>
<path d="M190.693 161.63C190.406 161.63 190.155 161.561 189.941 161.425L189.838 161.358L189.756 161.265C189.621 161.112 189.003 160.363 188.881 159.559C188.625 159.083 188.044 157.808 188.132 156.223C187.899 156.128 187.704 155.97 187.561 155.761C187.108 155.087 187.458 154.231 187.574 153.95L187.613 153.855L187.921 153.432L187.931 153.316C187.919 153.3 187.908 153.285 187.896 153.269C187.682 152.975 187.613 152.604 187.688 152.165C187.57 151.987 187.323 151.645 186.852 151.094C186.366 150.524 185.929 149.922 185.92 149.309L184.875 148.814C184.039 148.433 182.081 147.382 182.178 145.986C182.253 144.924 183.316 142.69 184.076 141.723L184.137 140.307L183.484 137.421C183.47 137.399 182.707 135.154 183.512 132.905C183.397 132.793 183.294 132.657 183.215 132.488C183.086 132.215 182.998 131.804 183.184 131.269C182.964 130.813 182.705 130.051 182.726 129.016C182.652 128.508 182.416 126.219 183.773 124.64L183.733 124.565C183.704 124.492 183.466 123.824 183.547 122.872C183.568 122.63 183.529 122.133 183.488 121.526C183.396 120.088 183.276 118.294 183.554 117.2C184.052 115.236 183.963 114.684 183.938 114.592C183.83 114.175 183.872 113.695 183.911 113.231C183.935 112.929 183.963 112.617 183.937 112.425C183.912 112.249 183.894 111.991 183.877 111.695C183.849 111.275 183.785 110.29 183.652 110.045C183.123 109.404 182.626 107.799 182.784 106.382C182.815 106.11 182.795 105.826 182.781 105.549C182.731 104.652 182.661 103.323 184.073 102.641C183.589 102.357 183.015 101.917 182.537 101.245C181.539 99.8341 180.826 98.6936 180.587 97.7155C180.505 97.3784 180.235 96.6895 179.975 96.0242C179.607 95.0916 179.192 94.0323 179.002 93.2451C178.764 92.2548 178.366 90.6764 178.184 89.9624C177.419 89.5465 175.6 88.4977 174.504 87.3596C173.124 85.9266 172.578 85.3474 172.275 84.9534C172.197 84.8519 172.124 84.8039 171.786 84.6057C171.599 84.4969 171.368 84.3612 171.074 84.1703C170.292 83.6666 169.446 83.1215 169.425 82.1833C169.412 81.5902 169.75 81.0468 170.427 80.5659C170.467 80.496 170.639 80.1962 170.635 80.0858L170.599 79.8502C170.446 78.8575 169.976 75.8388 170.603 73.2831C171.111 71.2083 171.083 70.006 171.066 69.2879C171.06 69.1141 171.057 68.9687 171.06 68.8492C171.085 68.1734 171.106 67.6063 170.421 66.7501C169.604 65.7371 168.696 65.244 168.687 65.2391L168.569 65.175L168.47 65.0759C168.464 65.0685 167.951 64.5405 167.249 63.8955C166.722 63.5762 166.013 62.8013 166.184 61.5843L166.214 61.3788C166.351 60.4219 166.418 59.9409 166.824 59.3812C167.179 58.8906 167.531 58.5892 167.572 58.5559C167.625 58.4665 168.082 57.9856 168.672 57.9856H168.866L169.132 58.0888C169.32 58.1749 169.508 58.2984 169.647 58.4706C170.141 58.4714 170.587 58.6079 170.95 58.8654L171.534 58.6046C171.619 58.5681 171.921 58.4454 172.249 58.4454C172.749 58.4454 173.155 58.7216 173.314 59.166C173.326 59.2017 173.336 59.2374 173.347 59.2716C173.634 59.4243 173.823 59.6607 173.891 59.9629C174.08 60.798 173.367 61.2594 173.099 61.4324C173.101 61.4316 173.103 61.4316 173.103 61.4316C173.161 61.4316 172.975 62.0149 173.423 62.5421C173.623 62.7777 173.798 62.9515 173.948 63.101C174.54 63.6908 174.909 64.1408 174.959 65.3082C175.043 65.6274 175.149 66.1181 175.107 66.4593C175.107 66.5064 175.161 66.6283 175.185 66.6794C175.351 67.0418 175.512 68.0296 175.512 68.6713C175.512 69.2505 175.621 70.6039 175.626 70.6819C175.632 70.6827 176.119 73.0174 176.398 74.4383C176.398 74.4383 176.726 76.0305 176.773 76.275C176.816 76.2799 176.864 76.2872 176.91 76.2953C177.483 76.0061 178.68 75.4683 179.708 75.4529C179.758 75.3757 179.812 75.301 179.871 75.2327C179.401 74.6592 178.468 73.4797 178.141 72.7648C178.043 72.5528 177.812 72.0507 178.114 71.5771L178.369 71.1766L178.903 71.149C179.206 71.149 179.455 71.2831 179.697 71.4122C179.764 71.4488 179.833 71.4894 179.891 71.5113C179.894 71.5105 180.022 71.5154 180.132 71.5284C180.132 71.5178 180.132 71.5073 180.13 71.4975C180.033 71.4366 179.941 71.3627 179.863 71.2758C179.586 70.9744 179.47 70.5649 179.515 70.0588C179.569 69.4683 179.639 69.2181 179.706 69.0117C179.71 68.5032 179.909 68.0743 180.227 67.8216L180.297 66.8728C180.282 66.794 180.189 65.3456 181.011 64.5827C181.1 63.6388 181.667 62.5088 183.098 62.1587C183.319 62.0295 183.675 61.8857 184.174 61.8857C184.457 61.8857 184.752 61.9337 185.053 62.0263C185.324 62.1099 185.608 62.1506 185.916 62.1506C186.159 62.1506 186.36 62.1254 186.501 62.1083L186.702 62.0872L187.002 62.0758C188.045 62.0758 188.903 62.6185 189.415 63.6047C189.54 63.8443 189.666 64.0563 189.782 64.2562C190.093 64.7834 190.391 65.2911 190.514 65.9467C190.566 65.7891 190.636 65.625 190.73 65.4544C190.783 64.8614 190.934 64.4828 191.126 64.2472C191.246 63.4966 191.57 61.9946 192.358 60.9832C192.336 60.9572 192.304 60.9288 192.265 60.8922C191.419 60.1627 188.697 57.9409 188.697 57.9409L184.807 55.1407L184.231 54.8296C183.955 54.7711 183.353 54.6281 182.851 54.3844C182.657 54.291 182.587 54.2804 182.583 54.2804C182.111 54.7492 180.331 55.0717 180.312 55.0757C180.205 55.0936 180.081 55.122 179.947 55.1513C179.565 55.2382 179.087 55.3446 178.639 55.3446C178.05 55.3446 177.675 55.1537 177.438 54.9368C177.196 54.8564 176.917 54.698 176.743 54.3885C176.582 54.1025 176.562 53.7646 176.679 53.438C176.645 53.1984 176.658 52.897 176.818 52.5964C176.861 52.5176 176.916 52.4323 176.989 52.3495C176.908 52.1951 176.854 52.0188 176.833 51.8231C176.786 51.3438 176.961 51.0375 177.115 50.8661C177.467 50.477 177.948 50.477 178.236 50.477C178.236 50.477 178.609 50.4697 178.634 50.4689C178.372 50.1147 178.2 49.611 178.56 48.9766C178.814 48.5257 179.223 48.2674 179.684 48.2674C179.873 48.2674 180.045 48.3096 180.196 48.373C180.076 48.0115 180.02 47.6037 180.155 47.2357C180.282 46.8945 180.544 46.6435 180.897 46.5289C181.045 46.481 181.192 46.4566 181.336 46.4566C181.982 46.4566 182.425 46.8653 182.65 47.6703C182.885 48.2121 183.022 48.4689 183.104 48.5956C183.756 48.6979 184.375 49.1212 184.844 49.793C185.025 50.0318 185.994 50.386 186.408 50.5379C186.764 50.6679 187.063 50.7833 187.232 50.8767C187.574 51.066 190.765 52.6241 192.827 53.6257C193.162 53.7597 196.519 55.1651 197.809 56.9125C198.104 57.1749 198.787 57.9019 198.898 59.1091C198.967 59.8865 198.913 60.4966 198.865 61.0344C198.843 61.3155 198.816 61.5819 198.816 61.8557C198.816 62.1213 198.791 62.6233 198.761 63.2107C198.716 64.0263 198.642 65.452 198.677 66.0815C199.045 66.4609 199.439 66.8517 199.552 66.937C200.242 67.3886 200.652 67.9232 200.762 68.5162C200.824 68.8517 200.814 69.3667 200.422 69.9134C199.801 70.7672 199.342 71.5593 199.334 71.5747L199.027 72.1799C198.962 72.5487 198.77 73.7616 198.731 75.0646C198.679 76.7258 198.468 78.8981 198.459 78.9907L198.441 79.3481C198.61 79.7397 198.796 80.4651 198.675 81.6601L198.71 82.0712L199.154 85.1167L199.161 86.0225C199.528 87.2109 200.252 89.6415 200.366 90.6764C200.713 91.3442 201.793 93.6757 201.569 96.4222L201.599 96.4556C201.666 96.4515 201.735 96.4499 201.81 96.4499C203.302 96.4499 204.337 97.1119 204.667 98.2712C205.562 98.917 207.069 100.239 206.554 101.53L206.454 101.823L206.369 101.967L206.227 104.653C206.112 106.058 205.642 110.386 204.076 111.825C203.769 114.986 202.87 115.435 202.373 115.5C202.356 115.864 202.37 116.179 202.414 116.296C202.428 116.305 202.556 116.425 202.649 116.513C203.164 116.998 204.125 117.903 203.76 119.548C203.4 121.166 203.021 122.324 202.312 122.955L202.268 124.625C202.404 124.996 202.677 125.863 202.84 127.223C202.898 127.704 202.974 128.25 203.051 128.795C203.284 130.48 203.428 131.578 203.346 132.177C203.346 132.748 203.262 134.735 202.129 135.497C201.401 135.987 200.576 136.542 199.469 136.542C199.304 136.542 199.133 136.53 198.956 136.505C198.822 136.484 198.68 136.48 198.539 136.472C197.049 136.398 195.679 135.91 195.727 132.88C195.776 129.816 195.761 128.192 195.761 128.185C195.761 127.618 195.731 126.028 195.596 125.391C195.076 122.924 195.605 122.271 195.78 122.057C195.787 122.05 195.793 122.041 195.8 122.034L195.786 121.989C195.65 121.865 195.498 121.72 195.341 121.56C195.162 122.602 194.959 123.767 194.844 124.333C194.688 125.105 194.553 125.622 194.431 126.093C194.371 126.328 194.312 126.551 194.256 126.791C194.103 127.451 194.074 127.719 193.992 128.921C193.909 130.156 193.664 132.079 193.544 133.003C193.443 133.778 193.474 134.41 193.644 135.24C193.804 136.025 193.743 137.149 193.448 138.781C193.277 139.713 193.306 140.151 193.306 140.155C193.313 140.258 193.357 141.083 193.025 142.687C192.781 143.877 192.574 145.589 192.501 146.223C192.659 146.555 192.929 147.158 193.038 147.632C193.046 147.666 193.054 147.695 193.06 147.724C193.148 147.783 193.235 147.859 193.315 147.952C193.649 148.343 193.743 148.892 193.59 149.581L193.565 149.688C193.792 150.086 193.948 150.657 193.769 151.339C194.008 151.61 194.339 152.01 194.542 152.355C194.873 152.925 194.97 153.294 194.988 153.362L195.136 153.661C195.611 154.534 196.098 155.788 195.614 156.576L195.82 156.743L195.75 157.07C195.886 157.231 196.006 157.437 196.064 157.694C196.133 158.003 196.129 158.477 195.722 158.988L195.648 159.078L195.557 159.146C194.762 159.729 192.059 161.63 190.693 161.63Z" fill="#333334"/>
<path d="M181.332 47.3215C181.738 47.3215 181.787 47.9032 181.86 48.051C181.943 48.2183 182.426 49.4361 182.792 49.4361C183.159 49.4361 183.675 49.6367 184.126 50.285C184.576 50.9357 186.326 51.3687 186.811 51.6351C187.294 51.9032 192.442 54.4028 192.442 54.4028C192.442 54.4028 196.046 55.8707 197.162 57.5036C197.162 57.5036 197.927 58.069 198.029 59.186C198.129 60.3021 197.944 61.0536 197.944 61.8529C197.944 62.6523 197.695 65.7043 197.844 66.4696C197.844 66.4696 198.831 67.5045 199.062 67.6523C199.294 67.8051 200.362 68.5045 199.713 69.4054C199.062 70.3031 198.579 71.139 198.579 71.139L198.195 71.9042C198.195 71.9042 197.911 73.3876 197.862 75.0391C197.811 76.6882 197.596 78.9051 197.596 78.9051L197.561 79.5396C197.561 79.5396 197.963 80.0708 197.812 81.5729L197.844 82.1212L198.295 85.239V86.1562C198.295 86.1562 199.545 90.1887 199.513 90.9223C199.513 90.9223 201.029 93.5389 200.68 96.6072L200.796 96.8557L201.247 97.357C201.247 97.357 201.481 97.3155 201.811 97.3155C202.49 97.3155 203.577 97.491 203.846 98.5552L203.946 98.8233C203.946 98.8233 206.114 100.29 205.749 101.206L205.664 101.456L205.516 101.707L205.363 104.606C205.363 104.606 204.881 110.542 203.247 111.36C203.247 111.36 202.997 114.641 202.165 114.641C201.33 114.641 201.58 114.659 201.58 114.659C201.58 114.659 201.381 116.06 201.615 116.625C201.846 117.191 203.281 117.709 202.916 119.359C202.548 121.008 202.18 122.044 201.58 122.425L201.446 122.608V123.026L201.397 124.776C201.397 124.776 201.779 125.644 201.982 127.326C202.179 129.01 202.613 131.477 202.48 132.109C202.48 132.109 202.513 134.194 201.646 134.777C200.896 135.281 200.283 135.674 199.47 135.674C199.346 135.674 199.216 135.665 199.081 135.646C198.063 135.493 196.547 135.977 196.596 132.893C196.645 129.808 196.63 128.175 196.63 128.175C196.63 128.175 196.63 126.077 196.446 125.21C196.264 124.35 195.967 122.443 196.79 122.443C196.796 122.443 196.805 122.443 196.812 122.443L196.629 121.776V121.576C196.629 121.576 194.977 120.143 194.828 119.376C194.828 119.376 194.229 123.01 193.995 124.159C193.763 125.309 193.58 125.876 193.412 126.593C193.244 127.311 193.212 127.628 193.128 128.861C193.044 130.094 192.794 132.044 192.678 132.945C192.561 133.843 192.627 134.594 192.794 135.412C192.961 136.227 192.794 137.527 192.596 138.626C192.394 139.727 192.443 140.227 192.443 140.227C192.443 140.227 192.494 140.977 192.178 142.512C191.862 144.046 191.612 146.377 191.612 146.377C191.612 146.377 192.063 147.261 192.195 147.829C192.322 148.365 192.404 148.379 192.412 148.379C192.412 148.379 192.963 148.411 192.746 149.395L192.628 149.881C192.628 149.881 193.212 150.395 192.878 151.296L192.862 151.627C192.862 151.627 193.513 152.312 193.796 152.795C194.078 153.28 194.146 153.563 194.146 153.563L194.344 154.013C194.344 154.013 195.228 155.646 194.863 156.145L194.645 156.413L194.678 156.929L194.863 157.081L194.795 157.397C194.795 157.397 195.58 157.781 195.046 158.448C195.046 158.448 191.882 160.765 190.695 160.765C190.582 160.765 190.485 160.745 190.412 160.697C190.412 160.697 189.729 159.913 189.729 159.297C189.729 159.297 188.662 157.613 189.096 155.548L189.062 155.414C189.062 155.414 188.902 155.466 188.72 155.466C188.38 155.466 187.965 155.289 188.378 154.28L188.762 153.748L188.846 152.882C188.846 152.882 188.844 152.882 188.839 152.882C188.778 152.882 188.349 152.854 188.613 152.049C188.613 152.049 188.495 151.681 187.513 150.531C186.528 149.381 186.712 149.063 187.112 148.913L185.246 148.032C185.246 148.032 182.978 146.997 183.045 146.049C183.111 145.098 184.328 142.632 184.93 142.065L185.012 140.23L184.33 137.231C184.33 137.231 183.446 134.698 184.63 132.53C184.63 132.53 183.478 132.363 184.163 131.231C184.163 131.231 183.544 130.43 183.595 128.962C183.595 128.962 183.146 126.463 184.596 125.03C184.596 125.03 185.062 124.646 184.545 124.262C184.545 124.262 184.345 123.731 184.41 122.946C184.476 122.162 184.028 118.862 184.393 117.412C184.762 115.962 184.911 114.895 184.778 114.38C184.644 113.861 184.878 112.928 184.796 112.312C184.711 111.695 184.728 109.996 184.345 109.528C183.962 109.061 183.511 107.679 183.645 106.48C183.778 105.277 183.161 103.91 184.63 103.345C186.095 102.779 185.863 102.744 185.746 102.462C185.666 102.268 185.493 102.238 185.392 102.238C185.343 102.238 185.311 102.244 185.311 102.244C185.311 102.244 184.094 101.945 183.244 100.745C182.395 99.5438 181.644 98.3943 181.428 97.5105C181.211 96.6283 180.16 94.3594 179.845 93.0433C179.527 91.7273 178.929 89.3772 178.929 89.3772C178.929 89.3772 176.427 88.1091 175.128 86.7598C173.825 85.4096 173.244 84.7931 172.96 84.4251C172.676 84.0595 172.394 83.9913 171.544 83.4429C170.693 82.8921 169.561 82.2423 170.927 81.2756C170.927 81.2756 171.578 80.5932 171.494 79.9766C171.41 79.36 170.793 76.1415 171.443 73.4916C172.093 70.84 171.908 69.4907 171.925 68.8741C171.943 68.2575 172.042 67.39 171.094 66.2088C170.142 65.026 169.093 64.4744 169.093 64.4744C169.093 64.4744 168.526 63.8895 167.759 63.1901C167.759 63.1901 166.894 62.7563 167.042 61.7075C167.193 60.6555 167.226 60.3054 167.525 59.8903C167.827 59.4735 168.127 59.2233 168.127 59.2233C168.127 59.2233 168.428 58.8553 168.672 58.8553C168.703 58.8553 168.73 58.861 168.76 58.8748C169.009 58.9894 169.092 59.0406 168.892 59.4735C168.892 59.4735 169.229 59.3395 169.639 59.3395C170.02 59.3395 170.462 59.4549 170.759 59.8984L171.885 59.3988C171.885 59.3988 172.076 59.3143 172.247 59.3143C172.356 59.3143 172.454 59.3476 172.493 59.4565C172.593 59.7392 172.561 59.9065 172.425 59.939C172.425 59.939 172.994 59.939 173.043 60.1567C173.093 60.3728 172.909 60.5239 172.627 60.7067C172.342 60.8903 171.908 62.1072 172.76 63.1072C173.611 64.108 174.059 64.108 174.094 65.4419C174.094 65.4419 174.277 66.0918 174.245 66.3583C174.209 66.6255 174.311 66.857 174.394 67.0406C174.478 67.2234 174.644 68.0585 174.644 68.6751C174.644 69.2917 174.761 70.7588 174.761 70.7588C174.761 70.7588 175.262 73.1585 175.544 74.6086C175.828 76.0578 176.028 76.7256 176.028 77.4607C176.028 77.4607 176.142 77.1334 176.572 77.1334C176.691 77.1334 176.837 77.1602 177.012 77.2252C177.012 77.2252 178.604 76.3242 179.756 76.3242C179.933 76.3242 180.098 76.3446 180.246 76.3941C180.246 76.3941 180.43 75.7434 180.679 75.7101L180.796 74.9936C180.796 74.9936 179.312 73.2438 178.93 72.4087C178.794 72.1171 178.811 72.0212 178.904 72.0212C179.075 72.0212 179.507 72.3486 179.712 72.3591C180.029 72.3762 181.229 72.5606 181.379 72.9944L181.446 72.693C181.446 72.693 180.761 71.9936 181.079 70.7929C181.079 70.7929 180.973 70.8287 180.843 70.8287C180.622 70.8287 180.327 70.723 180.38 70.143C180.463 69.2267 180.579 69.3266 180.579 69.0098C180.579 68.7458 180.697 68.4566 180.909 68.4566C180.952 68.4566 180.997 68.4688 181.047 68.4923L181.164 66.9423C181.164 66.9423 181.03 65.3574 181.878 65.0577C181.878 65.0577 181.664 63.3079 183.448 62.9756C183.448 62.9756 183.684 62.7579 184.176 62.7579C184.351 62.7579 184.558 62.7847 184.798 62.8594C185.21 62.9862 185.594 63.0227 185.917 63.0227C186.314 63.0227 186.618 62.9675 186.765 62.9577C186.818 62.9545 186.9 62.948 187.004 62.948C187.415 62.948 188.155 63.0617 188.648 64.0097C189.264 65.1925 189.881 65.7587 189.663 67.1584C189.449 68.5589 189.297 69.1593 189.297 69.1593C189.297 69.1593 189.383 69.3258 189.515 69.3258C189.649 69.3258 189.781 69.5086 189.766 69.7596C189.766 69.7596 190.366 68.641 190.816 68.524C190.816 68.524 190.481 67.2908 191.266 66.9911C191.266 66.9911 191.134 66.4086 191.582 65.7246C191.582 65.7246 191.628 64.7644 191.884 64.7644C191.9 64.7644 191.916 64.7685 191.934 64.7758C191.934 64.7758 192.149 62.6417 193.067 61.4914C193.067 61.4914 193.684 60.974 192.833 60.2396C191.985 59.5068 189.25 57.2729 189.25 57.2729L185.316 54.441L184.532 54.0072C184.532 54.0072 183.782 53.8732 183.233 53.6067C182.962 53.4751 182.764 53.4166 182.599 53.4166C182.432 53.4166 182.302 53.48 182.166 53.5905C181.9 53.8074 180.832 54.1071 180.165 54.2241C179.765 54.2948 179.141 54.48 178.641 54.48C178.315 54.48 178.042 54.4012 177.917 54.1567C177.917 54.1567 177.282 54.1226 177.531 53.6579L177.599 53.5238C177.599 53.5238 177.265 52.8398 178.099 52.7245C178.932 52.6075 179.298 52.774 179.5 52.2907L178.281 52.272C178.281 52.272 177.748 52.2403 177.699 51.7407C177.66 51.363 177.886 51.3459 178.237 51.3459C178.273 51.3459 178.309 51.3459 178.346 51.3459C178.431 51.3459 178.52 51.3451 178.615 51.3394C178.694 51.3354 178.776 51.3329 178.865 51.3329C179.396 51.3329 180.048 51.4052 180.048 51.4052C180.048 51.4052 180.5 51.2054 180.132 50.7066C179.766 50.2062 178.964 50.0242 179.315 49.4076C179.429 49.2078 179.557 49.1371 179.686 49.1371C179.95 49.1371 180.21 49.4393 180.299 49.5076C180.433 49.6059 181.033 50.1574 181.033 50.1574C181.033 50.1574 181.616 50.1404 181.298 48.6895C181.298 48.6895 180.6 47.5408 181.166 47.3564C181.224 47.3313 181.28 47.3215 181.332 47.3215ZM181.332 45.5871C181.098 45.5871 180.86 45.6253 180.627 45.7009C180.025 45.8974 179.556 46.3451 179.338 46.9316C179.276 47.103 179.237 47.2752 179.22 47.4474C178.633 47.5798 178.13 47.9649 177.8 48.5474C177.665 48.7829 177.487 49.1891 177.487 49.6814C177.155 49.7626 176.786 49.9316 176.469 50.2817C176.245 50.5295 175.882 51.0689 175.967 51.9105C175.979 52.0234 175.998 52.1331 176.021 52.2379C175.841 52.5986 175.78 52.9771 175.798 53.3273C175.666 53.8236 175.725 54.3508 175.984 54.8114C176.207 55.2103 176.566 55.5166 176.997 55.6985C177.358 55.978 177.884 56.2111 178.635 56.2111C179.181 56.2111 179.709 56.0925 180.134 55.9975C180.254 55.9707 180.364 55.9455 180.459 55.9284C180.622 55.8992 181.83 55.679 182.698 55.268C183.147 55.4573 183.614 55.5799 183.916 55.649L184.38 55.904L188.186 58.6458C188.476 58.8813 190.216 60.3054 191.217 61.1454C190.775 61.9553 190.518 62.8651 190.372 63.5499C190.31 63.4403 190.246 63.3257 190.181 63.2023C189.52 61.9358 188.36 61.2087 186.999 61.2087C186.871 61.2087 186.763 61.2152 186.683 61.2201C186.575 61.2266 186.492 61.2364 186.393 61.2477C186.278 61.2624 186.112 61.2835 185.913 61.2835C185.692 61.2835 185.493 61.2559 185.305 61.1965C184.924 61.0779 184.541 61.0186 184.171 61.0186C183.575 61.0186 183.109 61.1754 182.784 61.3436C181.129 61.7879 180.388 63.0495 180.186 64.1958C179.569 64.9472 179.373 66.0187 179.421 66.9302L179.381 67.4452C179.073 67.8156 178.878 68.3022 178.847 68.8481C178.774 69.0902 178.7 69.4046 178.648 69.9797C178.64 70.0853 178.635 70.1861 178.635 70.2819H177.95L177.38 71.1089C177.009 71.6889 177 72.3689 177.353 73.1301C177.57 73.6061 177.989 74.2219 178.408 74.7783C178.055 74.8726 177.719 74.9904 177.415 75.1106C177.363 74.862 177.305 74.5858 177.245 74.2706C176.995 72.9968 176.58 70.9944 176.479 70.507C176.443 70.0504 176.375 69.0821 176.375 68.6694C176.375 67.9854 176.213 66.866 175.979 66.3339C175.985 66.0049 175.929 65.6174 175.817 65.1722C175.735 63.7668 175.219 63.143 174.558 62.4841C174.421 62.3477 174.263 62.1917 174.081 61.9788C174.037 61.926 174.012 61.8757 174.001 61.8318C174.817 61.1137 174.861 60.3306 174.735 59.7668C174.648 59.3891 174.431 58.9983 174.056 58.7002C173.736 58.0105 173.045 57.5743 172.245 57.5743C171.76 57.5743 171.34 57.7375 171.18 57.8082L170.993 57.8919C170.689 57.7505 170.358 57.6579 170.011 57.6197C169.851 57.489 169.673 57.3809 169.487 57.2948C169.239 57.1778 168.96 57.1153 168.67 57.1153C167.838 57.1153 167.224 57.6246 166.887 57.9999C166.717 58.1551 166.418 58.4565 166.119 58.87C165.588 59.6035 165.495 60.2599 165.355 61.2542L165.324 61.4573C165.098 63.0544 165.993 64.104 166.712 64.58C167.362 65.1779 167.831 65.6621 167.845 65.6767L168.038 65.8757L168.284 66.0057C168.284 66.0057 169.05 66.433 169.742 67.2917C170.227 67.8944 170.215 68.2104 170.197 68.6881L170.191 68.8181C170.188 68.9554 170.191 69.1154 170.197 69.3063C170.214 69.9814 170.241 71.1114 169.76 73.0748C169.091 75.7987 169.563 78.8361 169.741 79.9807C169.735 79.9896 169.729 79.9977 169.723 80.0075C168.743 80.7849 168.544 81.62 168.556 82.1992C168.587 83.5997 169.783 84.369 170.5 84.8304L170.6 84.8954C170.911 85.0953 171.151 85.2366 171.344 85.3511C171.465 85.4226 171.559 85.4698 171.633 85.5282C171.918 85.9101 172.449 86.4771 173.879 87.9596C174.922 89.0457 176.51 90.0198 177.435 90.5389C177.636 91.335 177.956 92.6039 178.158 93.4455C178.361 94.2911 178.787 95.3789 179.166 96.3399C179.405 96.95 179.675 97.6388 179.745 97.9199C180.016 99.0304 180.774 100.251 181.827 101.742C182.081 102.101 182.359 102.404 182.639 102.661C181.809 103.649 181.878 104.94 181.912 105.594C181.927 105.857 181.941 106.108 181.921 106.286C181.748 107.842 182.252 109.562 182.874 110.454C182.945 110.746 182.988 111.414 183.01 111.749C183.029 112.07 183.051 112.352 183.076 112.545C183.09 112.646 183.062 112.954 183.046 113.157C183.003 113.669 182.955 114.248 183.099 114.81C183.098 114.809 183.098 114.809 183.098 114.809C183.093 114.809 183.133 115.328 182.713 116.983C182.425 118.122 182.501 119.741 182.622 121.584C182.653 122.053 182.691 122.637 182.681 122.805C182.622 123.52 182.715 124.107 182.803 124.475C181.595 126.214 181.763 128.378 181.856 129.072C181.847 130.034 182.047 130.794 182.265 131.338C182.123 132.02 182.285 132.551 182.432 132.859C182.465 132.933 182.504 133.005 182.547 133.074C181.951 135.189 182.488 137.165 182.655 137.694L183.267 140.385L183.22 141.422C182.378 142.612 181.395 144.746 181.311 145.926C181.183 147.795 183.269 149.034 184.525 149.608L185.134 149.895C185.312 150.546 185.748 151.137 186.193 151.657C186.475 151.985 186.666 152.232 186.795 152.404C186.78 152.761 186.844 153.062 186.939 153.308L186.849 153.431L186.77 153.623C186.347 154.659 186.372 155.542 186.842 156.245C186.959 156.418 187.099 156.57 187.257 156.701C187.286 158.132 187.761 159.276 188.052 159.846C188.237 160.754 188.824 161.514 189.104 161.834L189.266 162.022L189.475 162.155C189.829 162.383 190.239 162.497 190.694 162.497C192.144 162.497 194.419 161.056 196.07 159.845L196.256 159.709L196.4 159.529C196.887 158.921 197.067 158.2 196.912 157.502C196.859 157.273 196.776 157.068 196.676 156.89L196.779 156.405L196.627 156.281C196.786 155.45 196.539 154.442 195.903 153.25L195.775 152.961C195.701 152.738 195.559 152.379 195.292 151.921C195.129 151.641 194.905 151.345 194.696 151.09C194.755 150.532 194.662 150.014 194.476 149.572C194.645 148.536 194.348 147.875 194.056 147.491C193.987 147.401 193.913 147.316 193.831 147.237C193.718 146.838 193.539 146.406 193.391 146.079C193.479 145.336 193.664 143.89 193.876 142.86C194.224 141.18 194.185 140.274 194.173 140.11C194.172 140.098 194.156 139.725 194.301 138.938C194.616 137.191 194.677 135.961 194.492 135.062C194.344 134.338 194.318 133.787 194.397 133.167C194.524 132.18 194.773 130.239 194.857 128.977C194.871 128.776 194.883 128.601 194.896 128.449C194.897 129.032 194.897 130.537 194.859 132.867C194.791 137.153 197.58 137.292 198.497 137.338C198.608 137.344 198.719 137.347 198.821 137.362C199.051 137.394 199.265 137.409 199.468 137.409C200.84 137.409 201.823 136.747 202.613 136.215C204.044 135.253 204.208 133.09 204.212 132.237C204.292 131.569 204.177 130.604 203.909 128.675C203.833 128.136 203.758 127.598 203.702 127.123C203.55 125.858 203.301 124.973 203.139 124.494L203.173 123.318C203.866 122.522 204.252 121.321 204.606 119.737C205.044 117.759 203.965 116.576 203.369 116.003C204.174 115.422 204.68 114.165 204.908 112.208C206.399 110.511 206.914 106.94 207.091 104.748L207.223 102.226L207.247 102.187L207.306 102.016L207.379 101.797C208.003 100.13 206.589 98.6397 205.402 97.7355C204.948 96.5527 203.893 95.7981 202.465 95.6218C202.451 93.2196 201.602 91.2212 201.208 90.4227C201.121 89.8029 200.847 88.551 200.03 85.8946V85.2399V85.1156L200.013 84.9921L199.572 81.9466L199.553 81.6021C199.643 80.4989 199.501 79.724 199.317 79.2114L199.329 78.9977C199.333 78.9815 199.545 76.78 199.597 75.0919C199.63 73.9627 199.786 72.9018 199.861 72.4534L200.104 71.9668C200.204 71.7986 200.607 71.1252 201.117 70.4233C201.568 69.797 201.743 69.065 201.611 68.3567C201.459 67.537 200.94 66.8229 200.064 66.2348C199.965 66.1495 199.756 65.9423 199.528 65.7141C199.527 65.0471 199.588 63.8846 199.622 63.2534C199.654 62.6458 199.679 62.1259 199.679 61.8521C199.679 61.6035 199.703 61.3615 199.725 61.1072C199.775 60.5613 199.833 59.8822 199.758 59.0292C199.645 57.8082 199.026 56.8521 198.441 56.3143C197.042 54.5019 193.917 53.1331 193.153 52.8179C190.702 51.6278 187.956 50.2834 187.653 50.1176C187.387 49.9714 187.086 49.8609 186.702 49.7196C186.379 49.601 185.725 49.3621 185.484 49.1997C184.99 48.5254 184.359 48.0575 183.674 47.839C183.626 47.7431 183.571 47.6213 183.501 47.4653L183.477 47.4141C182.989 45.7626 181.817 45.5871 181.332 45.5871Z" fill="white"/>
<defs>
<linearGradient id="paint0_linear_1_3370" x1="67.985" y1="41.055" x2="169.444" y2="139.045" gradientUnits="userSpaceOnUse">
<stop offset="0.0161" stop-color="#C2151C"/>
<stop offset="0.211" stop-color="#CD501C"/>
<stop offset="0.6022" stop-color="#E69F16"/>
<stop offset="0.8735" stop-color="#F9D400"/>
<stop offset="1" stop-color="#FFED00"/>
</linearGradient>
<linearGradient id="paint1_linear_1_3370" x1="53.7389" y1="55.801" x2="155.201" y2="153.794" gradientUnits="userSpaceOnUse">
<stop offset="0.0161" stop-color="#C2151C"/>
<stop offset="0.211" stop-color="#CD501C"/>
<stop offset="0.6022" stop-color="#E69F16"/>
<stop offset="0.8735" stop-color="#F9D400"/>
<stop offset="1" stop-color="#FFED00"/>
</linearGradient>
<linearGradient id="paint2_linear_1_3370" x1="34.9781" y1="75.2264" x2="136.44" y2="173.219" gradientUnits="userSpaceOnUse">
<stop offset="0.0161" stop-color="#C2151C"/>
<stop offset="0.211" stop-color="#CD501C"/>
<stop offset="0.6022" stop-color="#E69F16"/>
<stop offset="0.8735" stop-color="#F9D400"/>
<stop offset="1" stop-color="#FFED00"/>
</linearGradient>
</defs>
</svg>
