<svg width="130" height="130" viewBox="0 0 130 130" fill="none" xmlns="http://www.w3.org/2000/svg">
<circle cx="65" cy="65" r="65" fill="#F6CB03" fill-opacity="0.3"/>
<path d="M83.9184 94.8347C84.0523 94.8343 84.1805 94.7808 84.2748 94.6858C84.3692 94.5909 84.422 94.4624 84.4216 94.3285C84.4212 94.1946 84.3676 94.0664 84.2727 93.9721C84.1778 93.8777 84.0492 93.8249 83.9154 93.8253C83.7815 93.8257 83.6533 93.8793 83.5589 93.9742C83.4646 94.0691 83.4118 94.1977 83.4122 94.3315C83.4126 94.4654 83.4662 94.5936 83.5611 94.688C83.656 94.7823 83.7845 94.8351 83.9184 94.8347ZM83.9184 77.8787C89.7826 77.8746 94.5389 82.6259 94.5405 88.49C94.5417 94.3541 89.7879 99.1085 83.9239 99.1067C78.0598 99.1056 73.3078 94.3488 73.3125 88.4847C73.3131 82.6271 78.061 77.8793 83.9186 77.8787H83.9184Z" fill="#FFFBEB"/>
<path d="M55.0576 73.741C55.2277 73.7411 55.394 73.6908 55.5355 73.5964C55.677 73.502 55.7874 73.3678 55.8526 73.2107C55.9178 73.0536 55.9349 72.8807 55.9018 72.7138C55.8688 72.547 55.787 72.3937 55.6668 72.2733C55.5466 72.153 55.3934 72.0709 55.2266 72.0376C55.0598 72.0043 54.8869 72.0213 54.7297 72.0862C54.5725 72.1512 54.4381 72.2613 54.3435 72.4027C54.2489 72.5441 54.1984 72.7103 54.1983 72.8804C54.1986 73.1083 54.2892 73.3269 54.4502 73.4882C54.6113 73.6494 54.8297 73.7404 55.0576 73.741ZM46.3467 73.741C46.5748 73.7408 46.7934 73.65 46.9546 73.4886C47.1157 73.3272 47.2062 73.1085 47.2061 72.8804C47.2061 72.7675 47.1839 72.6558 47.1407 72.5515C47.0975 72.4473 47.0342 72.3526 46.9544 72.2728C46.8746 72.193 46.7799 72.1297 46.6756 72.0865C46.5713 72.0433 46.4596 72.0211 46.3467 72.0212C46.1187 72.0212 45.9 72.1117 45.7386 72.2728C45.5773 72.4339 45.4865 72.6525 45.4861 72.8805C45.4861 73.1088 45.5768 73.3277 45.7382 73.4891C45.8996 73.6505 46.1185 73.741 46.3467 73.741ZM63.7698 73.741C63.9978 73.7407 64.2163 73.6499 64.3773 73.4885C64.5384 73.3271 64.6287 73.1084 64.6285 72.8804C64.6285 72.6525 64.538 72.434 64.3769 72.2728C64.2157 72.1117 63.9972 72.0212 63.7693 72.0212C63.5413 72.0212 63.3227 72.1117 63.1615 72.2729C63.0002 72.434 62.9095 72.6526 62.9093 72.8805C62.9093 73.1088 63 73.3277 63.1614 73.4891C63.3228 73.6505 63.5417 73.7412 63.7699 73.7412L63.7698 73.741ZM72.4802 73.741C72.7063 73.7382 72.9222 73.6465 73.0812 73.4857C73.2402 73.3249 73.3294 73.108 73.3297 72.8819C73.3299 72.6558 73.241 72.4387 73.0824 72.2776C72.9237 72.1165 72.708 72.0244 72.4819 72.0212C72.3689 72.0211 72.2571 72.0432 72.1527 72.0864C72.0484 72.1295 71.9535 72.1928 71.8736 72.2726C71.7937 72.3524 71.7303 72.4472 71.687 72.5515C71.6437 72.6558 71.6213 72.7676 71.6213 72.8805C71.6217 73.1084 71.7122 73.3268 71.8732 73.4881C72.0341 73.6493 72.2524 73.7402 72.4802 73.741ZM80.8879 53.9424C82.5611 53.9428 83.9176 55.2995 83.9182 56.9727V77.8787C82.2667 77.88 80.6382 78.2666 79.1623 79.0078C77.6865 79.7491 76.4039 80.8245 75.4168 82.1485C74.4296 83.4726 73.765 85.0087 73.4759 86.6348C73.1867 88.2608 73.281 89.9319 73.7513 91.5151H37.9395C36.2657 91.5151 34.9092 90.1586 34.9092 88.4848V56.9727C34.9098 55.2995 36.2663 53.9428 37.9395 53.9424H80.8879Z" fill="#F6CB03"/>
<path d="M75.7499 53.779V53.9425H72.4818V40.7107C72.4783 37.1034 69.5557 34.1802 65.9484 34.1755H61.8633V30.9092H65.9483C71.3615 30.9092 75.7495 35.2978 75.7501 40.7108L75.7499 53.779Z" fill="#FFFBEB"/>
<path d="M56.9629 30.9092H61.8629V34.1757H56.9629V30.9092Z" fill="#CC7350"/>
<path d="M46.3453 53.779V53.9425H43.0771V40.7107C43.0771 35.2978 47.4658 30.9092 52.879 30.9092H56.9634V34.1757H52.879C49.2715 34.1802 46.349 37.1036 46.3453 40.7108V53.779Z" fill="#FFFBEB"/>
<path d="M65.9485 30H52.8791C46.9664 30.0065 42.1747 34.7982 42.1682 40.7107V53.0333H37.9394C35.7648 53.0356 34.0024 54.7982 34 56.9727V88.4848C34.0024 90.6593 35.7648 92.4218 37.9394 92.4242H73.098C73.8626 94.5072 75.2074 96.3278 76.9734 97.671C78.9697 99.1892 81.4104 100.008 83.9183 99.9999C90.1001 99.9999 95.1789 95.1183 95.4234 88.9412C95.6672 82.7645 90.9898 77.4969 84.8274 77.0088V56.9727C84.825 54.7982 83.0625 53.0356 80.888 53.0333H76.6592V40.7106C76.6527 34.7982 71.861 30.0065 65.9483 30H65.9485ZM74.8409 40.7107V53.0333H73.3909V40.7106C73.3868 36.6015 70.0571 33.2717 65.9485 33.2664H62.7724V31.8182H65.9483C70.8572 31.8235 74.8357 35.802 74.841 40.7107H74.8409ZM57.8727 33.2667V31.8182H60.9545V33.2665L57.8727 33.2667ZM65.9485 35.0848C69.0539 35.0889 71.57 37.6054 71.5728 40.7109V53.0335H47.2545V40.7106C47.2576 37.6051 49.7735 35.0886 52.8791 35.0845L65.9485 35.0848ZM43.9864 40.7106C43.9917 35.802 47.9701 31.8235 52.8791 31.8182H56.0544V33.2665H52.8791C48.7697 33.2718 45.4406 36.6015 45.4364 40.7106V53.0332H43.9864V40.7106ZM93.6151 88.4848C93.6151 93.8406 89.2734 98.1818 83.9181 98.1818C78.5625 98.1818 74.2212 93.8406 74.2212 88.4848C74.2212 83.1291 78.5625 78.7878 83.9181 78.7878C89.2712 78.7939 93.6093 83.1321 93.6151 88.4848ZM83.009 56.9727V77.0088C81.3994 77.1368 79.8346 77.6018 78.4162 78.3737C76.9978 79.1455 75.7576 80.207 74.776 81.4891C73.7944 82.7713 73.0933 84.2455 72.7183 85.8161C72.3432 87.3868 72.3026 89.0187 72.5991 90.606H37.9394C36.7686 90.6048 35.8194 89.656 35.8182 88.4848V56.9727C35.8194 55.802 36.7686 54.8526 37.9394 54.8515H80.8878C82.0587 54.8526 83.008 55.802 83.009 56.9727Z" fill="#63316D"/>
<path d="M55.0577 74.65C56.035 74.65 56.8268 73.8588 56.8274 72.8817C56.828 71.9046 56.0362 71.1126 55.059 71.112C54.0824 71.1114 53.29 71.9032 53.2893 72.8805C53.2905 73.8564 54.0812 74.6476 55.0577 74.65ZM55.0577 72.8318C55.0642 72.8315 55.0706 72.8326 55.0766 72.835C55.0826 72.8373 55.0881 72.8409 55.0926 72.8455C55.0983 72.8511 55.1026 72.8581 55.105 72.8658C55.1073 72.8735 55.1078 72.8817 55.1062 72.8896C55.1047 72.8975 55.1012 72.9049 55.0962 72.9112C55.0911 72.9174 55.0845 72.9223 55.0771 72.9254C55.0696 72.9286 55.0616 72.9298 55.0535 72.929C55.0455 72.9282 55.0378 72.9255 55.0311 72.921C55.0244 72.9166 55.0189 72.9105 55.0151 72.9034C55.0113 72.8963 55.0093 72.8884 55.0093 72.8803C55.0093 72.8675 55.014 72.855 55.0235 72.8455C55.028 72.841 55.0333 72.8374 55.0392 72.8351C55.0451 72.8327 55.0514 72.8316 55.0577 72.8318ZM63.7699 74.65C64.7465 74.6494 65.5383 73.8576 65.5377 72.8803C65.5377 71.9038 64.7459 71.112 63.7694 71.112C62.7927 71.112 62.0009 71.9032 62.0003 72.8805C62.0009 73.857 62.7927 74.6494 63.77 74.6502L63.7699 74.65ZM63.7699 72.8318C63.7762 72.8316 63.7826 72.8327 63.7885 72.835C63.7944 72.8374 63.7998 72.841 63.8043 72.8455C63.8132 72.8549 63.8183 72.8673 63.8185 72.8803C63.8175 72.8928 63.8119 72.9044 63.8027 72.9128C63.7936 72.9213 63.7816 72.926 63.7691 72.926C63.7566 72.926 63.7446 72.9213 63.7355 72.9128C63.7263 72.9044 63.7207 72.8928 63.7197 72.8803C63.7201 72.8673 63.7253 72.8549 63.7344 72.8455C63.7391 72.8409 63.7446 72.8373 63.7507 72.8349C63.7568 72.8326 63.7633 72.8315 63.7699 72.8318ZM72.4803 74.65C73.4574 74.65 74.25 73.8588 74.25 72.8817C74.2505 71.9044 73.4591 71.1126 72.482 71.112C71.5049 71.1114 70.713 71.9032 70.7123 72.8805C70.7136 73.8564 71.5042 74.6476 72.4803 74.65ZM72.4803 72.8318C72.4868 72.8315 72.4934 72.8326 72.4995 72.8349C72.5056 72.8373 72.5111 72.8409 72.5158 72.8455C72.5253 72.8544 72.5306 72.8667 72.5306 72.8803C72.5305 72.8937 72.5252 72.9065 72.5158 72.9159C72.5062 72.925 72.4935 72.9301 72.4803 72.9302C72.4739 72.9302 72.4675 72.9289 72.4616 72.9263C72.4557 72.9238 72.4503 72.92 72.4459 72.9153C72.4414 72.9108 72.4377 72.9053 72.4353 72.8993C72.4329 72.8934 72.4316 72.8869 72.4317 72.8805C72.4317 72.8675 72.4365 72.855 72.4459 72.8456C72.4504 72.8411 72.4558 72.8375 72.4617 72.8352C72.4676 72.8329 72.4739 72.8316 72.4803 72.8318ZM46.3468 74.65C47.3241 74.6494 48.1153 73.8576 48.1153 72.8803C48.1153 71.9038 47.3235 71.112 46.3468 71.112C45.3697 71.112 44.5779 71.9032 44.5771 72.8805C44.5784 73.857 45.3703 74.6493 46.3468 74.65ZM46.3468 72.8318C46.3533 72.8317 46.3597 72.8328 46.3656 72.8351C46.3716 72.8375 46.3771 72.841 46.3817 72.8455C46.3862 72.8501 46.3897 72.8555 46.392 72.8615C46.3944 72.8675 46.3955 72.8739 46.3953 72.8803C46.3957 72.8868 46.3946 72.8933 46.3923 72.8993C46.3899 72.9053 46.3863 72.9108 46.3817 72.9153C46.3772 72.9201 46.3718 72.9238 46.3658 72.9264C46.3598 72.929 46.3534 72.9302 46.3468 72.9302C46.3338 72.9301 46.3213 72.925 46.312 72.9159C46.3026 72.9065 46.2973 72.8938 46.2971 72.8805C46.2971 72.8668 46.3025 72.8544 46.312 72.8456C46.3165 72.841 46.322 72.8375 46.328 72.8351C46.334 72.8328 46.3404 72.8315 46.3468 72.8318ZM79.9789 85.165C79.9789 85.6668 80.3858 86.0741 80.888 86.0741C81.39 86.0741 81.7971 85.6668 81.7971 85.165C81.7969 84.8736 81.8568 84.5853 81.9731 84.3181C82.0893 84.0509 82.2593 83.8106 82.4726 83.612C82.6859 83.4135 82.9378 83.261 83.2126 83.1642C83.4874 83.0673 83.7792 83.0281 84.0698 83.0491C84.5225 83.0815 84.9528 83.2582 85.2976 83.5533C85.6424 83.8484 85.8835 84.2462 85.9854 84.6885C86.0874 85.1307 86.0448 85.5939 85.8639 86.0102C85.6831 86.4264 85.3736 86.7736 84.9808 87.0009C84.3766 87.3589 83.8767 87.8689 83.5309 88.4801C83.185 89.0912 83.0052 89.7823 83.0094 90.4846V91.7997C83.0094 92.3021 83.4161 92.7088 83.9185 92.7088C84.4203 92.7088 84.8276 92.3021 84.8276 91.7997V90.4846C84.8229 90.1008 84.9188 89.7225 85.1057 89.3873C85.2926 89.0521 85.564 88.7717 85.8929 88.574C87.5465 87.6159 88.2739 85.6094 87.6186 83.8144C86.9636 82.0193 85.1145 80.9534 83.2326 81.2859C81.3511 81.6187 79.9791 83.254 79.9791 85.165H79.9789ZM83.9183 92.9165C83.1379 92.9165 82.5045 93.5493 82.5045 94.3299C82.5045 94.7049 82.6535 95.0645 82.9187 95.3297C83.1838 95.5948 83.5435 95.7438 83.9185 95.7438C84.6991 95.7438 85.3318 95.1111 85.3318 94.3299C85.3313 93.9552 85.1822 93.596 84.9172 93.3311C84.6523 93.0662 84.2932 92.9171 83.9185 92.9165H83.9183ZM83.9183 94.7347C83.8382 94.735 83.7599 94.7115 83.6931 94.6673C83.6264 94.6231 83.5742 94.5601 83.5432 94.4862C83.5125 94.4122 83.5044 94.3308 83.5199 94.2522C83.5354 94.1736 83.5738 94.1014 83.6303 94.0446C83.6868 93.9878 83.7588 93.9491 83.8373 93.9334C83.9159 93.9177 83.9973 93.9257 84.0712 93.9564C84.2227 94.0185 84.3215 94.1665 84.3215 94.3299C84.3214 94.4369 84.2789 94.5395 84.2034 94.6153C84.1279 94.6912 84.0255 94.7341 83.9185 94.7347H83.9183Z" fill="#63316D"/>
</svg>
