<svg width="28" height="28" viewBox="0 0 28 28" fill="none" xmlns="http://www.w3.org/2000/svg">
<path fill-rule="evenodd" clip-rule="evenodd" d="M5.7018 0.144257C4.93281 0.439443 4.5541 1.09655 4.5541 2.13546V2.75906L3.10767 2.77773L1.66125 2.79641L1.27618 2.98963C0.808339 3.22443 0.369026 3.67034 0.154438 4.12809L0 4.45765V14.2246V23.9916L0.168301 24.335C0.364958 24.7362 0.744238 25.1618 1.08015 25.3583C1.65655 25.6954 1.33255 25.6815 8.60565 25.6815H15.2715L15.4121 25.5409C15.5828 25.3702 15.5957 25.1171 15.4432 24.9288L15.3337 24.7936L8.61207 24.7649C2.19416 24.7376 1.88133 24.7315 1.68989 24.6295C1.40925 24.4801 1.18487 24.2597 1.04017 23.9916L0.916549 23.7625L0.901369 16.473L0.886188 9.18361H13.7187H26.5513V13.1674V17.1513L26.6919 17.2919C26.8779 17.478 27.1412 17.478 27.3272 17.2919L27.4678 17.1513V10.9438C27.4678 3.67303 27.5112 4.11194 26.7195 3.37143C26.1532 2.84172 25.9929 2.80191 24.3315 2.77905L22.8851 2.75906V2.13546C22.8851 0.825367 22.1862 0.0181166 21.052 0.0181166C19.9161 0.0181166 19.2189 0.825081 19.2189 2.13981V2.76776H17.3858H15.5527V2.13981C15.5527 0.825081 14.8555 0.0181166 13.7196 0.0181166C12.5837 0.0181166 11.8865 0.825081 11.8865 2.13981V2.76776H10.0534H8.2203V2.13981C8.2203 0.552465 7.0513 -0.373823 5.7018 0.144257ZM6.79037 1.06356C7.2711 1.30598 7.30375 1.44358 7.30375 3.22604C7.30375 4.69091 7.29888 4.75811 7.17486 5.00403C6.84364 5.66085 5.93076 5.66085 5.59954 5.00403C5.47552 4.75811 5.47065 4.69091 5.47065 3.22604C5.47065 1.76116 5.47552 1.69397 5.59954 1.44805C5.73829 1.17291 6.10382 0.934666 6.3872 0.934666C6.46837 0.934666 6.64979 0.992695 6.79037 1.06356ZM14.1228 1.06356C14.6035 1.30598 14.6361 1.44358 14.6361 3.22604C14.6361 4.69091 14.6313 4.75811 14.5073 5.00403C14.176 5.66085 13.2632 5.66085 12.9319 5.00403C12.8079 4.75811 12.803 4.69091 12.803 3.22604C12.803 1.76116 12.8079 1.69397 12.9319 1.44805C13.0707 1.17291 13.4362 0.934666 13.7196 0.934666C13.8008 0.934666 13.9822 0.992695 14.1228 1.06356ZM21.4552 1.06356C21.9359 1.30598 21.9685 1.44358 21.9685 3.22604C21.9685 4.69091 21.9637 4.75811 21.8396 5.00403C21.5084 5.66085 20.5955 5.66085 20.2643 5.00403C20.1403 4.75811 20.1354 4.69091 20.1354 3.22604C20.1354 1.76116 20.1403 1.69397 20.2643 1.44805C20.4031 1.17291 20.7686 0.934666 21.052 0.934666C21.1332 0.934666 21.3146 0.992695 21.4552 1.06356ZM4.5541 4.31226C4.5541 5.627 5.25131 6.43396 6.3872 6.43396C7.52309 6.43396 8.2203 5.627 8.2203 4.31226V3.68431H10.0534H11.8865V4.31226C11.8865 5.627 12.5837 6.43396 13.7196 6.43396C14.8555 6.43396 15.5527 5.627 15.5527 4.31226V3.68431H17.3858H19.2189V4.31226C19.2189 5.627 19.9161 6.43396 21.052 6.43396C22.1893 6.43396 22.8851 5.62723 22.8851 4.30848V3.67669L24.2169 3.69485C25.6829 3.71479 25.8042 3.74154 26.1581 4.123C26.5197 4.51287 26.521 4.52107 26.54 6.47692L26.5573 8.26706H13.7196H0.881892L0.899192 6.47692C0.919356 4.39578 0.972115 4.20056 1.60362 3.871C1.9145 3.70872 2.05078 3.69422 3.30817 3.68924L4.5541 3.68431V4.31226ZM4.09136 11.6052C3.67559 11.8854 3.63755 12.0089 3.63755 13.0789C3.63755 14.6047 3.72692 14.6829 5.47065 14.6829C7.21439 14.6829 7.30375 14.6047 7.30375 13.0789C7.30375 12.0089 7.26571 11.8854 6.84994 11.6052C6.55149 11.4041 4.38981 11.4041 4.09136 11.6052ZM9.59066 11.6052C9.17489 11.8854 9.13685 12.0089 9.13685 13.0789C9.13685 14.6047 9.22621 14.6829 10.9699 14.6829C12.7137 14.6829 12.803 14.6047 12.803 13.0789C12.803 12.0089 12.765 11.8854 12.3492 11.6052C12.0508 11.4041 9.88911 11.4041 9.59066 11.6052ZM15.09 11.6052C14.6742 11.8854 14.6361 12.0089 14.6361 13.0789C14.6361 14.6047 14.7255 14.6829 16.4692 14.6829C18.213 14.6829 18.3023 14.6047 18.3023 13.0789C18.3023 12.0089 18.2643 11.8854 17.8485 11.6052C17.5501 11.4041 15.3884 11.4041 15.09 11.6052ZM20.5892 11.6052C20.1735 11.8854 20.1354 12.0089 20.1354 13.0789C20.1354 14.6047 20.2248 14.6829 21.9685 14.6829C23.7123 14.6829 23.8016 14.6047 23.8016 13.0789C23.8016 12.0089 23.7636 11.8854 23.3478 11.6052C23.0494 11.4041 20.8877 11.4041 20.5892 11.6052ZM6.3872 13.0789V13.7664H5.47065H4.5541V13.0789V12.3915H5.47065H6.3872V13.0789ZM11.8865 13.0789V13.7664H10.9699H10.0534V13.0789V12.3915H10.9699H11.8865V13.0789ZM17.3858 13.0789V13.7664H16.4692H15.5527V13.0789V12.3915H16.4692H17.3858V13.0789ZM22.8851 13.0789V13.7664H21.9685H21.052V13.0789V12.3915H21.9685H22.8851V13.0789ZM4.09136 15.7297C3.67559 16.0099 3.63755 16.1334 3.63755 17.2034C3.63755 18.7292 3.72692 18.8074 5.47065 18.8074C7.21439 18.8074 7.30375 18.7292 7.30375 17.2034C7.30375 16.1334 7.26571 16.0099 6.84994 15.7297C6.55149 15.5285 4.38981 15.5285 4.09136 15.7297ZM9.59066 15.7297C9.17489 16.0099 9.13685 16.1334 9.13685 17.2034C9.13685 18.7292 9.22621 18.8074 10.9699 18.8074C12.7137 18.8074 12.803 18.7292 12.803 17.2034C12.803 16.1334 12.765 16.0099 12.3492 15.7297C12.0508 15.5285 9.88911 15.5285 9.59066 15.7297ZM15.09 15.7297C14.6742 16.0099 14.6361 16.1334 14.6361 17.2034C14.6361 18.2734 14.6742 18.3969 15.09 18.6771C15.493 18.9488 16.011 18.7643 16.011 18.3491C16.011 18.1579 15.7955 17.8908 15.6412 17.8908C15.5663 17.8908 15.5527 17.7853 15.5527 17.2034V16.516H16.5577C17.6912 16.516 17.8441 16.4616 17.8441 16.0577C17.8441 15.9461 17.7921 15.8287 17.7034 15.7401C17.492 15.5286 15.4007 15.5203 15.09 15.7297ZM20.4791 15.683C16.0644 16.498 14.0858 21.5897 16.7881 25.1815C19.4593 28.7318 25.0741 28.0935 26.9361 24.0276C28.9093 19.7191 25.1229 14.8258 20.4791 15.683ZM6.3872 17.2034V17.8908H5.47065H4.5541V17.2034V16.516H5.47065H6.3872V17.2034ZM11.8865 17.2034V17.8908H10.9699H10.0534V17.2034V16.516H10.9699H11.8865V17.2034ZM22.7419 16.6859C26.4921 17.6301 27.7983 22.3722 25.0619 25.1087C22.638 27.5326 18.5292 26.8522 17.015 23.776C15.1284 19.9436 18.6017 15.6436 22.7419 16.6859ZM22.4438 21.3404L20.5949 23.186L19.7166 22.3143C18.7447 21.3497 18.6249 21.2866 18.3284 21.5831C18.0191 21.8924 18.0734 21.9836 19.2921 23.2023C20.2983 24.2085 20.414 24.3067 20.5935 24.3067C20.8113 24.3067 24.8552 20.3634 24.9272 20.0809C25.0005 19.7928 24.741 19.4948 24.4168 19.4948C24.3303 19.4948 23.7323 20.0542 22.4438 21.3404ZM4.09136 19.8542C3.67559 20.1344 3.63755 20.2579 3.63755 21.3279C3.63755 22.8537 3.72692 22.9318 5.47065 22.9318C7.21439 22.9318 7.30375 22.8537 7.30375 21.3279C7.30375 20.2579 7.26571 20.1344 6.84994 19.8542C6.55149 19.653 4.38981 19.653 4.09136 19.8542ZM9.59066 19.8542C9.17489 20.1344 9.13685 20.2579 9.13685 21.3279C9.13685 22.8537 9.22621 22.9318 10.9699 22.9318C12.7137 22.9318 12.803 22.8537 12.803 21.3279C12.803 20.2579 12.765 20.1344 12.3492 19.8542C12.0508 19.653 9.88911 19.653 9.59066 19.8542ZM6.3872 21.3279V22.0153H5.47065H4.5541V21.3279V20.6405H5.47065H6.3872V21.3279ZM11.8865 21.3279V22.0153H10.9699H10.0534V21.3279V20.6405H10.9699H11.8865V21.3279Z" fill="#FFD929"/>
</svg>
