<svg width="28" height="23" viewBox="0 0 28 23" fill="none" xmlns="http://www.w3.org/2000/svg">
<path fill-rule="evenodd" clip-rule="evenodd" d="M5.94425 0.0102491C5.43797 0.136309 5.04572 0.424774 4.82233 0.83522C4.68698 1.08385 4.59668 1.53526 4.01797 4.85458L3.36609 8.59379L2.23923 8.62063C0.780853 8.65537 0.359831 8.85299 0.0962761 9.62642C-0.032092 10.0032 -0.032092 21.197 0.0962761 21.5737C0.207357 21.8997 0.54833 22.2805 0.890967 22.4612L1.16601 22.6064H11.5546C21.6158 22.6064 21.9516 22.6031 22.2066 22.5048C22.5456 22.3741 22.8538 22.0934 23.0347 21.7507L23.1781 21.4789L23.1939 19.3658L23.2097 17.2527L23.516 17.2909C24.5547 17.4207 25.2552 17.09 25.5369 16.3368C25.6451 16.0474 27.5 5.40735 27.5 5.07593C27.5 4.54952 27.1661 3.99637 26.6759 3.71091C26.4042 3.55259 27.2915 3.71913 15.9302 1.69423C6.71134 0.0511592 6.15605 -0.0424726 5.94425 0.0102491ZM7.75466 1.15966C8.58972 1.30821 9.68362 1.50267 10.1856 1.59174C10.6876 1.68081 13.3331 2.15262 16.0644 2.64021C18.7958 3.12781 22.1745 3.73067 23.5727 3.97994C26.9281 4.57819 26.7216 4.42684 26.4438 6.08387C26.3199 6.82262 26.2832 6.9563 26.2037 6.9563C26.1521 6.9563 21.8384 6.19436 16.6176 5.26314C11.3969 4.33192 6.70259 3.49514 6.18584 3.40366C5.6691 3.31223 5.24109 3.23341 5.23476 3.22858C5.18671 3.19196 5.56446 1.32115 5.64204 1.21168C5.90919 0.834629 5.92556 0.834253 7.75466 1.15966ZM6.159 4.32188C12.3101 5.40499 26.072 7.87265 26.0961 7.89681C26.1495 7.95017 24.7147 16.0235 24.6284 16.1551C24.473 16.3923 24.0442 16.4671 23.4466 16.3612L23.2318 16.3231L23.205 13.0221L23.1781 9.72124L23.0188 9.43352C22.9311 9.2753 22.7652 9.06522 22.6501 8.96665C22.2172 8.59615 22.8913 8.62063 13.1289 8.62063C6.06284 8.62063 4.30676 8.60716 4.30676 8.55288C4.30676 8.51562 4.47588 7.51412 4.68258 6.32729C4.88928 5.14046 5.05839 4.15851 5.05839 4.14514C5.05839 4.13183 5.10065 4.12995 5.15235 4.14101C5.20405 4.15207 5.65702 4.23346 6.159 4.32188ZM21.8609 9.54976C21.9672 9.58637 22.0995 9.69203 22.1696 9.79629L22.2923 9.97872L22.2915 15.5946C22.2906 21.7106 22.3084 21.3733 21.9749 21.5981L21.7932 21.7205H11.6219C0.451906 21.7205 1.21734 21.7434 1.01601 21.4027C0.931233 21.2591 0.924414 20.8259 0.924414 15.5825V9.91736L1.06309 9.75259C1.13938 9.66196 1.27827 9.56565 1.3718 9.53854C1.64507 9.45945 21.6304 9.47041 21.8609 9.54976ZM3.09878 14.2523C2.54767 14.5074 2.42768 14.8038 2.42768 15.91C2.42768 16.9071 2.51363 17.177 2.92139 17.4597L3.14313 17.6134L5.09238 17.6287C7.81377 17.6501 7.87702 17.6106 7.87702 15.8912V14.9742L7.71568 14.71C7.59451 14.5116 7.48187 14.409 7.26315 14.2981L6.97189 14.1505L5.14274 14.1517C3.4769 14.1528 3.29437 14.1617 3.09878 14.2523ZM6.9356 15.167C7.01688 15.319 7.00743 16.5237 6.92405 16.6375C6.8628 16.7212 6.70479 16.7279 5.11208 16.7149L3.36722 16.7007L3.35224 15.9564C3.34215 15.4534 3.35729 15.188 3.39906 15.1377C3.51116 15.0026 6.86247 15.0304 6.9356 15.167ZM2.84945 19.1162C2.67577 19.2122 2.57387 19.4732 2.64114 19.6501C2.75029 19.9373 2.81708 19.9488 4.36764 19.9488H5.80047L5.94425 19.778C6.10955 19.5815 6.09849 19.3545 5.91472 19.1705C5.77083 19.0266 3.09733 18.9791 2.84945 19.1162ZM7.79648 19.0727C7.46824 19.198 7.37026 19.5812 7.60616 19.817L7.73791 19.9488H9.19248H10.6471L10.7787 19.8068C10.9463 19.6259 10.9471 19.4069 10.7809 19.2136L10.6514 19.063L9.26421 19.0525C8.50125 19.0467 7.84078 19.0558 7.79648 19.0727ZM12.5939 19.088C12.3012 19.2095 12.2183 19.5973 12.4381 19.817L12.5698 19.9488H14.0243H15.4788L15.6105 19.817C15.7913 19.6362 15.7884 19.3667 15.6039 19.1931C15.4563 19.0544 12.8908 18.9648 12.5939 19.088ZM17.4083 19.1048C17.1181 19.2516 17.0661 19.6083 17.3006 19.8428C17.4685 20.0107 20.2186 20.006 20.4328 19.8375C20.6732 19.6484 20.6145 19.2539 20.3228 19.0986C20.1526 19.008 17.5888 19.0134 17.4083 19.1048Z" fill="#FFD929"/>
</svg>
