<svg width="27" height="28" viewBox="0 0 27 28" fill="none" xmlns="http://www.w3.org/2000/svg">
<path fill-rule="evenodd" clip-rule="evenodd" d="M10.0386 0.0746796C7.44476 0.558427 5.46541 2.50405 4.96394 5.06302C4.90813 5.34778 4.86006 6.06575 4.82515 7.13668C4.79578 8.03763 4.7599 9.0475 4.74545 9.38082C4.69464 10.552 5.13773 11.2134 5.97558 11.2173C6.19009 11.2183 6.24004 11.2382 6.28198 11.3393C6.30959 11.4058 6.40696 11.6524 6.49842 11.8874C6.91439 12.9558 7.72479 13.942 8.74041 14.6156L9.23721 14.9451L9.23549 15.4584C9.23345 16.0807 9.17705 16.1897 8.86882 16.1675C8.53997 16.1437 3.6164 17.6946 2.92196 18.0406C2.30013 18.3505 1.68399 18.8287 1.63018 19.0431C1.5385 19.4085 1.95318 19.6576 2.27424 19.43C3.32391 18.686 3.35941 18.6703 5.46858 18.014L6.99023 17.5405L8.44937 18.9957C10.4193 20.9603 10.4351 20.9656 11.5185 20.0184C11.7837 19.7866 12.0139 19.5969 12.03 19.5969C12.0462 19.5969 12.2763 19.7866 12.5415 20.0184C13.6249 20.9655 13.6409 20.9602 15.6098 18.9966L17.0681 17.5422L17.6637 17.7236C18.3531 17.9337 18.3323 17.9081 17.9979 18.1347C15.5244 19.8118 15.1667 23.308 17.2124 25.8136L17.3549 25.9882H10.5838H3.81271V24.0791V22.17L3.68085 22.0382C3.51285 21.8702 3.30694 21.8702 3.13894 22.0382L3.00709 22.17V24.0802V25.9904L1.9195 25.9759L0.831915 25.9613L0.831968 24.0278C0.832022 21.9299 0.838843 21.8682 1.16249 21.0377C1.32646 20.617 1.30514 20.4417 1.07548 20.323C0.340863 19.9431 0.00121383 21.1659 0.000139675 24.1944C-0.000612237 26.4142 -0.0099037 26.3562 0.392745 26.6546L0.544362 26.7669L9.52309 26.7938L18.5018 26.8206L18.7305 26.9428C21.4093 28.3737 24.939 26.9275 25.938 23.99C27.2461 20.1429 23.732 16.2881 19.8258 17.2854L19.3855 17.3978L17.3937 16.7751C15.9928 16.337 15.3401 16.1567 15.1937 16.1673C14.8827 16.1897 14.8266 16.0821 14.8246 15.4584L14.8228 14.9451L15.3196 14.6156C16.3352 13.942 17.1456 12.9558 17.5616 11.8874C17.6531 11.6524 17.7505 11.4058 17.7781 11.3393C17.8196 11.2391 17.8698 11.2185 18.0728 11.2185C18.9062 11.2185 19.3079 10.6647 19.2999 9.52669C19.2751 6.01843 19.1265 4.63878 18.6723 3.69948C18.3636 3.06095 17.6966 3.38905 17.9414 4.05895C18.3076 5.06082 18.3666 5.42641 18.3671 6.69359C18.3676 7.72661 18.372 7.70953 18.1194 7.64175C18.0239 7.61608 17.9999 7.55668 17.9709 7.27369C17.8718 6.30609 17.6498 6.09609 17.0334 6.38676C15.4531 7.1319 14.0588 7.09823 11.2473 6.24706C8.90454 5.5378 7.5598 5.39171 6.64956 5.74763C6.42458 5.83561 6.16345 6.54783 6.08869 7.27756C6.05394 7.61694 6.00861 7.67049 5.75376 7.67301C5.62358 7.67435 5.70274 5.39859 5.85184 4.8541C6.39294 2.87807 7.95907 1.3786 9.94991 0.930623C10.4713 0.813271 12.7665 0.761067 13.5252 0.849256C14.7051 0.986426 15.5854 1.36754 16.5126 2.14265C17.1873 2.70664 17.3559 2.74407 17.5532 2.37365C17.8415 1.83222 16.0603 0.577708 14.3932 0.147991C13.8011 -0.00459332 10.74 -0.0561529 10.0386 0.0746796ZM8.7787 6.46603C9.35569 6.55304 9.65801 6.63038 10.9827 7.03007C11.4553 7.17267 12.0321 7.34163 12.2645 7.40554C13.794 7.82624 15.3656 7.83424 16.6521 7.42789C17.0112 7.3144 17.1023 7.30183 17.1416 7.36027C17.2694 7.55056 17.1587 10.5225 17.005 11.0263C15.4813 16.0215 8.57638 16.0215 7.05527 11.0263C6.78759 10.1473 6.81331 7.06079 7.09265 6.53886C7.17933 6.37688 7.96245 6.34304 8.7787 6.46603ZM6.02929 9.43243C6.06318 10.4815 6.06871 10.4373 5.90957 10.3867C5.42201 10.232 5.4349 8.47938 5.92359 8.47938C5.98369 8.47938 6.00458 8.66795 6.02929 9.43243ZM18.3431 8.61123C18.6576 8.92564 18.5115 10.2722 18.1505 10.3867C17.9932 10.4367 17.9995 10.4873 18.0317 9.4327C18.0634 8.3964 18.0812 8.3493 18.3431 8.61123ZM11.2528 15.5657C12.0079 15.6707 12.7972 15.6188 13.5833 15.4124L13.9504 15.316L13.9755 15.7068C13.9934 15.9862 14.0426 16.1835 14.148 16.399L14.2955 16.7005L14.143 16.8194C14.0591 16.8848 13.558 17.2828 13.0294 17.7037C12.5008 18.1246 12.051 18.4691 12.03 18.4691C12.009 18.4691 11.5593 18.1246 11.0307 17.7037C10.5021 17.2828 10.0009 16.8848 9.91704 16.8194L9.76457 16.7005L9.91205 16.399C10.0175 16.1835 10.0666 15.9862 10.0846 15.7068L10.1096 15.316L10.4767 15.4124C10.6786 15.4654 11.0279 15.5344 11.2528 15.5657ZM10.1696 18.0663L11.3905 19.033L11.1598 19.238C11.0328 19.3507 10.8247 19.5302 10.6972 19.6368L10.4653 19.8306L9.17834 18.5456L7.89139 17.2606L8.33604 17.1207C8.67483 17.014 8.80067 16.9948 8.86469 17.0401C8.91088 17.0728 9.49812 17.5345 10.1696 18.0663ZM16.1501 17.2552C16.1563 17.2609 15.584 17.8427 14.8781 18.5481L13.5947 19.8306L13.3629 19.6368C13.2354 19.5302 13.0272 19.3507 12.9002 19.238L12.6693 19.033L13.9677 18.0056L15.2662 16.9781L15.7025 17.1115C15.9424 17.1849 16.1438 17.2495 16.1501 17.2552ZM21.9756 18.0675C24.1328 18.4999 25.695 20.7451 25.3543 22.9234C24.6939 27.1453 19.0336 28.0561 17.1561 24.2427C15.5446 20.9696 18.3731 17.3454 21.9756 18.0675ZM20.7769 19.6458C20.652 19.7469 20.6499 19.7647 20.6337 20.8811L20.6173 22.0138H19.5193C18.3424 22.0138 18.219 22.0427 18.2001 22.3226C18.1695 22.7742 18.2925 22.8194 19.5521 22.8194H20.6233V23.8816C20.6233 25.1624 20.715 25.3835 21.1793 25.2216C21.4398 25.1308 21.4826 24.9322 21.4826 23.8147V22.8194H22.5592C23.7627 22.8194 23.8995 22.7768 23.8995 22.4016C23.8995 22.0494 23.7771 22.0138 22.5668 22.0138H21.4826V21.0332C21.4826 19.6324 21.2817 19.2374 20.7769 19.6458Z" fill="#FFD929"/>
</svg>
