<svg width="28" height="28" viewBox="0 0 28 28" fill="none" xmlns="http://www.w3.org/2000/svg">
<path fill-rule="evenodd" clip-rule="evenodd" d="M4.96463 0.0509651C4.40885 0.183614 3.85247 0.636662 3.5897 1.17043L3.4135 1.52826L3.38665 10.0684L3.35979 18.6085L1.80495 18.6227C-0.172429 18.6409 -0.0164727 18.5485 0.0167701 19.6825C0.0837391 21.9672 1.33241 23.1323 3.77289 23.1874L4.83043 23.2113L4.9678 23.0739C5.13912 22.9026 5.14379 22.6968 4.9801 22.5332C4.8605 22.4135 4.81222 22.4069 3.86574 22.3813C1.85898 22.3269 0.808851 21.4056 0.808851 19.6995V19.4409H6.60889H12.4089L12.41 20.0182C12.4113 20.7663 12.5759 21.8202 12.7706 22.3275C12.791 22.3807 12.1134 22.3946 9.4922 22.3946C7.67491 22.3946 6.14714 22.4103 6.09714 22.4295C5.96025 22.482 5.85789 22.7658 5.91842 22.9249C6.02513 23.2057 5.90144 23.1966 9.64591 23.1984L13.1394 23.2001L13.26 23.4484C14.8802 26.7832 19.2291 28.3819 22.7688 26.9441C27.1727 25.1551 28.8616 19.8228 26.2882 15.833C25.9695 15.339 25.7739 15.2498 25.4931 15.4707C25.2866 15.6331 25.3097 15.828 25.5864 16.2572C28.4751 20.7375 25.2923 26.6434 19.9812 26.6576C15.3274 26.6701 12.0626 22.0964 13.603 17.7223C15.1403 13.3572 20.5635 11.7979 24.1543 14.6884C24.57 15.023 24.7442 15.0587 24.9512 14.8516C25.6049 14.198 22.7555 12.5834 20.6705 12.426L20.196 12.3902V9.25627V6.12226H21.9569C24.5407 6.12226 24.3849 6.26705 24.3849 3.8654C24.3849 1.5137 24.1349 0.850081 23.0394 0.293546C22.4481 -0.00682041 22.6095 0.0013426 17.2533 0.000644449L12.2966 0L12.1648 0.131843C12.0038 0.292848 11.9966 0.476355 12.144 0.663728L12.2551 0.804863L16.1146 0.818611L19.974 0.832413L19.7751 1.12827C19.3365 1.78077 19.3655 1.36779 19.3486 7.20671L19.3337 12.3995L19.0801 12.433C17.2197 12.6783 15.3913 13.6335 14.3154 14.9223L14.0469 15.2439L10.2695 15.2614L6.49214 15.2788L6.36255 15.4295C6.19709 15.6219 6.19784 15.8125 6.3648 15.9794L6.49659 16.1112H9.96351H13.4304L13.195 16.5811C12.9139 17.1423 12.7259 17.6543 12.594 18.2191L12.4967 18.6353H8.34444H4.19221V10.2642C4.19221 1.02161 4.16981 1.6195 4.53017 1.24411C4.94299 0.813992 4.77565 0.834292 8.05734 0.817215C10.9627 0.80207 10.9835 0.801211 11.105 0.686982C11.2685 0.533496 11.2676 0.271259 11.1032 0.116753L10.9788 0L8.05546 0.00547781C6.44756 0.00853894 5.05668 0.0290002 4.96463 0.0509651ZM22.5547 0.970701C23.4042 1.34502 23.5483 1.73142 23.5696 3.69215L23.5866 5.263H21.8913H20.196L20.1961 3.69215L20.1961 2.12131L20.3488 1.79909C20.745 0.96286 21.7125 0.599552 22.5547 0.970701ZM6.3648 3.35409C6.19784 3.521 6.19709 3.71154 6.36255 3.90396L6.49219 4.05466H11.9166H17.3411L17.4796 3.92448C17.6588 3.75611 17.6616 3.52922 17.4864 3.35409L17.3546 3.22224H11.9256H6.49659L6.3648 3.35409ZM6.3648 7.38189C6.20369 7.54295 6.1966 7.7264 6.34429 7.9141L6.45556 8.05561H11.9256H17.3956L17.5069 7.9141C17.6546 7.7264 17.6475 7.54295 17.4864 7.38189L17.3546 7.25005H11.9256H6.49659L6.3648 7.38189ZM6.34429 11.4194C6.1966 11.6071 6.20369 11.7905 6.3648 11.9516L6.49659 12.0834H11.9256H17.3546L17.4864 11.9516C17.6555 11.7825 17.6587 11.5494 17.4939 11.3946L17.3696 11.2779H11.9126H6.45556L6.34429 11.4194ZM19.3105 14.235C15.4012 14.6674 13.0503 18.9657 14.8064 22.4703C16.9412 26.7305 22.9565 26.7334 25.0963 22.4751C27.1064 18.4749 23.7821 13.7404 19.3105 14.235ZM21.1358 15.1662C24.588 16.0923 25.9806 20.0926 23.8398 22.9337C21.9394 25.4558 18.0859 25.4886 16.1078 22.9995C13.8953 20.2153 15.3502 15.9615 18.7833 15.177C18.9843 15.1311 19.1971 15.0821 19.2562 15.0682C19.4911 15.0131 20.8239 15.0826 21.1358 15.1662ZM19.659 15.789C19.4994 15.9486 19.5091 16.3748 19.6758 16.5315C19.9681 16.8061 20.3571 16.5929 20.3571 16.1582C20.3571 15.7317 19.9379 15.5101 19.659 15.789ZM16.9294 16.9336C16.7555 17.1189 16.7776 17.3451 16.9898 17.5507C17.465 18.0113 18.0227 17.47 17.5622 16.995C17.3424 16.7682 17.1064 16.7453 16.9294 16.9336ZM22.3895 16.9305C22.1156 17.162 22.0777 17.4 22.2783 17.6284C22.5081 17.8901 23.096 17.5769 23.096 17.1928C23.096 16.8563 22.6661 16.6966 22.3895 16.9305ZM19.6834 17.532L19.5516 17.6637V18.8975V20.1312L19.6931 20.2425C20.0578 20.5294 21.3868 20.3683 21.4329 20.0316C21.483 19.6653 21.3265 19.5483 20.7868 19.5483H20.3571V18.606C20.3571 17.5641 20.3023 17.4001 19.9543 17.4001C19.8778 17.4001 19.7559 17.4595 19.6834 17.532ZM15.7923 19.6557C15.6324 19.8156 15.6491 20.103 15.8264 20.2425C16.1428 20.4914 16.6515 20.3093 16.6515 19.9471C16.6515 19.6747 16.4984 19.5483 16.1682 19.5483C15.9713 19.5483 15.8711 19.5769 15.7923 19.6557ZM23.3646 19.6557C23.0896 19.9306 23.3025 20.3538 23.7157 20.3538C24.1658 20.3538 24.3949 19.9426 24.0995 19.665C23.9312 19.507 23.5185 19.5017 23.3646 19.6557ZM17.1291 22.2065C16.8012 22.3847 16.7099 22.7893 16.9542 22.9814C17.1509 23.1362 17.3142 23.1206 17.5358 22.926C17.9635 22.5505 17.6186 21.9404 17.1291 22.2065ZM22.2809 22.2885C22.0242 22.5452 22.306 23.0927 22.6949 23.0927C23.1006 23.0927 23.2142 22.6213 22.8811 22.3203C22.6191 22.0836 22.4925 22.0769 22.2809 22.2885ZM19.7833 23.2542C19.3772 23.4179 19.5131 24.2205 19.9468 24.2205C20.382 24.2205 20.5322 23.4823 20.1384 23.2787C19.9668 23.1899 19.9464 23.1885 19.7833 23.2542Z" fill="#FFD929"/>
</svg>
