<svg width="25" height="28" viewBox="0 0 25 28" fill="none" xmlns="http://www.w3.org/2000/svg">
<path fill-rule="evenodd" clip-rule="evenodd" d="M7.37136 0.0942196C6.03604 0.381001 4.83945 1.55427 4.49041 2.91907C4.39269 3.30133 4.37685 3.55823 4.37685 4.76478V6.16644H4.21457C3.35792 6.16644 2.76391 6.82592 2.765 7.77575C2.76604 8.70105 3.08081 9.09454 4.0702 9.40752L4.65615 9.59284L4.83691 10.0535C5.29069 11.2102 6.26633 12.4812 7.15754 13.0768L7.37297 13.2208L7.35777 13.966L7.34256 14.7112L4.84791 15.1554C1.76052 15.7051 1.47466 15.8075 0.759263 16.6203C0.0108099 17.4706 0.000271515 17.5533 0.000271515 22.5814C0.000271515 27.3478 -0.0246635 27.0704 0.403378 27.0704C0.803489 27.0704 0.806484 27.0548 0.806484 24.9685V23.0969H2.0158H3.22512V24.9685C3.22512 27.0548 3.22812 27.0704 3.62823 27.0704C4.0345 27.0704 4.03133 27.0892 4.03133 24.6805C4.03133 21.9736 4.26053 22.2907 2.30374 22.2907H0.806484V20.3736C0.806484 17.69 1.01103 17.1062 2.13777 16.5736C2.44033 16.4306 5.6714 15.7919 5.74085 15.8613C5.75415 15.8746 6.02446 16.5036 6.34148 17.2592C7.14279 19.1687 7.07524 19.1312 8.19594 18.2884C8.59599 17.9875 8.93696 17.7413 8.95355 17.7413C8.97019 17.7413 8.98378 18.3977 8.98378 19.1998C8.98378 20.8124 9.00693 20.9086 9.39495 20.9086C9.76327 20.9086 9.78999 20.7924 9.78999 19.1917C9.78999 18.394 9.80358 17.7413 9.82022 17.7413C9.83681 17.7413 10.1778 17.9875 10.5778 18.2884C11.6985 19.1312 11.631 19.1687 12.4323 17.2592C12.7493 16.5036 13.0196 15.8746 13.0329 15.8613C13.1032 15.791 16.3271 16.4276 16.6327 16.572C17.7631 17.1063 17.9673 17.688 17.9673 20.3736V22.2907H16.47C14.5132 22.2907 14.7424 21.9736 14.7424 24.6805C14.7424 27.0892 14.7393 27.0704 15.1455 27.0704C15.5457 27.0704 15.5487 27.0548 15.5487 24.9685V23.0969H16.758H17.9673V24.9685C17.9673 27.0548 17.9703 27.0704 18.3704 27.0704C18.7984 27.0704 18.7735 27.3478 18.7735 22.5814C18.7735 17.5533 18.763 17.4706 18.0145 16.6203C17.3 15.8086 17.0156 15.7066 13.9278 15.1551L11.4312 14.7092L11.4169 13.965L11.4026 13.2208L11.7264 12.9904C12.5586 12.3985 13.4908 11.1728 13.909 10.1206L14.1188 9.59284L14.7041 9.40752C15.693 9.09443 16.0077 8.70076 16.0088 7.77575C16.0099 6.82592 15.4159 6.16644 14.5592 6.16644H14.3969L14.3959 4.79876C14.3952 3.82301 14.3708 3.31556 14.3106 3.02797C14.0189 1.6338 12.7678 0.382728 11.3736 0.0909948C10.8199 -0.0248118 7.91486 -0.0225084 7.37136 0.0942196ZM21.7104 0.063929C20.9299 0.227072 20.3401 0.573225 20.1769 0.963892C20.0402 1.29098 20.0615 17.404 20.1988 17.5227C20.2542 17.5707 20.4421 17.6742 20.6163 17.7528C20.7905 17.8314 21.0172 17.9669 21.1202 18.054L21.3073 18.2123V21.4281V24.6439L21.1416 24.7618C20.5668 25.1712 20.6674 26.7323 21.2853 26.9905C21.578 27.1129 23.324 27.1026 23.5888 26.9769C24.2044 26.6848 24.2837 25.0236 23.6948 24.7553L23.5532 24.6908V21.4515V18.2123L23.7403 18.054C23.8433 17.9669 24.07 17.8314 24.2442 17.7528C24.4184 17.6742 24.6063 17.5707 24.6617 17.5227C24.8228 17.3834 24.8149 1.30601 24.6535 0.950762C24.3485 0.27913 22.8462 -0.173558 21.7104 0.063929ZM11.4842 0.973221C12.8242 1.46898 13.5135 2.45619 13.5769 3.9702C13.6053 4.64857 13.6016 4.68047 13.4979 4.64863C11.9724 4.1797 6.80142 4.1797 5.27584 4.64863C5.11626 4.69763 5.17114 3.42088 5.35024 2.9174C5.73958 1.82291 6.63747 1.05661 7.77446 0.848374C8.28669 0.754507 11.154 0.851022 11.4842 0.973221ZM23.3709 0.97397C24.0092 1.17662 23.9563 0.924964 23.9563 3.75984V6.23018L23.2273 5.85282C22.3474 5.39731 22.5131 5.39731 21.6332 5.85282L20.9042 6.23018V3.75984C20.9042 0.974719 20.868 1.18917 21.3678 1.0099C21.9981 0.783761 22.7304 0.770574 23.3709 0.97397ZM8.8974 1.43835C7.9292 1.8866 7.95453 3.24726 8.93875 3.65837C9.70822 3.97976 10.5937 3.38057 10.5937 2.53848C10.5937 1.67618 9.67315 1.07918 8.8974 1.43835ZM9.64862 2.27675C9.8857 2.51378 9.71726 2.94159 9.38689 2.94159C9.32066 2.94159 9.2029 2.87795 9.12516 2.80021C9.04741 2.72247 8.98378 2.60471 8.98378 2.53848C8.98378 2.47226 9.04741 2.35449 9.12516 2.27675C9.2029 2.19901 9.32066 2.13538 9.38689 2.13538C9.45311 2.13538 9.57088 2.19901 9.64862 2.27675ZM11.8055 5.21603C12.5353 5.30724 13.4856 5.46878 13.527 5.50863C13.5817 5.56103 13.2571 5.94058 13.0656 6.04821C12.7364 6.23324 6.03742 6.23324 5.7082 6.04821C5.51741 5.94099 5.19147 5.56045 5.24676 5.50943C5.32945 5.43307 7.29258 5.16092 8.14877 5.10713C8.8621 5.06233 11.1122 5.1293 11.8055 5.21603ZM23.4236 6.88397L23.9563 7.15704V7.57696V7.99688L23.2509 7.63017C22.3879 7.18157 22.4776 7.18151 21.6152 7.63167L20.9042 8.00276V7.57898V7.1552L21.6672 6.75324L22.4302 6.35129L22.6606 6.48109C22.7873 6.55244 23.1307 6.73372 23.4236 6.88397ZM5.50687 6.87187L5.78772 7.00144H9.38689H12.986L13.2669 6.87187C13.4214 6.80058 13.5613 6.7423 13.578 6.7423C13.6688 6.7423 13.5303 8.47854 13.3984 8.99244C12.8238 11.2322 11.0295 13.0445 9.38689 13.0445C7.75143 13.0445 5.94885 11.2283 5.37886 9.0062C5.24382 8.47975 5.10331 6.7423 5.19579 6.7423C5.21243 6.7423 5.35237 6.80058 5.50687 6.87187ZM4.37685 7.56925C4.37685 7.86576 4.39384 8.23235 4.41463 8.38398L4.45241 8.65965L4.28506 8.6179C3.35774 8.38669 3.2523 7.03933 4.1609 7.03196L4.37685 7.03024V7.56925ZM14.9516 7.13228C15.4995 7.5761 15.2327 8.43241 14.4887 8.6179L14.3214 8.65965L14.3591 8.38398C14.3799 8.23235 14.3969 7.86576 14.3969 7.56925V7.03024L14.6129 7.0315C14.7317 7.03219 14.8841 7.07757 14.9516 7.13228ZM23.9423 12.941L23.957 16.9694L23.6965 17.096C23.5532 17.1656 23.3234 17.3263 23.1858 17.4531L22.9356 17.6838H22.4302H21.9249L21.6747 17.4531C21.5371 17.3263 21.3073 17.1656 21.164 17.096L20.9035 16.9694L20.9182 12.9385L20.933 8.90756L21.6816 8.51868L22.4302 8.12979L23.1789 8.52121L23.9275 8.91268L23.9423 12.941ZM8.78223 13.8305C9.22357 13.9216 9.83531 13.8871 10.3803 13.7404L10.5386 13.6978V14.3119V14.9261L9.98291 15.5707C9.67724 15.9252 9.41165 16.22 9.39264 16.2257C9.37364 16.2314 9.10546 15.9419 8.79662 15.5822L8.23515 14.9284V14.3131V13.6978L8.39352 13.7404C8.48059 13.7638 8.65554 13.8044 8.78223 13.8305ZM8.19893 16.141C8.85674 16.9047 8.86849 16.7704 8.09424 17.3387L7.4639 17.8014L7.24035 17.2675C7.11734 16.9738 6.9178 16.4972 6.79681 16.2083L6.57689 15.683L7.04611 15.5955C7.30415 15.5474 7.544 15.5052 7.57907 15.5017C7.61414 15.4983 7.89309 15.7859 8.19893 16.141ZM11.785 15.6136L12.1963 15.6845L11.9767 16.209C11.8559 16.4975 11.6568 16.973 11.5343 17.2655L11.3115 17.7974L10.6803 17.3344C10.3332 17.0798 10.0423 16.8524 10.034 16.829C9.99471 16.7192 11.1386 15.489 11.2552 15.5156C11.3204 15.5305 11.5587 15.5746 11.785 15.6136ZM22.747 21.5421V24.5941H22.4302H22.1135V21.5421V18.49H22.4302H22.747V21.5421ZM23.2534 25.8467L23.2703 26.2642H22.4328H21.5952V25.8307V25.3972L22.4159 25.4132L23.2365 25.4291L23.2534 25.8467Z" fill="#FFD929"/>
</svg>
