<svg width="25" height="30" viewBox="0 0 25 30" fill="none" xmlns="http://www.w3.org/2000/svg">
<path fill-rule="evenodd" clip-rule="evenodd" d="M16.9081 0.0418815C15.2141 0.476142 13.4599 2.57674 13.8063 3.75622C13.8885 4.03602 14.8851 5.23482 15.2722 5.51939C16.7552 6.60971 20.2936 3.4784 19.4611 1.81253C19.3022 1.49462 18.2613 0.292516 18.0179 0.1458C17.7883 0.00741834 17.2421 -0.0437801 16.9081 0.0418815ZM17.5706 0.998777C17.9079 1.41346 16.805 2.82611 15.7299 3.35655C14.7842 3.82316 14.4924 3.63781 14.8902 2.8232C15.3984 1.78303 17.207 0.551882 17.5706 0.998777ZM18.6231 2.41024C18.5934 3.47747 16.3238 5.24627 15.723 4.67045L15.5652 4.51923L16.1585 4.22335C16.858 3.87449 17.7884 2.99228 18.1524 2.33272L18.3658 1.94615L18.4972 2.08016C18.574 2.15861 18.6263 2.29554 18.6231 2.41024ZM20.3705 3.76541C20.0797 4.08127 20.2028 4.32145 20.8627 4.72601C21.3691 5.03651 21.7857 4.91844 21.7857 4.46446C21.7857 3.94924 20.6966 3.41126 20.3705 3.76541ZM22.8879 5.5776C22.4975 5.72399 22.4638 6.08363 22.7962 6.55613C23.5241 7.59074 24.055 9.19973 24.055 10.3711C24.055 11.0784 24.65 11.3755 24.936 10.8112C25.1211 10.446 24.8818 8.74476 24.5098 7.78218C24.1803 6.92927 23.3924 5.59678 23.2176 5.59678C23.1847 5.59678 23.119 5.58428 23.0715 5.56893C23.024 5.55365 22.9414 5.55756 22.8879 5.5776ZM19.7156 6.16797C19.5114 6.43276 19.5446 6.53364 20.0217 7.09781C20.264 7.38436 20.6309 7.88001 20.837 8.19931C21.3047 8.92382 21.4804 9.00929 21.8343 8.68437C22.0897 8.44981 21.9468 8.06708 21.2495 7.11818C20.4581 6.04136 20.0216 5.77102 19.7156 6.16797ZM17.5475 6.65998C17.2675 6.88468 17.3164 7.13406 17.7544 7.71352C18.2605 8.383 18.8031 8.42156 18.8031 7.78793C18.8031 7.54669 18.1547 6.62214 17.9453 6.56492C17.7372 6.50804 17.7367 6.5081 17.5475 6.65998ZM9.92026 7.82722C9.62524 7.9359 9.59607 8.03089 9.59607 8.88136C9.59607 9.79142 9.66609 9.96254 10.0387 9.96254C10.4159 9.96254 10.5038 9.75424 10.5038 8.86059C10.5038 7.95317 10.3444 7.67105 9.92026 7.82722ZM6.71952 9.23975C6.38942 9.5046 6.46924 9.72699 7.1313 10.3879C7.7625 11.0181 7.91682 11.0705 8.18583 10.7462C8.40998 10.4759 8.33691 10.3066 7.72801 9.68545C7.11827 9.06333 7.00286 9.01233 6.71952 9.23975ZM12.3433 9.65635C11.6487 10.3651 11.6284 10.8886 12.2957 10.8886C12.5752 10.8886 13.5512 9.87536 13.5512 9.58524C13.5512 8.92832 13.0267 8.95921 12.3433 9.65635ZM19.0271 9.52961C18.8395 9.72097 18.8395 9.72077 18.9673 10.3594C19.1222 11.1338 19.6833 11.3851 19.9085 10.7811C20.1711 10.0763 19.4687 9.07901 19.0271 9.52961ZM21.8871 10.2499C21.7394 10.4006 21.7361 10.4293 21.7685 11.2586C21.7887 11.7739 21.7717 12.2959 21.7257 12.5754C21.5624 13.5665 21.5615 13.5103 21.7424 13.6949C22.3213 14.2854 22.7063 13.4457 22.7136 11.5767C22.7177 10.5553 22.6579 10.2922 22.3942 10.1696C22.1592 10.0604 22.0571 10.0765 21.8871 10.2499ZM9.51489 11.1781C8.6292 11.5126 8.32828 12.1 8.27408 13.6007C8.22396 14.9863 7.84005 16.1415 7.01881 17.3773C6.48506 18.1806 6.46276 18.1942 5.64515 18.2201L4.94625 18.2422L4.90858 17.9556C4.8313 17.3678 4.8453 17.3711 2.42489 17.3711H0.318291L0.159178 17.5335L0 17.6958V23.6728C0 29.5543 0.00207497 29.6519 0.129417 29.7914C0.320236 30.0004 0.495299 30.0144 2.648 29.9924L4.61512 29.9723L4.73903 29.8161C4.80711 29.7302 4.86287 29.5739 4.86287 29.4688C4.86287 29.2255 4.84608 29.2233 5.66978 29.5754L6.36621 29.8731H11.3412C16.903 29.8731 16.6621 29.8923 17.2056 29.4043C17.7608 28.9056 17.9802 27.957 17.6761 27.3698C17.6131 27.2482 17.571 27.1431 17.5826 27.1363C17.5941 27.1296 17.7096 27.0749 17.8392 27.0149C18.8424 26.5506 19.1861 25.1025 18.4835 24.3004L18.2981 24.0886L18.4741 23.8223C19.1029 22.8706 18.8929 21.7094 17.9952 21.1726L17.7103 21.0023L17.8338 20.7246C18.1892 19.9259 17.8325 18.9065 17.0411 18.4592L16.6959 18.2641L14.0861 18.2447C12.6508 18.2341 11.4764 18.2145 11.4764 18.2011C11.4764 18.1878 11.5625 17.9077 11.6679 17.5788C12.2091 15.8893 12.3405 13.5147 11.9583 12.3326C11.6584 11.4051 10.4392 10.8291 9.51489 11.1781ZM10.6855 12.1919C11.512 12.8214 11.413 15.8956 10.4963 18.0657C10.2006 18.7654 10.1931 18.8461 10.4036 19.0609L10.5627 19.2232L13.4997 19.2235C16.3309 19.2237 16.4442 19.2285 16.6511 19.3573C17.0399 19.599 17.1541 20.1068 16.9053 20.4868C16.6369 20.8967 16.4554 20.9429 15.1115 20.943C13.7945 20.9431 13.616 20.9973 13.616 21.3969C13.616 21.8433 13.7223 21.8692 15.5573 21.8692C17.5825 21.8692 17.8961 21.9888 17.8951 22.7611C17.8943 23.4774 17.5756 23.589 15.5308 23.589C13.6643 23.589 13.616 23.6014 13.616 24.0813C13.616 24.4987 13.6897 24.5151 15.5604 24.5151C17.5738 24.5151 17.8954 24.6361 17.8954 25.3938C17.8954 26.1303 17.6135 26.2344 15.6186 26.2347C13.7433 26.2349 13.616 26.2655 13.616 26.715C13.616 27.1751 13.7591 27.2271 15.0234 27.2271C16.3798 27.2271 16.5398 27.2731 16.7328 27.7184C16.9266 28.1652 16.7749 28.6481 16.3809 28.8388C16.1805 28.9359 15.6659 28.947 11.358 28.947H6.55833L5.71063 28.5754L4.86287 28.2037V23.6804V19.1571L5.55988 19.1567C6.7013 19.1561 7.03366 18.9787 7.66013 18.0356C8.71102 16.4536 9.11977 15.2701 9.18765 13.6123C9.23122 12.5477 9.30313 12.3496 9.72704 12.1253C10.0045 11.9785 10.4456 12.0092 10.6855 12.1919ZM12.978 12.3175C12.7562 12.4759 12.6898 12.7109 12.8034 12.9349C13.072 13.465 14.848 13.2896 14.848 12.733C14.848 12.2509 13.4927 11.9497 12.978 12.3175ZM5.38158 12.41C5.21468 12.5803 5.21579 12.8747 5.38411 13.059C5.5781 13.2715 7.0439 13.2807 7.23025 13.0706C7.66045 12.5857 7.30371 12.2777 6.31168 12.2777C5.59768 12.2777 5.49725 12.292 5.38158 12.41ZM19.1423 12.5919C19.0714 12.6556 18.934 12.9756 18.837 13.303C18.512 14.4003 17.9457 15.4453 17.1898 16.343C16.7398 16.8772 16.8192 17.3711 17.355 17.3711C17.9887 17.3711 19.9054 14.0218 19.9054 12.9143C19.9054 12.542 19.4244 12.3388 19.1423 12.5919ZM24.0975 12.5596C23.8137 12.7714 23.7201 13.795 23.9665 13.9927C24.3258 14.2811 24.635 14.0625 24.7879 13.4122C24.9586 12.6864 24.5703 12.2069 24.0975 12.5596ZM21.0024 15.1211C20.8624 15.2046 20.2944 16.1972 20.2944 16.3583C20.2944 16.6648 20.7767 16.8862 21.0238 16.6931C21.178 16.5726 21.7208 15.6454 21.7208 15.5025C21.7208 15.2045 21.2666 14.9634 21.0024 15.1211ZM3.95514 23.6882V29.0131H2.43144H0.907736V23.6882V18.3633H2.43144H3.95514V23.6882Z" fill="#FFD929"/>
</svg>
