<svg width="16" height="16" viewBox="0 0 16 16" fill="none" xmlns="http://www.w3.org/2000/svg">
<g clip-path="url(#clip0_714_2878)">
<path fill-rule="evenodd" clip-rule="evenodd" d="M7.8824 0.0138694C7.53705 0.12181 7.55162 0.0197504 7.55162 2.332V4.31836L6.7147 4.35799C6.25441 4.37979 5.73527 4.40805 5.5611 4.42078C4.59094 4.49159 4.36272 4.51083 4.29441 4.52754C4.20677 4.54895 3.75489 4.60297 3.60075 4.61048L3.49519 4.61561V4.16436V3.71315L3.58567 3.66673C3.63543 3.64122 3.68067 3.61016 3.68619 3.59773C3.69174 3.5853 3.71439 3.57511 3.73653 3.57511C3.77507 3.57511 3.96127 3.48686 3.99279 3.45363C4.00111 3.44488 4.06897 3.41134 4.14362 3.37907C4.21826 3.3468 4.28612 3.31287 4.29441 3.30368C4.30271 3.29448 4.37057 3.26055 4.44521 3.22828C4.51985 3.19601 4.58771 3.16175 4.59601 3.15213C4.61848 3.12607 4.82663 3.03224 4.86195 3.03224C4.87878 3.03224 4.89709 3.02154 4.90264 3.00845C4.90816 2.99533 5.01688 2.93281 5.14421 2.86947C5.36784 2.75825 5.43175 2.67033 5.28895 2.67033C5.25894 2.67033 5.22986 2.65968 5.22432 2.64669C5.2188 2.63369 4.82075 2.42673 4.3398 2.18676C3.85885 1.94681 3.44878 1.7369 3.42854 1.72031C3.16561 1.50492 2.95745 1.48935 2.7613 1.67043C2.67597 1.74924 2.63565 1.81154 2.63565 1.86469C2.63565 1.90772 2.62208 1.95133 2.60549 1.96159C2.5861 1.97359 2.57533 2.47816 2.57533 3.37639V4.77253L2.37176 4.82337C2.25978 4.85136 2.12747 4.8865 2.07771 4.90143C2.02794 4.91638 1.93294 4.93801 1.86659 4.94947C1.80024 4.96093 1.73238 4.97987 1.71579 4.99157C1.69921 5.00327 1.6042 5.0372 1.50468 5.06691C1.40515 5.09665 1.31081 5.13281 1.29507 5.14728C1.27933 5.16173 1.23521 5.17355 1.19705 5.17355C1.1589 5.17355 1.12769 5.18712 1.12769 5.20371C1.12769 5.2203 1.11336 5.23387 1.09584 5.23387C1.0677 5.23387 0.923599 5.30233 0.630059 5.45521C0.478659 5.53408 0.193443 5.82783 0.130772 5.96946C0.0244602 6.20986 -0.0539541 13.3635 0.0463256 13.6763C0.116838 13.8964 0.338901 14.2213 0.418732 14.2213C0.429529 14.2213 0.457246 14.2383 0.480378 14.259C0.562773 14.3329 0.68896 14.4187 0.765776 14.4531C0.790657 14.4642 0.8178 14.4814 0.826094 14.4914C0.839183 14.5071 0.947485 14.555 1.17293 14.6446C1.2061 14.6578 1.30789 14.692 1.39912 14.7205C1.49035 14.7491 1.59214 14.7829 1.62532 14.7958C1.78745 14.8585 2.00804 14.915 2.09092 14.915C2.1417 14.915 2.18326 14.9255 2.18326 14.9384C2.18326 14.9513 2.32239 14.9862 2.4924 15.0161C2.6624 15.046 2.84903 15.0821 2.90709 15.0962C3.0888 15.1404 3.58446 15.2166 3.69084 15.2166C3.74675 15.2166 3.83418 15.2293 3.88512 15.2449C4.00434 15.2812 4.53744 15.3399 5.01824 15.3696C5.22558 15.3824 5.65988 15.4103 5.98333 15.4315C6.75448 15.4821 9.25707 15.4828 10.0096 15.4326C11.3433 15.3436 11.8691 15.2965 12.0986 15.2453C12.1693 15.2295 12.2767 15.2166 12.3372 15.2166C12.4445 15.2166 12.8891 15.1462 13.1009 15.0957C13.159 15.0818 13.3456 15.046 13.5156 15.0161C13.6857 14.9862 13.8248 14.9513 13.8248 14.9384C13.8248 14.9255 13.8553 14.9151 13.8926 14.9152C13.9867 14.9156 14.3805 14.8145 14.3927 14.7868C14.3983 14.7744 14.425 14.7642 14.4521 14.7642C14.5166 14.7642 14.7365 14.6858 14.926 14.5952C15.0092 14.5555 15.094 14.5229 15.1145 14.5229C15.135 14.5229 15.1518 14.5094 15.1518 14.4928C15.1518 14.4762 15.1772 14.4626 15.2084 14.4626C15.2395 14.4626 15.2819 14.4423 15.3026 14.4174C15.3232 14.3925 15.3588 14.3721 15.3816 14.3721C15.4045 14.3721 15.4232 14.3595 15.4232 14.344C15.4232 14.3285 15.45 14.3074 15.4829 14.297C15.5593 14.2727 15.8367 13.9947 15.8611 13.9179C15.8713 13.8858 15.8908 13.8594 15.9045 13.8594C15.9794 13.8594 16.0406 6.26146 15.9663 6.18715C15.9496 6.17044 15.9359 6.12867 15.9359 6.09438C15.9359 5.96548 15.662 5.64337 15.4232 5.49149C15.2175 5.36063 14.9734 5.23387 14.9272 5.23387C14.9014 5.23387 14.8803 5.2203 14.8803 5.20371C14.8803 5.18712 14.8491 5.17355 14.811 5.17355C14.7728 5.17355 14.7287 5.16185 14.7129 5.14753C14.6854 5.12252 14.1803 4.96177 13.9303 4.89844C13.864 4.88161 13.769 4.85634 13.7192 4.84222C13.6694 4.82814 13.5846 4.8076 13.5307 4.79665L13.4327 4.77669V4.23886V3.70099L14.2696 3.28383C14.7299 3.05441 15.111 2.85644 15.1166 2.8439C15.1221 2.83138 15.1493 2.82071 15.1769 2.82016C15.3335 2.81718 15.3265 2.67033 15.1698 2.67033C15.146 2.67033 15.1221 2.65959 15.1166 2.64644C15.1069 2.62334 14.9779 2.55588 13.8937 2.00683C13.6152 1.86583 13.3829 1.74028 13.3774 1.72785C13.3718 1.71543 13.3481 1.70523 13.3246 1.70523C13.3011 1.70523 13.2818 1.69504 13.2817 1.68261C13.2813 1.63547 13.0914 1.55444 12.9813 1.55444C12.8401 1.55444 12.7197 1.61442 12.6108 1.73904L12.5279 1.83404V3.23555V4.63702L12.3997 4.61932C12.3292 4.6096 12.163 4.5891 12.0303 4.57381C11.8976 4.55848 11.7551 4.53767 11.7136 4.52754C11.6721 4.51738 11.4414 4.49464 11.2009 4.47693C10.9604 4.45923 10.6075 4.43323 10.4168 4.41912C9.88097 4.37949 8.94962 4.33157 8.69013 4.33027L8.4564 4.32909V3.22828C8.4564 2.26988 8.46225 2.12746 8.50164 2.12746C8.52652 2.12746 8.54687 2.11389 8.54687 2.0973C8.54687 2.08072 8.56853 2.06714 8.59501 2.06714C8.64824 2.06714 8.8276 1.97462 8.84343 1.93897C8.84898 1.92654 8.87166 1.91635 8.89389 1.91635C8.94329 1.91635 9.43262 1.66968 9.44662 1.63768C9.45217 1.62507 9.4772 1.61476 9.50229 1.61476C9.55359 1.61476 9.73277 1.52138 9.74821 1.48658C9.75376 1.47415 9.77879 1.46396 9.80388 1.46396C9.84575 1.46396 10.0194 1.3799 10.0548 1.34248C10.0631 1.33373 10.131 1.30053 10.2056 1.26871C10.2803 1.23686 10.3464 1.20736 10.3525 1.20311C10.374 1.18818 10.2797 1.11634 10.1604 1.05675C10.094 1.0236 10.033 0.989342 10.0247 0.980565C10.0164 0.971819 9.94853 0.938282 9.87388 0.906012C9.79924 0.873741 9.73138 0.839812 9.72309 0.830613C9.71479 0.821415 9.64694 0.787486 9.57229 0.755215C9.49765 0.722945 9.42979 0.689408 9.42149 0.680661C9.39118 0.648662 8.89265 0.406905 8.85851 0.407629C8.83918 0.408051 8.81882 0.398189 8.81327 0.385764C8.80775 0.373338 8.70144 0.311361 8.57703 0.248086C8.45263 0.184812 8.31691 0.107816 8.27544 0.0769326C8.1872 0.0112758 7.99131 -0.0201503 7.8824 0.0138694ZM7.55162 6.30573V7.37759L6.95597 7.36092C6.62835 7.35172 6.19068 7.33049 5.98333 7.31369C5.77599 7.29689 5.49777 7.27753 5.36507 7.27068C5.10618 7.25732 4.34403 7.17915 4.02298 7.133C3.91516 7.1175 3.75909 7.09624 3.67615 7.08574C3.47375 7.06011 3.48111 7.08906 3.48057 6.31454C3.48002 5.51173 3.4749 5.53546 3.64964 5.53546C3.72271 5.53546 3.8061 5.52292 3.83491 5.5076C3.92973 5.45714 4.83158 5.37149 5.77222 5.32363C6.11227 5.30631 6.55335 5.28098 6.7524 5.26732C6.95145 5.25366 7.21269 5.24054 7.33296 5.23818L7.55162 5.23387V6.30573ZM10.0548 5.31207C11.1457 5.37052 11.4116 5.39556 12.362 5.52931L12.5128 5.55054L12.5209 6.30884L12.5289 7.06716L12.4002 7.08635C12.0409 7.13997 11.8445 7.1625 11.4723 7.19284C11.2484 7.21112 11.0073 7.23925 10.9366 7.25539C10.8658 7.27153 10.6953 7.2847 10.5576 7.2847C10.4199 7.2847 10.2334 7.29737 10.1433 7.31287C10.0532 7.32837 9.63674 7.35018 9.21792 7.36134L8.4564 7.38167V6.30326V5.22485L8.85601 5.24705C9.07581 5.25927 9.61527 5.28852 10.0548 5.31207ZM2.57533 6.32314V6.89966L2.4924 6.87864C2.44679 6.86709 2.35858 6.8505 2.29636 6.84178C2.23417 6.8331 2.18326 6.81537 2.18326 6.80243C2.18326 6.78946 2.12041 6.76943 2.04363 6.75791C1.96681 6.74639 1.87522 6.72618 1.84005 6.71304C1.80488 6.69989 1.70147 6.66514 1.61024 6.63586C1.519 6.60657 1.43145 6.57092 1.41571 6.55666C1.39994 6.54239 1.36374 6.53072 1.33527 6.53072C1.3068 6.53072 1.279 6.52056 1.27345 6.5081C1.26793 6.49565 1.19895 6.45511 1.12015 6.41802C0.954452 6.33999 0.946249 6.31508 1.05983 6.23528C1.16695 6.16 1.54117 5.98785 1.59766 5.98785C1.62161 5.98785 1.66479 5.97576 1.6936 5.96098C1.77222 5.9206 2.07469 5.83706 2.14219 5.83706C2.17473 5.83706 2.21427 5.82454 2.23001 5.80922C2.25739 5.78262 2.36138 5.76081 2.50748 5.7511L2.57533 5.74658V6.32314ZM13.7934 5.80732C13.8189 5.82005 13.9416 5.85422 14.066 5.88323C14.1904 5.91225 14.3051 5.94765 14.3209 5.96192C14.3366 5.97618 14.374 5.98785 14.4039 5.98785C14.4985 5.98785 15.0311 6.25769 15.0311 6.30558C15.0311 6.34916 14.6985 6.53072 14.6186 6.53072C14.5967 6.53072 14.5786 6.54089 14.5785 6.55334C14.5783 6.5658 14.4935 6.60093 14.39 6.63145C14.2865 6.66197 14.1746 6.6985 14.1414 6.71264C14.1082 6.72676 14.0132 6.75345 13.9303 6.77194C13.7325 6.81606 13.5843 6.85288 13.5005 6.87873L13.4327 6.89966V6.3203V5.74091L13.5898 5.76253C13.6762 5.77442 13.7678 5.79456 13.7934 5.80732ZM1.08896 7.39445C1.24627 7.46255 1.30077 7.48339 1.47452 7.5419C1.55746 7.56983 1.65246 7.60301 1.68563 7.61564C1.80341 7.66046 2.0192 7.71321 2.14556 7.72808C2.21608 7.73637 2.27374 7.75537 2.27374 7.7703C2.27374 7.7852 2.31786 7.7975 2.37176 7.79759C2.42565 7.79768 2.52177 7.81219 2.58535 7.82983C2.64892 7.84751 2.79143 7.87375 2.90202 7.88816C3.01261 7.90261 3.22527 7.93684 3.37456 7.96425C3.52384 7.9917 3.75456 8.02092 3.88726 8.02925C4.01996 8.0376 4.14145 8.05669 4.15719 8.07171C4.17296 8.08673 4.25472 8.09901 4.33893 8.09901C4.42313 8.09901 4.60704 8.11381 4.74759 8.13194C6.10949 8.3075 9.89852 8.3075 11.2604 8.13194C11.401 8.11381 11.5868 8.09901 11.6733 8.09901C11.7599 8.09901 11.8391 8.08543 11.8493 8.06885C11.8596 8.05226 11.9508 8.03869 12.0521 8.03869C12.2347 8.03869 12.6989 7.96953 12.8769 7.91585C12.9278 7.90047 13.016 7.88768 13.0729 7.88741C13.1298 7.88717 13.2578 7.86729 13.3573 7.84325C13.4568 7.81922 13.5823 7.79907 13.6363 7.7985C13.6902 7.79789 13.7343 7.78526 13.7343 7.77042C13.7343 7.75558 13.7852 7.73736 13.8474 7.72995C13.9658 7.71583 14.2193 7.65482 14.3224 7.61561C14.3556 7.60301 14.4506 7.56983 14.5335 7.5419C14.7072 7.48339 14.7617 7.46255 14.9191 7.39445C14.9818 7.36725 15.0463 7.34502 15.0623 7.34502C15.0809 7.34502 15.0914 8.45862 15.0914 10.4102V13.4754L15.0085 13.5476C14.9629 13.5872 14.895 13.6276 14.8577 13.6373C14.8204 13.647 14.7899 13.667 14.7899 13.6817C14.7899 13.6965 14.771 13.7086 14.748 13.7086C14.7251 13.7086 14.6674 13.7289 14.6199 13.7537C14.5724 13.7785 14.5105 13.7988 14.4825 13.7989C14.4544 13.799 14.4241 13.8111 14.4151 13.8257C14.406 13.8403 14.3679 13.8596 14.3304 13.8685C14.2378 13.8907 13.9244 13.9756 13.7946 14.0138C13.7365 14.0308 13.594 14.0648 13.4779 14.0892C13.3618 14.1136 13.2057 14.1474 13.1311 14.1642C12.7592 14.2479 11.515 14.4171 10.9295 14.4635C10.7553 14.4773 10.5144 14.4981 10.3941 14.5098L10.1755 14.531V13.0435C10.1755 12.0917 10.1635 11.49 10.1423 11.3731C10.0843 11.0538 9.99123 10.7495 9.93426 10.6927C9.92594 10.6844 9.88519 10.611 9.84372 10.5296C9.75979 10.3649 9.26904 9.84824 9.19645 9.84824C9.17093 9.84824 9.15006 9.83467 9.15006 9.81809C9.15006 9.8015 9.13727 9.78793 9.12162 9.78793C9.106 9.78793 9.04194 9.75771 8.97933 9.72073C8.83438 9.63523 8.58581 9.54891 8.4808 9.54765C8.43616 9.5471 8.39125 9.53308 8.381 9.51649C8.37026 9.49912 8.21039 9.48633 8.00401 9.48633C7.79763 9.48633 7.63775 9.49912 7.62702 9.51649C7.61676 9.53308 7.57186 9.5471 7.52722 9.54765C7.4222 9.54891 7.17363 9.63523 7.02869 9.72073C6.96608 9.75771 6.90202 9.78793 6.88639 9.78793C6.87074 9.78793 6.85795 9.8015 6.85795 9.81809C6.85795 9.83467 6.83748 9.84824 6.81241 9.84824C6.73882 9.84824 6.24669 10.3644 6.16429 10.5279C6.12282 10.6103 6.07996 10.6844 6.06908 10.6928C6.03744 10.7169 5.90064 11.1731 5.86505 11.3731C5.84472 11.4874 5.83254 12.1128 5.83254 13.0435V14.531L5.61388 14.5098C5.49361 14.4981 5.25273 14.4773 5.07856 14.4635C4.49301 14.4171 3.24885 14.2479 2.87693 14.1642C2.80228 14.1474 2.64621 14.1133 2.53009 14.0886C2.1835 14.0146 2.13941 14.0032 2.10786 13.9794C2.09128 13.9669 2.02236 13.9476 1.95469 13.9365C1.8171 13.9138 1.62224 13.8513 1.59069 13.8198C1.57932 13.8084 1.55061 13.7991 1.52691 13.7991C1.46414 13.7991 1.0639 13.604 0.98443 13.5346L0.916572 13.4754V10.4102C0.916572 8.45862 0.927158 7.34502 0.945706 7.34502C0.961721 7.34502 1.0262 7.36725 1.08896 7.39445ZM8.30346 10.426C8.57821 10.515 9.05958 10.8489 9.05958 10.9505C9.05958 10.9582 9.093 11.0337 9.13384 11.1183C9.25299 11.3653 9.2707 11.6261 9.2707 13.1332V14.5439L8.72029 14.5699C8.03929 14.6021 7.96872 14.6021 7.28772 14.5699L6.73732 14.5439V13.1332C6.73732 11.589 6.75372 11.3654 6.88694 11.0952C7.14133 10.5791 7.80625 10.265 8.30346 10.426Z" fill="#D78108"/>
</g>
<defs>
<clipPath id="clip0_714_2878">
<rect width="16" height="16" fill="white"/>
</clipPath>
</defs>
</svg>
