<svg width="24" height="24" viewBox="0 0 24 24" fill="none" xmlns="http://www.w3.org/2000/svg">
<path d="M4 10.9075C4 10.3308 4.24896 9.78216 4.68299 9.40238L10.683 4.15238C11.437 3.49259 12.563 3.49259 13.317 4.15238L19.317 9.40238C19.751 9.78216 20 10.3308 20 10.9075L20 18C20 19.1046 19.1046 20 18 20H15.5C15.2239 20 15 19.7761 15 19.5V16C15 15.2044 14.6839 14.4413 14.1213 13.8787C13.5587 13.3161 12.7957 13 12 13C11.2044 13 10.4413 13.3161 9.87868 13.8787C9.31607 14.4413 9 15.2043 9 16V19.5C9 19.7761 8.77615 20 8.5 20H6C4.89543 20 4 19.1046 4 18L4 10.9075Z" fill="#D3810D" stroke="#D3810D" stroke-linecap="round" stroke-linejoin="round"/>
</svg>
