<svg width="500" height="373" viewBox="0 0 500 373" fill="none" xmlns="http://www.w3.org/2000/svg">
<g clip-path="url(#clip0_905_66)">
<path d="M500 327.449H0V327.699H500V327.449Z" fill="#EBEBEB"/>
<path d="M449.901 343.539H416.781V343.789H449.901V343.539Z" fill="#EBEBEB"/>
<path d="M331.221 346.262H322.531V346.512H331.221V346.262Z" fill="#EBEBEB"/>
<path d="M415.78 334.262H396.59V334.512H415.78V334.262Z" fill="#EBEBEB"/>
<path d="M95.6509 335.941H52.4609V336.191H95.6509V335.941Z" fill="#EBEBEB"/>
<path d="M110.889 335.941H104.559V336.191H110.889V335.941Z" fill="#EBEBEB"/>
<path d="M225.149 340.16H131.469V340.41H225.149V340.16Z" fill="#EBEBEB"/>
<path d="M237.009 282.85H43.9092C40.7592 282.85 38.1992 280.29 38.1992 277.14V5.71C38.1992 2.56 40.7592 0 43.9092 0H237.009C240.159 0 242.719 2.56 242.719 5.71V277.14C242.719 280.29 240.159 282.85 237.009 282.85ZM43.9092 0.25C40.8992 0.25 38.4492 2.7 38.4492 5.71V277.14C38.4492 280.15 40.8992 282.6 43.9092 282.6H237.009C240.019 282.6 242.469 280.15 242.469 277.14V5.71C242.469 2.7 240.019 0.25 237.009 0.25H43.9092Z" fill="#EBEBEB"/>
<path d="M453.31 282.85H260.21C257.06 282.85 254.5 280.29 254.5 277.14V5.71C254.5 2.56 257.06 0 260.21 0H453.31C456.46 0 459.02 2.56 459.02 5.71V277.14C459.02 280.29 456.46 282.85 453.31 282.85ZM260.21 0.25C257.2 0.25 254.75 2.7 254.75 5.71V277.14C254.75 280.15 257.2 282.6 260.21 282.6H453.31C456.32 282.6 458.77 280.15 458.77 277.14V5.71C458.77 2.7 456.32 0.25 453.31 0.25H260.21Z" fill="#EBEBEB"/>
<path d="M134.393 81.5078H78.8828L79.7328 74.0078H135.243L134.393 81.5078Z" fill="#F5F5F5"/>
<path d="M130.412 116.596H74.9023L75.7523 109.086H131.262L130.412 116.596Z" fill="#F5F5F5"/>
<path d="M126.44 151.678H70.9297L71.7797 144.168H127.29L126.44 151.678Z" fill="#F5F5F5"/>
<path d="M122.463 186.758H66.9531L67.8031 179.258H123.313L122.463 186.758Z" fill="#F5F5F5"/>
<path d="M118.49 221.836H62.9805L63.8305 214.336H119.34L118.49 221.836Z" fill="#F5F5F5"/>
<path d="M114.522 256.918H59.0117L59.8617 249.418H115.372L114.522 256.918Z" fill="#F5F5F5"/>
<path d="M110.541 291.996H55.0312L55.8813 284.496H111.391L110.541 291.996Z" fill="#F5F5F5"/>
<path d="M54.8111 327.698H46.1211L76.5511 59.0781H85.2411L54.8111 327.698Z" fill="#EBEBEB"/>
<path d="M111.37 327.698H102.68L133.11 59.0781H141.8L111.37 327.698Z" fill="#EBEBEB"/>
<path d="M444.341 43.6797H339.641V327.7H444.341V43.6797Z" fill="#F5F5F5"/>
<path d="M438.609 49.918H345.379V96.248H438.609V49.918Z" fill="#EBEBEB"/>
<path d="M385.857 67.4062H357.027V96.2362H385.857V67.4062Z" fill="#F0F0F0"/>
<path d="M416.739 75.7188H396.219V96.2387H416.739V75.7188Z" fill="#F0F0F0"/>
<path d="M438.609 101.109H345.379V147.439H438.609V101.109Z" fill="#EBEBEB"/>
<path d="M370.907 118.598H357.027V147.428H370.907V118.598Z" fill="#F0F0F0"/>
<path d="M416.747 135.621H385.867V147.441H416.747V135.621Z" fill="#F0F0F0"/>
<path d="M409.98 117.988H380V135.618H409.98V117.988Z" fill="#F0F0F0"/>
<path d="M438.609 152.297H345.379V198.627H438.609V152.297Z" fill="#EBEBEB"/>
<path d="M385.87 169.785H380V198.615H385.87V169.785Z" fill="#F0F0F0"/>
<path d="M432.219 159.605H396.219V198.625H432.219V159.605Z" fill="#F0F0F0"/>
<path d="M438.609 203.488H345.379V249.818H438.609V203.488Z" fill="#EBEBEB"/>
<path d="M385.857 220.977H357.027V249.807H385.857V220.977Z" fill="#F0F0F0"/>
<path d="M416.739 229.289H396.219V249.809H416.739V229.289Z" fill="#F0F0F0"/>
<path d="M438.609 254.68H345.379V301.01H438.609V254.68Z" fill="#EBEBEB"/>
<path d="M385.857 272.168H357.027V300.998H385.857V272.168Z" fill="#F0F0F0"/>
<path d="M416.739 280.48H396.219V301H416.739V280.48Z" fill="#F0F0F0"/>
<path d="M385.869 29.3984H354.289V43.6784H385.869V29.3984Z" fill="#F0F0F0"/>
<path d="M414.219 36.5391H397.969V43.6791H414.219V36.5391Z" fill="#F0F0F0"/>
<path d="M97.373 327.695H188.043V246.385H97.373L97.373 327.695Z" fill="#EBEBEB"/>
<path d="M156.483 327.695H188.043V246.385H156.483V327.695Z" fill="#E0E0E0"/>
<path d="M79.3222 248.059H169.992V181.869H79.3222L79.3222 248.059Z" fill="#F5F5F5"/>
<path d="M138.432 248.059H169.992V181.869H138.432V248.059Z" fill="#EBEBEB"/>
<path d="M100.603 181.867H188.043V149.467H100.603V181.867Z" fill="#FAFAFA"/>
<path d="M157.601 181.867H188.031V149.467H157.601V181.867Z" fill="#F0F0F0"/>
<path d="M189.54 29.3984H65.6797V36.5384H189.54V29.3984Z" fill="#F0F0F0"/>
<path d="M92.8884 19.2969H74.8984V29.3969H92.8884V19.2969Z" fill="#F5F5F5"/>
<path d="M116.099 10.3281H97.0391V29.3881H116.099V10.3281Z" fill="#F0F0F0"/>
<path d="M132.499 19.8594H122.969V29.3894H132.499V19.8594Z" fill="#EBEBEB"/>
<path d="M148.641 24.7972C148.641 27.5172 146.431 29.7272 143.711 29.7272C140.991 29.7272 138.781 27.5172 138.781 24.7972C138.781 22.0772 140.991 19.8672 143.711 19.8672C146.431 19.8672 148.641 22.0772 148.641 24.7972Z" fill="#F5F5F5"/>
<path d="M154.879 29.3981L160.869 10.3281H170.759L176.229 29.7281L154.879 29.3981Z" fill="#EBEBEB"/>
<path d="M249.999 372.609C357.082 372.609 443.889 367.541 443.889 361.289C443.889 355.037 357.082 349.969 249.999 349.969C142.917 349.969 56.1094 355.037 56.1094 361.289C56.1094 367.541 142.917 372.609 249.999 372.609Z" fill="#F5F5F5"/>
<path d="M327.619 63.4219V359.892C327.619 362.332 325.659 364.222 323.219 364.222H185.239C184.139 364.222 183.179 363.812 182.479 363.112C181.749 362.402 181.309 361.392 181.309 360.252V63.0619C181.309 61.1219 182.739 59.4319 184.679 59.4319H223.869C224.969 59.4319 225.979 60.1519 226.389 61.1919L228.019 65.1819C228.429 66.2119 229.429 66.9319 230.539 66.9319H278.489C279.599 66.9319 280.599 66.2419 281.009 65.2119L282.639 61.1919C283.049 60.1519 284.049 59.4219 285.159 59.4219H323.779C325.909 59.4219 327.619 61.2719 327.619 63.4119V63.4219Z" fill="#F6CB03"/>
<g opacity="0.1">
<path d="M247.14 66.9319L205.02 224.692L204.55 226.472L203.79 229.322L203.31 231.102L181.32 313.482V213.782L222.53 59.4219H223.87C224.98 59.4219 225.98 60.1419 226.39 61.1819L228.01 65.1819C228.42 66.2119 229.43 66.9219 230.53 66.9219H247.13L247.14 66.9319Z" fill="white"/>
<path d="M327.62 147.5V247.2L301.36 345.6L300.72 347.99L296.38 364.22H269.77L274.1 348L274.8 345.39L278.27 332.36L278.97 329.75L280.37 324.53L281.06 321.93L282.45 316.71L283.14 314.11L305.04 232.09V232.08L306.05 228.29V228.28L327.62 147.5Z" fill="white"/>
<path d="M261.56 66.9336L219.7 223.714L219.45 224.654L217.16 233.244L216.91 234.184L182.49 363.124C181.76 362.414 181.32 361.394 181.32 360.254V345.094L210.93 234.184L211.18 233.244L213.47 224.654L213.72 223.714L255.58 66.9336H261.56Z" fill="white"/>
</g>
<path opacity="0.3" d="M327.62 78.75H181.32V351.1H327.62V78.75Z" fill="white"/>
<path d="M299.467 198.431C302.277 198.431 304.567 196.151 304.567 193.331V112.881C304.567 110.071 302.287 107.781 299.467 107.781C296.657 107.781 294.367 110.061 294.367 112.881V193.331C294.367 196.141 296.647 198.431 299.467 198.431Z" fill="#F6CB03"/>
<path opacity="0.3" d="M299.467 196.431C297.757 196.431 296.367 195.041 296.367 193.331V112.881C296.367 111.171 297.757 109.781 299.467 109.781C301.177 109.781 302.567 111.171 302.567 112.881V193.331C302.567 195.041 301.177 196.431 299.467 196.431Z" fill="black"/>
<path d="M306.777 121.999C307.431 117.971 304.695 114.175 300.667 113.521C296.638 112.867 292.842 115.603 292.188 119.631C291.534 123.66 294.27 127.456 298.298 128.11C302.327 128.764 306.123 126.028 306.777 121.999Z" fill="#F6CB03"/>
<path d="M269.467 198.431C272.277 198.431 274.567 196.151 274.567 193.331V112.881C274.567 110.071 272.287 107.781 269.467 107.781C266.657 107.781 264.367 110.061 264.367 112.881V193.331C264.367 196.141 266.647 198.431 269.467 198.431Z" fill="#F6CB03"/>
<path opacity="0.3" d="M269.467 196.431C267.757 196.431 266.367 195.041 266.367 193.331V112.881C266.367 111.171 267.757 109.781 269.467 109.781C271.177 109.781 272.567 111.171 272.567 112.881V193.331C272.567 195.041 271.177 196.431 269.467 196.431Z" fill="black"/>
<path d="M276.773 181.995C277.427 177.967 274.691 174.171 270.663 173.517C266.634 172.863 262.838 175.599 262.184 179.627C261.53 183.656 264.266 187.452 268.295 188.106C272.323 188.76 276.119 186.024 276.773 181.995Z" fill="#F6CB03"/>
<path d="M239.467 198.431C242.277 198.431 244.567 196.151 244.567 193.331V112.881C244.567 110.071 242.287 107.781 239.467 107.781C236.657 107.781 234.367 110.061 234.367 112.881V193.331C234.367 196.141 236.647 198.431 239.467 198.431Z" fill="#F6CB03"/>
<path opacity="0.3" d="M239.467 196.431C237.757 196.431 236.367 195.041 236.367 193.331V112.881C236.367 111.171 237.757 109.781 239.467 109.781C241.177 109.781 242.567 111.171 242.567 112.881V193.331C242.567 195.041 241.177 196.431 239.467 196.431Z" fill="black"/>
<path d="M246.773 141.999C247.427 137.971 244.691 134.175 240.663 133.521C236.634 132.867 232.838 135.603 232.184 139.631C231.53 143.66 234.266 147.456 238.295 148.11C242.323 148.764 246.119 146.028 246.773 141.999Z" fill="#F6CB03"/>
<path d="M209.467 198.431C212.277 198.431 214.567 196.151 214.567 193.331V112.881C214.567 110.071 212.287 107.781 209.467 107.781C206.657 107.781 204.367 110.061 204.367 112.881V193.331C204.367 196.141 206.647 198.431 209.467 198.431Z" fill="#F6CB03"/>
<path opacity="0.3" d="M209.467 196.431C207.757 196.431 206.367 195.041 206.367 193.331V112.881C206.367 111.171 207.757 109.781 209.467 109.781C211.177 109.781 212.567 111.171 212.567 112.881V193.331C212.567 195.041 211.177 196.431 209.467 196.431Z" fill="black"/>
<path d="M216.769 171.999C217.423 167.971 214.687 164.175 210.659 163.521C206.63 162.867 202.834 165.603 202.18 169.631C201.526 173.66 204.262 177.456 208.291 178.11C212.319 178.764 216.115 176.028 216.769 171.999Z" fill="#F6CB03"/>
<path opacity="0.6" d="M306.777 121.999C307.431 117.971 304.695 114.175 300.667 113.521C296.638 112.867 292.842 115.603 292.188 119.631C291.534 123.66 294.27 127.456 298.298 128.11C302.327 128.764 306.123 126.028 306.777 121.999Z" fill="white"/>
<path d="M299.468 126.202C296.498 126.202 294.078 123.782 294.078 120.812C294.078 117.842 296.498 115.422 299.468 115.422C302.438 115.422 304.858 117.842 304.858 120.812C304.858 123.782 302.438 126.202 299.468 126.202Z" fill="white"/>
<path opacity="0.6" d="M276.773 181.995C277.427 177.967 274.691 174.171 270.663 173.517C266.634 172.863 262.838 175.599 262.184 179.627C261.53 183.656 264.266 187.452 268.295 188.106C272.323 188.76 276.119 186.024 276.773 181.995Z" fill="white"/>
<path d="M269.468 186.202C266.498 186.202 264.078 183.782 264.078 180.812C264.078 177.842 266.498 175.422 269.468 175.422C272.438 175.422 274.858 177.842 274.858 180.812C274.858 183.782 272.438 186.202 269.468 186.202Z" fill="white"/>
<path opacity="0.6" d="M246.773 141.999C247.427 137.971 244.691 134.175 240.663 133.521C236.634 132.867 232.838 135.603 232.184 139.631C231.53 143.66 234.266 147.456 238.295 148.11C242.323 148.764 246.119 146.028 246.773 141.999Z" fill="white"/>
<path d="M239.468 146.202C236.498 146.202 234.078 143.782 234.078 140.812C234.078 137.842 236.498 135.422 239.468 135.422C242.438 135.422 244.858 137.842 244.858 140.812C244.858 143.782 242.438 146.202 239.468 146.202Z" fill="white"/>
<path opacity="0.6" d="M216.769 171.999C217.423 167.971 214.687 164.175 210.659 163.521C206.63 162.867 202.834 165.603 202.18 169.631C201.526 173.66 204.262 177.456 208.291 178.11C212.319 178.764 216.115 176.028 216.769 171.999Z" fill="white"/>
<path d="M209.468 176.202C206.498 176.202 204.078 173.782 204.078 170.812C204.078 167.842 206.498 165.422 209.468 165.422C212.438 165.422 214.858 167.842 214.858 170.812C214.858 173.782 212.438 176.202 209.468 176.202Z" fill="white"/>
<path d="M317.797 216.613H191.137C189.618 216.613 188.387 217.844 188.387 219.363V337.663C188.387 339.182 189.618 340.413 191.137 340.413H317.797C319.315 340.413 320.547 339.182 320.547 337.663V219.363C320.547 217.844 319.315 216.613 317.797 216.613Z" fill="#F6CB03"/>
<path opacity="0.35" d="M317.797 216.613H191.137C189.618 216.613 188.387 217.844 188.387 219.363V337.663C188.387 339.182 189.618 340.413 191.137 340.413H317.797C319.315 340.413 320.547 339.182 320.547 337.663V219.363C320.547 217.844 319.315 216.613 317.797 216.613Z" fill="black"/>
<path opacity="0.6" d="M242.551 296.854V307.494L248.031 308.014C248.771 311.584 250.181 314.894 252.121 317.844L248.601 322.094L256.121 329.624L260.371 326.104C263.321 328.034 266.631 329.454 270.201 330.194L270.721 335.674H281.361L281.881 330.194C285.451 329.454 288.761 328.044 291.711 326.104L295.961 329.624L303.491 322.094L299.971 317.844C301.901 314.894 303.321 311.584 304.061 308.014L309.541 307.494V296.854L304.061 296.334C303.321 292.764 301.911 289.454 299.971 286.504L303.491 282.254L295.961 274.734L291.711 278.254C288.761 276.324 285.451 274.904 281.881 274.164L281.361 268.684H270.721L270.201 274.164C266.631 274.904 263.321 276.314 260.371 278.254L256.121 274.734L248.601 282.254L252.121 286.504C250.191 289.454 248.771 292.764 248.031 296.334L242.551 296.854ZM276.041 287.764C284.001 287.764 290.451 294.214 290.451 302.174C290.451 310.134 284.001 316.584 276.041 316.584C268.081 316.584 261.631 310.134 261.631 302.174C261.631 294.214 268.081 287.764 276.041 287.764Z" fill="white"/>
<path opacity="0.4" d="M199.41 266.29V274.63L203.7 275.03C204.28 277.83 205.39 280.42 206.9 282.73L204.14 286.06L210.04 291.96L213.37 289.2C215.68 290.71 218.28 291.82 221.07 292.4L221.47 296.69H229.81L230.21 292.4C233.01 291.82 235.6 290.71 237.91 289.2L241.24 291.96L247.14 286.06L244.38 282.73C245.89 280.42 247 277.82 247.58 275.03L251.87 274.63V266.29L247.58 265.89C247 263.09 245.89 260.5 244.38 258.19L247.14 254.86L241.24 248.96L237.91 251.72C235.6 250.21 233 249.1 230.21 248.52L229.81 244.23H221.47L221.07 248.52C218.27 249.1 215.68 250.21 213.37 251.72L210.04 248.96L204.14 254.86L206.9 258.19C205.39 260.5 204.28 263.1 203.7 265.89L199.41 266.29ZM225.65 259.17C231.88 259.17 236.94 264.22 236.94 270.46C236.94 276.7 231.89 281.75 225.65 281.75C219.41 281.75 214.36 276.7 214.36 270.46C214.36 264.22 219.41 259.17 225.65 259.17Z" fill="white"/>
<path opacity="0.2" d="M245.922 240.552V247.552L249.532 247.892C250.022 250.242 250.952 252.422 252.222 254.362L249.902 257.162L254.852 262.112L257.652 259.792C259.592 261.062 261.772 261.992 264.122 262.482L264.462 266.092H271.462L271.802 262.482C274.152 261.992 276.332 261.062 278.272 259.792L281.072 262.112L286.022 257.162L283.702 254.362C284.972 252.422 285.902 250.242 286.392 247.892L290.002 247.552V240.552L286.392 240.212C285.902 237.862 284.972 235.682 283.702 233.742L286.022 230.942L281.072 225.992L278.272 228.312C276.332 227.042 274.152 226.112 271.802 225.622L271.462 222.012H264.462L264.122 225.622C261.772 226.112 259.592 227.042 257.652 228.312L254.852 225.992L249.902 230.942L252.222 233.742C250.952 235.682 250.022 237.862 249.532 240.212L245.922 240.552ZM267.962 234.572C273.202 234.572 277.442 238.822 277.442 244.052C277.442 249.282 273.192 253.532 267.962 253.532C262.732 253.532 258.482 249.282 258.482 244.052C258.482 238.822 262.732 234.572 267.962 234.572Z" fill="white"/>
<path opacity="0.6" d="M233.691 268.314L227.811 262.434L219.781 264.584L217.621 272.624L223.501 278.504L231.541 276.344L233.691 268.314Z" fill="white"/>
<path opacity="0.8" d="M277.329 291.961L267.829 295.941L266.539 306.161L274.739 312.401L284.239 308.411L285.539 298.191L277.329 291.961Z" fill="white"/>
<path opacity="0.4" d="M273.869 247.46V240.64L267.969 237.23L262.059 240.64V247.46L267.969 250.87L273.869 247.46Z" fill="white"/>
<path d="M411.189 182.662L421.829 191.302C421.829 191.302 424.429 191.352 425.249 192.212C426.069 193.072 429.209 199.452 428.759 200.322C428.309 201.192 423.059 202.912 421.959 201.882C420.849 200.852 418.929 194.942 418.969 194.312L405.379 185.192L411.199 182.652L411.189 182.662Z" fill="#B97964"/>
<path d="M417.087 186.462L414.707 191.652C414.707 191.652 400.077 184.802 396.907 180.812C396.097 179.782 394.977 178.142 393.767 176.272C391.777 173.182 389.527 169.462 387.967 166.852C386.807 164.902 386.027 163.572 386.027 163.572L394.307 150.512C396.117 151.902 401.657 174.222 402.647 175.422C403.637 176.622 417.087 186.462 417.087 186.462Z" fill="#263238"/>
<path opacity="0.2" d="M393.769 176.272C391.779 173.182 389.529 169.462 387.969 166.852L391.819 157.352C391.819 157.352 393.909 168.252 393.769 176.272Z" fill="black"/>
<path d="M326.328 133.102L315.108 125.122C315.108 125.122 313.778 122.892 312.628 122.602C311.478 122.312 304.378 122.742 303.838 123.562C303.298 124.382 304.408 129.792 305.848 130.242C307.288 130.692 313.378 129.442 313.908 129.102L325.298 136.972L326.328 133.092V133.102Z" fill="#B97964"/>
<path d="M414.848 356.842L408.568 357.952L405.998 349.392L403.648 341.532L410.888 339.012L412.988 348.452L414.848 356.842Z" fill="#B97964"/>
<path opacity="0.2" d="M413.016 348.641L406.026 349.561L403.656 341.621L410.886 339.051L413.016 348.641Z" fill="black"/>
<path d="M372.936 357.003H366.566L365.516 348.453L364.566 340.462L372.136 339.312L372.566 348.693L372.936 357.003Z" fill="#B97964"/>
<path opacity="0.2" d="M372.566 349.251L365.516 348.941L364.566 340.711L372.136 339.441L372.566 349.251Z" fill="black"/>
<path d="M413.606 341.773L403.286 343.593C392.876 317.653 385.466 295.993 380.236 278.023C377.416 268.323 375.186 259.703 373.496 252.053L373.926 280.293V344.003H363.516C338.026 223.003 356.086 194.873 356.086 194.873L386.586 189.773C387.746 194.323 388.626 201.763 389.136 206.893L390.516 217.003L402.436 278.573L413.596 341.763L413.606 341.773Z" fill="#F6CB03"/>
<path d="M401.68 342.32L414.48 338.07L414.3 343.52L403.72 346.9L401.68 342.32Z" fill="#F6CB03"/>
<path opacity="0.6" d="M401.68 342.32L414.48 338.07L414.3 343.52L403.72 346.9L401.68 342.32Z" fill="white"/>
<path d="M362.168 342.911L375.508 340.961L374.388 346.291L363.378 347.771L362.168 342.911Z" fill="#F6CB03"/>
<path opacity="0.6" d="M362.168 342.911L375.508 340.961L374.388 346.291L363.378 347.771L362.168 342.911Z" fill="white"/>
<path opacity="0.2" d="M381.648 282.771C381.168 281.161 380.658 279.581 380.198 278.021C377.648 269.221 375.938 261.301 373.938 254.201V254.181L372.898 241.101C372.898 241.101 379.418 226.731 376.978 216.621C377.208 217.191 381.518 228.211 379.828 239.221C379.828 239.221 379.008 259.091 381.648 282.781V282.771Z" fill="black"/>
<path d="M382.518 137.382C382.438 137.442 382.338 137.492 382.248 137.532C381.008 138.192 379.618 138.792 378.088 138.932C373.838 139.352 371.088 138.412 369.488 136.302C367.278 133.162 367.278 128.112 368.418 122.172C368.938 119.442 369.638 117.102 370.638 115.342C370.648 115.322 370.658 115.252 370.668 115.242C370.718 115.172 370.758 115.072 370.808 115.002C372.278 112.552 374.378 111.112 377.468 110.792C378.538 110.682 379.728 110.702 381.058 110.852C392.758 112.252 392.338 131.872 382.518 137.382Z" fill="#B97964"/>
<path opacity="0.2" d="M382.257 137.523C381.017 138.183 379.647 138.613 378.127 138.763C373.867 139.183 371.137 138.113 369.547 135.973C371.517 136.683 374.227 137.213 377.037 136.333C378.807 135.783 380.617 136.423 382.257 137.523Z" fill="black"/>
<path d="M383.128 147.092C384.178 150.362 379.987 152.142 379.987 152.142C372.617 149.812 370.938 146.182 370.938 146.182C376.537 142.522 373.978 133.992 373.978 133.992L375.237 134.462L383.827 135.282C383.827 135.282 381.927 140.002 381.717 141.052C381.717 141.052 381.717 141.072 381.717 141.082C380.657 146.582 383.138 147.092 383.138 147.092H383.128Z" fill="#B97964"/>
<path d="M370.646 115.263C370.646 115.263 368.936 123.373 376.246 127.903C376.246 127.903 378.476 136.843 383.366 137.603C390.036 138.633 397.176 129.883 396.116 119.883C394.746 106.913 375.826 103.413 370.656 115.263H370.646Z" fill="#263238"/>
<path d="M372.618 125.032C372.788 123.752 374.098 121.742 376.038 122.292C378.058 122.862 378.538 128.082 373.338 128.552C372.588 128.622 372.268 127.702 372.618 125.032Z" fill="#B97964"/>
<path d="M365.889 355.793H372.999C373.299 355.793 373.569 356.003 373.629 356.303L375.089 362.903C375.209 363.493 374.839 364.073 374.249 364.203C374.169 364.223 374.089 364.223 374.009 364.223C371.099 364.173 370.859 363.993 367.209 363.993C364.959 363.993 358.159 364.233 355.049 364.233C351.939 364.233 351.529 361.163 352.809 360.883C358.519 359.643 362.819 357.913 364.649 356.273C364.989 355.963 365.429 355.793 365.889 355.803V355.793Z" fill="#263238"/>
<path d="M363.437 357.092C362.937 357.132 362.427 357.002 362.017 356.712C361.737 356.482 361.597 356.122 361.647 355.772C361.647 355.562 361.757 355.372 361.947 355.282C362.767 354.862 365.157 356.332 365.427 356.502C365.487 356.532 365.527 356.602 365.507 356.672C365.507 356.742 365.447 356.802 365.377 356.822C364.737 356.982 364.087 357.072 363.437 357.092ZM362.337 355.552C362.257 355.552 362.177 355.552 362.107 355.602C362.057 355.602 362.007 355.672 361.997 355.812C361.967 356.052 362.057 356.282 362.237 356.442C363.067 356.822 364.007 356.862 364.877 356.572C364.107 356.072 363.247 355.732 362.337 355.552Z" fill="#F6CB03"/>
<path d="M365.337 356.831H365.257C364.497 356.421 363.017 354.781 363.167 354.001C363.217 353.731 363.457 353.541 363.737 353.541C364.007 353.501 364.277 353.591 364.477 353.771C365.337 354.471 365.517 356.601 365.527 356.701C365.527 356.761 365.497 356.821 365.447 356.861C365.417 356.861 365.377 356.861 365.357 356.831H365.337ZM363.847 353.821H363.767C363.537 353.821 363.527 353.951 363.517 354.001C363.427 354.481 364.367 355.721 365.127 356.291C365.077 355.451 364.767 354.641 364.247 353.971C364.137 353.871 363.997 353.821 363.847 353.821Z" fill="#F6CB03"/>
<path d="M408.326 355.793H415.436C415.736 355.793 416.006 356.003 416.066 356.303L417.526 362.903C417.646 363.493 417.276 364.073 416.686 364.203C416.606 364.223 416.526 364.223 416.446 364.223C413.536 364.173 413.296 363.993 409.646 363.993C407.396 363.993 400.596 364.233 397.486 364.233C394.376 364.233 393.966 361.163 395.246 360.883C400.956 359.643 405.256 357.913 407.086 356.273C407.426 355.963 407.866 355.793 408.326 355.803V355.793Z" fill="#263238"/>
<path d="M405.878 357.092C405.378 357.132 404.868 357.002 404.458 356.712C404.178 356.482 404.038 356.122 404.088 355.772C404.088 355.562 404.198 355.372 404.388 355.282C405.208 354.862 407.598 356.332 407.868 356.502C407.928 356.532 407.968 356.602 407.948 356.672C407.948 356.742 407.888 356.802 407.818 356.822C407.178 356.982 406.528 357.072 405.878 357.092ZM404.778 355.552C404.698 355.552 404.618 355.552 404.548 355.602C404.498 355.602 404.448 355.672 404.438 355.812C404.408 356.052 404.498 356.282 404.678 356.442C405.508 356.822 406.448 356.862 407.318 356.572C406.548 356.072 405.688 355.732 404.778 355.552Z" fill="#F6CB03"/>
<path d="M407.767 356.831H407.687C406.927 356.421 405.447 354.781 405.597 354.001C405.647 353.731 405.887 353.541 406.167 353.541C406.437 353.501 406.707 353.591 406.907 353.771C407.767 354.471 407.947 356.601 407.957 356.701C407.957 356.761 407.927 356.821 407.877 356.861C407.847 356.861 407.807 356.861 407.787 356.831H407.767ZM406.277 353.821H406.197C405.967 353.821 405.957 353.951 405.947 354.001C405.857 354.481 406.797 355.721 407.557 356.291C407.507 355.451 407.197 354.641 406.677 353.971C406.567 353.871 406.427 353.821 406.277 353.821Z" fill="#F6CB03"/>
<path d="M356.11 194.982C356.11 194.982 350.29 159.532 360.29 143.642C360.29 143.642 380.26 142.402 394.31 150.512C394.31 150.512 388.5 166.292 387.64 194.982H356.11Z" fill="#263238"/>
<path opacity="0.2" d="M354.289 167.85C353.859 163.04 355.249 158.41 355.489 154.33C359.159 151.27 362.059 146.84 362.059 146.84C362.059 146.84 363.879 161.2 354.289 167.85Z" fill="black"/>
<path d="M362.758 143.571C362.758 143.571 342.968 141.251 339.988 140.001C338.128 139.221 323.578 129.711 323.578 129.711L320.168 134.791C320.168 134.791 335.048 146.811 337.568 148.191C343.468 151.431 356.728 156.001 356.728 156.001C356.728 156.001 364.738 150.431 362.758 143.561V143.571Z" fill="#263238"/>
<path d="M391.816 113.491C391.816 113.491 398.606 107.721 405.346 111.351C412.086 114.981 404.236 128.971 406.206 133.261C408.176 137.551 412.446 137.231 407.056 140.051C401.666 142.871 406.886 145.211 406.886 145.211C406.886 145.211 402.066 146.851 401.666 142.871C401.266 138.891 399.526 135.611 397.966 134.931C396.406 134.251 400.616 126.711 399.156 122.981C397.696 119.251 393.466 119.571 393.466 119.571L391.816 113.491Z" fill="#263238"/>
<path d="M381.059 110.852C381.059 110.852 372.499 105.482 368.469 109.302C362.249 115.192 371.119 123.652 380.509 127.662L381.059 110.852Z" fill="#263238"/>
<path d="M199.531 219.241L129.391 141.141C131.881 135.651 131.391 129.021 127.691 123.961C123.591 118.351 116.921 116.061 110.721 117.211C109.791 117.381 109.401 118.491 110.031 119.191L119.231 129.431C119.591 129.831 119.711 130.391 119.541 130.901L117.551 137.011C117.381 137.521 116.961 137.901 116.431 138.021L110.151 139.351C109.621 139.461 109.081 139.281 108.721 138.881L99.5206 128.641C98.8906 127.941 97.7406 128.211 97.4706 129.121C95.8206 134.641 96.9906 140.851 101.121 145.451C105.821 150.681 113.001 152.321 119.261 150.231L189.401 228.331C186.911 233.821 187.401 240.451 191.101 245.511C195.201 251.121 201.871 253.411 208.071 252.261C209.001 252.091 209.391 250.981 208.761 250.281L199.561 240.041C199.201 239.641 199.081 239.081 199.251 238.571L201.241 232.461C201.411 231.951 201.831 231.571 202.361 231.451L208.641 230.121C209.171 230.011 209.711 230.191 210.071 230.591L219.271 240.831C219.901 241.531 221.051 241.261 221.321 240.351C222.971 234.831 221.801 228.621 217.671 224.021C212.971 218.791 205.801 217.151 199.531 219.241Z" fill="#F6CB03"/>
<path opacity="0.7" d="M199.531 219.241L129.391 141.141C131.881 135.651 131.391 129.021 127.691 123.961C123.591 118.351 116.921 116.061 110.721 117.211C109.791 117.381 109.401 118.491 110.031 119.191L119.231 129.431C119.591 129.831 119.711 130.391 119.541 130.901L117.551 137.011C117.381 137.521 116.961 137.901 116.431 138.021L110.151 139.351C109.621 139.461 109.081 139.281 108.721 138.881L99.5206 128.641C98.8906 127.941 97.7406 128.211 97.4706 129.121C95.8206 134.641 96.9906 140.851 101.121 145.451C105.821 150.681 113.001 152.321 119.261 150.231L189.401 228.331C186.911 233.821 187.401 240.451 191.101 245.511C195.201 251.121 201.871 253.411 208.071 252.261C209.001 252.091 209.391 250.981 208.761 250.281L199.561 240.041C199.201 239.641 199.081 239.081 199.251 238.571L201.241 232.461C201.411 231.951 201.831 231.571 202.361 231.451L208.641 230.121C209.171 230.011 209.711 230.191 210.071 230.591L219.271 240.831C219.901 241.531 221.051 241.261 221.321 240.351C222.971 234.831 221.801 228.621 217.671 224.021C212.971 218.791 205.801 217.151 199.531 219.241Z" fill="white"/>
<path d="M120.289 127.203C120.289 127.203 99.4694 129.933 96.7694 133.653C94.0694 137.373 93.9194 140.813 106.229 144.343L109.829 141.723C109.829 141.723 104.719 139.773 105.329 138.573C105.929 137.373 120.289 137.823 120.289 137.823V127.213V127.203Z" fill="#E4897B"/>
<path d="M128.11 126.94L125.21 137.06L120.34 137.8L110.14 139.35L109.84 135.27L109.25 127.21C109.25 127.21 119.27 125.19 128.11 126.94Z" fill="#F6CB03"/>
<path opacity="0.2" d="M122.97 131.223L120.34 137.803L110.14 139.353L109.84 135.273C115.02 131.243 122.97 131.223 122.97 131.223Z" fill="black"/>
<path d="M120.973 356.781L129.073 357.631L129.493 352.931L130.593 340.141L122.493 339.281L121.263 353.411L120.973 356.781Z" fill="#E4897B"/>
<path d="M80.4922 355.75H88.3422L88.4222 353.97L88.4322 353.75L88.8222 342.35L88.8422 342.12L89.0022 337.75H81.1222L80.4922 355.75Z" fill="#E4897B"/>
<path opacity="0.2" d="M122.492 339.281L121.262 353.411L129.492 352.931L130.592 340.141L122.492 339.281Z" fill="black"/>
<path opacity="0.2" d="M80.5312 354.75H80.5513L88.4212 353.75H88.4313L88.8412 342.75H88.8213L80.9512 343.38L80.5513 354.4L80.5312 354.75Z" fill="black"/>
<path d="M89.4312 355.282H79.8812C79.5612 355.282 79.2812 355.512 79.2112 355.822L77.6612 362.822C77.5312 363.452 77.9312 364.062 78.5512 364.192C78.6312 364.212 78.7212 364.222 78.8112 364.222C81.9012 364.172 84.1512 363.982 88.0312 363.982C90.4212 363.982 97.6312 364.232 100.931 364.232C104.231 364.232 104.661 360.972 103.311 360.672C97.2512 359.352 92.6912 357.522 90.7512 355.782C90.3912 355.452 89.9212 355.272 89.4312 355.282Z" fill="#263238"/>
<path d="M129.931 355.032H120.381C120.061 355.032 119.781 355.262 119.711 355.572L118.161 362.572C118.031 363.202 118.431 363.812 119.051 363.942C119.131 363.962 119.221 363.972 119.311 363.972C122.401 363.922 124.651 363.732 128.531 363.732C130.921 363.732 138.131 363.982 141.431 363.982C144.731 363.982 145.161 360.722 143.811 360.422C137.751 359.102 133.191 357.272 131.251 355.532C130.891 355.202 130.421 355.022 129.931 355.032Z" fill="#263238"/>
<path d="M131.343 351.75H119.813C119.813 351.75 116.503 252.07 104.033 218.55C105.563 280.88 90.8729 352.75 90.8729 352.75H79.4829C79.4829 352.75 84.6929 296.48 84.6929 271.87C84.6929 228.26 72.7329 206.96 84.3729 178.75H126.093C136.313 240.3 140.243 283.75 131.343 351.75Z" fill="#263238"/>
<path d="M132.633 348.5L132.073 351.75H118.453V348.75L132.633 348.5Z" fill="#F6CB03"/>
<path d="M92.1831 349.75L90.8731 352.75H79.4531L78.7031 349.75H92.1831Z" fill="#F6CB03"/>
<path d="M162.032 130.601C161.722 130.851 161.412 131.081 161.102 131.291C159.202 132.571 157.022 133.161 154.892 133.141C154.332 133.141 153.772 133.091 153.222 133.001C150.322 132.531 147.682 130.881 146.152 128.231C145.522 127.161 145.072 125.901 144.882 124.491C144.082 118.951 146.902 115.321 151.172 108.811C152.072 107.391 153.282 106.201 154.722 105.351C159.772 102.331 166.312 103.981 169.322 109.021C173.592 116.061 167.552 125.981 162.032 130.601Z" fill="#E4897B"/>
<path opacity="0.2" d="M154.881 133.141C154.321 133.141 153.761 133.091 153.211 133.001C150.311 132.531 147.671 130.881 146.141 128.231C147.471 127.351 148.831 126.941 148.831 126.941C148.831 126.941 152.991 129.131 154.881 133.141Z" fill="black"/>
<path d="M136.311 131.92C137.321 137 145.621 141.55 145.621 141.55C145.621 141.55 151.281 143.75 151.381 141.55C148.951 139.04 148.561 136.75 149.241 134.68C149.631 133.48 150.391 132.36 151.301 131.31C151.771 130.75 152.301 130.22 152.841 129.72L148.631 115.91C146.481 121.37 141.761 130.86 136.301 131.93L136.311 131.92Z" fill="#E4897B"/>
<path d="M172.791 109.97C171.941 105.22 169.541 105.01 169.541 105.01C169.311 101.23 160.391 97.4099 154.561 98.6299C148.731 99.8599 144.741 105.02 143.151 109.76C140.821 116.66 142.231 125.24 142.231 125.24C146.951 128.84 151.871 129.5 153.371 126.83C154.871 124.16 158.561 123.25 158.561 123.25C160.811 125.2 164.371 123.27 164.371 123.27C164.371 123.27 168.401 121.88 169.101 117.94C169.791 114 173.521 113.98 172.801 109.97H172.791Z" fill="#263238"/>
<path d="M158.372 121.012C157.742 122.652 157.742 124.202 158.392 125.332C159.262 126.812 161.432 125.642 162.632 123.632C163.692 121.842 164.562 118.852 162.972 118.162C161.382 117.462 159.162 119.022 158.362 121.022L158.372 121.012Z" fill="#E4897B"/>
<path d="M159.391 98.5917C168.161 95.9717 175.221 110.372 174.871 118.002C174.591 124.202 168.081 123.452 168.081 123.452C168.081 123.452 171.671 123.212 171.331 118.862C171.331 118.862 169.771 124.192 166.281 120.692C162.791 117.192 166.921 108.852 166.921 108.852L159.391 98.5917Z" fill="#263238"/>
<path opacity="0.2" d="M103.071 259.3C101.531 243.75 98.6609 230.52 98.6609 230.52C86.8509 215.68 93.3009 201.98 93.3009 201.98C94.8809 211.51 104.031 218.55 104.031 218.55C104.361 231.96 103.941 245.81 103.071 259.3Z" fill="black"/>
<path d="M136.293 129.643C136.293 129.643 138.833 127.763 143.513 130.533C148.193 133.303 149.733 138.603 149.733 138.603L136.293 129.643Z" fill="#F6CB03"/>
<path d="M130.592 198.431C130.592 198.431 130.593 174.101 156.033 144.651C156.033 144.651 144.613 128.701 128.113 126.941C128.113 126.941 97.6525 137.401 81.0625 181.931L130.603 198.431H130.592Z" fill="#F6CB03"/>
<path opacity="0.6" d="M156.033 144.651C153.343 147.771 150.933 150.831 148.783 153.811C144.533 159.701 141.273 165.281 138.783 170.361C130.603 187.021 130.603 198.431 130.603 198.431L81.0625 181.931C97.6525 137.391 128.113 126.941 128.113 126.941C144.613 128.711 156.033 144.651 156.033 144.651Z" fill="white"/>
<path d="M130.904 194.939C130.794 195.759 130.724 196.439 130.684 196.979L81.7344 180.169C81.9744 179.539 82.2244 178.919 82.4744 178.309L130.904 194.939Z" fill="#F6CB03"/>
<path d="M131.764 189.99C131.614 190.7 131.474 191.36 131.364 191.98C114.404 185.43 95.0941 178.12 84.1641 174.34C84.4341 173.72 84.7141 173.12 84.9941 172.52C97.1841 176.72 118.284 184.78 131.764 189.99Z" fill="#F6CB03"/>
<path d="M133.055 184.972C132.855 185.642 132.675 186.292 132.505 186.912C119.045 181.092 98.7545 172.542 86.8945 168.622C87.2045 168.012 87.5145 167.422 87.8245 166.832C99.9045 170.852 119.745 179.202 133.055 184.972Z" fill="#F6CB03"/>
<path d="M134.724 179.839C134.494 180.499 134.264 181.139 134.054 181.759C120.914 175.419 102.064 166.749 89.9336 163.049C90.2736 162.449 90.6236 161.859 90.9736 161.289C103.314 165.109 121.754 173.579 134.724 179.839Z" fill="#F6CB03"/>
<path d="M136.793 174.669C136.513 175.299 136.253 175.919 136.013 176.539C123.443 169.819 105.993 161.179 93.293 157.629C93.683 157.039 94.083 156.449 94.483 155.879C107.353 159.589 124.413 168.029 136.793 174.669Z" fill="#F6CB03"/>
<path d="M139.233 169.441C138.923 170.061 138.623 170.681 138.333 171.291C126.513 164.321 110.433 155.831 97.043 152.351C97.483 151.761 97.923 151.191 98.373 150.621C111.863 154.281 127.593 162.571 139.233 169.441Z" fill="#F6CB03"/>
<path d="M142.046 164.218C141.696 164.828 141.366 165.428 141.036 166.018C130.066 158.938 115.256 150.698 101.246 147.178C101.746 146.598 102.246 146.038 102.766 145.488C116.786 149.178 131.256 157.228 142.046 164.218Z" fill="#F6CB03"/>
<path d="M145.165 159.109C144.795 159.669 144.445 160.229 144.095 160.789C134.015 153.699 120.395 145.769 105.965 142.159C106.535 141.599 107.095 141.059 107.655 140.539C121.885 144.339 135.225 152.129 145.165 159.109Z" fill="#F6CB03"/>
<path d="M148.646 153.998C148.256 154.548 147.876 155.088 147.496 155.618C138.346 148.628 125.866 141.048 111.336 137.288C111.996 136.748 112.636 136.228 113.266 135.738C127.456 139.688 139.636 147.118 148.646 153.998Z" fill="#F6CB03"/>
<path d="M152.456 148.969C152.036 149.499 151.626 150.019 151.226 150.549C143.026 143.769 131.706 136.579 117.516 132.649C118.286 132.129 119.026 131.659 119.736 131.219C133.426 135.309 144.396 142.329 152.456 148.969Z" fill="#F6CB03"/>
<path d="M156.034 144.65C155.764 144.96 155.504 145.27 155.244 145.58C148.064 139.17 138.054 132.49 124.824 128.38C126.054 127.77 126.984 127.38 127.534 127.16C138.124 130.75 146.604 135.94 153.184 141.23C155.024 143.24 156.024 144.64 156.024 144.64L156.034 144.65Z" fill="#F6CB03"/>
<path opacity="0.2" d="M148.781 153.811C144.531 159.701 141.271 165.281 138.781 170.361C138.461 157.541 148.021 150.551 148.021 150.551L148.781 153.811Z" fill="black"/>
<path d="M156.032 152.17V182.99L167.962 204.46L172.872 209.93C172.872 209.93 167.132 213.47 165.552 211.2C163.972 208.92 162.392 204.46 162.392 204.46C162.392 204.46 150.532 188.53 148.682 184.73C146.832 180.93 146.152 157.92 146.152 157.92L156.042 152.16L156.032 152.17Z" fill="#E4897B"/>
<path d="M156.03 144.652C157.91 149.852 157.89 167.572 157.89 167.572L144.57 168.742L143.5 161.742C143.5 161.742 143.6 155.402 148.08 149.132C151.13 144.872 156.02 144.652 156.02 144.652H156.03Z" fill="#F6CB03"/>
<path d="M199.511 71.375H201.551V68.655H199.511V71.375Z" fill="white"/>
<path d="M196.179 71.375H198.219V67.755H196.179V71.375Z" fill="white"/>
<path d="M192.87 71.3633H194.91V66.8333H192.87V71.3633Z" fill="white"/>
<path d="M189.538 71.375H191.578V65.935H189.538V71.375Z" fill="white"/>
<path d="M308.94 67.6641H307.73V70.3841H308.94V67.6641Z" fill="white"/>
<path d="M309.78 71.3633H319.41V66.6633H309.78V71.3633Z" fill="white"/>
</g>
<defs>
<clipPath id="clip0_905_66">
<rect width="500" height="372.61" fill="white"/>
</clipPath>
</defs>
</svg>
