<svg width="369" height="138" viewBox="0 0 369 138" fill="none" xmlns="http://www.w3.org/2000/svg">
<path opacity="0.1" d="M49.1186 6.05226C49.5257 6.05226 49.8286 6.14166 49.8286 6.14166L53.409 7.21633C56.314 8.04589 55.9184 8.99944 55.9184 8.99944L55.5586 10.3058L55.0028 10.7028C49.8296 15.5369 42.9478 16.0896 42.9478 16.0896C43.7842 17.8727 43.2275 22.1166 43.2275 22.1166L42.1933 22.3531C42.5512 23.4643 41.8759 23.7402 41.2787 23.8603C41.2343 23.869 41.1812 23.8728 41.1214 23.8728C40.3718 23.8728 38.4943 23.2249 38.4943 23.2249C37.9771 23.621 37.4204 27.6236 37.4204 27.6236H36.9824C36.9824 27.6236 36.9419 28.9319 36.9014 30.6371C36.8638 32.3404 36.3862 34.1255 36.3862 34.1255C36.5049 35.4731 35.6308 37.8503 35.2728 38.7202C34.912 39.594 33.762 41.8529 33.4822 43.1189C33.2033 44.3868 31.8922 44.6655 31.8922 44.6655L31.6934 44.8645C32.3302 45.4595 34.9554 49.8188 34.9554 49.8188C34.9554 49.8188 37.899 55.1691 39.2516 57.6289C40.6033 60.084 42.7529 63.5714 42.7529 63.5714C43.5372 63.6012 44.1441 64.7652 44.3699 65.2574C44.5754 65.3766 44.9931 65.6601 45.7746 66.2273C48.2406 68.0123 49.5537 72.8474 50.5494 75.2245C51.5412 77.6008 53.4534 80.9718 53.4534 80.9718C55.8808 81.6851 55.5614 85.6474 55.5614 85.6474C55.5614 85.6474 55.4023 86.9152 55.4023 89.5308C55.4023 92.1463 54.8851 92.4655 54.8851 92.4655C55.3617 93.8516 54.3709 95.1618 54.3709 95.1618C54.6073 96.3095 53.8933 97.0622 53.8933 97.0622C53.7708 99.3249 52.86 99.9565 52.86 99.9565C52.9391 101.066 52.0226 101.856 52.0226 101.856C52.0226 101.856 49.1986 108.44 47.6463 111.926C46.093 115.413 43.3896 121.556 42.7123 125.007C42.3177 127.021 41.7321 127.439 41.3172 127.439C41.0182 127.439 40.8059 127.226 40.8059 127.226C40.4885 128.731 38.6303 130.22 37.8565 130.942C37.4176 131.354 36.1392 131.948 34.8107 131.948C33.7996 131.948 32.7586 131.6 32.0475 130.558C30.4006 128.148 32.7296 123.896 32.7296 123.896L32.0533 123.579C31.6413 123.862 31.3374 123.971 31.1136 123.971C30.2964 123.971 30.5424 122.506 30.5424 122.506L31.6568 119.497C31.485 119.75 31.2911 119.825 31.1261 119.825C30.9081 119.825 30.7393 119.698 30.7393 119.698C30.7393 120.83 29.7098 121.043 28.9312 121.043C28.4566 121.043 28.0735 120.964 28.0735 120.964L27.4792 123.816C26.2665 126.355 24.1121 128.31 21.785 128.31C21.1299 128.31 20.4633 128.158 19.7985 127.818C16.7768 126.273 21.3528 119.138 21.3528 119.138L21.3103 118.625C20.2375 118.508 20.5173 117.158 20.5173 117.158C20.5173 116.208 20.0802 116.088 20.0802 116.088C17.9316 114.503 17.7329 109.551 17.7329 109.551C17.6538 108.386 19.1849 108.184 20.2587 108.184C20.8299 108.184 21.2727 108.242 21.2727 108.242C20.9929 106.816 21.7918 106.1 21.7918 106.1C21.512 104.28 22.3446 102.734 22.3446 102.734C22.0648 101.861 22.3861 98.4127 22.4247 96.867C22.4652 95.3213 22.2655 93.2989 21.9085 91.6715C21.5525 90.0489 22.1497 87.8275 22.1073 86.4817C22.0648 85.135 21.4715 84.4208 22.0272 82.7559C22.5839 81.093 22.4652 80.3807 22.4652 80.3807C21.6306 79.1512 22.5839 78.8725 22.306 78.2381C22.0272 77.6036 22.0272 74.8718 22.0272 74.8718C21.7918 73.2848 22.4247 72.4504 22.4247 72.4504C21.7918 72.0563 21.512 70.8288 20.6765 69.4407C19.84 68.0508 18.8463 66.5464 17.6914 65.9504C16.5394 65.3554 16.6571 64.8431 16.2982 64.0875C15.9413 63.3349 16.9746 63.3753 13.7145 60.4021C10.4516 57.4299 8.78058 52.4766 8.78058 52.4766C7.03044 51.5644 7.5495 50.2148 7.5495 50.2148C6.31553 49.9361 6.87415 48.5538 7.18964 47.6416C7.50898 46.7303 7.18964 45.7373 7.18964 45.7373C6.0753 45.1433 8.3416 42.646 8.3416 42.646C7.46943 42.646 6.87415 42.1682 6.87415 42.1682C5.63728 41.0224 6.39561 38.4049 6.39561 38.4049L4.44576 39.0778L3.84566 37.0957L3.68937 36.2633L3.33143 35.8269C2.53451 35.3165 3.33143 34.6003 3.33143 34.6003V32.2212L2.57503 31.8262L2.61459 31.3542L2.33673 30.2795L2.73615 29.9642L3.05357 30.2007L3.33143 30.0008V29.1683C2.77378 21.7187 9.21956 20.6911 9.21956 20.6911C10.0811 20.4912 10.8626 20.4027 11.5775 20.4027C17.5187 20.4037 18.5665 26.5951 18.5665 26.5951L20.0011 27.2285L20.2365 28.3791L20.4372 28.2186C21.2312 27.7015 22.1487 23.818 22.1487 23.818C22.5028 21.7975 23.102 20.0567 23.102 20.0567C22.4642 19.4588 23.6963 19.1819 23.6963 19.1819L23.8149 18.9435C22.7817 16.0512 24.5318 14.863 24.5318 14.863C23.8555 13.9489 25.1271 12.2456 25.1271 12.2456C25.1685 10.8614 26.7199 10.8191 26.7199 10.8191C27.8034 10.3923 28.8155 10.2279 29.7311 10.2279C32.8078 10.2279 34.7962 12.0889 34.7962 12.0889L35.7494 11.5343C36.1595 10.8729 36.7692 10.6739 37.3539 10.6739C38.2502 10.6739 39.0934 11.1392 39.0934 11.1392C41.7967 10.1866 46.887 7.49125 47.6849 6.6194C48.1007 6.16184 48.6719 6.05226 49.1186 6.05226ZM27.9124 36.7795C27.9124 36.7795 28.6273 36.1845 29.0258 34.9964C29.4233 33.8083 30.6573 31.5118 31.4117 30.2805C32.1672 29.0539 33.0046 26.7133 33.0442 26.0395L32.6862 25.8434C32.6862 25.8434 31.7716 25.7251 32.4875 24.0978L32.7653 22.2781C32.7653 22.2781 32.6467 21.9186 33.3606 21.9186L32.5251 19.9375C32.5251 19.9375 32.4286 19.9096 32.2588 19.9096C31.8748 19.9096 31.1126 20.0413 30.1806 20.8881C30.1806 20.8881 28.1507 28.2599 27.7899 30.4026C27.4348 32.5394 27.1145 32.6192 27.1145 32.6192C27.1145 32.6192 27.6346 35.1165 27.8709 36.1845L27.9124 36.7795ZM33.1213 115.456L39.407 97.464L40.1257 95.2425C40.1257 95.2425 38.8522 92.4664 40.2058 91.5956C40.2058 91.5956 39.2497 88.8993 40.8387 87.8688L38.3746 86.1261C38.3746 86.1261 36.2241 89.9297 34.7123 94.8436C34.7123 94.8436 33.68 100.075 32.8039 100.473L30.9747 108.003L31.212 108.874C31.212 108.874 32.6447 109.271 33.0422 110.857C33.0422 110.857 33.9173 112.917 32.6447 114.424L33.1213 115.456ZM49.1186 4C47.9357 4 46.8841 4.44217 46.1557 5.24481C45.5951 5.761 41.8151 7.85748 39.1272 8.93119C38.6448 8.76874 38.0234 8.62167 37.3529 8.62167C36.3447 8.62167 35.4542 8.94561 34.7586 9.5512C33.6346 8.89274 31.9057 8.17469 29.7301 8.17469C28.5675 8.17469 27.4011 8.38424 26.2549 8.79758C24.8502 8.98022 23.4985 9.90398 23.1492 11.491C22.6225 12.3321 22.2462 13.3337 22.2732 14.3065C21.6818 15.1947 21.2554 16.4789 21.4917 18.1236C21.2505 18.3831 21.0508 18.709 20.9389 19.1166C20.8414 19.4693 20.8328 19.8308 20.9003 20.1787C20.6813 20.917 20.3591 22.1003 20.1285 23.4028C20.0715 23.6335 20.0117 23.868 19.949 24.1026C18.8183 21.438 16.2693 18.3505 11.5727 18.3505C10.6967 18.3505 9.76949 18.46 8.81434 18.6763C6.02802 19.1541 1.10855 21.7984 1.23493 28.5262L1.05548 28.6666L0 29.4971L0.33864 30.7938L0.528707 31.5301L0.519057 31.6541L0.402318 33.0104L1.26677 33.4641V33.938C1.04391 34.3466 0.870241 34.8714 0.921375 35.4924C0.975404 36.1518 1.27063 36.7468 1.76847 37.2092L1.81863 37.4735L1.83889 37.5821L1.8717 37.685L2.46987 39.668L3.0883 41.7155L4.21132 41.33C4.36086 42.0817 4.67539 42.8363 5.26487 43.4707C4.92141 44.1897 4.73231 44.9491 4.8587 45.6816C4.92237 46.0526 5.0642 46.3967 5.26873 46.6995C5.27066 46.8014 5.26294 46.9024 5.24172 46.9639L5.19058 47.1119C4.88281 47.9905 4.36569 49.4612 5.09989 50.7772C5.20409 50.9675 5.32855 51.1415 5.47423 51.3001C5.62474 52.1671 6.09749 53.0967 7.08737 53.8358C7.71062 55.419 9.44436 59.2957 12.3223 61.9161C13.5814 63.0619 14.0088 63.6002 14.1448 63.7982C14.1612 64.0827 14.2085 64.4893 14.4304 64.9613C14.4873 65.0776 14.5201 65.1805 14.5529 65.2728C14.8366 66.0802 15.2649 67.0097 16.742 67.771C17.5052 68.1632 18.525 69.857 18.908 70.4943C19.1801 70.9451 19.3875 71.393 19.5882 71.8237C19.7387 72.1495 19.894 72.4811 20.0735 72.7984C19.9307 73.3866 19.8535 74.1268 19.9645 75.0112C19.9712 76.8769 20.0976 77.8824 20.223 78.439C20.0445 78.9801 19.9008 79.8299 20.3851 80.8757C20.3475 81.1266 20.2626 81.5294 20.0725 82.1052C19.5293 83.7277 19.7561 84.8553 19.921 85.6772C19.9847 86.0049 20.0378 86.2606 20.0484 86.5432C20.059 86.8979 19.9915 87.4631 19.9191 88.0582C19.7715 89.3251 19.5988 90.7602 19.896 92.1089C20.2172 93.5719 20.4005 95.4175 20.3639 96.8113C20.3542 97.2285 20.3214 97.7841 20.2877 98.3887C20.1796 100.332 20.1265 101.588 20.2134 102.471C19.9538 103.148 19.6412 104.249 19.676 105.532C19.5718 105.727 19.4763 105.938 19.3962 106.169C18.0985 106.287 17.1405 106.69 16.4835 107.392C15.9036 108.009 15.6171 108.824 15.675 109.688C15.7107 110.572 16.0165 115.141 18.4227 117.38C18.4044 117.897 18.4777 118.609 18.8733 119.273C17.7609 121.258 16.195 124.669 16.8742 127.175C17.1743 128.282 17.8593 129.135 18.8559 129.645C19.7918 130.12 20.7749 130.363 21.7831 130.363C24.6553 130.363 27.4387 128.361 29.1329 125.107C29.1387 125.112 29.1425 125.118 29.1493 125.125C29.3393 125.349 29.5632 125.535 29.8092 125.679C29.3008 127.489 29.0653 129.844 30.3447 131.713C31.3509 133.187 32.9371 134 34.8097 134C36.6409 134 38.4373 133.216 39.2661 132.438L39.5768 132.154C40.3013 131.506 41.3597 130.556 42.0881 129.389C43.3954 129.027 44.285 127.688 44.7336 125.399C45.3916 122.049 48.2917 115.536 49.5296 112.756C50.8687 109.751 53.1755 104.392 53.7727 103C54.1548 102.56 54.6854 101.791 54.8629 100.782C55.2894 100.176 55.7332 99.2211 55.8982 97.7802C56.2272 97.2112 56.4751 96.472 56.479 95.6376C56.8128 94.9743 57.1794 93.9439 57.0511 92.7654C57.3309 91.9839 57.4631 90.9236 57.4631 89.5327C57.4631 87.1142 57.6049 85.9117 57.6049 85.8992C57.766 83.9421 57.3251 80.6806 54.916 79.3656C54.3381 78.3178 53.1437 76.0964 52.4519 74.4402C52.259 73.9749 52.0515 73.4116 51.8267 72.7974C50.8243 70.079 49.4543 66.3551 46.9864 64.5691C46.5252 64.2346 46.2001 64.0039 45.9608 63.8415C45.3848 62.7976 44.7394 62.2016 44.1287 61.8748C43.4572 60.7712 42.036 58.4133 41.0606 56.6427L36.7644 48.8345C36.0707 47.6819 35.2796 46.3958 34.583 45.3451C34.9959 44.8876 35.3336 44.3012 35.4957 43.562C35.653 42.8526 36.3177 41.4079 36.7162 40.5418C36.9081 40.1208 37.0751 39.7565 37.1802 39.5008C37.5845 38.5193 38.4721 36.1527 38.4586 34.3341C38.612 33.691 38.9294 32.178 38.9632 30.6852C38.9709 30.3286 38.9796 29.9892 38.9873 29.6768H39.215L39.462 27.9072C39.5642 27.1689 39.6993 26.3942 39.8305 25.7492C40.2965 25.853 40.7538 25.926 41.1233 25.926C41.3394 25.926 41.5295 25.9039 41.6887 25.8712C42.7461 25.6588 43.5093 25.1638 43.9598 24.3957C44.0254 24.2842 44.0901 24.1564 44.148 24.0122L45.0867 23.7988L45.271 22.3838C45.3424 21.835 45.5855 19.7423 45.4099 17.7651C48.0689 17.1864 52.5571 15.7541 56.313 12.2946L56.7607 11.9735L57.355 11.5506L57.5451 10.8508L57.8905 9.60022C58.0805 9.00136 58.0226 8.32272 57.7216 7.70752C57.1881 6.60401 55.9975 5.8206 53.9782 5.24385L50.423 4.17783C50.2705 4.13169 49.7688 4 49.1186 4ZM36.7123 95.3473C36.9689 94.5197 37.2449 93.7257 37.5246 92.9778C37.5189 93.7584 37.6819 94.5677 37.9385 95.3137L37.4465 96.8343L33.5738 107.918C33.4474 107.803 33.3172 107.702 33.1918 107.611L34.6679 101.533C35.2632 100.728 35.9713 99.0644 36.7123 95.3473Z" fill="#333333"/>
<path opacity="0.1" d="M337.989 2.04724C338.47 2.04724 338.528 2.73382 338.614 2.90834C338.713 3.10587 339.284 4.54326 339.718 4.54326C340.151 4.54326 340.763 4.78011 341.297 5.54531C341.829 6.31339 343.9 6.82449 344.474 7.13901C345.046 7.45544 351.14 10.406 351.14 10.406C351.14 10.406 355.405 12.1387 356.726 14.0661C356.726 14.0661 357.632 14.7335 357.752 16.052C357.87 17.3695 357.652 18.2565 357.652 19.2C357.652 20.1436 357.357 23.7462 357.534 24.6495C357.534 24.6495 358.701 25.8711 358.975 26.0456C359.249 26.2259 360.514 27.0515 359.745 28.1149C358.975 29.1745 358.403 30.1612 358.403 30.1612L357.948 31.0645C357.948 31.0645 357.613 32.8154 357.555 34.7649C357.494 36.7115 357.24 39.3283 357.24 39.3283L357.198 40.0772C357.198 40.0772 357.674 40.7043 357.495 42.4773L357.534 43.1246L358.068 46.8048V47.8874C358.068 47.8874 359.546 52.6474 359.509 53.5133C359.509 53.5133 361.303 56.6019 360.891 60.2237L361.027 60.5171L361.561 61.1087C361.561 61.1087 361.838 61.0598 362.229 61.0598C363.033 61.0598 364.319 61.2669 364.638 62.5231L364.756 62.8395C364.756 62.8395 367.322 64.5704 366.889 65.652L366.789 65.9473L366.614 66.2436L366.433 69.666C366.433 69.666 365.863 76.6717 363.929 77.6373C363.929 77.6373 363.633 81.5112 362.647 81.5112C361.66 81.5112 361.956 81.5314 361.956 81.5314C361.956 81.5314 361.719 83.1855 361.996 83.8529C362.27 84.5212 363.968 85.132 363.537 87.0796C363.101 89.0261 362.666 90.2487 361.956 90.6994L361.797 90.9152V91.408L361.739 93.4745C361.739 93.4745 362.191 94.4986 362.431 96.4845C362.665 98.4713 363.178 101.383 363.02 102.129C363.02 102.129 363.06 104.591 362.034 105.279C361.145 105.874 360.42 106.338 359.458 106.338C359.311 106.338 359.157 106.328 358.997 106.305C357.793 106.124 355.998 106.696 356.056 103.056C356.114 99.4139 356.096 97.4865 356.096 97.4865C356.096 97.4865 356.096 95.0097 355.879 93.9865C355.664 92.971 355.312 90.7195 356.286 90.7195C356.294 90.7195 356.304 90.7195 356.312 90.7195L356.095 89.9323V89.6964C356.095 89.6964 354.14 88.0049 353.964 87.0997C353.964 87.0997 353.254 91.3889 352.978 92.7457C352.703 94.1035 352.486 94.7728 352.288 95.6186C352.089 96.4662 352.05 96.8402 351.951 98.2958C351.852 99.7514 351.556 102.053 351.419 103.116C351.28 104.177 351.358 105.063 351.556 106.028C351.754 106.99 351.556 108.525 351.321 109.823C351.082 111.122 351.141 111.712 351.141 111.712C351.141 111.712 351.201 112.598 350.827 114.409C350.453 116.221 350.157 118.972 350.157 118.972C350.157 118.972 350.691 120.015 350.847 120.685C350.997 121.318 351.095 121.334 351.104 121.334C351.104 121.334 351.756 121.373 351.499 122.534L351.36 123.107C351.36 123.107 352.051 123.714 351.656 124.778L351.637 125.169C351.637 125.169 352.407 125.977 352.742 126.547C353.075 127.119 353.156 127.454 353.156 127.454L353.391 127.985C353.391 127.985 354.437 129.913 354.005 130.501L353.747 130.818L353.786 131.427L354.005 131.606L353.924 131.98C353.924 131.98 354.853 132.433 354.221 133.22C354.221 133.22 350.476 135.955 349.072 135.955C348.938 135.955 348.823 135.932 348.737 135.875C348.737 135.875 347.928 134.95 347.928 134.222C347.928 134.222 346.666 132.235 347.179 129.798L347.139 129.639C347.139 129.639 346.949 129.7 346.734 129.7C346.331 129.7 345.84 129.492 346.329 128.3L346.784 127.673L346.883 126.65C346.883 126.65 346.88 126.65 346.874 126.65C346.802 126.65 346.295 126.617 346.607 125.667C346.607 125.667 346.468 125.232 345.305 123.875C344.14 122.518 344.357 122.143 344.831 121.965L342.622 120.925C342.622 120.925 339.938 119.703 340.017 118.584C340.095 117.462 341.535 114.551 342.248 113.882L342.345 111.716L341.538 108.176C341.538 108.176 340.492 105.186 341.893 102.626C341.893 102.626 340.529 102.43 341.34 101.093C341.34 101.093 340.607 100.148 340.668 98.4157C340.668 98.4157 340.137 95.4651 341.852 93.7736C341.852 93.7736 342.404 93.321 341.792 92.8675C341.792 92.8675 341.555 92.2403 341.633 91.3141C341.711 90.3887 341.18 86.4937 341.613 84.782C342.049 83.0694 342.225 81.8104 342.069 81.2025C341.91 80.5897 342.187 79.4889 342.089 78.7611C341.989 78.0333 342.009 76.0273 341.555 75.4759C341.102 74.9245 340.569 73.2925 340.727 71.8772C340.884 70.458 340.154 68.8442 341.893 68.1768C343.626 67.5094 343.352 67.4672 343.214 67.1345C343.119 66.9053 342.915 66.8698 342.795 66.8698C342.737 66.8698 342.699 66.8775 342.699 66.8775C342.699 66.8775 341.258 66.5246 340.252 65.1083C339.248 63.6901 338.358 62.3333 338.103 61.29C337.846 60.2486 336.602 57.5704 336.229 56.017C335.853 54.4636 335.145 51.6895 335.145 51.6895C335.145 51.6895 332.183 50.1926 330.646 48.5999C329.104 47.0062 328.416 46.2784 328.08 45.844C327.744 45.4125 327.41 45.332 326.404 44.6847C325.397 44.0346 324.056 43.2675 325.674 42.1264C325.674 42.1264 326.444 41.3209 326.345 40.5931C326.246 39.8653 325.515 36.0661 326.284 32.9382C327.054 29.8083 326.835 28.2156 326.855 27.4878C326.877 26.76 326.994 25.7359 325.872 24.3417C324.745 22.9455 323.503 22.2944 323.503 22.2944C323.503 22.2944 322.832 21.604 321.924 20.7784C321.924 20.7784 320.9 20.2663 321.076 19.0284C321.255 17.7866 321.293 17.3733 321.647 16.8833C322.005 16.3914 322.359 16.0961 322.359 16.0961C322.359 16.0961 322.716 15.6617 323.005 15.6617C323.041 15.6617 323.074 15.6684 323.108 15.6847C323.404 15.8199 323.502 15.8803 323.265 16.3914C323.265 16.3914 323.664 16.2332 324.149 16.2332C324.6 16.2332 325.123 16.3694 325.475 16.8929L326.807 16.3032C326.807 16.3032 327.033 16.2035 327.236 16.2035C327.365 16.2035 327.481 16.2428 327.528 16.3713C327.646 16.705 327.607 16.9025 327.447 16.9409C327.447 16.9409 328.12 16.9409 328.179 17.1979C328.237 17.4529 328.02 17.6313 327.686 17.847C327.349 18.0637 326.835 19.5002 327.844 20.6806C328.851 21.8619 329.381 21.8619 329.422 23.4365C329.422 23.4365 329.639 24.2036 329.601 24.5181C329.558 24.8336 329.679 25.1069 329.778 25.3236C329.877 25.5393 330.073 26.5251 330.073 27.2529C330.073 27.9807 330.211 29.7125 330.211 29.7125C330.211 29.7125 330.804 32.545 331.139 34.2567C331.475 35.9674 331.711 36.7556 331.711 37.6234C331.711 37.6234 331.847 37.2369 332.355 37.2369C332.497 37.2369 332.669 37.2686 332.877 37.3453C332.877 37.3453 334.76 36.2819 336.124 36.2819C336.333 36.2819 336.528 36.3058 336.704 36.3643C336.704 36.3643 336.922 35.5963 337.216 35.5569L337.354 34.7112C337.354 34.7112 335.599 32.6457 335.146 31.66C334.985 31.3157 335.005 31.2026 335.115 31.2026C335.318 31.2026 335.829 31.589 336.072 31.6015C336.447 31.6216 337.868 31.8393 338.045 32.3513L338.125 31.9956C338.125 31.9956 337.314 31.17 337.69 29.7527C337.69 29.7527 337.565 29.7949 337.411 29.7949C337.149 29.7949 336.8 29.6703 336.862 28.9856C336.961 27.904 337.099 28.0219 337.099 27.6479C337.099 27.3363 337.238 26.9949 337.489 26.9949C337.54 26.9949 337.593 27.0093 337.651 27.0371L337.79 25.2075C337.79 25.2075 337.632 23.3367 338.636 22.9829C338.636 22.9829 338.382 20.9174 340.494 20.5252C340.494 20.5252 340.774 20.2682 341.355 20.2682C341.563 20.2682 341.807 20.2999 342.092 20.3881C342.579 20.5377 343.034 20.5809 343.417 20.5809C343.886 20.5809 344.247 20.5156 344.42 20.5041C344.483 20.5003 344.58 20.4926 344.702 20.4926C345.19 20.4926 346.066 20.6269 346.648 21.7459C347.378 23.1421 348.108 23.8104 347.85 25.4626C347.597 27.1157 347.417 27.8244 347.417 27.8244C347.417 27.8244 347.519 28.021 347.675 28.021C347.834 28.021 347.99 28.2367 347.972 28.533C347.972 28.533 348.682 27.2126 349.215 27.0745C349.215 27.0745 348.819 25.6189 349.747 25.2651C349.747 25.2651 349.591 24.5775 350.121 23.7701C350.121 23.7701 350.176 22.6367 350.479 22.6367C350.497 22.6367 350.517 22.6415 350.538 22.6502C350.538 22.6502 350.793 20.1311 351.879 18.7733C351.879 18.7733 352.609 18.1625 351.602 17.2957C350.598 16.4307 347.361 13.7938 347.361 13.7938L342.705 10.451L341.777 9.93899C341.777 9.93899 340.889 9.78077 340.239 9.46625C339.919 9.31091 339.684 9.24187 339.489 9.24187C339.292 9.24187 339.137 9.31666 338.976 9.44707C338.662 9.7031 337.398 10.0569 336.608 10.195C336.134 10.2784 335.396 10.4971 334.804 10.4971C334.418 10.4971 334.095 10.4041 333.947 10.1154C333.947 10.1154 333.196 10.0752 333.491 9.52666L333.571 9.36844C333.571 9.36844 333.176 8.56105 334.163 8.42488C335.149 8.2868 335.581 8.48338 335.821 7.91284L334.378 7.89078C334.378 7.89078 333.748 7.85338 333.689 7.26366C333.643 6.81777 333.911 6.79763 334.327 6.79763C334.369 6.79763 334.411 6.79763 334.455 6.79763C334.555 6.79763 334.661 6.79667 334.774 6.78996C334.867 6.78517 334.964 6.78229 335.069 6.78229C335.698 6.78229 336.47 6.86763 336.47 6.86763C336.47 6.86763 337.004 6.63174 336.569 6.04298C336.136 5.4523 335.187 5.2375 335.602 4.5097C335.737 4.27381 335.889 4.19039 336.041 4.19039C336.353 4.19039 336.661 4.5471 336.767 4.62764C336.926 4.74367 337.635 5.39477 337.635 5.39477C337.635 5.39477 338.326 5.37462 337.95 3.66203C337.95 3.66203 337.123 2.30615 337.793 2.08848C337.861 2.05875 337.928 2.04724 337.989 2.04724ZM337.989 0C337.712 0 337.431 0.0450677 337.155 0.134245C336.442 0.366299 335.887 0.894652 335.629 1.58698C335.555 1.7893 335.509 1.99259 335.489 2.19587C334.795 2.35217 334.2 2.8067 333.808 3.49423C333.65 3.77231 333.438 4.25175 333.438 4.83285C333.045 4.92874 332.608 5.12819 332.233 5.54148C331.969 5.83394 331.538 6.47065 331.639 7.46407C331.653 7.59736 331.676 7.72681 331.703 7.85051C331.49 8.27626 331.418 8.72311 331.439 9.13639C331.283 9.72228 331.353 10.3446 331.659 10.8883C331.924 11.3591 332.348 11.7206 332.858 11.9354C333.286 12.2653 333.908 12.5405 334.797 12.5405C335.443 12.5405 336.068 12.4005 336.572 12.2883C336.713 12.2566 336.844 12.2269 336.956 12.2068C337.15 12.1723 338.579 11.9124 339.606 11.4272C340.138 11.6506 340.691 11.7954 341.048 11.8769L341.597 12.178L346.102 15.4143C346.445 15.6924 348.505 17.3733 349.69 18.3648C349.167 19.3209 348.862 20.3948 348.689 21.2032C348.616 21.0737 348.54 20.9385 348.463 20.7928C347.681 19.2978 346.308 18.4396 344.697 18.4396C344.546 18.4396 344.418 18.4473 344.323 18.4531C344.195 18.4607 344.097 18.4722 343.98 18.4857C343.844 18.5029 343.648 18.5279 343.411 18.5279C343.15 18.5279 342.914 18.4952 342.692 18.4252C342.241 18.2852 341.788 18.2152 341.35 18.2152C340.645 18.2152 340.093 18.4003 339.708 18.5988C337.75 19.1233 336.872 20.6125 336.633 21.9655C335.902 22.8525 335.671 24.1173 335.727 25.1932L335.68 25.8011C335.316 26.2384 335.084 26.8127 335.048 27.4571C334.962 27.7429 334.875 28.114 334.813 28.7929C334.803 28.9175 334.797 29.0364 334.797 29.1496H333.986L333.312 30.1257C332.873 30.8104 332.862 31.613 333.279 32.5115C333.536 33.0734 334.032 33.8002 334.528 34.4571C334.111 34.5683 333.713 34.7074 333.353 34.8493C333.292 34.5559 333.223 34.2298 333.152 33.8578C332.856 32.3542 332.365 29.9905 332.246 29.4152C332.203 28.8763 332.123 27.7333 332.123 27.2462C332.123 26.4388 331.93 25.1174 331.653 24.4893C331.66 24.101 331.595 23.6436 331.462 23.1181C331.365 21.4592 330.754 20.7228 329.972 19.9451C329.809 19.784 329.622 19.5999 329.406 19.3487C329.354 19.2863 329.326 19.2269 329.312 19.1751C330.279 18.3274 330.33 17.4031 330.18 16.7376C330.079 16.2917 329.821 15.8305 329.378 15.4786C328.999 14.6644 328.18 14.1495 327.234 14.1495C326.659 14.1495 326.162 14.3423 325.973 14.4257L325.752 14.5244C325.392 14.3576 325.001 14.2483 324.59 14.2032C324.4 14.0488 324.189 13.9213 323.969 13.8197C323.676 13.6816 323.346 13.6077 323.003 13.6077C322.017 13.6077 321.291 14.209 320.892 14.652C320.691 14.8351 320.336 15.1909 319.983 15.679C319.355 16.5448 319.244 17.3196 319.079 18.4933L319.042 18.7331C318.775 20.6182 319.833 21.8571 320.684 22.4191C321.455 23.1248 322.009 23.6963 322.026 23.7136L322.255 23.9485L322.545 24.1019C322.545 24.1019 323.453 24.6063 324.271 25.6199C324.845 26.3314 324.831 26.7044 324.809 27.2682L324.803 27.4216C324.799 27.5837 324.803 27.7726 324.809 27.9979C324.83 28.7948 324.861 30.1286 324.292 32.4463C323.501 35.6615 324.059 39.2468 324.27 40.5979C324.263 40.6084 324.256 40.618 324.249 40.6295C323.088 41.5472 322.853 42.5329 322.867 43.2166C322.905 44.8698 324.32 45.7779 325.168 46.3225L325.286 46.3992C325.655 46.6351 325.939 46.802 326.167 46.9372C326.31 47.0215 326.422 47.0772 326.509 47.1462C326.847 47.5969 327.476 48.2662 329.168 50.0162C330.403 51.2982 332.282 52.448 333.377 53.0607C333.615 54.0004 333.993 55.4982 334.232 56.4916C334.473 57.4899 334.977 58.7738 335.426 59.9082C335.708 60.6283 336.028 61.4415 336.111 61.7733C336.432 63.0841 337.329 64.5253 338.576 66.2849C338.876 66.7087 339.205 67.0664 339.536 67.3694C338.554 68.5364 338.635 70.0601 338.676 70.832C338.694 71.1427 338.71 71.4389 338.686 71.6489C338.482 73.4852 339.078 75.5152 339.815 76.5681C339.899 76.9133 339.95 77.7015 339.975 78.0976C339.999 78.4763 340.024 78.8091 340.053 79.0363C340.071 79.1562 340.037 79.5196 340.018 79.7593C339.967 80.3634 339.91 81.0471 340.081 81.7107C340.079 81.7088 340.079 81.7088 340.079 81.7088C340.074 81.7088 340.121 82.3215 339.624 84.2757C339.283 85.6192 339.373 87.5312 339.516 89.706C339.553 90.2593 339.598 90.9497 339.586 91.1472C339.516 91.991 339.626 92.6843 339.73 93.1187C338.301 95.1717 338.5 97.7253 338.609 98.5451C338.599 99.6805 338.835 100.578 339.094 101.219C338.926 102.025 339.118 102.652 339.291 103.016C339.33 103.103 339.376 103.187 339.427 103.269C338.723 105.766 339.357 108.098 339.555 108.722L340.279 111.899L340.225 113.123C339.227 114.527 338.064 117.046 337.965 118.439C337.813 120.645 340.282 122.108 341.769 122.785L342.49 123.125C342.7 123.893 343.216 124.591 343.743 125.204C344.076 125.591 344.302 125.882 344.455 126.086C344.438 126.508 344.514 126.862 344.625 127.153L344.52 127.298L344.426 127.525C343.925 128.748 343.954 129.79 344.511 130.619C344.649 130.824 344.816 131.003 345.002 131.158C345.037 132.847 345.598 134.197 345.944 134.87C346.163 135.942 346.857 136.84 347.189 137.218L347.38 137.439L347.627 137.596C348.047 137.865 348.532 138 349.071 138C350.787 138 353.479 136.299 355.434 134.869L355.654 134.709L355.824 134.496C356.4 133.778 356.614 132.927 356.43 132.104C356.368 131.833 356.269 131.591 356.151 131.381L356.273 130.809L356.093 130.662C356.281 129.682 355.989 128.492 355.236 127.085L355.084 126.743C354.997 126.48 354.829 126.056 354.513 125.516C354.32 125.185 354.055 124.836 353.807 124.535C353.877 123.876 353.768 123.265 353.546 122.743C353.746 121.52 353.395 120.74 353.05 120.286C352.969 120.181 352.88 120.08 352.784 119.987C352.649 119.515 352.438 119.006 352.263 118.62C352.367 117.742 352.586 116.035 352.837 114.821C353.248 112.838 353.202 111.767 353.189 111.574C353.187 111.56 353.169 111.12 353.34 110.191C353.713 108.128 353.785 106.677 353.566 105.616C353.391 104.761 353.36 104.111 353.453 103.379C353.604 102.214 353.898 99.9221 353.998 98.4329C354.015 98.1951 354.028 97.989 354.044 97.8096C354.045 98.4972 354.045 100.274 354 103.024C353.92 108.083 357.221 108.248 358.306 108.302C358.438 108.309 358.569 108.312 358.69 108.331C358.962 108.368 359.216 108.386 359.456 108.386C361.079 108.386 362.243 107.605 363.178 106.977C364.872 105.841 365.065 103.288 365.071 102.281C365.165 101.492 365.029 100.354 364.712 98.0762C364.622 97.4405 364.533 96.8047 364.467 96.2447C364.287 94.7508 363.992 93.7065 363.8 93.1408L363.841 91.7532C364.662 90.8135 365.118 89.3953 365.537 87.5264C366.056 85.1915 364.778 83.7944 364.073 83.1183C365.026 82.4327 365.625 80.9484 365.894 78.6384C367.659 76.6362 368.268 72.4209 368.479 69.8328L368.635 66.8564L368.664 66.8104L368.733 66.608L368.819 66.3501C369.558 64.3824 367.885 62.6228 366.479 61.5556C365.941 60.1594 364.693 59.2686 363.003 59.0605C362.987 56.2251 361.981 53.8662 361.516 52.9236C361.412 52.1919 361.088 50.7143 360.12 47.5787V46.8058V46.6591L360.1 46.5133L359.579 42.9184L359.556 42.5118C359.663 41.2097 359.494 40.2949 359.277 39.6898L359.292 39.4376C359.295 39.4184 359.547 36.8198 359.608 34.8272C359.647 33.4944 359.832 32.242 359.92 31.7127L360.209 31.1383C360.327 30.9398 360.804 30.1449 361.408 29.3164C361.942 28.5771 362.148 27.7131 361.992 26.877C361.812 25.9095 361.197 25.0666 360.161 24.3723C360.044 24.2717 359.796 24.0271 359.527 23.7577C359.525 22.9704 359.597 21.5982 359.638 20.8532C359.676 20.1359 359.705 19.5222 359.705 19.1991C359.705 18.9057 359.734 18.6199 359.76 18.3198C359.818 17.6754 359.888 16.8737 359.798 15.8669C359.665 14.4257 358.933 13.2971 358.24 12.6623C356.584 10.523 352.886 8.90721 351.981 8.53516C349.08 7.13037 345.829 5.54339 345.471 5.34778C345.156 5.17518 344.799 5.04477 344.346 4.87792C343.963 4.73792 343.189 4.456 342.904 4.26422C342.319 3.46834 341.573 2.91601 340.761 2.65806C340.704 2.54491 340.639 2.40108 340.556 2.21697L340.528 2.15656C339.95 0.207115 338.564 0 337.989 0Z" fill="#333333"/>
</svg>
