<svg width="24" height="24" viewBox="0 0 24 24" fill="none" xmlns="http://www.w3.org/2000/svg">
<path d="M6.54339 11.5748L5.54874 8.2248L2.47083 2.79417C2.25675 2.41652 1.77684 2.28381 1.39893 2.49775C1.02103 2.71168 0.888222 3.19126 1.10231 3.5689L4.18021 8.99914L6.54339 11.5748Z" fill="#666666"/>
<path d="M5.7168 4.92861V6.92713L6.0608 7.53412L6.40479 7.34043C6.67633 7.18561 6.99845 7.14545 7.29973 7.22886C7.601 7.31228 7.85652 7.51237 8.0096 7.78477L8.07565 7.90263V4.92861C8.07565 4.27768 7.5476 3.75 6.89622 3.75C6.24484 3.75 5.7168 4.27768 5.7168 4.92861Z" fill="#666666"/>
<path d="M11.3137 15.2062L7.32649 8.1723C7.27577 8.08167 7.1908 8.01515 7.0906 7.98765C6.99092 7.95971 6.88418 7.97317 6.79457 8.02497L6.3798 8.26069L7.78292 12.9842C7.83655 13.1603 7.76055 13.35 7.60011 13.4406C7.43968 13.5311 7.23784 13.4982 7.11458 13.3613L3.7831 9.72806L3.37188 9.95907C3.1828 10.067 3.11613 10.307 3.22248 10.4969L7.78292 18.5507C7.84308 18.274 7.93052 18.004 8.04397 17.7446V17.7406C8.63346 16.3965 9.86434 15.4425 11.3137 15.2062Z" fill="#666666"/>
<path d="M5.91352 2.57143H6.50283V1.39282H5.91352C5.58806 1.39282 5.32422 1.65666 5.32422 1.98213C5.32422 2.30759 5.58806 2.57143 5.91352 2.57143Z" fill="#666666"/>
<path d="M10.8281 4.92861V12.7557L11.9997 14.8222L13.187 12.7278V4.92861C13.187 4.27768 12.6589 3.75 12.0075 3.75C11.3562 3.75 10.8281 4.27768 10.8281 4.92861Z" fill="#666666"/>
<path d="M11.2205 1H7.6822C7.46508 1 7.28906 1.17589 7.28906 1.39287V2.57148C7.28906 2.78845 7.46508 2.96435 7.6822 2.96435H11.2205C11.4376 2.96435 11.6136 2.78845 11.6136 2.57148V1.39287C11.6136 1.17589 11.4376 1 11.2205 1Z" fill="#666666"/>
<path d="M16.3338 1H12.7955C12.5784 1 12.4023 1.17589 12.4023 1.39287V2.57148C12.4023 2.78845 12.5784 2.96435 12.7955 2.96435H16.3338C16.5509 2.96435 16.7269 2.78845 16.7269 2.57148V1.39287C16.7269 1.17589 16.5509 1 16.3338 1Z" fill="#666666"/>
<path d="M22.6017 2.49776C22.2239 2.28384 21.7441 2.41646 21.53 2.79399L18.4521 8.22462L17.457 11.5746L19.8206 8.99896L22.8969 3.56873C23.1112 3.1915 22.979 2.71212 22.6017 2.49776Z" fill="#666666"/>
<path d="M20.6317 9.95846L20.2213 9.72746L16.8874 13.3607C16.8129 13.4419 16.7076 13.4881 16.5973 13.488C16.4733 13.4879 16.3566 13.4294 16.2825 13.3301C16.2084 13.2308 16.1854 13.1023 16.2206 12.9836L17.6242 8.25773L17.2137 8.02672C17.1233 7.97363 17.0152 7.95946 16.9142 7.98744C16.8126 8.015 16.7264 8.08207 16.6747 8.17366L12.6895 15.2033C14.1434 15.4364 15.3793 16.3916 15.9706 17.7392L15.9726 17.7432C16.0827 17.9963 16.1682 18.2594 16.2277 18.5289L20.7799 10.4955C20.8318 10.4047 20.8454 10.297 20.8175 10.1962C20.7897 10.0954 20.7228 10.0098 20.6317 9.95846Z" fill="#666666"/>
<path d="M15.9395 4.92861V7.87513L15.9906 7.78516C16.1452 7.51245 16.4021 7.31252 16.7046 7.22958C17.0071 7.14664 17.3302 7.18752 17.6024 7.34318L17.9421 7.53451L18.2983 6.90238V4.92861C18.2983 4.27768 17.7703 3.75 17.1189 3.75C16.4675 3.75 15.9395 4.27768 15.9395 4.92861Z" fill="#666666"/>
<path d="M15.1543 18.2855C14.9725 18.2871 14.8137 18.163 14.7715 17.9863C14.7293 17.8095 14.8149 17.6271 14.9778 17.5465C14.3278 16.5382 13.2098 15.929 12.0096 15.929C10.8094 15.929 9.69138 16.5382 9.04139 17.5465C9.20448 17.6272 9.29007 17.8098 9.24764 17.9867C9.20521 18.1635 9.04605 18.2875 8.86409 18.2855H8.67734C8.58626 18.5395 8.52479 18.8032 8.49414 19.0712H15.5243C15.4936 18.8032 15.4322 18.5395 15.3411 18.2855H15.1543ZM11.2229 18.2855H10.4367C10.2195 18.2855 10.0435 18.1096 10.0435 17.8926C10.0435 17.6756 10.2195 17.4998 10.4367 17.4998H11.2229C11.4401 17.4998 11.6161 17.6756 11.6161 17.8926C11.6161 18.1096 11.4401 18.2855 11.2229 18.2855ZM13.5818 18.2855H12.7955C12.5784 18.2855 12.4024 18.1096 12.4024 17.8926C12.4024 17.6756 12.5784 17.4998 12.7955 17.4998H13.5818C13.7989 17.4998 13.9749 17.6756 13.9749 17.8926C13.9749 18.1096 13.7989 18.2855 13.5818 18.2855Z" fill="#666666"/>
<path d="M18.6903 1.98213C18.6903 1.65666 18.4265 1.39282 18.101 1.39282H17.5117V2.57143H18.101C18.4265 2.57143 18.6903 2.30759 18.6903 1.98213Z" fill="#666666"/>
<path d="M8.67734 20.6434H8.86409C9.0459 20.6418 9.20472 20.7659 9.24693 20.9426C9.28915 21.1194 9.20355 21.3018 9.04061 21.3824C9.69059 22.3907 10.8086 22.9999 12.0088 22.9999C13.209 22.9999 14.3271 22.3907 14.977 21.3824C14.814 21.3017 14.7284 21.1191 14.7708 20.9422C14.8132 20.7654 14.9724 20.6414 15.1543 20.6434H15.3411C15.4322 20.3894 15.4936 20.1257 15.5243 19.8577H8.49414C8.52479 20.1257 8.58626 20.3894 8.67734 20.6434ZM12.7955 20.6434H13.5818C13.7989 20.6434 13.9749 20.8193 13.9749 21.0363C13.9749 21.2532 13.7989 21.4291 13.5818 21.4291H12.7955C12.5784 21.4291 12.4024 21.2532 12.4024 21.0363C12.4024 20.8193 12.5784 20.6434 12.7955 20.6434ZM10.4367 20.6434H11.2229C11.4401 20.6434 11.6161 20.8193 11.6161 21.0363C11.6161 21.2532 11.4401 21.4291 11.2229 21.4291H10.4367C10.2195 21.4291 10.0435 21.2532 10.0435 21.0363C10.0435 20.8193 10.2195 20.6434 10.4367 20.6434Z" fill="#666666"/>
</svg>
