<svg width="24" height="24" viewBox="0 0 24 24" fill="none" xmlns="http://www.w3.org/2000/svg">
<path d="M12.0908 1.20678C12.0908 1.09258 12.1848 1 12.3007 1H14.2941C14.41 1 14.5039 1.09258 14.5039 1.20678V7.02213C14.5039 7.0779 14.481 7.13131 14.4405 7.17023L12.4471 9.08409C12.3141 9.21174 12.0908 9.1189 12.0908 8.93598V1.20678Z" fill="#B2B2B2" stroke="#B2B2B2" stroke-width="0.7"/>
<path d="M8.15335 1.1883C8.15335 1.0741 8.24729 0.981522 8.36318 0.981522H10.3566C10.4725 0.981522 10.5664 1.0741 10.5664 1.1883V10.3488C10.5664 10.406 10.5424 10.4607 10.5 10.4998L8.50658 12.3385C8.37253 12.4622 8.15335 12.3685 8.15335 12.1876V1.1883Z" fill="#B2B2B2" stroke="#B2B2B2" stroke-width="0.7"/>
<path d="M3.89941 1.20678C3.89941 1.09258 3.99336 1 4.10925 1H6.10267C6.21856 1 6.3125 1.09258 6.3125 1.20678V15.2309C6.3125 15.2873 6.28909 15.3413 6.24771 15.3803L4.25429 17.2593C4.12082 17.3851 3.89941 17.2919 3.89941 17.1099V1.20678Z" fill="#B2B2B2" stroke="#B2B2B2" stroke-width="0.7"/>
<path d="M5.97736 22.8833L6.00175 22.8595C6.14987 22.7153 6.1506 22.4799 6.00338 22.3348C5.85679 22.1904 5.85679 21.9561 6.00338 21.8117L6.04371 21.772C6.42366 21.3975 6.42366 20.7846 6.04371 20.4102V20.4102C5.96176 20.3294 5.8289 20.3294 5.74696 20.4102L4.91003 21.2349L4.70326 21.0311C4.54307 20.8733 4.28361 20.8725 4.12245 21.0294C3.96059 21.187 3.95899 21.444 4.11889 21.6035L5.39832 22.8798C5.55724 23.0383 5.81648 23.0399 5.97736 22.8833Z" fill="#B2B2B2"/>
<path d="M6.60892 20.0076C6.45721 19.8581 6.45721 19.6133 6.60892 19.4638V19.4638C6.75751 19.3174 6.99614 19.3174 7.14473 19.4638L7.51389 19.8276C7.6656 19.9771 7.6656 20.2218 7.51389 20.3713V20.3713C7.3653 20.5178 7.12667 20.5178 6.97808 20.3713L6.60892 20.0076Z" fill="#B2B2B2"/>
<path d="M9.13967 15.6138C9.05722 15.5336 9.0564 15.4026 9.13783 15.3214L18.0239 6.45576C18.1053 6.37451 18.2382 6.3737 18.3206 6.45395L20.4909 8.56629C20.5733 8.64653 20.5742 8.77746 20.4927 8.8587L11.6067 17.7243C11.5252 17.8056 11.3924 17.8064 11.3099 17.7262L9.13967 15.6138Z" fill="#B2B2B2"/>
<path d="M7.78034 19.1528C7.52264 18.9048 7.51777 18.4939 7.76952 18.2398L9.7377 16.2538C9.78997 16.2011 9.84795 16.1543 9.91057 16.1144L12.1954 14.6584C12.2428 14.6281 12.2986 14.683 12.268 14.7298L10.7953 16.9789C10.7586 17.0351 10.7163 17.0874 10.669 17.1351L8.67999 19.1421C8.43341 19.3909 8.03274 19.3957 7.78034 19.1528V19.1528Z" fill="#B2B2B2"/>
<path d="M4.91003 21.2349L4.70326 21.0311C4.54307 20.8733 4.28361 20.8725 4.12245 21.0294C3.96059 21.187 3.95899 21.444 4.11889 21.6035L5.39832 22.8798C5.55724 23.0383 5.81648 23.0399 5.97736 22.8833L6.00175 22.8595C6.14987 22.7153 6.1506 22.4799 6.00338 22.3348C5.85679 22.1904 5.85679 21.9561 6.00338 21.8117L6.04371 21.772C6.42366 21.3975 6.42366 20.7846 6.04371 20.4102V20.4102C5.96176 20.3294 5.8289 20.3294 5.74696 20.4102L4.91003 21.2349ZM4.91003 21.2349L4.91569 21.2405M4.91003 21.2349L4.90438 21.2405M11.6067 17.7243L20.4927 8.8587C20.5742 8.77746 20.5733 8.64653 20.4909 8.56629L18.3206 6.45395C18.2382 6.3737 18.1053 6.37451 18.0239 6.45576L9.13783 15.3214C9.0564 15.4026 9.05722 15.5336 9.13967 15.6138L11.3099 17.7262C11.3924 17.8064 11.5252 17.8056 11.6067 17.7243ZM12.1954 14.6584L9.91057 16.1144C9.84795 16.1543 9.78997 16.2011 9.7377 16.2538L7.76952 18.2398C7.51777 18.4939 7.52264 18.9048 7.78034 19.1528V19.1528C8.03274 19.3957 8.43341 19.3909 8.67999 19.1421L10.669 17.1351C10.7163 17.0874 10.7586 17.0351 10.7953 16.9789L12.268 14.7298C12.2986 14.683 12.2428 14.6281 12.1954 14.6584ZM7.51389 20.3713V20.3713C7.6656 20.2218 7.6656 19.9771 7.51389 19.8276L7.14473 19.4638C6.99614 19.3174 6.75751 19.3174 6.60892 19.4638V19.4638C6.45721 19.6133 6.45721 19.8581 6.60892 20.0076L6.97808 20.3713C7.12667 20.5178 7.3653 20.5178 7.51389 20.3713Z" stroke="#B2B2B2" stroke-width="0.7"/>
<path d="M19.8082 18.7567C19.8082 20.1222 18.6848 21.2292 17.2991 21.2292C15.9134 21.2292 14.79 20.1222 14.79 18.7567C14.79 17.3912 15.9134 16.2842 17.2991 16.2842C18.6848 16.2842 19.8082 17.3912 19.8082 18.7567Z" fill="#B2B2B2" stroke="#B2B2B2" stroke-width="0.7"/>
</svg>
