<svg width="24" height="24" viewBox="0 0 24 24" fill="none" xmlns="http://www.w3.org/2000/svg">
<path fill-rule="evenodd" clip-rule="evenodd" d="M2.53098 0.041139C2.39606 0.107721 2.02811 0.471018 2.007 0.558463C1.97887 0.675002 2.03614 0.821846 2.16835 0.97224L2.28629 1.10639L2.71196 0.741832C2.94608 0.541315 3.14219 0.373168 3.14775 0.368158C3.15334 0.363149 3.10002 0.29131 3.02931 0.208516C2.85539 0.00497179 2.70595 -0.045233 2.53098 0.041139ZM21.2213 0.0476348C21.0791 0.137227 20.9179 0.354424 20.963 0.39549C20.9839 0.414565 21.1793 0.58296 21.3972 0.769742L21.7934 1.10934L21.9012 0.987461C22.181 0.671176 22.1492 0.520039 21.7307 0.177661C21.5049 -0.00708402 21.3648 -0.0428384 21.2213 0.0476348ZM2.89108 0.167752C2.95918 0.230536 3.01035 0.28641 3.00479 0.29197C2.99923 0.29753 2.94875 0.258721 2.89257 0.205763C2.83642 0.152806 2.7509 0.0980047 2.70257 0.0840223C2.61488 0.0586721 2.61485 0.0585896 2.69095 0.0561124C2.7443 0.0543783 2.80455 0.0880135 2.89108 0.167752ZM21.3589 0.0949771C21.2983 0.116391 21.2138 0.172762 21.1711 0.220269C21.1284 0.267749 21.0879 0.301053 21.0811 0.294255C21.0492 0.262299 21.3206 0.0536903 21.3927 0.0548463C21.4611 0.0559197 21.4576 0.0601035 21.3589 0.0949771ZM2.7484 0.248647C2.81867 0.310494 2.87614 0.374984 2.87614 0.391995C2.87614 0.409005 2.82351 0.372397 2.75916 0.310632C2.69481 0.248867 2.61741 0.184735 2.58713 0.16811C2.54425 0.144549 2.54185 0.137695 2.57637 0.137035C2.60073 0.136594 2.67815 0.186799 2.7484 0.248647ZM21.4965 0.16811C21.4662 0.184735 21.3888 0.248867 21.3245 0.310632C21.2601 0.372397 21.2075 0.409005 21.2075 0.391995C21.2075 0.346827 21.4553 0.136071 21.5073 0.137035C21.5418 0.137695 21.5394 0.144549 21.4965 0.16811ZM2.66976 0.395325C2.77757 0.536664 2.75137 0.526012 2.58713 0.3618C2.50387 0.278538 2.43575 0.20524 2.43575 0.198965C2.43575 0.169954 2.6083 0.314733 2.66976 0.395325ZM21.645 0.225664C21.6384 0.229462 21.5662 0.294475 21.4847 0.370168C21.3653 0.481037 21.3482 0.490643 21.3969 0.419519C21.4609 0.325991 21.6241 0.185753 21.6448 0.206479C21.6515 0.21325 21.6516 0.221865 21.645 0.225664ZM2.62723 0.617889C2.62756 0.633027 2.56654 0.57729 2.49168 0.494028C2.41681 0.410766 2.3554 0.330257 2.35524 0.315119C2.35507 0.29998 2.41607 0.355717 2.4908 0.438979C2.56552 0.522241 2.62693 0.60275 2.62723 0.617889ZM21.7041 0.349524C21.6594 0.425575 21.4554 0.648083 21.4553 0.620861C21.4552 0.594906 21.6982 0.301356 21.7198 0.301356C21.7267 0.301356 21.7197 0.323018 21.7041 0.349524ZM2.4521 0.652294C2.47706 0.686342 2.49022 0.714225 2.48127 0.714225C2.45317 0.714225 2.24307 0.422024 2.24307 0.382911C2.24307 0.362406 2.27987 0.400692 2.32488 0.46799C2.36985 0.535288 2.4271 0.618247 2.4521 0.652294ZM21.7306 0.565867C21.6672 0.64979 21.6092 0.712298 21.6017 0.704784C21.5942 0.697269 21.6387 0.627082 21.7005 0.548802C21.7624 0.47055 21.814 0.392132 21.8152 0.374572C21.8166 0.353846 21.8224 0.355057 21.8316 0.377985C21.8394 0.397417 21.7939 0.481972 21.7306 0.565867ZM21.836 0.68959C21.7855 0.763631 21.7358 0.82424 21.7255 0.824268C21.7151 0.824295 21.7492 0.761154 21.8011 0.683948C21.8531 0.606714 21.8973 0.516929 21.8994 0.484395C21.9028 0.429813 21.9041 0.430254 21.9154 0.490092C21.9235 0.532948 21.8966 0.600631 21.836 0.68959ZM2.31434 0.733657C2.35237 0.783532 2.37164 0.824323 2.35716 0.824323C2.31615 0.824323 2.16036 0.573932 2.16157 0.509965C2.16237 0.46788 2.17357 0.477899 2.20391 0.547866C2.22661 0.600163 2.2763 0.683783 2.31434 0.733657ZM2.82937 0.846205C2.5843 1.03855 2.38309 1.20584 2.38224 1.21801C2.38139 1.23014 2.71512 1.23799 3.12386 1.2354C3.5326 1.23284 3.86702 1.22062 3.86702 1.20829C3.86702 1.19153 3.43541 0.671094 3.29278 0.51591C3.28298 0.505231 3.07445 0.653863 2.82937 0.846205ZM20.51 0.838691C20.3486 1.02668 20.2166 1.19216 20.2166 1.20645C20.2166 1.22197 20.5151 1.23378 20.9598 1.23584C21.3685 1.23774 21.7022 1.22954 21.7012 1.21759C21.7002 1.20568 21.5802 1.10301 21.4344 0.98947C21.2885 0.875931 21.0869 0.718656 20.9863 0.639963L20.8034 0.496863L20.51 0.838691ZM2.18866 0.838773C2.22375 0.876124 2.24541 0.913723 2.2368 0.922365C2.20173 0.957404 2.0725 0.739052 2.06125 0.625788L2.04949 0.50779L2.08718 0.63933C2.1079 0.711665 2.15356 0.801423 2.18866 0.838773ZM22.0332 0.598732C22.0332 0.676709 21.8781 0.953633 21.8501 0.925641C21.8418 0.917328 21.8678 0.867509 21.9079 0.814937C21.948 0.762365 21.988 0.674837 21.9969 0.620449C22.0161 0.502203 22.0332 0.491936 22.0332 0.598732ZM3.60593 1.35136C3.38099 1.38018 3.39374 1.36967 3.181 1.70164L3.01569 1.95968L3.22463 2.20396C3.33954 2.33834 3.4413 2.44739 3.45074 2.44629C3.48699 2.44213 4.18312 1.59047 4.1748 1.56044C4.11975 1.36113 3.96727 1.30507 3.60593 1.35136ZM19.9874 1.44305C19.8828 1.5671 19.8824 1.56842 19.9324 1.63456C20.037 1.77312 20.6165 2.44502 20.6327 2.44659C20.6421 2.44753 20.7435 2.33804 20.8581 2.20333L21.0664 1.95839L20.8789 1.67024C20.6689 1.34778 20.714 1.37272 20.2717 1.33386L20.0928 1.31814L19.9874 1.44305ZM2.95871 1.41726C2.78462 1.43628 2.63205 1.45307 2.61967 1.45461C2.5947 1.45769 2.66117 1.55202 2.8054 1.71824L2.90039 1.8277L3.11533 1.6219C3.34585 1.40121 3.36894 1.37264 3.31194 1.37875C3.29176 1.3809 3.13281 1.39824 2.95871 1.41726ZM20.7432 1.394C20.7488 1.40776 20.8501 1.51048 20.9684 1.62226L21.1834 1.8255L21.2508 1.74466C21.2878 1.70021 21.3553 1.61849 21.4008 1.56308L21.4834 1.46234L21.3799 1.44696C21.3229 1.43851 21.1896 1.42425 21.0836 1.41528C20.9777 1.40633 20.8554 1.39224 20.812 1.38401C20.7686 1.37575 20.7376 1.38026 20.7432 1.394ZM4.01001 2.1111C3.86108 2.3344 3.71666 2.55581 3.68908 2.60318L3.63893 2.68925L3.92009 3.01605C4.07475 3.19576 4.21094 3.34634 4.22281 3.35066C4.25039 3.36068 4.99553 2.56985 4.99553 2.53052C4.99553 2.49683 4.33183 1.70993 4.30098 1.70701C4.28986 1.70596 4.15892 1.88779 4.01001 2.1111ZM19.4117 2.11938L19.061 2.53098L19.4414 2.93692C19.6507 3.16017 19.8353 3.34282 19.8518 3.34282C19.877 3.34282 20.4368 2.70923 20.4368 2.68072C20.4368 2.65528 19.7976 1.70527 19.7813 1.70643C19.7709 1.70715 19.6046 1.89299 19.4117 2.11938ZM5.0184 2.87017L4.86237 3.01253L4.75004 3.39814C4.68827 3.61022 4.63771 3.79948 4.63771 3.81872C4.63771 3.8534 5.21314 4.54028 5.24198 4.54C5.25363 4.53989 5.48051 3.99884 5.71554 3.41072C5.73189 3.36979 5.44869 3.00336 5.23392 2.78759L5.17444 2.72784L5.0184 2.87017ZM18.6235 3.04297C18.3489 3.36233 18.3476 3.36462 18.3828 3.44981C18.4024 3.49693 18.5098 3.76155 18.6215 4.03782C18.7333 4.31408 18.8319 4.54014 18.8407 4.54014C18.8707 4.54014 19.4459 3.85379 19.4455 3.81844C19.4429 3.58594 19.2024 2.99697 19.0558 2.8637L18.8996 2.72181L18.6235 3.04297ZM4.60677 3.23583C4.29368 3.51144 4.3132 3.47593 4.4127 3.58925L4.49918 3.68776L4.65125 3.38455C4.7349 3.21778 4.79859 3.08134 4.79281 3.08134C4.787 3.08134 4.7033 3.15086 4.60677 3.23583ZM19.4303 3.38042L19.5845 3.68776L19.6726 3.58735L19.7608 3.48694L19.624 3.36583C19.5488 3.29922 19.4397 3.20611 19.3817 3.1589L19.2762 3.07305L19.4303 3.38042ZM5.80984 3.70411C5.71714 3.87003 5.71761 3.87058 5.86255 3.76651C5.99682 3.67009 6.00298 3.65941 5.95338 3.60981C5.90153 3.55795 5.88573 3.56833 5.80984 3.70411ZM18.1302 3.60981C18.0806 3.65949 18.0868 3.67003 18.2232 3.76799L18.3491 3.85844L18.2778 3.71762C18.2028 3.56968 18.1841 3.556 18.1302 3.60981ZM5.86255 3.88255L5.66988 3.96347L5.49246 4.30238L5.31501 4.64129L5.43482 4.7834C5.5856 4.9622 5.52838 4.98967 5.96817 4.52761C6.40561 4.06806 6.3801 4.12537 6.22899 3.94167C6.09164 3.77468 6.11173 3.77793 5.86255 3.88255ZM17.8546 3.94167C17.7894 4.02105 17.7336 4.09518 17.7308 4.10641C17.7246 4.13107 18.4786 4.92548 18.5082 4.92548C18.5196 4.92548 18.5827 4.86176 18.6484 4.7839L18.7678 4.64231L18.5908 4.30445L18.4138 3.96658L18.2073 3.88156C17.9547 3.77752 17.9954 3.77058 17.8546 3.94167ZM6.06211 4.63972C5.82366 4.82928 5.62859 4.99592 5.62859 5.00998C5.62859 5.02515 5.93739 5.03558 6.38552 5.03558C6.80183 5.03558 7.14245 5.02895 7.14245 5.02083C7.14245 4.99776 6.53099 4.29225 6.51227 4.29374C6.50311 4.29445 6.30055 4.45013 6.06211 4.63972ZM17.2337 4.664L16.9145 5.03558H17.6848C18.1084 5.03558 18.455 5.02476 18.455 5.01155C18.455 4.98901 17.5937 4.29242 17.5659 4.29242C17.5588 4.29242 17.4093 4.45963 17.2337 4.664ZM6.78724 5.17645C6.67513 5.18944 6.58122 5.20332 6.57852 5.20728C6.46496 5.37389 6.26166 5.7047 6.26166 5.7229C6.26166 5.74932 6.64089 6.19995 6.67431 6.21322C6.69341 6.22079 7.39487 5.41514 7.41276 5.36508C7.41764 5.35148 7.38667 5.29654 7.34395 5.24301C7.257 5.13401 7.20594 5.1279 6.78724 5.17645ZM16.7317 5.24612L16.6461 5.3531L17.0104 5.77924C17.2108 6.01361 17.3867 6.20537 17.4013 6.20537C17.4316 6.20537 17.822 5.75959 17.822 5.72496C17.822 5.71244 17.749 5.591 17.6597 5.45505C17.477 5.17675 17.4998 5.18823 17.065 5.15696L16.8173 5.13916L16.7317 5.24612ZM6.15844 5.23629C5.83038 5.26767 5.83756 5.25726 6.01102 5.4501L6.14573 5.59983L6.33799 5.42092C6.54266 5.23045 6.5652 5.1982 6.48874 5.20502C6.46226 5.20739 6.3136 5.22145 6.15844 5.23629ZM17.5501 5.21832C17.5519 5.23134 17.6399 5.32252 17.7456 5.42092L17.9379 5.59983L18.0726 5.4501C18.2448 5.25864 18.2489 5.26657 17.9665 5.24477C17.834 5.23456 17.6854 5.21909 17.6362 5.21039C17.587 5.20172 17.5482 5.20527 17.5501 5.21832ZM7.18657 5.95983L6.86412 6.44368L6.96742 6.56974C7.02426 6.63908 7.16045 6.79869 7.2701 6.92445L7.46947 7.15313L7.85665 6.73492C8.06961 6.5049 8.24065 6.30804 8.23677 6.29742C8.22322 6.26062 7.54563 5.47597 7.52735 5.47597C7.51725 5.47597 7.36391 5.69372 7.18657 5.95983ZM16.1959 5.87624C16.0078 6.09638 15.8506 6.28616 15.8464 6.29797C15.8423 6.30978 16.0132 6.50732 16.2262 6.73698L16.6135 7.1545L16.8783 6.8451C17.024 6.67492 17.1602 6.51555 17.181 6.491C17.2168 6.44847 16.6188 5.47597 16.5567 5.47597C16.5463 5.47597 16.3839 5.65609 16.1959 5.87624ZM8.22504 6.68138L8.05527 6.83844L7.94443 7.20986C7.8375 7.56806 7.83529 7.58323 7.88253 7.63649C7.90945 7.66685 8.05147 7.83191 8.19815 8.00331L8.46481 8.31491L8.50882 8.20974C8.53301 8.15188 8.64284 7.88421 8.75282 7.61491L8.95285 7.12525L8.70135 6.82517C8.40624 6.47305 8.4394 6.48304 8.22504 6.68138ZM15.3807 6.82338L15.1276 7.12092L15.3669 7.71534C15.4985 8.04228 15.6124 8.30932 15.62 8.3088C15.6613 8.30583 16.238 7.58372 16.2302 7.54469C16.1466 7.12398 16.0217 6.83481 15.8572 6.68147C15.6449 6.48362 15.6781 6.47374 15.3807 6.82338ZM7.77735 7.07843C7.67037 7.17259 7.58284 7.2586 7.58284 7.26956C7.58284 7.30085 7.71427 7.4456 7.72869 7.43022C7.75374 7.40355 7.99609 6.90725 7.98406 6.90725C7.97738 6.90725 7.88437 6.98429 7.77735 7.07843ZM16.2172 7.16672C16.356 7.4461 16.3693 7.45568 16.4564 7.33897L16.5116 7.26493L16.3502 7.12051C16.0793 6.87802 16.0746 6.87964 16.2172 7.16672ZM10.5538 7.31343C10.388 7.42636 9.97748 7.8026 9.97737 7.84171C9.97681 8.07575 8.93311 8.9831 8.63915 9.00509C8.55413 9.01145 7.96818 9.49643 7.96818 9.56045C7.96818 9.61002 8.02378 9.67815 8.83521 10.6232C9.24395 11.0993 9.60083 11.5168 9.6283 11.5511L9.6782 11.6133L6.4668 15.3606C4.70049 17.4216 3.22999 19.1509 3.19897 19.2034C2.73675 19.9868 5.08427 22.049 5.8598 21.5409C5.90131 21.5137 7.30613 19.8891 8.98166 17.9306C10.6572 15.9722 12.0342 14.3701 12.0418 14.3705C12.0494 14.3708 13.4269 15.9735 15.1028 17.9319C16.7788 19.8902 18.1839 21.5147 18.2252 21.5418C18.883 21.9728 20.8712 20.4594 20.926 19.486C20.9412 19.216 21.2782 19.6359 17.61 15.3548C15.857 13.3089 14.4196 11.6272 14.4159 11.6176C14.4121 11.608 14.7757 11.1729 15.2239 10.6506C16.1296 9.59511 16.1236 9.60279 16.0995 9.54019C16.0659 9.4525 15.5387 9.02204 15.4473 9.00765C15.1252 8.95687 14.1699 8.14115 14.1158 7.87069C14.1016 7.79976 13.8059 7.51923 13.538 7.32257C13.4198 7.23578 13.4519 7.20677 12.7181 8.06336C12.3616 8.47951 12.0593 8.82354 12.0463 8.82789C12.0333 8.83221 11.739 8.50406 11.3923 8.09865C10.5816 7.15071 10.6705 7.23394 10.5538 7.31343ZM9.02711 7.4788C8.98276 7.56561 8.94142 7.64794 8.93526 7.6617C8.92235 7.69046 9.1685 7.51766 9.2077 7.47043C9.22495 7.44962 9.2126 7.4194 9.1707 7.38004L9.10775 7.32092L9.02711 7.4788ZM14.9044 7.38893C14.8689 7.42667 14.8451 7.46143 14.8515 7.46622C14.8579 7.47101 14.9293 7.52248 15.0101 7.58061L15.1571 7.68631L15.0688 7.51009C15.0202 7.41318 14.9778 7.33083 14.9746 7.32711C14.9714 7.32339 14.9398 7.35119 14.9044 7.38893ZM8.92546 7.98561L8.50183 8.3483L8.58594 8.47943C8.63221 8.55157 8.6776 8.6113 8.68685 8.61218C8.71239 8.6146 9.25507 8.15956 9.43086 7.98825L9.58613 7.83698L9.48225 7.72993C9.35151 7.59523 9.41589 7.56567 8.92546 7.98561ZM14.5925 7.73321L14.4871 7.8419L14.6529 7.99535C15.1071 8.41593 15.4273 8.65847 15.4273 8.58195C15.4273 8.56448 15.4583 8.50957 15.4961 8.45994C15.5894 8.33767 15.6089 8.36539 15.1642 7.98685C14.6904 7.58339 14.7236 7.59812 14.5925 7.73321ZM10.5931 9.88483C10.7684 10.0766 10.8748 10.2137 10.857 10.2248C10.8405 10.2349 10.8231 10.2389 10.8183 10.2336C10.7926 10.2053 10.2958 9.58459 10.271 9.54961C10.2246 9.48446 10.2752 9.53711 10.5931 9.88483ZM13.7982 9.57025C13.7755 9.59673 13.5976 9.8166 13.4029 10.0588C11.6371 12.2551 7.4172 17.2912 6.40316 18.4125C6.06767 18.7835 5.35197 19.511 5.17606 19.6599L5.04004 19.775L5.21537 19.5135C5.7494 18.717 6.24914 18.1111 8.72288 15.261C10.486 13.2295 13.7822 9.52464 13.8283 9.52258C13.8344 9.5223 13.8209 9.54377 13.7982 9.57025ZM9.05546 10.4442C9.46123 10.9135 9.81219 11.3195 9.83534 11.3464C9.87321 11.3905 9.87296 11.3999 9.83286 11.4401C9.79174 11.4812 9.78296 11.4784 9.72045 11.4048C9.68315 11.3609 9.32429 10.9472 8.92293 10.4854C8.24139 9.70138 8.19609 9.64272 8.23693 9.59712C8.26099 9.57028 8.28898 9.55789 8.29917 9.56959C8.30935 9.58132 8.64966 9.97486 9.05546 10.4442ZM15.8049 9.74176C15.7562 9.79818 15.1531 10.4933 14.4647 11.2865C13.7763 12.0797 11.7889 14.3698 10.0483 16.3757C8.30773 18.3816 6.64874 20.2932 6.36168 20.6237C5.73649 21.3436 5.77227 21.3164 5.45079 21.3164C5.16434 21.3164 4.96253 21.2379 4.57339 20.9753C4.30654 20.7953 4.26913 20.7382 4.5275 20.9053C5.00079 21.2115 5.37727 21.3038 5.63162 21.1761C5.76407 21.1096 7.48348 19.1451 15.2346 10.2043C15.7573 9.60144 15.8024 9.55665 15.8462 9.59634C15.8906 9.6365 15.888 9.64559 15.8049 9.74176ZM13.8216 13.4994C16.91 17.0082 18.3048 18.6725 18.896 19.5543L19.0434 19.774L18.935 19.6869C18.3684 19.2315 17.0734 17.7619 13.8781 13.9483C13.1257 13.0502 13.1383 13.0691 13.2309 12.9706L13.2914 12.9061L13.3506 12.9688C13.3832 13.0033 13.5951 13.242 13.8216 13.4994ZM14.3144 16.4996C18.065 20.8165 18.3275 21.1126 18.4688 21.186C18.7118 21.3122 19.135 21.1898 19.644 20.846C19.9219 20.6584 19.8738 20.7144 19.5698 20.9325C19.1797 21.2124 18.9273 21.3157 18.6328 21.3161C18.2788 21.3165 18.7393 21.8001 15.0963 17.6013C14.6501 17.0871 13.8165 16.1272 13.2439 15.4682C12.6712 14.8092 12.196 14.2544 12.188 14.2353C12.1701 14.1929 12.2355 14.1076 12.2625 14.1382C12.2731 14.1501 13.1964 15.2128 14.3144 16.4996ZM11.5877 18.2952C11.5422 18.3019 11.4901 18.3196 11.4719 18.3348C11.4536 18.3498 11.4268 18.3548 11.4122 18.3458C11.3706 18.3201 10.9763 18.455 10.7427 18.5749C9.00611 19.4655 8.64256 21.7877 10.025 23.159C10.4035 23.5345 11.1832 23.9754 11.123 23.7798C11.1136 23.7495 11.0984 23.7 11.089 23.6697C11.0518 23.5491 11.1511 23.6203 11.2016 23.7505C11.2349 23.8363 11.2747 23.8916 11.3097 23.9008C11.3878 23.9212 11.3891 23.9128 11.3289 23.7725C11.2789 23.6557 11.2787 23.6147 11.3281 23.6147C11.3393 23.6147 11.3773 23.6842 11.4125 23.7691C11.4547 23.871 11.4984 23.9319 11.5408 23.948C11.6374 23.9848 11.7115 23.9775 11.7115 23.9312C11.7115 23.8722 11.7594 23.8802 11.7941 23.945C11.8148 23.9837 11.8517 24 11.9189 24H12.0143V21.1374V18.2749L11.8973 18.2749L11.7803 18.2748L11.7898 18.4263C11.7975 18.5504 11.7913 18.5777 11.7554 18.5777C11.7206 18.5777 11.7115 18.5464 11.7115 18.4263C11.7115 18.343 11.7022 18.2767 11.6909 18.279C11.6795 18.2813 11.6331 18.2886 11.5877 18.2952ZM12.0693 21.1374V24H12.1683C12.244 24 12.2705 23.9871 12.2816 23.945C12.299 23.8782 12.3331 23.8742 12.367 23.9349C12.4274 24.0428 12.5879 23.9587 12.6662 23.7783C12.7346 23.6205 12.785 23.569 12.785 23.6568C12.785 23.68 12.7662 23.7439 12.7433 23.7987C12.6957 23.9127 12.698 23.9206 12.7739 23.9008C12.8089 23.8916 12.8487 23.8363 12.882 23.7505C12.911 23.6758 12.9506 23.6147 12.9699 23.6147C13.0164 23.6147 13.0144 23.6546 12.9632 23.7537C12.9009 23.8742 12.9724 23.8626 13.2989 23.6991C15.4421 22.6262 15.4357 19.6215 13.2878 18.5524C13.0515 18.4348 12.7115 18.3211 12.6709 18.3461C12.6567 18.355 12.63 18.3505 12.6117 18.3361C12.5935 18.3218 12.5321 18.3029 12.4753 18.2942L12.3721 18.2784V18.428C12.3721 18.5466 12.363 18.5777 12.3283 18.5777C12.2923 18.5777 12.2862 18.5504 12.2939 18.4263L12.3033 18.2748L12.1863 18.2749L12.0693 18.2749V21.1374ZM11.2145 18.7311C11.3068 18.9539 11.2456 19.0038 11.1487 18.7847C11.0685 18.6033 11.0643 18.5777 11.1147 18.5777C11.1346 18.5777 11.1795 18.6467 11.2145 18.7311ZM11.4075 18.705C11.4661 18.8377 11.4803 18.9355 11.4408 18.9355C11.4112 18.9355 11.2717 18.6138 11.2923 18.5932C11.3273 18.5582 11.3539 18.584 11.4075 18.705ZM12.785 18.6155C12.785 18.6677 12.6793 18.902 12.6466 18.9222C12.6016 18.95 12.6167 18.8394 12.6762 18.705C12.7305 18.5821 12.785 18.5373 12.785 18.6155ZM12.9893 18.6396C12.9308 18.8243 12.8643 18.9432 12.8356 18.9145C12.7966 18.8755 12.9162 18.5777 12.9708 18.5777C12.9977 18.5777 13.0032 18.5958 12.9893 18.6396ZM11.7886 18.9909C11.7776 19.1748 11.7274 19.1794 11.717 18.9974C11.7102 18.8797 11.7168 18.8529 11.7528 18.8529C11.7886 18.8529 11.7954 18.8791 11.7886 18.9909ZM12.3667 18.9909C12.3556 19.1748 12.3054 19.1794 12.295 18.9974C12.2882 18.8797 12.2949 18.8529 12.3308 18.8529C12.3666 18.8529 12.3734 18.8791 12.3667 18.9909ZM11.2033 19.2727C11.2767 19.4303 11.2868 19.486 11.2421 19.486C11.2144 19.486 11.0785 19.2109 11.0785 19.1549C11.0785 19.0825 11.1433 19.1437 11.2033 19.2727ZM11.4054 19.264C11.4673 19.4079 11.4794 19.486 11.4398 19.486C11.4103 19.486 11.2731 19.1775 11.2899 19.1488C11.317 19.1023 11.35 19.1352 11.4054 19.264ZM12.785 19.1712C12.785 19.2343 12.6722 19.486 12.644 19.486C12.6043 19.486 12.6163 19.408 12.6783 19.264C12.7359 19.1299 12.785 19.0873 12.785 19.1712ZM12.9393 19.3305C12.8761 19.4734 12.8121 19.5346 12.8128 19.4516C12.8134 19.3726 12.9524 19.1194 12.98 19.147C12.9991 19.1661 12.9861 19.2248 12.9393 19.3305ZM11.789 19.5717C11.7842 19.6381 11.7679 19.6924 11.7528 19.6924C11.7211 19.6924 11.6998 19.5012 11.7243 19.4372C11.7551 19.3572 11.7979 19.4464 11.789 19.5717ZM12.367 19.5717C12.3622 19.6381 12.346 19.6924 12.3308 19.6924C12.2991 19.6924 12.2778 19.5012 12.3024 19.4372C12.3331 19.3572 12.376 19.4464 12.367 19.5717ZM11.2027 19.8334C11.2805 20.0094 11.285 20.0365 11.2367 20.0364C11.1967 20.0364 11.0698 19.7424 11.0933 19.7043C11.1205 19.6603 11.1322 19.6741 11.2027 19.8334ZM11.4037 19.8237C11.4693 19.9819 11.4779 20.0365 11.4376 20.0365C11.4053 20.0365 11.2987 19.8012 11.2987 19.7302C11.2987 19.6371 11.3425 19.6761 11.4037 19.8237ZM12.785 19.7302C12.785 19.7957 12.6794 20.0365 12.6507 20.0365C12.5985 20.0365 12.6023 19.9953 12.6684 19.842C12.7392 19.678 12.785 19.6341 12.785 19.7302ZM12.941 19.8827C12.8786 20.019 12.8125 20.0844 12.8125 20.0097C12.8125 19.9308 12.9536 19.6711 12.9814 19.6989C13.0031 19.7206 12.9918 19.7717 12.941 19.8827ZM11.7941 20.1207C11.7941 20.2232 11.7839 20.2567 11.7528 20.2567C11.7105 20.2567 11.6901 20.012 11.7291 19.973C11.7684 19.9337 11.7941 19.9921 11.7941 20.1207ZM12.3721 20.1207C12.3721 20.2232 12.362 20.2567 12.3308 20.2567C12.2885 20.2567 12.2681 20.012 12.3071 19.973C12.3464 19.9337 12.3721 19.9921 12.3721 20.1207ZM11.2106 20.4122C11.3002 20.632 11.2439 20.6789 11.1487 20.4637C11.0691 20.2836 11.0644 20.2566 11.1129 20.2567C11.1318 20.2567 11.1758 20.3267 11.2106 20.4122ZM11.4075 20.384C11.4666 20.5177 11.4802 20.6145 11.4399 20.6145C11.4136 20.6145 11.2987 20.354 11.2987 20.2943C11.2987 20.2163 11.3532 20.2613 11.4075 20.384ZM12.785 20.2943C12.785 20.354 12.67 20.6145 12.6437 20.6145C12.6034 20.6145 12.6171 20.5177 12.6762 20.384C12.7305 20.2613 12.785 20.2163 12.785 20.2943ZM13.0052 20.2808C13.0052 20.3567 12.8619 20.6198 12.8351 20.593C12.7973 20.5553 12.9162 20.2567 12.969 20.2567C12.9889 20.2567 13.0052 20.2675 13.0052 20.2808ZM11.7886 20.6699C11.7776 20.8538 11.7274 20.8584 11.717 20.6764C11.7102 20.5587 11.7168 20.5319 11.7528 20.5319C11.7886 20.5319 11.7954 20.5581 11.7886 20.6699ZM12.3667 20.6699C12.3556 20.8538 12.3054 20.8584 12.295 20.6764C12.2882 20.5587 12.2949 20.5319 12.3308 20.5319C12.3666 20.5319 12.3734 20.5581 12.3667 20.6699ZM4.28341 20.7452C4.31763 20.7889 4.31666 20.7898 4.27301 20.7556C4.22715 20.7197 4.21259 20.6971 4.23525 20.6971C4.24094 20.6971 4.26263 20.7187 4.28341 20.7452ZM11.2038 20.9593C11.2782 21.1276 11.2852 21.165 11.2421 21.165C11.2036 21.165 11.0698 20.8709 11.092 20.835C11.1213 20.7877 11.1343 20.8022 11.2038 20.9593ZM11.4051 20.9484C11.4689 21.1021 11.4784 21.165 11.4376 21.165C11.4053 21.165 11.2987 20.9297 11.2987 20.8587C11.2987 20.7654 11.3454 20.8048 11.4051 20.9484ZM12.785 20.8502C12.785 20.9133 12.6722 21.165 12.644 21.165C12.6043 21.165 12.6163 21.087 12.6783 20.943C12.7359 20.8089 12.785 20.7663 12.785 20.8502ZM12.9393 21.0095C12.8761 21.1524 12.8121 21.2136 12.8128 21.1306C12.8134 21.0516 12.9524 20.7984 12.98 20.826C12.9991 20.8451 12.9861 20.9038 12.9393 21.0095ZM11.7941 21.2492C11.7941 21.3517 11.7839 21.3852 11.7528 21.3852C11.7105 21.3852 11.6901 21.1406 11.7291 21.1015C11.7684 21.0622 11.7941 21.1206 11.7941 21.2492ZM12.367 21.2485C12.3544 21.4215 12.2895 21.4264 12.2895 21.2544C12.2895 21.18 12.298 21.1106 12.3083 21.1003C12.3469 21.0618 12.3754 21.1337 12.367 21.2485ZM11.2035 21.5144C11.2677 21.6594 11.2758 21.787 11.2172 21.7269C11.1753 21.6841 11.0768 21.4102 11.0935 21.3832C11.1206 21.3393 11.1323 21.3533 11.2035 21.5144ZM11.408 21.5137C11.4699 21.6536 11.4783 21.7155 11.4353 21.7155C11.4011 21.7155 11.2987 21.4856 11.2987 21.4088C11.2987 21.3272 11.3453 21.3719 11.408 21.5137ZM12.7298 21.5856C12.6744 21.7107 12.6198 21.7564 12.6198 21.6775C12.6198 21.6289 12.6986 21.4382 12.7397 21.3875C12.7981 21.3154 12.7915 21.4459 12.7298 21.5856ZM12.9478 21.5539C12.8732 21.7326 12.8471 21.766 12.8257 21.7103C12.8017 21.6476 12.9442 21.3407 12.9805 21.377C13.0009 21.3974 12.9912 21.4501 12.9478 21.5539ZM11.7941 21.798C11.7941 21.902 11.784 21.9357 11.7528 21.9357C11.7216 21.9357 11.7115 21.902 11.7115 21.798C11.7115 21.694 11.7216 21.6604 11.7528 21.6604C11.784 21.6604 11.7941 21.694 11.7941 21.798ZM12.3721 21.798C12.3721 21.902 12.362 21.9357 12.3308 21.9357C12.2996 21.9357 12.2895 21.902 12.2895 21.798C12.2895 21.694 12.2996 21.6604 12.3308 21.6604C12.362 21.6604 12.3721 21.694 12.3721 21.798ZM11.2092 22.0877C11.2785 22.2579 11.2842 22.2935 11.2421 22.2935C11.2144 22.2935 11.0785 22.0184 11.0785 21.9624C11.0785 21.8821 11.1555 21.956 11.2092 22.0877ZM11.4054 22.0715C11.4673 22.2154 11.4794 22.2935 11.4398 22.2935C11.4103 22.2935 11.2731 21.985 11.2899 21.9563C11.317 21.9098 11.35 21.9427 11.4054 22.0715ZM12.785 21.9733C12.785 22.033 12.67 22.2935 12.6437 22.2935C12.6034 22.2935 12.6171 22.1967 12.6762 22.063C12.7305 21.9403 12.785 21.8953 12.785 21.9733ZM13.0052 21.9598C13.0052 22.0126 12.8665 22.2935 12.8404 22.2935C12.7983 22.2935 12.8063 22.2406 12.8726 22.0807C12.924 21.9569 13.0052 21.8828 13.0052 21.9598ZM11.7886 22.3489C11.7776 22.5328 11.7274 22.5374 11.717 22.3554C11.7102 22.2377 11.7168 22.2109 11.7528 22.2109C11.7886 22.2109 11.7954 22.2371 11.7886 22.3489ZM12.3667 22.3489C12.3556 22.5328 12.3054 22.5374 12.295 22.3554C12.2882 22.2377 12.2949 22.2109 12.3308 22.2109C12.3666 22.2109 12.3734 22.2371 12.3667 22.3489ZM11.2038 22.6383C11.2802 22.8109 11.2855 22.844 11.2367 22.8439C11.1967 22.8439 11.0698 22.55 11.0933 22.5118C11.1211 22.4669 11.135 22.4828 11.2038 22.6383ZM11.4051 22.6274C11.4689 22.7811 11.4784 22.844 11.4376 22.844C11.4053 22.844 11.2987 22.6087 11.2987 22.5377C11.2987 22.4444 11.3454 22.4838 11.4051 22.6274ZM12.785 22.5292C12.785 22.5923 12.6722 22.844 12.644 22.844C12.6053 22.844 12.6157 22.7787 12.6785 22.6274C12.7361 22.4889 12.785 22.4438 12.785 22.5292ZM12.9393 22.6885C12.8761 22.8314 12.8121 22.8926 12.8128 22.8096C12.8134 22.7306 12.9524 22.4774 12.98 22.505C12.9991 22.5241 12.9861 22.5828 12.9393 22.6885ZM11.7941 22.9282C11.7941 23.0307 11.7839 23.0642 11.7528 23.0642C11.7105 23.0642 11.6901 22.8196 11.7291 22.7805C11.7684 22.7412 11.7941 22.7996 11.7941 22.9282ZM12.3721 22.9282C12.3721 23.0307 12.362 23.0642 12.3308 23.0642C12.2885 23.0642 12.2681 22.8196 12.3071 22.7805C12.3464 22.7412 12.3721 22.7996 12.3721 22.9282ZM12.9478 23.2329C12.8732 23.4116 12.8471 23.445 12.8257 23.3893C12.8017 23.3266 12.9442 23.0197 12.9805 23.056C13.0009 23.0764 12.9912 23.1291 12.9478 23.2329ZM11.2145 23.2176C11.3068 23.4404 11.2456 23.4903 11.1487 23.2712C11.0685 23.0898 11.0643 23.0642 11.1147 23.0642C11.1346 23.0642 11.1795 23.1332 11.2145 23.2176ZM11.4075 23.1915C11.4689 23.3304 11.482 23.4365 11.434 23.4068C11.3991 23.3852 11.2987 23.1599 11.2987 23.1032C11.2987 23.0239 11.3528 23.0679 11.4075 23.1915ZM12.785 23.102C12.785 23.1542 12.6793 23.3885 12.6466 23.4087C12.6016 23.4365 12.6167 23.326 12.6762 23.1915C12.7305 23.0687 12.785 23.0238 12.785 23.102ZM11.7941 23.477C11.7941 23.581 11.784 23.6147 11.7528 23.6147C11.7216 23.6147 11.7115 23.581 11.7115 23.477C11.7115 23.373 11.7216 23.3394 11.7528 23.3394C11.784 23.3394 11.7941 23.373 11.7941 23.477ZM12.3721 23.477C12.3721 23.581 12.362 23.6147 12.3308 23.6147C12.2996 23.6147 12.2895 23.581 12.2895 23.477C12.2895 23.373 12.2996 23.3394 12.3308 23.3394C12.362 23.3394 12.3721 23.373 12.3721 23.477Z" fill="#B2B2B2"/>
</svg>
