<svg width="27" height="27" viewBox="0 0 27 27" fill="none" xmlns="http://www.w3.org/2000/svg">
<path fill-rule="evenodd" clip-rule="evenodd" d="M0.358594 0.358594L0 0.717188V3.09709C0 5.71535 0.0957656 6.02511 0.75948 5.55219C0.771082 5.54386 0.806731 4.49297 0.838582 3.2168L0.896484 0.896484L3.2168 0.838582C4.49297 0.806731 5.54386 0.771082 5.55219 0.75948C6.02511 0.0957656 5.71535 0 3.09709 0H0.717188L0.358594 0.358594ZM21.4054 0.219691C21.1183 0.756105 21.4258 0.836789 23.8768 0.868113L26.1035 0.896484L26.1614 3.2168C26.1933 4.49297 26.2289 5.54386 26.2405 5.55219C26.9042 6.02511 27 5.71535 27 3.09709V0.717188L26.6414 0.358594L26.2828 0H23.9029C21.5993 0 21.5193 0.0070664 21.4054 0.219691ZM5.32617 4.03123C4.11592 4.46027 3.90466 5.02516 3.9034 7.83707C3.9015 11.811 4.11064 12.0234 8.02375 12.0234C11.7935 12.0234 12.0234 11.7866 12.0234 7.90203C12.0234 4.11613 11.7921 3.8957 7.83707 3.91068C6.57819 3.91542 5.50768 3.96679 5.32617 4.03123ZM12.295 4.10453C12.0171 4.41165 12.2348 4.74609 12.7127 4.74609H13.0781V7.42806C13.0781 10.435 13.1254 10.6493 13.7179 10.3322C14.0022 10.1801 14.0379 4.34985 13.7562 4.06804C13.5068 3.81871 12.5317 3.84296 12.295 4.10453ZM16.3526 4.03998C15.2233 4.40005 14.9766 5.10321 14.9766 7.96289C14.9766 11.7902 15.2098 12.0234 19.0371 12.0234C22.8553 12.0234 23.0977 11.7811 23.0977 7.96289C23.0977 4.11529 22.8686 3.8937 18.9113 3.9131C17.6372 3.91932 16.5641 3.97259 16.3526 4.03998ZM10.5013 4.9005C11.1105 5.155 11.1797 5.46803 11.1797 7.96996C11.1797 11.263 11.2631 11.1797 7.96289 11.1797C4.65138 11.1797 4.74609 11.2744 4.74609 7.96289C4.74609 4.66309 4.65771 4.75211 7.9399 4.74852C9.63003 4.74662 10.2163 4.78143 10.5013 4.9005ZM21.5918 4.92244C22.1918 5.2072 22.2539 5.4926 22.2539 7.96289C22.2539 11.2744 22.3486 11.1797 19.0371 11.1797C15.7369 11.1797 15.8203 11.263 15.8203 7.96996C15.8203 4.65096 15.7154 4.75643 19.0212 4.75021C20.8639 4.74673 21.2803 4.77468 21.5918 4.92244ZM6.75 7.96289V9.17578H7.96289H9.17578V7.96289V6.75H7.96289H6.75V7.96289ZM17.8242 7.96289V9.17578H19.0371H20.25V7.96289V6.75H19.0371H17.8242V7.96289ZM13.0781 11.6016V12.0234H13.5H13.9219V11.6016V11.1797H13.5H13.0781V11.6016ZM1.69119 13.2821C1.54997 13.546 1.55166 13.56 1.74772 13.7562C2.00095 14.0093 24.999 14.0093 25.2523 13.7562C25.4604 13.548 25.4604 13.452 25.2523 13.2438C24.9657 12.9574 1.84496 12.9949 1.69119 13.2821ZM5.27839 15.1142C4.11307 15.4857 3.86923 16.2465 3.91932 19.3535C3.9768 22.9125 4.17266 23.0977 7.87915 23.0977C11.7931 23.0977 12.0234 22.872 12.0234 19.0371C12.0234 15.1895 11.7944 14.9679 7.83707 14.9873C6.563 14.9935 5.48986 15.0468 5.27839 15.1142ZM13.0781 15.3984V15.8203H13.5H13.9219V15.3984V14.9766H13.5H13.0781V15.3984ZM15.1511 15.1695C14.9431 15.3992 14.8852 20.0933 15.0857 20.4679C15.2088 20.6978 15.5037 20.7354 15.6938 20.5453C15.9389 20.3002 15.8668 15.2198 15.6163 15.0857C15.352 14.9443 15.3554 14.9437 15.1511 15.1695ZM19.0898 15.3921V15.8203H18.6616H18.2333L18.2661 16.2158C18.297 16.5898 18.3203 16.6131 18.6943 16.644L19.0898 16.6768V16.2485V15.8203H19.518H19.9464L19.9136 15.4248C19.8827 15.0508 19.8593 15.0275 19.4854 14.9966L19.0898 14.9638V15.3921ZM20.8376 15.1423C20.6415 15.3384 20.6398 15.3525 20.781 15.6163C20.8717 15.7857 21.0059 15.8203 21.5721 15.8203H22.2539V16.9594C22.2539 18.084 22.3274 18.3516 22.6367 18.3516C23.0138 18.3516 23.0977 18.0448 23.0977 16.6641C23.0977 14.9708 23.1019 14.9766 21.8848 14.9766C21.2241 14.9766 20.9618 15.0181 20.8376 15.1423ZM10.4794 15.9655C11.1034 16.2263 11.1797 16.5599 11.1797 19.03C11.1797 22.3394 11.265 22.2539 7.96289 22.2539C5.50484 22.2539 5.20478 22.1867 4.91242 21.5707C4.77763 21.2864 4.74609 20.8066 4.74609 19.0371C4.74609 16.5857 4.82446 16.2307 5.42331 15.97C5.89191 15.7659 9.99295 15.7623 10.4794 15.9655ZM13.2047 17.5289C12.9922 17.7414 13.0282 22.7164 13.2438 22.932C13.8143 23.5023 13.9219 23.0704 13.9219 20.2109C13.9219 17.5874 13.894 17.4023 13.5 17.4023C13.4072 17.4023 13.2743 17.4593 13.2047 17.5289ZM16.7247 17.6045C16.5787 17.7658 16.5656 17.8511 16.6593 18.0264C16.9372 18.5455 21.5156 18.3189 21.5156 17.7859C21.5156 17.3384 17.1163 17.1718 16.7247 17.6045ZM6.75 19.0371V20.25H7.96289H9.17578V19.0371V17.8242H7.96289H6.75V19.0371ZM16.8386 19.0718C16.4567 19.4938 16.6452 21.4102 17.0685 21.4102C17.5554 21.4102 17.7666 19.2358 17.3038 18.9881C17.0395 18.8466 17.0429 18.846 16.8386 19.0718ZM18.2661 19.3799C18.297 19.7539 18.3203 19.7772 18.6943 19.8081L19.0898 19.8409V19.4126V18.9844H18.6616H18.2333L18.2661 19.3799ZM20.6719 19.4126V19.8409L21.0674 19.8081C21.4414 19.7772 21.4647 19.7539 21.4956 19.3799L21.5284 18.9844H21.1001H20.6719V19.4126ZM21.7477 19.9547C21.5188 20.1836 21.6041 20.4729 21.9375 20.5987C22.2462 20.7152 22.2539 20.7355 22.2539 21.4333V22.1484H19.6335C16.749 22.1484 16.464 22.2105 16.7648 22.7725C16.9421 23.1037 22.8117 23.1185 22.9885 22.7882C23.1305 22.523 23.1305 20.2974 22.9885 20.0321C22.8611 19.7942 21.9642 19.7382 21.7477 19.9547ZM18.3067 20.7686C17.9011 21.2168 18.2272 21.4102 19.3888 21.4102C20.4485 21.4102 20.6719 21.3337 20.6719 20.9709C20.6719 20.5258 18.6806 20.3554 18.3067 20.7686ZM0.18457 21.4186C0.0174023 21.5159 0 21.7506 0 23.9045V26.2828L0.358594 26.6414L0.717188 27H3.09709C5.40074 27 5.48068 26.9929 5.59459 26.7803C5.88168 26.2439 5.57423 26.1632 3.12325 26.1319L0.896484 26.1035L0.867902 23.8946C0.835629 21.3952 0.751043 21.0887 0.18457 21.4186ZM26.3672 21.4077C26.2372 21.4898 26.1996 21.9181 26.1562 23.8056L26.1035 26.1035L23.7832 26.1614C22.507 26.1933 21.4561 26.2289 21.4478 26.2405C20.9749 26.9042 21.2846 27 23.9029 27H26.2828L26.6414 26.6414L27 26.2828V23.9029C27 21.6579 26.9884 21.5169 26.796 21.4138C26.5513 21.283 26.5647 21.2831 26.3672 21.4077ZM15.0469 22.2188C14.7637 22.5019 14.9866 22.9922 15.3984 22.9922H15.8203V22.5703C15.8203 22.1585 15.33 21.9356 15.0469 22.2188Z" fill="#FFD929"/>
</svg>
