<svg width="100" height="96" viewBox="0 0 100 96" fill="none" xmlns="http://www.w3.org/2000/svg">
<path fill-rule="evenodd" clip-rule="evenodd" d="M82.799 0.388562C82.6464 0.540901 82.1441 1.29063 81.6827 2.05432L80.8439 3.44292L78.9049 3.57413C75.9902 3.77153 75.5908 4.44709 77.2154 6.43188C77.7365 7.06836 78.2864 7.74671 78.4378 7.93952C78.6746 8.24141 78.6489 8.53891 78.2529 10.0755C77.4866 13.0473 78.0764 13.5597 80.9121 12.3859L82.6327 11.6736L84.1618 12.6718C86.7626 14.3697 87.5019 13.9378 87.2321 10.8786L87.0826 9.18376L88.0036 8.38617C90.9972 5.79421 90.9577 5.19921 87.7412 4.41618L85.9797 3.98748L85.3612 2.37416C84.4998 0.127352 83.6887 -0.501147 82.799 0.388562ZM84.9744 6.27715C85.3953 6.394 85.8679 6.49011 86.0248 6.4907C86.1815 6.4913 85.9349 6.81293 85.4765 7.20534C84.7076 7.86335 84.643 7.99476 84.643 8.90022C84.643 10.0238 84.6316 10.0304 83.6913 9.44916C82.9866 9.01367 82.4622 9.03999 81.2122 9.57318C80.9111 9.70159 80.8939 9.64177 81.0626 9.05355C81.3733 7.97063 81.2875 7.49008 80.6383 6.67016L80.0234 5.89371H81.0024C82.0339 5.89371 82.4963 5.58066 83.052 4.50671C83.3028 4.02137 83.3096 4.02636 83.7573 5.04069C84.1453 5.92023 84.317 6.0947 84.9744 6.27715ZM33.7826 8.54669C30.0393 9.60688 29.4061 10.7879 27.1589 20.8997C26.2386 25.0404 25.4397 28.4746 25.3832 28.531C25.3268 28.5875 22.598 28.0393 19.3196 27.3129C12.4926 25.8003 11.894 25.7696 9.75669 26.8218C5.02859 29.1494 4.67107 36.285 9.16129 38.7031C10.1338 39.2267 10.2859 39.0747 6.19487 41.6681C0.960498 44.9867 -0.00199088 46.2283 3.0881e-06 49.6613C0.00119947 51.9004 0.132403 52.2012 3.24 57.0976C6.35698 62.009 5.9843 61.8451 9.27096 59.7516L11.1652 58.5451L11.2657 74.2422C11.3598 88.9453 11.39 90.0027 11.7391 90.9365C12.4685 92.8862 13.6202 94.1769 15.5306 95.1846L16.5489 95.722H40.8754H65.2018L66.1491 95.2845C67.5622 94.6319 69.1399 93.0363 69.813 91.5789L70.3861 90.3383L70.4411 73.0763L70.4964 55.8143L70.0715 55.4297C69.6573 55.055 68.969 55.0424 43.3134 54.9453L16.9804 54.8456L39.3962 40.6061C63.3025 25.4196 62.7093 25.8147 62.7093 25.0783C62.7093 24.328 57.8381 16.8003 56.6772 15.7565C53.6449 13.0303 50.9158 13.2704 45.3977 16.7491C43.4039 18.0059 41.7727 18.9586 41.7727 18.8661C41.7727 18.7736 41.9178 17.9959 42.0953 17.1381C43.2115 11.7398 38.7588 7.13755 33.7826 8.54669ZM66.3433 10.68C65.2056 11.3737 64.9603 12.8355 65.8119 13.8475C67.4663 15.8135 70.5656 13.7519 69.3857 11.4702C68.8001 10.3377 67.4711 9.99251 66.3433 10.68ZM37.1431 11.1883C38.7386 11.8549 39.7885 13.4082 39.8022 15.1228C39.8124 16.4167 38.8553 20.888 38.5261 21.0842C38.3925 21.1637 36.0402 22.6614 33.2987 24.4121C30.557 26.163 28.291 27.5723 28.2629 27.5442C28.1961 27.4774 30.9281 15.2652 31.2999 13.9683C31.9827 11.5877 34.8422 10.2272 37.1431 11.1883ZM67.6943 12.4738C67.6943 12.5835 67.6045 12.6732 67.4949 12.6732C67.3852 12.6732 67.2955 12.5835 67.2955 12.4738C67.2955 12.3641 67.3852 12.2744 67.4949 12.2744C67.6045 12.2744 67.6943 12.3641 67.6943 12.4738ZM97.1053 13.154C96.13 13.5817 95.7095 14.1992 95.7095 15.203C95.7095 17.3935 98.7701 18.0886 99.7738 16.126C100.647 14.4193 98.8309 12.397 97.1053 13.154ZM81.7685 14.2498C81.5793 14.4588 81.2877 15.1543 81.1206 15.7952C79.8188 20.7883 76.0669 23.1427 70.5067 22.4562C69.3437 22.3126 68.0701 22.1533 67.6765 22.1021C66.8059 21.989 66.2985 22.4119 66.2985 23.2508C66.2985 25.5004 74.4947 25.6803 78.4677 23.5178C82.3268 21.4174 85.4956 13.8943 82.5304 13.8726C82.3007 13.871 81.9577 14.0407 81.7685 14.2498ZM54.0356 16.9339C54.5839 17.1915 55.1805 17.572 55.3612 17.7794C55.9595 18.4665 59.7367 24.4825 59.6771 24.6538C59.629 24.7921 42.4099 35.8395 41.3467 36.4142C41.054 36.5723 34.6967 27.034 34.7619 26.5347C34.786 26.3514 49.0967 17.2711 50.0476 16.8358C51.185 16.315 52.8025 16.3549 54.0356 16.9339ZM90.2949 23.041C90.0586 23.1364 89.4363 23.9302 88.9121 24.8049L87.9588 26.3957L86.1221 26.4635C83.2059 26.5712 82.7437 27.3466 84.3937 29.3625C84.9148 29.999 85.4599 30.6716 85.6053 30.8572C85.8276 31.1411 85.8037 31.4351 85.4557 32.7036C84.5686 35.9374 85.0583 36.4581 87.9215 35.3247L89.7838 34.5877L91.3692 35.5943C93.9809 37.2523 94.5335 36.9286 94.3634 33.841L94.2549 31.8745L95.6487 30.7982C98.0775 28.9221 97.8993 28.0527 94.9327 27.3069C92.8609 26.7863 93.1911 27.0784 92.4254 25.0873C92.0725 24.1696 91.6039 23.311 91.3643 23.1431C90.8797 22.8038 90.8825 22.804 90.2949 23.041ZM91.4831 28.8692C91.6143 28.9542 92.0735 29.1213 92.5036 29.2401L93.2856 29.4564L92.5535 30.1272C91.8952 30.7302 91.8213 30.8999 91.8213 31.8051C91.8213 32.9584 91.8442 32.9419 90.9786 32.4143C90.1906 31.9337 89.7146 31.9154 88.7284 32.3276C88.0174 32.6247 87.9869 32.6221 88.1255 32.2777C88.5683 31.1774 88.4903 30.4514 87.8415 29.6321L87.2016 28.8244H88.0291C89.0971 28.8244 89.4815 28.605 90.0309 27.683L90.4793 26.9301L90.8622 27.8224C91.0725 28.3131 91.3521 28.7841 91.4831 28.8692ZM35.7311 32.8123C37.366 35.3895 38.7647 37.5998 38.8397 37.724C39.0094 38.0058 28.2462 44.8955 28.0226 44.6483C27.5397 44.1143 21.829 34.9177 21.8818 34.7594C21.9841 34.4527 32.4877 27.8347 32.6297 27.9875C32.7007 28.064 34.0963 30.2351 35.7311 32.8123ZM69.5038 28.0323C64.7579 29.0269 60.3451 32.2181 57.2973 36.8596C56.0269 38.7942 55.9239 39.187 56.528 39.7912C57.4157 40.6789 57.9001 40.4029 59.3738 38.1699C64.0026 31.1563 70.7131 28.7199 78.4316 31.2502C80.7755 32.0187 82.1621 31.4374 81.3196 30.0397C80.4423 28.5839 72.9482 27.3105 69.5038 28.0323ZM17.9992 29.5539C22.0912 30.4454 23.1825 30.7471 22.9841 30.9322C22.7765 31.1262 16.2826 35.2246 13.418 36.9693C12.7578 37.3717 12.5897 37.3952 11.8228 37.194C7.30371 36.0074 7.406 29.7214 11.9628 28.612C12.2918 28.5318 12.6059 28.4543 12.6607 28.4395C12.7155 28.4248 15.1179 28.9262 17.9992 29.5539ZM22.8471 41.1335C25.2464 44.8971 25.9391 46.1258 25.7587 46.2975C25.6285 46.4213 21.5737 49.0288 16.7483 52.0918C11.9229 55.1547 7.74139 57.8141 7.45585 58.0015L6.93702 58.3425L4.87585 55.0985C2.01092 50.5893 1.69528 48.9906 3.25037 46.8604C3.74169 46.187 19.3808 35.9352 19.6195 36.1301C19.6631 36.1655 21.1155 38.4171 22.8471 41.1335ZM46.6355 39.5878C45.2489 40.1481 44.9353 41.9967 46.0397 43.1012C47.0357 44.0972 48.392 43.9675 49.2845 42.7913C50.5308 41.1485 48.5878 38.799 46.6355 39.5878ZM74.075 39.7912C73.6127 40.2534 73.601 40.5543 73.9667 42.5827L74.2365 44.0782L72.8596 45.5025C70.7456 47.6897 70.9847 48.39 73.9898 48.8135L75.7698 49.0643L76.5674 50.5831C77.5807 52.5129 77.7895 52.752 78.4617 52.752C79.1339 52.752 79.3426 52.5129 80.3559 50.5831L81.1535 49.0643L82.9481 48.8153C85.907 48.4043 86.1516 47.6604 84.0428 45.4854L82.645 44.0439L82.9597 42.3843C83.5417 39.3168 82.9726 38.8586 80.2433 40.1964L78.4547 41.0729L76.7604 40.2326C74.8293 39.2749 74.6249 39.2412 74.075 39.7912ZM62.8796 42.1953C57.8859 42.8798 51.5523 47.6526 53.1004 49.5644C53.7634 50.3831 54.3261 50.1532 56.146 48.3198C59.3756 45.066 62.8004 44.0595 68.0558 44.8194C69.8673 45.0812 70.4858 44.8108 70.4858 43.757C70.4858 42.5269 66.4725 41.703 62.8796 42.1953ZM79.3861 43.4094L80.3105 42.9604L80.1777 43.9608C80.0521 44.9083 80.0824 45.0026 80.752 45.7438L81.459 46.5264L80.5163 46.6987C79.614 46.8634 79.0932 47.3264 78.5747 48.4247C78.4868 48.6113 78.4366 48.6113 78.3486 48.4247C77.8438 47.3551 77.2996 46.859 76.4242 46.6704L75.4992 46.471L76.1892 45.7192C76.8416 45.0084 76.8719 44.9129 76.7461 43.964L76.6129 42.9604L77.5373 43.4094L78.4617 43.8587L79.3861 43.4094ZM92.9592 43.3835C91.6793 44.3903 91.9427 46.2913 93.4651 47.0353C95.5837 48.0703 97.4752 45.2764 95.7939 43.5951C95.0348 42.8358 93.775 42.7419 92.9592 43.3835ZM94.4134 45.1749C94.4134 45.2846 94.3739 45.3743 94.3255 45.3743C94.277 45.3743 94.1821 45.2846 94.1143 45.1749C94.0465 45.0652 94.0862 44.9755 94.2023 44.9755C94.3183 44.9755 94.4134 45.0652 94.4134 45.1749ZM49.4123 49.7511C48.6317 50.227 48.3527 50.7209 48.3527 51.627C48.3527 53.7147 51.2645 54.4706 52.3636 52.6682C53.5566 50.7115 51.3746 48.5547 49.4123 49.7511ZM50.7455 51.5556C50.7455 51.6653 50.6558 51.755 50.5461 51.755C50.4364 51.755 50.3467 51.6653 50.3467 51.5556C50.3467 51.4459 50.4364 51.3562 50.5461 51.3562C50.6558 51.3562 50.7455 51.4459 50.7455 51.5556ZM30.0082 75.4832V93.4289H23.9621C17.1874 93.4289 16.6413 93.3452 15.3703 92.1107C13.8517 90.636 13.9632 92.0226 13.9024 73.8382L13.8481 57.5375H21.9281H30.0082V75.4832ZM45.3618 75.4832V93.4289H38.9811H32.6004V75.4832V57.5375H38.9811H45.3618V75.4832ZM68.05 73.6388C67.988 91.2778 68.0548 90.3072 66.8021 91.7927C65.4977 93.3396 65.6127 93.3223 56.1791 93.3873L47.7546 93.4453V75.4914V57.5375H57.9306H68.1064L68.05 73.6388Z" fill="white" fill-opacity="0.3"/>
</svg>
