<svg width="24" height="24" viewBox="0 0 24 24" fill="none" xmlns="http://www.w3.org/2000/svg">
<path d="M18.6985 15.8543C18.9452 15.8543 19.1451 15.6544 19.1451 15.4078C19.1451 15.1611 18.9452 14.9612 18.6985 14.9612C18.4519 14.9612 18.252 15.1611 18.252 15.4078C18.252 15.6544 18.4519 15.8543 18.6985 15.8543Z" fill="#666666"/>
<path d="M18.6996 13.1759C17.4679 13.1759 16.4668 14.1771 16.4668 15.4087C16.4668 16.6394 17.468 17.6414 18.6996 17.6414H22.7186V13.1759H18.6996ZM18.6996 16.7483C17.9609 16.7483 17.3599 16.1473 17.3599 15.4087C17.3599 14.6701 17.9609 14.069 18.6996 14.069C19.4382 14.069 20.0392 14.6701 20.0392 15.4087C20.0392 16.1473 19.4382 16.7483 18.6996 16.7483Z" fill="#666666"/>
<path d="M18.6969 12.2827H22.7159V10.943C22.7159 9.21935 21.3137 7.81714 19.59 7.81714H4.40715C2.68342 7.81718 1.28125 9.21935 1.28125 10.943V19.8741C1.28125 21.5978 2.68342 23 4.40715 23H19.5901C21.3137 23 22.716 21.5979 22.716 19.8741V18.5345H18.697C16.9733 18.5345 15.5711 17.1323 15.5711 15.4086C15.5711 13.6848 16.9732 12.2827 18.6969 12.2827Z" fill="#666666"/>
<path d="M19.1797 5.33691L19.9933 6.96415C20.8427 7.04989 21.609 7.39464 22.2199 7.92691C21.6197 6.68642 20.5229 5.72898 19.1797 5.33691Z" fill="#666666"/>
<path d="M6.19368 5.13794C4.24225 5.13794 2.55695 6.28557 1.76562 7.93872C2.37471 7.40198 3.14192 7.05454 3.99215 6.96612L7.38775 5.13794H6.19368Z" fill="#666666"/>
<path d="M15.8006 2.69971C14.9878 2.44338 14.1269 2.52468 13.3749 2.92746L5.95312 6.92414H12.1781L17.4367 3.93936C17.0446 3.35523 16.4829 2.91582 15.8006 2.69971Z" fill="#666666"/>
<path d="M18.5745 2.97925L14.2266 5.44722H19.8075L18.5745 2.97925Z" fill="#666666"/>
</svg>
