<svg width="93" height="95" viewBox="0 0 93 95" fill="none" xmlns="http://www.w3.org/2000/svg">
<path fill-rule="evenodd" clip-rule="evenodd" d="M50.3882 0.43186C49.1583 1.00455 50.2216 -0.467764 36.6916 19.3968L24.9251 36.6722L21.5936 36.7227L18.262 36.7731L19.0515 28.828C19.4858 24.4581 19.8441 20.7836 19.8477 20.6623C19.8512 20.541 20.3984 20.1738 21.0636 19.8463C22.3314 19.2221 24.4139 17.4617 24.8514 16.6444C25.2279 15.9409 25.1338 15.9428 30.8894 16.5253C37.0362 17.1474 37.5011 17.0831 37.5011 15.6114C37.5011 14.4383 37.1497 14.3369 30.9957 13.7349C23.8883 13.0396 24.3198 12.9487 22.053 15.6196C21.4435 16.3379 20.7829 16.8498 19.8239 17.3477C17.1358 18.7429 17.3366 18.1193 16.3205 28.2202L15.4701 36.6722L14.6364 36.7272L13.8027 36.7822L15.0609 24.0028C16.3929 10.4713 16.4489 10.1327 17.3875 9.89508C17.6762 9.82208 22.6784 10.2346 28.7382 10.8313C40.6159 12.0006 40.2945 11.9997 40.5798 10.8631C40.9867 9.24233 40.9891 9.24289 29.2002 8.07652C17.0444 6.87392 17.277 6.8834 15.9728 7.53336C13.7593 8.63639 13.7871 8.52754 12.6165 20.6042C12.0966 25.9679 11.6277 30.6282 11.5746 30.9602L11.4782 31.5639L9.48983 31.565C5.5696 31.567 3.50751 33.1736 3.50751 36.226C3.50751 37.2423 3.47742 37.3106 2.86275 37.6905C1.87916 38.2985 0.776134 39.6616 0.353165 40.7921C-0.0241084 41.8004 -0.0268948 42.0125 0.0219594 66.2682L0.0709993 90.7276L0.530934 91.6564C1.11737 92.8406 2.23043 93.9536 3.41463 94.5401L4.34342 95H43.8169H83.2903L84.2594 94.4892C85.49 93.8405 86.4032 92.9273 87.0519 91.6967L87.5627 90.7276L87.6173 83.5542L87.6718 76.381L88.8595 76.2857C90.3004 76.17 91.1356 75.6993 91.7084 74.6798C92.3356 73.5642 92.2679 57.9299 91.6323 57.0724C90.903 56.0885 90.1317 55.7123 88.8437 55.7123H87.6719L87.6173 48.5142C87.5551 40.3164 87.5774 40.4449 85.9041 38.6559C85.0823 37.7774 85.055 37.7108 85.055 36.5815C85.055 33.6793 83.4259 31.8295 80.675 31.6088L79.5348 31.5172L81.5293 28.6031C84.7535 23.8917 85.0477 22.5219 83.279 20.4556C82.6099 19.6739 55.3544 0.972785 53.9642 0.341396C52.8952 -0.143988 51.5522 -0.109995 50.3882 0.43186ZM66.7739 12.2468C74.4276 17.4582 80.8777 21.9349 81.1076 22.1952C81.8993 23.0913 81.7966 23.2962 77.0975 30.1828L72.6692 36.6722L71.7105 36.7283C70.4922 36.7996 70.3894 37.0797 72.9735 33.2858C75.6317 29.3829 75.7106 29.1262 74.8653 27.1395C74.1683 25.5017 73.8705 23.9593 74.0256 22.7907C74.3113 20.6369 74.2872 20.6125 66.7579 15.4849C56.6395 8.59404 56.8245 8.68933 55.1852 9.53025C53.8518 10.2144 52.7878 10.4444 50.8756 10.4622C47.918 10.4897 48.8381 9.44685 38.8904 24.0494L30.2281 36.7651H29.2093H28.1904L29.5683 34.7682C30.326 33.67 35.4379 26.1676 40.9278 18.0965C46.4176 10.0253 51.0781 3.27525 51.2845 3.09655C52.1967 2.30634 52.032 2.209 66.7739 12.2468ZM64.0107 16.9762L71.228 21.8928L71.2398 23.5241C71.2521 25.224 71.6075 26.7988 72.2728 28.1032L72.6451 28.833L70.1842 32.4741C68.8308 34.4765 67.5977 36.2611 67.4441 36.44C67.2061 36.717 66.8253 36.7651 64.8715 36.7651H62.5783V36.2175C62.5783 35.2818 61.6875 32.7945 60.9398 31.6423C55.4683 23.2107 42.7352 25.513 40.5681 35.3255L40.2501 36.7651H36.9167H33.5835L36.146 32.9988C37.5553 30.9275 41.1717 25.6157 44.1822 21.1951L49.6561 13.1572L50.5909 13.2718C51.7894 13.4185 53.8182 13.0899 55.1371 12.5356C55.705 12.2967 56.31 12.092 56.4816 12.0803C56.6531 12.0688 60.0413 14.2719 64.0107 16.9762ZM53.002 29.3487C56.2535 29.9498 59.2563 32.9117 59.7199 35.9756L59.8395 36.7651H51.4613H43.0831L43.1979 36.1614C44.078 31.531 48.434 28.5043 53.002 29.3487ZM11.1752 35.3255C11.0506 36.8527 11.206 36.7651 8.6216 36.7651H6.29387V36.1955C6.29387 34.8012 7.04322 34.3679 9.47088 34.3577L11.2547 34.3502L11.1752 35.3255ZM81.8206 34.9643C82.1065 35.2968 82.2686 35.717 82.2686 36.1253V36.7651H79.0981H75.9276L76.3478 36.1614C76.5789 35.8294 76.9764 35.2786 77.2309 34.9376L77.6936 34.3175L79.5332 34.3803C81.2828 34.4401 81.3945 34.4686 81.8206 34.9643ZM83.1413 39.9692C84.4977 40.7109 84.7695 41.3784 84.8371 44.1337L84.898 46.6102H43.8312H2.76448V44.3932C2.76448 41.4205 3.0994 40.6493 4.71493 39.9016C5.83839 39.3816 82.1873 39.4474 83.1413 39.9692ZM84.8692 52.5448V55.693L77.2996 55.7506L69.73 55.808L68.4955 56.2874C59.9703 59.5978 59.4662 71.3345 67.6815 75.2393C69.7681 76.2311 70.7093 76.3284 78.2284 76.3299L84.8692 76.3314V79.4893V82.6471H51.4465H18.0235L17.6386 83.1366C17.1373 83.7738 17.1527 84.1809 17.7018 84.8194L18.1502 85.3406L51.5096 85.3885L84.8692 85.4365V87.6349C84.8692 90.3141 84.5306 91.1777 83.2048 91.8787L82.3959 92.3065H43.8462H5.29654L4.4924 91.9172C3.1098 91.2479 2.76448 90.4064 2.76448 87.7062V85.4604L6.64625 85.4004C11.0231 85.333 11.3093 85.2477 11.3093 84.0115C11.3093 82.7203 11.0598 82.6471 6.66539 82.6471H2.76448V66.0219V49.3966H43.8169H84.8692V52.5448ZM89.283 65.9754L89.2345 73.4521L80.411 73.5012C74.6299 73.5335 71.2532 73.4813 70.6181 73.35C62.9619 71.7673 62.4498 61.1266 69.9158 58.7591C70.4727 58.5826 72.9978 58.5204 79.9951 58.5111L89.3317 58.4987L89.283 65.9754ZM71.3728 60.5502C66.9388 61.4245 65.3146 67.0926 68.6571 70.0273C73.0183 73.8564 79.3825 69.4942 77.4991 63.9668C76.7202 61.6813 73.8252 60.0667 71.3728 60.5502ZM73.7784 63.6384C75.7326 64.637 75.3116 67.9088 73.1457 68.5578C70.7708 69.2693 68.7553 66.7275 70.0328 64.632C70.8945 63.2184 72.252 62.8582 73.7784 63.6384Z" fill="white" fill-opacity="0.3"/>
</svg>
