<svg width="143" height="98" viewBox="0 0 143 98" fill="none" xmlns="http://www.w3.org/2000/svg">
<path d="M134.19 98H16.0455C9.20663 91.6635 4.01863 83.2513 1.62599 73.9257C0.451577 69.3482 -0.0851675 64.5877 0.0109455 59.8435C0.0564115 57.5998 0.391885 55.4004 0.505408 53.1805C0.625428 50.8337 1.10507 48.5069 1.91916 46.3234C2.3932 45.052 3.00094 43.7986 3.95367 42.8835C4.90637 41.9683 6.26143 41.4405 7.49707 41.8028C9.73119 42.4578 10.7139 45.5091 13.0975 45.8277C15.1153 46.0975 16.642 43.6089 16.4993 41.4424C16.3566 39.276 15.1539 37.3852 14.2425 35.4437C10.5794 27.6403 11.721 17.55 17.0189 10.9029C22.3168 4.25575 31.4612 1.44058 39.2592 4.05607C44.4633 5.80155 48.8366 9.6371 53.9084 11.7811C61.6971 15.0737 70.5246 14.1198 78.5916 11.7097C86.6586 9.29951 94.32 5.5097 102.394 3.12506C110.467 0.740432 119.308 -0.156869 127.069 3.20947C133.823 6.13916 139.281 12.3001 141.647 19.6647C144.012 27.0293 143.244 35.4711 139.596 42.2118C137.609 45.8823 135.919 50.6194 136.751 54.7649C137.582 58.9104 139.46 62.7309 140.557 66.8054C143.39 77.3301 141.423 90.2375 134.19 98Z" fill="#F79D42"/>
<g style="mix-blend-mode:multiply" opacity="0.3">
<path d="M132.758 82.7313C132.758 79.115 121.977 76.1833 108.679 76.1833C95.3805 76.1833 84.6001 79.115 84.6001 82.7313C84.6007 83.0658 84.316 83.3272 83.9827 83.2981C81.1436 83.0499 78.0326 82.9119 74.7669 82.9119C72.616 82.9119 70.5326 82.9721 68.5484 83.0835C68.5752 82.976 68.5893 82.8678 68.5893 82.7589C68.5893 79.39 55.6201 76.659 39.6218 76.659C23.6235 76.659 10.6543 79.39 10.6543 82.7589C10.6543 85.0497 16.6517 87.0452 25.5198 88.088C26.0793 88.1538 26.1858 88.9134 25.6679 89.1352C24.0949 89.8091 23.2112 90.5671 23.2112 91.3687C23.2112 94.169 32.7906 97.3678 46.0889 97.3678C56.5999 97.3678 66.7329 95.0204 70.0178 93.0431C70.1084 92.9885 70.209 92.9611 70.3148 92.9653C71.758 93.0222 73.2452 93.0528 74.7669 93.0528C77.2214 93.0528 79.5899 92.9753 81.8209 92.8316C81.91 92.8259 81.9956 92.8423 82.0765 92.8798C85.8639 94.6342 94.2542 95.8547 104.003 95.8547C117.301 95.8547 128.081 93.5846 128.081 90.7843C128.081 89.9447 127.109 89.1532 125.392 88.4561C124.907 88.2591 124.96 87.557 125.466 87.4231C129.962 86.2338 132.758 84.5717 132.758 82.7313Z" fill="#777777"/>
</g>
<path d="M56.4031 76.7237C55.0241 76.2332 53.1246 75.9249 51.0316 75.915C48.9386 75.9052 47.0484 76.1956 45.6844 76.6732L43.4653 76.6627L43.4947 78.5532C43.5177 80.03 46.9292 81.2431 51.1147 81.2629C55.3001 81.2826 58.6745 80.1014 58.6516 78.6247L58.6222 76.7342L56.4031 76.7237Z" fill="#E19431"/>
<path d="M58.6226 76.756C58.6338 75.2794 55.2499 74.0566 51.0644 74.0249C46.8789 73.9931 43.4768 75.1643 43.4656 76.6408C43.4544 78.1174 46.8383 79.3402 51.0238 79.3719C55.2093 79.4037 58.6114 78.2325 58.6226 76.756Z" fill="#F4DA5C"/>
<path d="M56.0839 76.4262C56.0914 75.4442 53.841 74.6311 51.0576 74.6099C48.2741 74.5888 46.0117 75.3677 46.0042 76.3496C45.9968 77.3315 48.2471 78.1447 51.0306 78.1658C53.814 78.187 56.0765 77.4081 56.0839 76.4262Z" fill="#D68D2F"/>
<path d="M51.0161 75.0321C53.6042 75.0443 55.7446 75.7429 56.045 76.6303C56.0689 76.5586 56.0847 76.486 56.0836 76.4118C56.0683 75.4297 53.7996 74.623 51.0161 74.6098C48.2328 74.5967 45.9887 75.3822 46.004 76.3643C46.005 76.4332 46.0199 76.501 46.0426 76.568C46.335 75.6907 48.4431 75.0199 51.0161 75.0321Z" fill="#BD7C29"/>
<path d="M44.9665 79.5134C43.5875 79.0229 41.6881 78.7146 39.5951 78.7047C37.502 78.6948 35.6119 78.9853 34.2479 79.4628L32.0288 79.4524L32.0582 81.3429C32.0811 82.8196 35.4927 84.0328 39.6782 84.0526C43.8636 84.0723 47.238 82.8911 47.215 81.4144L47.1857 79.5238L44.9665 79.5134Z" fill="#E19431"/>
<path d="M47.1856 79.5456C47.1968 78.0691 43.8129 76.8463 39.6274 76.8145C35.4419 76.7827 32.0398 77.954 32.0286 79.4305C32.0174 80.9071 35.4013 82.1298 39.5868 82.1616C43.7723 82.1934 47.1744 81.0222 47.1856 79.5456Z" fill="#F4DA5C"/>
<path d="M44.6469 79.2164C44.6544 78.2344 42.404 77.4213 39.6206 77.4002C36.8371 77.379 34.5747 78.1579 34.5672 79.1398C34.5598 80.1218 36.8101 80.9349 39.5936 80.9561C42.377 80.9772 44.6395 80.1983 44.6469 79.2164Z" fill="#D68D2F"/>
<path d="M39.5796 77.8217C42.1677 77.8339 44.3081 78.5326 44.6085 79.42C44.6324 79.3483 44.6482 79.2757 44.647 79.2015C44.6318 78.2194 42.363 77.4126 39.5796 77.3995C36.7962 77.3864 34.5522 78.1719 34.5675 79.1539C34.5685 79.2229 34.5834 79.2907 34.606 79.3577C34.8985 78.4804 37.0066 77.8096 39.5796 77.8217Z" fill="#BD7C29"/>
<path d="M33.6106 81.8387C32.2316 81.3483 30.3321 81.04 28.2391 81.0301C26.1461 81.0202 24.2559 81.3107 22.892 81.7882L20.6729 81.7777L20.7022 83.6683C20.7252 85.145 24.1367 86.3582 28.3222 86.3779C32.5077 86.3977 35.882 85.2165 35.8591 83.7397L35.8297 81.8492L33.6106 81.8387Z" fill="#E19431"/>
<path d="M35.8297 81.871C35.8409 80.3945 32.457 79.1717 28.2715 79.1399C24.086 79.1081 20.6839 80.2793 20.6726 81.7559C20.6614 83.2325 24.0454 84.4552 28.2309 84.487C32.4164 84.5188 35.8184 83.3476 35.8297 81.871Z" fill="#F4DA5C"/>
<path d="M33.2905 81.5412C33.2979 80.5593 31.0476 79.7461 28.2641 79.725C25.4807 79.7038 23.2182 80.4827 23.2108 81.4647C23.2033 82.4466 25.4537 83.2598 28.2371 83.2809C31.0205 83.302 33.283 82.5231 33.2905 81.5412Z" fill="#D68D2F"/>
<path d="M28.2232 80.1471C30.8112 80.1593 32.9516 80.858 33.252 81.7454C33.2759 81.6737 33.2918 81.6011 33.2906 81.5269C33.2753 80.5448 31.0066 79.738 28.2232 79.7249C25.4398 79.7118 23.1958 80.4973 23.211 81.4793C23.2121 81.5483 23.2269 81.616 23.2496 81.683C23.5421 80.8058 25.6501 80.135 28.2232 80.1471Z" fill="#BD7C29"/>
<path d="M48.8103 74.9948C47.4313 74.5043 45.5318 74.196 43.4388 74.1862C41.3458 74.1763 39.4556 74.4667 38.0917 74.9443L35.8726 74.9338L35.9019 76.8243C35.9249 78.3011 39.3365 79.5143 43.5219 79.534C47.7074 79.5537 51.0817 78.3726 51.0588 76.8958L51.0294 75.0053L48.8103 74.9948Z" fill="#E19431"/>
<path d="M51.0294 75.0271C51.0406 73.5505 47.6567 72.3278 43.4712 72.296C39.2857 72.2642 35.8836 73.4354 35.8724 74.912C35.8611 76.3885 39.2451 77.6113 43.4306 77.6431C47.6161 77.6749 51.0182 76.5036 51.0294 75.0271Z" fill="#F4DA5C"/>
<path d="M48.4911 74.6983C48.4986 73.7164 46.2482 72.9032 43.4648 72.8821C40.6814 72.8609 38.4189 73.6398 38.4115 74.6218C38.404 75.6037 40.6544 76.4169 43.4378 76.438C46.2212 76.4591 48.4837 75.6803 48.4911 74.6983Z" fill="#D68D2F"/>
<path d="M43.4229 73.3032C46.0109 73.3154 48.1513 74.014 48.4517 74.9015C48.4756 74.8298 48.4915 74.7572 48.4903 74.6829C48.475 73.7008 46.2063 72.8941 43.4229 72.881C40.6395 72.8678 38.3955 73.6533 38.4107 74.6354C38.4118 74.7043 38.4266 74.7721 38.4493 74.8391C38.7418 73.9619 40.8498 73.291 43.4229 73.3032Z" fill="#BD7C29"/>
<path d="M35.5227 78.2192C34.1437 77.7287 32.2442 77.4204 30.1512 77.4105C28.0582 77.4007 26.168 77.6911 24.8041 78.1686L22.585 78.1582L22.6143 80.0487C22.6373 81.5255 26.0489 82.7386 30.2343 82.7584C34.4198 82.7781 37.7941 81.5969 37.7712 80.1202L37.7418 78.2296L35.5227 78.2192Z" fill="#E19431"/>
<path d="M37.7428 78.2519C37.754 76.7754 34.37 75.5526 30.1845 75.5208C25.9991 75.489 22.5969 76.6603 22.5857 78.1368C22.5745 79.6134 25.9584 80.8361 30.1439 80.8679C34.3294 80.8997 37.7315 79.7285 37.7428 78.2519Z" fill="#F4DA5C"/>
<path d="M35.2045 77.9226C35.212 76.9407 32.9616 76.1275 30.1782 76.1064C27.3947 76.0852 25.1323 76.8641 25.1248 77.8461C25.1174 78.828 27.3677 79.6412 30.1512 79.6623C32.9346 79.6834 35.1971 78.9046 35.2045 77.9226Z" fill="#D68D2F"/>
<path d="M30.1363 76.528C32.7243 76.5402 34.8647 77.2389 35.1651 78.1263C35.189 78.0546 35.2048 77.982 35.2037 77.9078C35.1884 76.9257 32.9197 76.1189 30.1363 76.1058C27.3529 76.0927 25.1088 76.8782 25.1241 77.8602C25.1252 77.9292 25.14 77.997 25.1627 78.064C25.4552 77.1867 27.5632 76.5159 30.1363 76.528Z" fill="#BD7C29"/>
<path d="M38.3518 74.0492C36.9728 73.5587 35.0733 73.2504 32.9803 73.2405C30.8873 73.2307 28.9971 73.5211 27.6332 73.9987L25.4141 73.9882L25.4434 75.8787C25.4664 77.3555 28.878 78.5686 33.0634 78.5884C37.2489 78.6081 40.6232 77.4269 40.6003 75.9502L40.5709 74.0597L38.3518 74.0492Z" fill="#E19431"/>
<path d="M40.5699 74.0815C40.5811 72.6049 37.1972 71.3821 33.0117 71.3504C28.8262 71.3186 25.4241 72.4898 25.4129 73.9663C25.4017 75.4429 28.7856 76.6657 32.9711 76.6974C37.1566 76.7292 40.5587 75.558 40.5699 74.0815Z" fill="#F4DA5C"/>
<path d="M38.0317 73.7521C38.0391 72.7702 35.7888 71.9571 33.0053 71.9359C30.2219 71.9148 27.9594 72.6937 27.952 73.6756C27.9445 74.6575 30.1949 75.4707 32.9783 75.4918C35.7618 75.513 38.0242 74.7341 38.0317 73.7521Z" fill="#D68D2F"/>
<path d="M32.9644 72.358C35.5524 72.3703 37.6928 73.0689 37.9932 73.9563C38.0171 73.8846 38.033 73.812 38.0318 73.7378C38.0165 72.7557 35.7478 71.9489 32.9644 71.9358C30.181 71.9227 27.937 72.7082 27.9522 73.6903C27.9533 73.7592 27.9681 73.827 27.9908 73.894C28.2833 73.0167 30.3913 72.3459 32.9644 72.358Z" fill="#BD7C29"/>
<path d="M35.5002 70.6438C34.1212 70.1533 32.2218 69.845 30.1288 69.8351C28.0357 69.8253 26.1456 70.1157 24.7816 70.5933L22.5625 70.5828L22.5919 72.4733C22.6148 73.9501 26.0264 75.1632 30.2118 75.183C34.3973 75.2027 37.7717 74.0215 37.7487 72.5448L37.7193 70.6543L35.5002 70.6438Z" fill="#E19431"/>
<path d="M37.7183 70.6766C37.7296 69.2 34.3456 67.9772 30.1601 67.9455C25.9746 67.9137 22.5725 69.0849 22.5613 70.5614C22.5501 72.038 25.934 73.2608 30.1195 73.2925C34.305 73.3243 37.7071 72.1531 37.7183 70.6766Z" fill="#F4DA5C"/>
<path d="M35.1801 70.3468C35.1876 69.3648 32.9372 68.5517 30.1538 68.5305C27.3703 68.5094 25.1079 69.2883 25.1004 70.2702C25.093 71.2521 27.3433 72.0653 30.1268 72.0864C32.9102 72.1076 35.1727 71.3287 35.1801 70.3468Z" fill="#D68D2F"/>
<path d="M30.1128 68.9527C32.7009 68.9649 34.8413 69.6635 35.1417 70.5509C35.1656 70.4792 35.1814 70.4066 35.1802 70.3324C35.165 69.3503 32.8962 68.5436 30.1128 68.5304C27.3294 68.5173 25.0854 69.3028 25.1007 70.2849C25.1017 70.3538 25.1166 70.4216 25.1392 70.4886C25.4317 69.6113 27.5398 68.9405 30.1128 68.9527Z" fill="#BD7C29"/>
<path d="M29.0973 70.9717C30.2394 70.9302 30.9687 70.6633 31.0952 70.2546C31.1013 70.235 31.1419 70.22 31.1915 70.22H32.0923C32.1459 70.22 32.1894 70.2027 32.1894 70.1813V70.0375C32.1894 70.0162 32.1459 69.9988 32.0923 69.9988H31.1789C31.1304 69.9988 31.0904 69.9845 31.0829 69.9654C31.0252 69.8174 30.8848 69.7014 30.6914 69.6118C30.6369 69.5865 30.6805 69.5476 30.764 69.5476H32.0923C32.1459 69.5476 32.1894 69.5303 32.1894 69.5089V69.3651C32.1894 69.3438 32.1459 69.3264 32.0923 69.3264H28.0571C28.0034 69.3264 27.96 69.3438 27.96 69.3651V69.5752C27.96 69.5966 28.0034 69.614 28.0571 69.614H28.6732C29.4879 69.614 30.0059 69.7254 30.1863 69.9483C30.2065 69.9732 30.1588 69.9988 30.0932 69.9988H28.0571C28.0034 69.9988 27.96 70.0162 27.96 70.0375V70.1813C27.96 70.2027 28.0034 70.22 28.0571 70.22H30.1398C30.1999 70.22 30.2458 70.2417 30.236 70.2653C30.1202 70.5448 29.5428 70.7243 28.5125 70.7243H28.0571C28.0034 70.7243 27.96 70.7416 27.96 70.763V70.9844C27.96 70.9936 27.9683 71.0025 27.9832 71.0095C28.7979 71.3917 29.4561 71.7314 30.1273 72.0859C30.1408 72.086 30.1538 72.0868 30.1674 72.0868C30.4695 72.0883 30.7636 72.0786 31.0507 72.062C30.3629 71.6934 29.6754 71.3348 29.0317 71.0352C28.9801 71.0113 29.0184 70.9745 29.0973 70.9717Z" fill="#F4DA5C"/>
<path d="M117.897 77.1998C116.518 76.7093 114.619 76.401 112.526 76.3911C110.433 76.3812 108.543 76.6717 107.179 77.1492L104.959 77.1388L104.989 79.0293C105.012 80.506 108.423 81.7192 112.609 81.7389C116.794 81.7587 120.169 80.5775 120.146 79.1007L120.116 77.2102L117.897 77.1998Z" fill="#E19431"/>
<path d="M120.116 77.232C120.127 75.7555 116.744 74.5327 112.558 74.5009C108.373 74.4691 104.97 75.6404 104.959 77.1169C104.948 78.5935 108.332 79.8162 112.517 79.848C116.703 79.8798 120.105 78.7086 120.116 77.232Z" fill="#F4DA5C"/>
<path d="M117.578 76.9022C117.585 75.9203 115.335 75.1071 112.551 75.086C109.768 75.0649 107.505 75.8437 107.498 76.8257C107.49 77.8076 109.741 78.6208 112.524 78.6419C115.308 78.6631 117.57 77.8842 117.578 76.9022Z" fill="#D68D2F"/>
<path d="M112.51 75.5081C115.098 75.5203 117.239 76.219 117.539 77.1064C117.563 77.0347 117.579 76.9621 117.578 76.8879C117.562 75.9058 115.294 75.099 112.51 75.0859C109.727 75.0728 107.483 75.8583 107.498 76.8403C107.499 76.9093 107.514 76.9771 107.537 77.0441C107.829 76.1668 109.937 75.496 112.51 75.5081Z" fill="#BD7C29"/>
<path d="M106.46 79.9888C105.081 79.4984 103.182 79.19 101.089 79.1802C98.9957 79.1703 97.1055 79.4608 95.7416 79.9383L93.5225 79.9278L93.5518 81.8183C93.5748 83.2951 96.9864 84.5083 101.172 84.528C105.357 84.5477 108.732 83.3666 108.709 81.8898L108.679 79.9993L106.46 79.9888Z" fill="#E19431"/>
<path d="M108.679 80.0211C108.69 78.5445 105.307 77.3218 101.121 77.29C96.9356 77.2582 93.5335 78.4294 93.5223 79.906C93.511 81.3825 96.895 82.6053 101.08 82.6371C105.266 82.6689 108.668 81.4977 108.679 80.0211Z" fill="#F4DA5C"/>
<path d="M106.141 79.6913C106.149 78.7094 103.898 77.8962 101.115 77.8751C98.3313 77.8539 96.0688 78.6328 96.0614 79.6147C96.0539 80.5967 98.3043 81.4098 101.088 81.431C103.871 81.4521 106.134 80.6732 106.141 79.6913Z" fill="#D68D2F"/>
<path d="M101.073 78.2972C103.661 78.3094 105.802 79.0081 106.102 79.8955C106.126 79.8238 106.142 79.7512 106.141 79.6769C106.125 78.6949 103.857 77.8881 101.073 77.875C98.2899 77.8618 96.0459 78.6473 96.0611 79.6294C96.0622 79.6983 96.077 79.7661 96.0997 79.8331C96.3922 78.9559 98.5002 78.2851 101.073 78.2972Z" fill="#BD7C29"/>
<path d="M95.1047 82.3147C93.7257 81.8242 91.8263 81.5159 89.7332 81.506C87.6402 81.4962 85.7501 81.7866 84.3861 82.2642L82.167 82.2537L82.1964 84.1442C82.2193 85.621 85.6309 86.8341 89.8163 86.8539C94.0018 86.8736 97.3762 85.6924 97.3532 84.2157L97.3238 82.3252L95.1047 82.3147Z" fill="#E19431"/>
<path d="M97.3233 82.347C97.3345 80.8704 93.9506 79.6477 89.7651 79.6159C85.5796 79.5841 82.1775 80.7553 82.1663 82.2319C82.1551 83.7084 85.539 84.9312 89.7245 84.963C93.91 84.9947 97.3121 83.8235 97.3233 82.347Z" fill="#F4DA5C"/>
<path d="M94.7846 82.0177C94.7921 81.0357 92.5417 80.2226 89.7583 80.2014C86.9748 80.1803 84.7124 80.9592 84.7049 81.9411C84.6975 82.923 86.9478 83.7362 89.7313 83.7573C92.5147 83.7785 94.7771 82.9996 94.7846 82.0177Z" fill="#D68D2F"/>
<path d="M89.7168 80.6235C92.3049 80.6358 94.4453 81.3344 94.7457 82.2218C94.7696 82.1501 94.7854 82.0775 94.7843 82.0033C94.769 81.0212 92.5002 80.2144 89.7168 80.2013C86.9334 80.1882 84.6894 80.9737 84.7047 81.9558C84.7057 82.0247 84.7206 82.0925 84.7433 82.1595C85.0357 81.2822 87.1438 80.6114 89.7168 80.6235Z" fill="#BD7C29"/>
<path d="M110.304 75.4703C108.925 74.9798 107.025 74.6715 104.932 74.6616C102.839 74.6518 100.949 74.9422 99.5853 75.4197L97.3662 75.4093L97.3956 77.2998C97.4185 78.7765 100.83 79.9897 105.016 80.0095C109.201 80.0292 112.575 78.848 112.552 77.3713L112.523 75.4807L110.304 75.4703Z" fill="#E19431"/>
<path d="M112.523 75.5025C112.534 74.026 109.15 72.8032 104.965 72.7714C100.779 72.7396 97.3772 73.9109 97.366 75.3874C97.3548 76.864 100.739 78.0867 104.924 78.1185C109.11 78.1503 112.512 76.9791 112.523 75.5025Z" fill="#F4DA5C"/>
<path d="M109.984 75.1727C109.992 74.1908 107.741 73.3777 104.958 73.3565C102.175 73.3354 99.9121 74.1143 99.9046 75.0962C99.8972 76.0781 102.148 76.8913 104.931 76.9124C107.714 76.9336 109.977 76.1547 109.984 75.1727Z" fill="#D68D2F"/>
<path d="M104.917 73.7786C107.505 73.7909 109.645 74.4895 109.946 75.3769C109.97 75.3052 109.986 75.2326 109.984 75.1584C109.969 74.1763 107.7 73.3695 104.917 73.3564C102.134 73.3433 99.8896 74.1288 99.9049 75.1109C99.9059 75.1798 99.9208 75.2476 99.9434 75.3146C100.236 74.4373 102.344 73.7665 104.917 73.7786Z" fill="#BD7C29"/>
<path d="M97.0178 78.6946C95.6388 78.2042 93.7394 77.8959 91.6463 77.886C89.5533 77.8761 87.6631 78.1666 86.2992 78.6441L84.0801 78.6336L84.1095 80.5242C84.1324 82.0009 87.544 83.2141 91.7294 83.2338C95.9149 83.2536 99.2892 82.0724 99.2663 80.5956L99.2369 78.7051L97.0178 78.6946Z" fill="#E19431"/>
<path d="M99.2369 78.7274C99.2481 77.2508 95.8642 76.0281 91.6787 75.9963C87.4932 75.9645 84.0911 77.1357 84.0799 78.6123C84.0687 80.0888 87.4526 81.3116 91.6381 81.3434C95.8236 81.3752 99.2257 80.204 99.2369 78.7274Z" fill="#F4DA5C"/>
<path d="M96.6987 78.3976C96.7061 77.4157 94.4558 76.6025 91.6723 76.5814C88.8889 76.5602 86.6264 77.3391 86.619 78.321C86.6115 79.303 88.8619 80.1161 91.6453 80.1373C94.4287 80.1584 96.6912 79.3795 96.6987 78.3976Z" fill="#D68D2F"/>
<path d="M91.6304 77.0035C94.2184 77.0157 96.3588 77.7144 96.6592 78.6018C96.6831 78.5301 96.699 78.4575 96.6978 78.3832C96.6826 77.4012 94.4138 76.5944 91.6304 76.5813C88.847 76.5681 86.603 77.3536 86.6182 78.3357C86.6193 78.4046 86.6342 78.4724 86.6568 78.5394C86.9493 77.6622 89.0573 76.9914 91.6304 77.0035Z" fill="#BD7C29"/>
<path d="M99.8445 74.5253C98.4655 74.0348 96.566 73.7265 94.473 73.7166C92.38 73.7067 90.4898 73.9972 89.1258 74.4747L86.9067 74.4643L86.9361 76.3548C86.9591 77.8315 90.3706 79.0447 94.5561 79.0644C98.7415 79.0842 102.116 77.903 102.093 76.4262L102.064 74.5357L99.8445 74.5253Z" fill="#E19431"/>
<path d="M102.063 74.558C102.074 73.0815 98.6904 71.8587 94.5049 71.8269C90.3194 71.7951 86.9173 72.9664 86.906 74.4429C86.8948 75.9195 90.2788 77.1422 94.4642 77.174C98.6497 77.2058 102.052 76.0346 102.063 74.558Z" fill="#F4DA5C"/>
<path d="M99.5244 74.2287C99.5318 73.2468 97.2814 72.4336 94.498 72.4125C91.7146 72.3913 89.4521 73.1702 89.4447 74.1522C89.4372 75.1341 91.6876 75.9473 94.471 75.9684C97.2544 75.9895 99.5169 75.2106 99.5244 74.2287Z" fill="#D68D2F"/>
<path d="M94.4566 72.8341C97.0446 72.8463 99.185 73.545 99.4854 74.4324C99.5093 74.3607 99.5251 74.2881 99.524 74.2139C99.5087 73.2318 97.24 72.425 94.4566 72.4119C91.6732 72.3988 89.4292 73.1843 89.4444 74.1663C89.4455 74.2353 89.4603 74.303 89.483 74.37C89.7755 73.4928 91.8835 72.822 94.4566 72.8341Z" fill="#BD7C29"/>
<path d="M96.9934 71.1193C95.6144 70.6288 93.7149 70.3205 91.6219 70.3106C89.5289 70.3007 87.6387 70.5912 86.2748 71.0687L84.0557 71.0583L84.085 72.9488C84.108 74.4255 87.5196 75.6387 91.705 75.6584C95.8905 75.6782 99.2648 74.497 99.2419 73.0202L99.2125 71.1297L96.9934 71.1193Z" fill="#E19431"/>
<path d="M99.2125 71.1515C99.2237 69.675 95.8398 68.4522 91.6543 68.4204C87.4688 68.3886 84.0667 69.5599 84.0555 71.0364C84.0442 72.513 87.4282 73.7357 91.6137 73.7675C95.7992 73.7993 99.2013 72.6281 99.2125 71.1515Z" fill="#F4DA5C"/>
<path d="M96.6738 70.8222C96.6812 69.8403 94.4309 69.0271 91.6474 69.006C88.864 68.9848 86.6015 69.7637 86.5941 70.7457C86.5866 71.7276 88.837 72.5408 91.6204 72.5619C94.4038 72.583 96.6663 71.8042 96.6738 70.8222Z" fill="#D68D2F"/>
<path d="M91.606 69.4281C94.194 69.4403 96.3344 70.139 96.6348 71.0264C96.6587 70.9547 96.6746 70.8821 96.6734 70.8079C96.6582 69.8258 94.3894 69.019 91.606 69.0059C88.8226 68.9928 86.5786 69.7783 86.5938 70.7603C86.5949 70.8293 86.6098 70.897 86.6324 70.964C86.9249 70.0868 89.0329 69.416 91.606 69.4281Z" fill="#BD7C29"/>
<path d="M90.5919 71.4477C91.7341 71.4062 92.4633 71.1393 92.5899 70.7306C92.596 70.711 92.6366 70.696 92.6861 70.696H93.5869C93.6406 70.696 93.684 70.6787 93.684 70.6573V70.5136C93.684 70.4922 93.6406 70.4748 93.5869 70.4748H92.6735C92.6251 70.4748 92.585 70.4605 92.5775 70.4414C92.5199 70.2934 92.3795 70.1774 92.1861 70.0878C92.1316 70.0625 92.1751 70.0236 92.2587 70.0236H93.5869C93.6406 70.0236 93.684 70.0063 93.684 69.9849V69.8412C93.684 69.8198 93.6406 69.8024 93.5869 69.8024H89.5517C89.4981 69.8024 89.4546 69.8198 89.4546 69.8412V70.0513C89.4546 70.0726 89.4981 70.09 89.5517 70.09H90.1678C90.9826 70.09 91.5005 70.2014 91.681 70.4244C91.7011 70.4492 91.6534 70.4748 91.5878 70.4748H89.5517C89.4981 70.4748 89.4546 70.4922 89.4546 70.5136V70.6573C89.4546 70.6787 89.4981 70.696 89.5517 70.696H91.6344C91.6945 70.696 91.7404 70.7177 91.7306 70.7413C91.6148 71.0208 91.0374 71.2003 90.0071 71.2003H89.5517C89.4981 71.2003 89.4546 71.2177 89.4546 71.239V71.4604C89.4546 71.4696 89.4629 71.4785 89.4778 71.4855C90.2925 71.8677 90.9507 72.2075 91.6219 72.562C91.6354 72.5621 91.6485 72.5628 91.662 72.5629C91.9641 72.5643 92.2582 72.5546 92.5454 72.538C91.8575 72.1694 91.1701 71.8108 90.5263 71.5112C90.4748 71.4873 90.513 71.4505 90.5919 71.4477Z" fill="#F4DA5C"/>
<path d="M44.821 71.3292C44.8862 73.0529 45.1644 74.5713 45.6385 75.9051C45.6385 75.9051 42.2012 91.4412 62.8393 87.8585C62.8393 87.8585 66.9573 89.5628 73.8872 89.5176C80.8171 89.4724 84.9125 87.7146 84.9125 87.7146C105.596 91.0277 101.956 75.5378 101.956 75.5378C102.413 74.1979 102.671 72.6759 102.714 70.9516C102.811 67.0322 101.793 62.0673 99.4587 55.8195C95.2507 44.5588 82.1751 32.0574 82.1751 32.0574L64.8504 32.1704C64.8504 32.1704 51.939 44.8413 47.8783 56.156C45.6253 62.4337 44.6729 67.4114 44.821 71.3292Z" fill="#CFC5A9"/>
<path d="M49.6151 75.8794C49.141 74.5456 48.8629 73.0271 48.7977 71.3035C48.6496 67.3857 49.6019 62.408 51.8549 56.1302C55.9156 44.8156 68.8271 32.1447 68.8271 32.1447L64.8504 32.1706C64.8504 32.1706 51.939 44.8415 47.8783 56.1562C45.6253 62.4339 44.6729 67.4116 44.821 71.3294C44.8862 73.053 45.1644 74.5715 45.6385 75.9053C45.6385 75.9053 42.6011 89.6433 59.4034 88.3009C47.0858 87.316 49.6151 75.8794 49.6151 75.8794Z" fill="#E0D6B7"/>
<path d="M79.983 89.0039C83.1507 88.4707 84.9125 87.7146 84.9125 87.7146C105.596 91.0277 101.956 75.5378 101.956 75.5378C102.413 74.1979 102.671 72.6759 102.714 70.9516C102.811 67.0322 101.793 62.0673 99.4587 55.8195C95.2507 44.5588 82.1751 32.0574 82.1751 32.0574C82.1751 32.0574 78.6078 32.0806 75.3467 32.1019C75.3467 32.1019 97.8825 61.5394 79.983 89.0039Z" fill="#BDB49A"/>
<path d="M79.7886 4.47953C79.7886 4.47953 80.1701 -0.0445701 73.2865 0.000332046C64.348 0.0586377 65.2006 4.75922 65.2006 4.75922C57.3795 2.84332 55.555 6.66771 55.5719 9.25136C55.5887 11.835 58.2721 13.6631 62.3991 16.3122C66.5262 18.9614 65.6186 21.5818 65.6186 21.5818L73.4269 21.5309L81.2352 21.48C81.2352 21.48 80.2935 18.8716 84.3857 16.1688C88.4778 13.4661 92.46 9.65671 92.4432 7.07306C92.4263 4.48938 90.1378 0.167227 79.7886 4.47953Z" fill="#CFC5A9"/>
<path d="M61.5922 4.24585C56.7949 4.1612 55.558 7.12513 55.5719 9.25155C55.5887 11.8352 58.2721 13.6633 62.3991 16.3124C65.0627 18.0221 65.6284 19.7187 65.6952 20.7078L67.5675 20.6956C67.5434 16.992 65.7749 14.1145 62.0444 10.8396C58.3403 7.58785 61.5467 4.29232 61.5922 4.24585Z" fill="#E0D6B7"/>
<path d="M84.3857 16.1689C88.4779 13.4661 92.4601 9.65677 92.4432 7.07311C92.4264 4.48943 90.1378 0.167286 79.7887 4.47959C79.7887 4.47959 79.2486 7.52141 81.0313 9.55296C82.9337 11.721 81.8491 13.3432 80.0239 14.8694C78.1986 16.3955 75.4235 17.8868 75.2754 21.1448L81.2353 21.48C81.2353 21.48 80.2936 18.8716 84.3857 16.1689Z" fill="#BDB49A"/>
<path d="M65.2099 27.4332C65.2099 27.4332 63.7288 30.3038 64.8505 32.1705L82.1752 32.0575C82.1752 32.0575 83.7534 30.5493 81.7682 29.4832L65.2099 27.4332Z" fill="#692A22"/>
<path d="M81.7683 29.4831L76.5125 28.8324C76.5959 29.0381 77.4048 31.3114 73.5679 32.1135L82.1753 32.0574C82.1753 32.0574 83.7532 30.549 81.7683 29.4831Z" fill="#54221B"/>
<path d="M65.2101 27.4331C65.2101 27.4331 62.4554 25.5628 64.6419 23.0308L82.0997 25.1199C82.0997 25.1199 84.7172 26.6315 81.7685 29.4832L65.2101 27.4331Z" fill="#783027"/>
<path d="M82.5086 25.446C82.3108 25.2508 82.2281 25.1747 82.0989 25.1198L78.1239 24.6441C78.1239 24.6441 79.1343 28.3151 76.4922 28.8299L81.7677 29.483C83.9228 27.3989 83.1051 26.0316 82.5086 25.446Z" fill="#662921"/>
<path d="M64.6417 23.0308C64.6417 23.0308 63.4959 21.7345 64.2805 20.3806L82.6612 21.5869C82.6612 21.5869 84.3666 23.4965 82.0995 25.1199L64.6417 23.0308Z" fill="#8E392E"/>
<path d="M78.1246 24.6445L79.9414 24.8619L82.0996 25.1201C84.3624 23.5414 82.6613 21.5872 82.6613 21.5872L77.7124 21.2624C77.7124 21.2624 79.8603 23.0709 78.1246 24.6445Z" fill="#752F26"/>
<path d="M68.8271 32.1446C68.8271 32.1446 74.2733 35.5153 75.0913 42.8144C75.2023 43.8051 76.045 44.5518 77.0418 44.5453C78.2657 44.5373 79.1793 43.4203 78.9455 42.2189C78.4086 39.4593 77.0273 34.8723 73.5677 32.1136L68.8271 32.1446Z" fill="#783027"/>
<path d="M82.4116 50.8512L76.8843 50.8873C76.5366 50.8896 76.358 51.2967 76.5865 51.5588C77.3974 52.4887 77.9896 53.6954 78.2397 55.2382C78.2719 55.4374 78.4398 55.5862 78.6415 55.5848L82.4423 55.5601C82.6655 55.5586 82.8476 55.7383 82.8491 55.9615L82.8588 57.4615C82.8603 57.6847 82.6806 57.8668 82.4574 57.8682L78.7088 57.8927C78.5027 57.894 78.3346 58.0513 78.3107 58.2561C77.8119 62.5248 74.7954 65.3297 70.0453 65.7936C69.7171 65.8257 69.5605 66.2099 69.7767 66.4589C72.7643 69.8997 75.9796 74.0855 79.1737 78.3428C79.3728 78.6082 79.1847 78.9876 78.8529 78.9898L75.8431 79.0094C75.7161 79.0103 75.5956 78.9506 75.5186 78.8496C72.3024 74.6284 69.2757 70.7048 65.4118 66.2185C65.3494 66.146 65.314 66.0529 65.3134 65.9573L65.2983 63.6472C65.2968 63.424 65.4766 63.2419 65.6997 63.2405L67.595 63.2281C71.8825 63.2002 74.2729 61.3112 74.7356 58.3915C74.7748 58.1444 74.5824 57.9196 74.3322 57.9212L65.6654 57.9778C65.4422 57.9792 65.2601 57.7995 65.2587 57.5763L65.2489 56.0763C65.2474 55.8531 65.4272 55.671 65.6504 55.6696L74.1235 55.6143C74.3963 55.6125 74.593 55.3441 74.5075 55.085C73.7413 52.7635 71.5785 51.6144 68.1882 51.6365L65.6242 51.6532C65.401 51.6547 65.2189 51.475 65.2174 51.2518L65.2031 49.0593C65.2017 48.8361 65.3814 48.654 65.6046 48.6526L82.3966 48.543C82.6197 48.5416 82.8018 48.7213 82.8033 48.9445L82.8131 50.4445C82.8145 50.6677 82.6348 50.8498 82.4116 50.8512Z" fill="#664941"/>
<path d="M71.5428 1.18026C68.6857 0.85901 66.5496 2.64807 66.3978 4.53538C66.2461 6.42269 67.9335 7.35485 67.8861 6.37099C67.8386 5.38713 67.8223 2.88581 70.3645 2.84872C72.9067 2.81164 73.2664 1.37405 71.5428 1.18026Z" fill="#E0D6B7"/>
<path d="M72.2041 20.9006C71.7612 15.8593 73.7434 11.7046 74.8072 11.3286C75.8709 10.9526 72.5112 16.4389 74.2594 21.0355C72.989 21.0438 72.2041 20.9006 72.2041 20.9006Z" fill="#BDB49A"/>
<path d="M68.819 20.6787C68.0693 18.877 69.1101 14.9951 69.6819 14.6428C70.2537 14.2905 68.6634 18.5198 70.3175 20.777L68.819 20.6787Z" fill="#BDB49A"/>
<path d="M62.2308 86.7526C60.9627 85.1678 58.4156 80.2218 58.6099 76.4868C58.8043 72.7519 56.1905 78.8433 57.3252 82.9339C58.4599 87.0245 63.0813 87.8154 62.2308 86.7526Z" fill="#BDB49A"/>
<path d="M123.007 82.8242C121.628 82.3337 119.729 82.0254 117.636 82.0155C115.543 82.0056 113.652 82.2961 112.288 82.7736L110.069 82.7632L110.099 84.6537C110.122 86.1304 113.533 87.3436 117.719 87.3633C121.904 87.3831 125.279 86.2019 125.256 84.7251L125.226 82.8346L123.007 82.8242Z" fill="#E19431"/>
<path d="M125.226 82.8564C125.237 81.3799 121.853 80.1571 117.668 80.1253C113.482 80.0935 110.08 81.2648 110.069 82.7413C110.058 84.2179 113.442 85.4406 117.627 85.4724C121.813 85.5042 125.215 84.333 125.226 82.8564Z" fill="#F4DA5C"/>
<path d="M122.687 82.5266C122.695 81.5447 120.445 80.7315 117.661 80.7104C114.878 80.6893 112.615 81.4681 112.608 82.4501C112.6 83.432 114.851 84.2452 117.634 84.2663C120.418 84.2874 122.68 83.5086 122.687 82.5266Z" fill="#D68D2F"/>
<path d="M117.62 81.1325C120.208 81.1447 122.349 81.8434 122.649 82.7308C122.673 82.6591 122.689 82.5865 122.688 82.5123C122.672 81.5302 120.404 80.7234 117.62 80.7103C114.837 80.6972 112.593 81.4827 112.608 82.4647C112.609 82.5337 112.624 82.6015 112.647 82.6684C112.939 81.7912 115.047 81.1204 117.62 81.1325Z" fill="#BD7C29"/>
<path d="M116.605 83.1515C117.747 83.1101 118.477 82.8432 118.603 82.4345C118.609 82.4149 118.65 82.3999 118.699 82.3999H119.6C119.654 82.3999 119.697 82.3825 119.697 82.3612V82.2174C119.697 82.196 119.654 82.1787 119.6 82.1787H118.687C118.638 82.1787 118.598 82.1643 118.591 82.1452C118.533 81.9972 118.393 81.8812 118.199 81.7916C118.145 81.7664 118.188 81.7275 118.272 81.7275H119.6C119.654 81.7275 119.697 81.7101 119.697 81.6888V81.545C119.697 81.5236 119.654 81.5063 119.6 81.5063H115.565C115.511 81.5063 115.468 81.5236 115.468 81.545V81.7551C115.468 81.7765 115.511 81.7938 115.565 81.7938H116.181C116.996 81.7938 117.514 81.9053 117.694 82.1282C117.714 82.1531 117.667 82.1787 117.601 82.1787H115.565C115.511 82.1787 115.468 82.196 115.468 82.2174V82.3612C115.468 82.3825 115.511 82.3999 115.565 82.3999H117.648C117.708 82.3999 117.754 82.4215 117.744 82.4452C117.628 82.7247 117.051 82.9042 116.02 82.9042H115.565C115.511 82.9042 115.468 82.9215 115.468 82.9429V83.1643C115.468 83.1734 115.476 83.1824 115.491 83.1893C116.306 83.5716 116.964 83.9113 117.635 84.2658C117.649 84.2659 117.662 84.2667 117.675 84.2667C117.977 84.2681 118.271 84.2585 118.559 84.2419C117.871 83.8733 117.183 83.5147 116.54 83.2151C116.488 83.1911 116.526 83.1544 116.605 83.1515Z" fill="#F4DA5C"/>
<path d="M112.727 87.7413C111.348 87.2509 109.449 86.9425 107.356 86.9327C105.263 86.9228 103.373 87.2133 102.009 87.6908L99.7896 87.6803L99.8189 89.5708C99.8419 91.0476 103.253 92.2608 107.439 92.2805C111.624 92.3003 114.999 91.1191 114.976 89.6423L114.946 87.7518L112.727 87.7413Z" fill="#E19431"/>
<path d="M114.946 87.7735C114.958 86.297 111.574 85.0742 107.388 85.0424C103.203 85.0106 99.8006 86.1819 99.7893 87.6584C99.7781 89.135 103.162 90.3577 107.348 90.3895C111.533 90.4213 114.935 89.2501 114.946 87.7735Z" fill="#F4DA5C"/>
<path d="M112.408 87.4438C112.416 86.4619 110.165 85.6487 107.382 85.6276C104.598 85.6064 102.336 86.3853 102.328 87.3673C102.321 88.3492 104.571 89.1623 107.355 89.1835C110.138 89.2046 112.401 88.4257 112.408 87.4438Z" fill="#D68D2F"/>
<path d="M107.341 86.0497C109.929 86.0619 112.069 86.7606 112.37 87.648C112.394 87.5763 112.409 87.5037 112.408 87.4294C112.393 86.4474 110.124 85.6406 107.341 85.6275C104.557 85.6143 102.313 86.3999 102.329 87.3819C102.33 87.4509 102.345 87.5186 102.367 87.5856C102.66 86.7084 104.768 86.0376 107.341 86.0497Z" fill="#BD7C29"/>
<path d="M99.781 89.7648C98.402 89.2743 96.5025 88.966 94.4095 88.9561C92.3165 88.9462 90.4263 89.2367 89.0624 89.7142L86.8433 89.7038L86.8726 91.5943C86.8956 93.0711 90.3072 94.2842 94.4926 94.304C98.6781 94.3237 102.052 93.1425 102.029 91.6657L102 89.7752L99.781 89.7648Z" fill="#E19431"/>
<path d="M102.001 89.797C102.012 88.3204 98.6279 87.0977 94.4424 87.0659C90.2569 87.0341 86.8548 88.2053 86.8435 89.6819C86.8323 91.1584 90.2163 92.3812 94.4018 92.413C98.5872 92.4448 101.989 91.2735 102.001 89.797Z" fill="#F4DA5C"/>
<path d="M99.4623 89.4677C99.4698 88.4858 97.2194 87.6726 94.436 87.6515C91.6526 87.6304 89.3901 88.4092 89.3826 89.3912C89.3752 90.3731 91.6256 91.1863 94.409 91.2074C97.1924 91.2285 99.4549 90.4497 99.4623 89.4677Z" fill="#D68D2F"/>
<path d="M94.3946 88.0731C96.9826 88.0854 99.123 88.784 99.4234 89.6714C99.4473 89.5997 99.4631 89.5271 99.462 89.4529C99.4467 88.4708 97.178 87.664 94.3946 87.6509C91.6112 87.6378 89.3671 88.4233 89.3824 89.4054C89.3835 89.4743 89.3983 89.5421 89.421 89.6091C89.7135 88.7318 91.8215 88.061 94.3946 88.0731Z" fill="#BD7C29"/>
<path d="M100.679 84.7473C99.3 84.2568 97.4005 83.9485 95.3075 83.9386C93.2144 83.9287 91.3243 84.2192 89.9603 84.6967L87.7412 84.6863L87.7706 86.5768C87.7935 88.0535 91.2051 89.2667 95.3906 89.2864C99.576 89.3062 102.95 88.125 102.927 86.6482L102.898 84.7577L100.679 84.7473Z" fill="#E19431"/>
<path d="M102.898 84.78C102.909 83.3034 99.5253 82.0807 95.3398 82.0489C91.1543 82.0171 87.7522 83.1883 87.741 84.6649C87.7298 86.1415 91.1137 87.3642 95.2992 87.396C99.4847 87.4278 102.887 86.2566 102.898 84.78Z" fill="#F4DA5C"/>
<path d="M100.359 84.4502C100.367 83.4683 98.1164 82.6551 95.333 82.634C92.5495 82.6128 90.2871 83.3917 90.2796 84.3737C90.2722 85.3556 92.5225 86.1687 95.306 86.1899C98.0894 86.211 100.352 85.4321 100.359 84.4502Z" fill="#D68D2F"/>
<path d="M95.2915 83.0561C97.8796 83.0683 100.02 83.767 100.32 84.6544C100.344 84.5827 100.36 84.5101 100.359 84.4359C100.344 83.4538 98.0749 82.647 95.2915 82.6339C92.5081 82.6208 90.2641 83.4063 90.2794 84.3883C90.2804 84.4573 90.2953 84.525 90.318 84.592C90.6104 83.7148 92.7185 83.044 95.2915 83.0561Z" fill="#BD7C29"/>
<path d="M111.279 83.4917C109.9 83.0012 108 82.6929 105.907 82.683C103.814 82.6732 101.924 82.9636 100.56 83.4412L98.3408 83.4307L98.3702 85.3212C98.3931 86.798 101.805 88.0111 105.99 88.0309C110.176 88.0506 113.55 86.8695 113.527 85.3927L113.498 83.5022L111.279 83.4917Z" fill="#E19431"/>
<path d="M113.497 83.5245C113.508 82.0479 110.124 80.8251 105.939 80.7933C101.753 80.7616 98.3513 81.9328 98.3401 83.4093C98.3289 84.8859 101.713 86.1087 105.898 86.1404C110.084 86.1722 113.486 85.001 113.497 83.5245Z" fill="#F4DA5C"/>
<path d="M110.959 83.1952C110.966 82.2133 108.716 81.4001 105.933 81.379C103.149 81.3578 100.887 82.1367 100.879 83.1187C100.872 84.1006 103.122 84.9137 105.906 84.9349C108.689 84.956 110.951 84.1771 110.959 83.1952Z" fill="#D68D2F"/>
<path d="M105.892 81.8005C108.48 81.8128 110.62 82.5114 110.92 83.3988C110.944 83.3271 110.96 83.2545 110.959 83.1803C110.944 82.1982 108.675 81.3915 105.892 81.3783C103.108 81.3652 100.864 82.1507 100.879 83.1328C100.881 83.2017 100.895 83.2695 100.918 83.3365C101.211 82.4592 103.319 81.7884 105.892 81.8005Z" fill="#BD7C29"/>
<path d="M106.514 80.156C105.135 79.6655 103.236 79.3572 101.143 79.3474C99.0499 79.3375 97.1597 79.6279 95.7958 80.1055L93.5767 80.095L93.606 81.9855C93.629 83.4623 97.0406 84.6755 101.226 84.6952C105.411 84.7149 108.786 83.5338 108.763 82.057L108.734 80.1665L106.514 80.156Z" fill="#E19431"/>
<path d="M108.734 80.1883C108.745 78.7117 105.361 77.489 101.176 77.4572C96.9903 77.4254 93.5882 78.5966 93.5769 80.0732C93.5657 81.5497 96.9497 82.7725 101.135 82.8043C105.321 82.836 108.723 81.6648 108.734 80.1883Z" fill="#F4DA5C"/>
<path d="M106.195 79.859C106.203 78.877 103.952 78.0639 101.169 78.0427C98.3855 78.0216 96.123 78.8005 96.1156 79.7824C96.1081 80.7643 98.3585 81.5775 101.142 81.5986C103.925 81.6198 106.188 80.8409 106.195 79.859Z" fill="#D68D2F"/>
<path d="M101.127 78.4649C103.716 78.4771 105.856 79.1757 106.156 80.0631C106.18 79.9914 106.196 79.9188 106.195 79.8446C106.18 78.8625 103.911 78.0558 101.127 78.0426C98.3441 78.0295 96.1001 78.815 96.1153 79.7971C96.1164 79.866 96.1312 79.9338 96.1539 80.0008C96.4464 79.1235 98.5544 78.4527 101.127 78.4649Z" fill="#BD7C29"/>
<path d="M100.113 80.4844C101.256 80.4429 101.985 80.1761 102.111 79.7673C102.117 79.7477 102.158 79.7328 102.208 79.7328H103.108C103.162 79.7328 103.206 79.7154 103.206 79.694V79.5503C103.206 79.5289 103.162 79.5116 103.108 79.5116H102.195C102.147 79.5116 102.106 79.4972 102.099 79.4781C102.041 79.3301 101.901 79.2141 101.708 79.1245C101.653 79.0993 101.697 79.0604 101.78 79.0604H103.108C103.162 79.0604 103.206 79.043 103.206 79.0216V78.8779C103.206 78.8565 103.162 78.8392 103.108 78.8392H99.0732C99.0195 78.8392 98.9761 78.8565 98.9761 78.8779V79.088C98.9761 79.1094 99.0195 79.1267 99.0732 79.1267H99.6893C100.504 79.1267 101.022 79.2382 101.202 79.4611C101.223 79.486 101.175 79.5116 101.109 79.5116H99.0732C99.0195 79.5116 98.9761 79.5289 98.9761 79.5503V79.694C98.9761 79.7154 99.0195 79.7328 99.0732 79.7328H101.156C101.216 79.7328 101.262 79.7544 101.252 79.7781C101.136 80.0575 100.559 80.2371 99.5286 80.2371H99.0732C99.0195 80.2371 98.9761 80.2544 98.9761 80.2758V80.4971C98.9761 80.5063 98.9844 80.5153 98.9993 80.5222C99.814 80.9045 100.472 81.2442 101.143 81.5987C101.157 81.5988 101.17 81.5995 101.183 81.5996C101.486 81.601 101.78 81.5914 102.067 81.5748C101.379 81.2061 100.692 80.8476 100.048 80.548C99.9963 80.524 100.034 80.4873 100.113 80.4844Z" fill="#F4DA5C"/>
<path d="M46.28 85.0118C44.901 84.5213 43.0016 84.213 40.9085 84.2031C38.8155 84.1933 36.9253 84.4837 35.5614 84.9612L33.3423 84.9508L33.3717 86.8413C33.3946 88.3181 36.8062 89.5312 40.9916 89.551C45.1771 89.5707 48.5515 88.3895 48.5285 86.9128L48.4991 85.0222L46.28 85.0118Z" fill="#E19431"/>
<path d="M48.4986 85.044C48.5098 83.5674 45.1259 82.3447 40.9404 82.3129C36.7549 82.2811 33.3528 83.4523 33.3416 84.9289C33.3304 86.4054 36.7143 87.6282 40.8998 87.66C45.0853 87.6918 48.4874 86.5205 48.4986 85.044Z" fill="#F4DA5C"/>
<path d="M45.9604 84.7142C45.9678 83.7322 43.7175 82.9191 40.934 82.898C38.1506 82.8768 35.8881 83.6557 35.8807 84.6376C35.8732 85.6196 38.1236 86.4327 40.907 86.4539C43.6905 86.475 45.9529 85.6961 45.9604 84.7142Z" fill="#D68D2F"/>
<path d="M40.8921 83.3201C43.4802 83.3323 45.6206 84.0309 45.921 84.9184C45.9449 84.8467 45.9607 84.7741 45.9595 84.6998C45.9443 83.7178 43.6755 82.911 40.8921 82.8979C38.1087 82.8847 35.8647 83.6702 35.88 84.6523C35.881 84.7212 35.8959 84.789 35.9185 84.856C36.211 83.9788 38.3191 83.308 40.8921 83.3201Z" fill="#BD7C29"/>
<path d="M58.6794 88.791C57.3004 88.3005 55.401 87.9922 53.308 87.9823C51.2149 87.9724 49.3248 88.2629 47.9608 88.7404L45.7417 88.73L45.7711 90.6205C45.794 92.0972 49.2056 93.3104 53.3911 93.3301C57.5765 93.3499 60.9509 92.1687 60.9279 90.6919L60.8985 88.8014L58.6794 88.791Z" fill="#E19431"/>
<path d="M60.8985 88.8232C60.9097 87.3467 57.5258 86.1239 53.3403 86.0921C49.1548 86.0603 45.7527 87.2316 45.7415 88.7081C45.7303 90.1847 49.1142 91.4074 53.2997 91.4392C57.4852 91.471 60.8873 90.2998 60.8985 88.8232Z" fill="#F4DA5C"/>
<path d="M58.3598 88.4945C58.3673 87.5125 56.1169 86.6994 53.3335 86.6782C50.55 86.6571 48.2876 87.436 48.2801 88.4179C48.2726 89.3998 50.523 90.213 53.3065 90.2341C56.0899 90.2553 58.3523 89.4764 58.3598 88.4945Z" fill="#D68D2F"/>
<path d="M53.292 87.0993C55.8801 87.1115 58.0205 87.8102 58.3209 88.6976C58.3448 88.6259 58.3606 88.5533 58.3594 88.4791C58.3442 87.497 56.0754 86.6902 53.292 86.6771C50.5086 86.664 48.2646 87.4495 48.2799 88.4315C48.2809 88.5005 48.2958 88.5682 48.3184 88.6352C48.6109 87.758 50.719 87.0872 53.292 87.0993Z" fill="#BD7C29"/>
<path d="M46.2649 91.3561C44.8859 90.8656 42.9864 90.5573 40.8934 90.5474C38.8004 90.5376 36.9102 90.828 35.5463 91.3055L33.3271 91.2951L33.3565 93.1856C33.3795 94.6624 36.791 95.8755 40.9765 95.8953C45.162 95.915 48.5363 94.7338 48.5134 93.2571L48.484 91.3665L46.2649 91.3561Z" fill="#E19431"/>
<path d="M48.4844 91.3883C48.4957 89.9118 45.1117 88.689 40.9263 88.6572C36.7408 88.6255 33.3386 89.7967 33.3274 91.2732C33.3162 92.7498 36.7001 93.9725 40.8856 94.0043C45.0711 94.0361 48.4732 92.8649 48.4844 91.3883Z" fill="#F4DA5C"/>
<path d="M45.9457 91.0585C45.9532 90.0766 43.7028 89.2635 40.9194 89.2423C38.136 89.2212 35.8735 90.0001 35.866 90.982C35.8586 91.9639 38.109 92.7771 40.8924 92.7982C43.6758 92.8194 45.9383 92.0405 45.9457 91.0585Z" fill="#D68D2F"/>
<path d="M40.878 89.6644C43.466 89.6767 45.6064 90.3753 45.9068 91.2627C45.9307 91.191 45.9465 91.1184 45.9454 91.0442C45.9301 90.0621 43.6614 89.2553 40.878 89.2422C38.0946 89.2291 35.8505 90.0146 35.8658 90.9967C35.8669 91.0656 35.8817 91.1334 35.9044 91.2004C36.1969 90.3231 38.3049 89.6523 40.878 89.6644Z" fill="#BD7C29"/>
<path d="M53.8289 86.2451C52.4499 85.7546 50.5504 85.4463 48.4574 85.4364C46.3643 85.4265 44.4742 85.717 43.1102 86.1945L40.8911 86.1841L40.9205 88.0746C40.9434 89.5513 44.355 90.7645 48.5405 90.7842C52.7259 90.804 56.1003 89.6228 56.0773 88.146L56.048 86.2555L53.8289 86.2451Z" fill="#E19431"/>
<path d="M56.0484 86.2773C56.0596 84.8008 52.6757 83.578 48.4902 83.5462C44.3047 83.5144 40.9026 84.6857 40.8914 86.1622C40.8802 87.6388 44.2641 88.8615 48.4496 88.8933C52.6351 88.9251 56.0372 87.7539 56.0484 86.2773Z" fill="#F4DA5C"/>
<path d="M53.5097 85.9475C53.5172 84.9656 51.2668 84.1524 48.4833 84.1313C45.6999 84.1102 43.4375 84.889 43.43 85.871C43.4225 86.8529 45.6729 87.6661 48.4563 87.6872C51.2398 87.7083 53.5022 86.9295 53.5097 85.9475Z" fill="#D68D2F"/>
<path d="M48.4419 84.5534C51.03 84.5656 53.1704 85.2643 53.4708 86.1517C53.4947 86.08 53.5105 86.0074 53.5093 85.9332C53.4941 84.9511 51.2253 84.1443 48.4419 84.1312C45.6585 84.1181 43.4145 84.9036 43.4298 85.8856C43.4308 85.9546 43.4457 86.0224 43.4683 86.0894C43.7608 85.2121 45.8689 84.5413 48.4419 84.5534Z" fill="#BD7C29"/>
<path d="M58.8538 82.7644C57.4748 82.2739 55.5753 81.9656 53.4823 81.9557C51.3892 81.9459 49.4991 82.2363 48.1351 82.7139L45.916 82.7034L45.9454 84.5939C45.9683 86.0707 49.3799 87.2838 53.5654 87.3036C57.7508 87.3233 61.1252 86.1421 61.1022 84.6654L61.0729 82.7749L58.8538 82.7644Z" fill="#E19431"/>
<path d="M61.0733 82.7967C61.0845 81.3201 57.7006 80.0974 53.5151 80.0656C49.3296 80.0338 45.9275 81.205 45.9163 82.6816C45.9051 84.1581 49.289 85.3809 53.4745 85.4127C57.66 85.4444 61.0621 84.2732 61.0733 82.7967Z" fill="#F4DA5C"/>
<path d="M58.5351 82.4669C58.5426 81.4849 56.2922 80.6718 53.5087 80.6506C50.7253 80.6295 48.4629 81.4084 48.4554 82.3903C48.4479 83.3723 50.6983 84.1854 53.4817 84.2065C56.2652 84.2277 58.5276 83.4488 58.5351 82.4669Z" fill="#D68D2F"/>
<path d="M53.4673 81.0728C56.0554 81.085 58.1958 81.7836 58.4961 82.671C58.5201 82.5993 58.5359 82.5267 58.5347 82.4525C58.5195 81.4704 56.2507 80.6637 53.4673 80.6506C50.6839 80.6374 48.4399 81.4229 48.4552 82.405C48.4562 82.4739 48.4711 82.5417 48.4937 82.6087C48.7862 81.7314 50.8943 81.0606 53.4673 81.0728Z" fill="#BD7C29"/>
<path d="M52.4523 83.0923C53.5944 83.0508 54.3237 82.7839 54.4502 82.3752C54.4563 82.3556 54.4969 82.3406 54.5465 82.3406H55.4473C55.5009 82.3406 55.5444 82.3233 55.5444 82.3019V82.1581C55.5444 82.1368 55.5009 82.1194 55.4473 82.1194H54.5339C54.4854 82.1194 54.4453 82.1051 54.4379 82.086C54.3802 81.938 54.2398 81.822 54.0464 81.7324C53.9919 81.7071 54.0355 81.6682 54.119 81.6682H55.4473C55.5009 81.6682 55.5444 81.6509 55.5444 81.6295V81.4858C55.5444 81.4644 55.5009 81.447 55.4473 81.447H51.4121C51.3584 81.447 51.3149 81.4644 51.3149 81.4858V81.6958C51.3149 81.7172 51.3584 81.7346 51.4121 81.7346H52.0282C52.8429 81.7346 53.3608 81.846 53.5413 82.0689C53.5614 82.0938 53.5138 82.1194 53.4482 82.1194H51.4121C51.3584 82.1194 51.3149 82.1368 51.3149 82.1581V82.3019C51.3149 82.3233 51.3584 82.3406 51.4121 82.3406H53.4947C53.5549 82.3406 53.6008 82.3623 53.5909 82.3859C53.4752 82.6654 52.8978 82.8449 51.8675 82.8449H51.4121C51.3584 82.8449 51.3149 82.8623 51.3149 82.8836V83.105C51.3149 83.1142 51.3233 83.1231 51.3382 83.1301C52.1529 83.5123 52.8111 83.8521 53.4822 84.2066C53.4958 84.2067 53.5088 84.2074 53.5224 84.2075C53.8244 84.2089 54.1186 84.1992 54.4057 84.1826C53.7179 83.814 53.0304 83.4554 52.3867 83.1558C52.3351 83.1319 52.3734 83.0951 52.4523 83.0923Z" fill="#F4DA5C"/>
<path d="M30.0684 60.7882C31.2405 60.7882 32.19 61.7376 32.19 62.9098C32.19 61.7376 33.1394 60.7882 34.3116 60.7882C33.1394 60.7882 32.19 59.8388 32.19 58.6666C32.19 59.8388 31.2405 60.7882 30.0684 60.7882Z" fill="white"/>
<path d="M86.064 30.8238C86.8787 30.8238 87.5385 31.4837 87.5385 32.2984C87.5385 31.4837 88.1984 30.8238 89.013 30.8238C88.1984 30.8238 87.5385 30.164 87.5385 29.3493C87.5385 30.164 86.8787 30.8238 86.064 30.8238Z" fill="white"/>
<path d="M60.5894 32.0574C61.2709 32.0574 61.823 32.6095 61.823 33.2911C61.823 32.6095 62.3751 32.0574 63.0567 32.0574C62.3751 32.0574 61.823 31.5054 61.823 30.8238C61.823 31.5054 61.2709 32.0574 60.5894 32.0574Z" fill="white"/>
<path d="M108.75 66.8508C109.432 66.8508 109.984 67.4028 109.984 68.0844C109.984 67.4028 110.536 66.8508 111.217 66.8508C110.536 66.8508 109.984 66.2987 109.984 65.6171C109.984 66.2987 109.432 66.8508 108.75 66.8508Z" fill="white"/>
<path d="M37.1313 53.4363C38.4993 53.4363 39.6073 54.5443 39.6073 55.9123C39.6073 54.5443 40.7153 53.4363 42.0833 53.4363C40.7153 53.4363 39.6073 52.3283 39.6073 50.9603C39.6073 52.3283 38.4993 53.4363 37.1313 53.4363Z" fill="white"/>
<path d="M112.992 69.3262C114.36 69.3262 115.468 70.4342 115.468 71.8022C115.468 70.4342 116.576 69.3262 117.944 69.3262C116.576 69.3262 115.468 68.2182 115.468 66.8502C115.468 68.2182 114.36 69.3262 112.992 69.3262Z" fill="white"/>
<path d="M86.5376 22.7503C87.9056 22.7503 89.0136 23.8583 89.0136 25.2263C89.0136 23.8583 90.1216 22.7503 91.4895 22.7503C90.1216 22.7503 89.0136 21.6423 89.0136 20.2744C89.0136 21.6423 87.9056 22.7503 86.5376 22.7503Z" fill="white"/>
</svg>
