<svg width="14" height="14" viewBox="0 0 14 14" fill="none" xmlns="http://www.w3.org/2000/svg">
<path d="M10.5 4.66602C11.4665 4.66602 12.25 3.88251 12.25 2.91602C12.25 1.94952 11.4665 1.16602 10.5 1.16602C9.5335 1.16602 8.75 1.94952 8.75 2.91602C8.75 3.88251 9.5335 4.66602 10.5 4.66602Z" stroke="white" stroke-linecap="round" stroke-linejoin="round"/>
<path d="M3.5 8.75C4.4665 8.75 5.25 7.9665 5.25 7C5.25 6.0335 4.4665 5.25 3.5 5.25C2.5335 5.25 1.75 6.0335 1.75 7C1.75 7.9665 2.5335 8.75 3.5 8.75Z" stroke="white" stroke-linecap="round" stroke-linejoin="round"/>
<path d="M10.5 12.834C11.4665 12.834 12.25 12.0505 12.25 11.084C12.25 10.1175 11.4665 9.33398 10.5 9.33398C9.5335 9.33398 8.75 10.1175 8.75 11.084C8.75 12.0505 9.5335 12.834 10.5 12.834Z" stroke="white" stroke-linecap="round" stroke-linejoin="round"/>
<path d="M5.01172 7.88086L8.99589 10.2025" stroke="white" stroke-linecap="round" stroke-linejoin="round"/>
<path d="M8.99005 3.79688L5.01172 6.11854" stroke="white" stroke-linecap="round" stroke-linejoin="round"/>
</svg>
