<svg width="371" height="146" viewBox="0 0 371 146" fill="none" xmlns="http://www.w3.org/2000/svg">
<g opacity="0.5">
<path d="M21.3009 106.385C20.961 105.43 20.2451 104.645 19.3328 104.226C18.4469 103.822 17.457 103.789 16.5579 104.138C15.6143 104.473 14.8587 105.15 14.4314 106.047C13.9992 106.951 13.9497 107.974 14.2862 108.922C14.8356 110.462 16.2857 111.428 17.8315 111.428C18.2456 111.428 18.6663 111.359 19.0754 111.214C21.0006 110.514 21.9987 108.348 21.3009 106.385ZM18.8049 110.458C17.2723 110.999 15.5862 110.189 15.0435 108.655V108.654C14.7762 107.906 14.8158 107.104 15.1556 106.392C15.4889 105.689 16.0828 105.156 16.8367 104.891C17.1617 104.764 17.5032 104.701 17.8414 104.701C18.2357 104.701 18.6283 104.785 19.0012 104.955C19.7138 105.282 20.2781 105.902 20.5453 106.652C21.0963 108.203 20.3144 109.911 18.8049 110.458Z" fill="#141515"/>
<path d="M18.8044 110.458C17.2718 110.999 15.5858 110.189 15.0431 108.655V108.653C14.7758 107.906 14.8154 107.104 15.1552 106.391C15.4885 105.689 16.0824 105.156 16.8363 104.89C17.1613 104.763 17.5028 104.7 17.841 104.7C18.2353 104.7 18.6279 104.785 19.0008 104.954C19.7134 105.281 20.2777 105.901 20.5449 106.652C21.0959 108.203 20.3139 109.91 18.8044 110.458Z" fill="#F2BF4E"/>
<path d="M15.1506 102.069C14.9896 102.069 14.8378 101.972 14.7771 101.812C4.39355 74.8324 -18.0072 54.9262 -42.2922 51.0986C-42.5108 51.0637 -42.6596 50.8587 -42.6262 50.6401C-42.5912 50.423 -42.3954 50.2787 -42.1677 50.306C-17.6049 54.1777 5.04033 74.2828 15.5241 101.524C15.6045 101.73 15.5013 101.963 15.2948 102.042C15.2477 102.06 15.1992 102.069 15.1506 102.069Z" fill="#141515"/>
<path d="M1.8405 102.474C1.71144 102.474 1.58543 102.412 1.50799 102.296L-2.0615 96.9989C-2.18447 96.8167 -2.13589 96.5677 -1.95219 96.4432C-1.77 96.3217 -1.51947 96.3688 -1.3965 96.5525L2.173 101.85C2.29599 102.032 2.2474 102.281 2.06369 102.406C1.99536 102.451 1.91793 102.474 1.8405 102.474Z" fill="#141515"/>
<path d="M-2.56755 101.619C-2.69508 101.619 -2.81958 101.558 -2.89701 101.444C-3.02302 101.262 -2.97747 101.013 -2.79528 100.888L2.45039 97.2825C2.62955 97.1565 2.88158 97.2005 3.00609 97.3858C3.13209 97.568 3.08655 97.8169 2.90437 97.9415L-2.34132 101.547C-2.40963 101.596 -2.4886 101.619 -2.56755 101.619Z" fill="#141515"/>
<path d="M230.947 145.945C229.022 145.945 226.427 145.09 223.034 143.359C208.004 135.713 191.623 124.695 174.283 113.029C170.677 110.604 167.064 108.172 163.455 105.768C163.27 105.645 163.221 105.396 163.342 105.213C163.467 105.026 163.716 104.979 163.898 105.1C167.509 107.505 171.124 109.937 174.73 112.364C192.05 124.016 208.41 135.022 223.398 142.646C228.316 145.152 231.486 145.764 233.085 144.512C235.989 142.24 234.04 133.84 231.571 123.203C227.572 105.972 222.094 82.3714 233.112 66.5008C239.29 57.6007 250.147 52.0862 265.383 50.1079C265.608 50.0836 265.802 50.2339 265.833 50.4541C265.86 50.6742 265.705 50.8746 265.486 50.9035C250.484 52.8499 239.814 58.252 233.771 66.9563C222.955 82.5354 228.386 105.935 232.351 123.022C234.984 134.364 236.885 142.558 233.578 145.143C232.897 145.676 232.027 145.945 230.947 145.945ZM46.3131 113.562C40.1899 113.562 33.7782 104.358 25.0587 91.8425C7.732 66.9745 -15.9927 32.9073 -57.4396 40.9739C-57.6567 41.0104 -57.8677 40.8737 -57.9095 40.6566C-57.952 40.4395 -57.81 40.23 -57.5929 40.1874C-15.6283 32.0282 9.24879 67.7473 25.7161 91.384C34.3597 103.791 41.1752 113.559 47.092 112.702C51.2217 112.081 54.8869 106.368 58.6264 94.7181C62.6347 82.1862 68.9462 74.5477 77.9222 71.3684C96.5744 64.7669 123.158 78.3298 157.33 100.737C157.515 100.858 157.567 101.107 157.445 101.292C157.324 101.478 157.075 101.528 156.89 101.408C122.92 79.1299 96.5334 65.6202 78.1895 72.1246C69.4654 75.2143 63.3163 82.6842 59.3885 94.9626C55.5473 106.936 51.6772 112.824 47.2104 113.495C46.9113 113.539 46.6122 113.562 46.3131 113.562Z" fill="#141515"/>
<path d="M228.798 134.166C228.212 133.5 227.361 133.094 226.465 133.049C225.579 133.003 224.726 133.312 224.085 133.911C222.699 135.161 222.567 137.263 223.794 138.706C224.476 139.45 225.388 139.828 226.302 139.828C226.701 139.828 227.1 139.756 227.48 139.61C227.861 139.465 228.222 139.247 228.546 138.957C229.944 137.693 230.055 135.59 228.798 134.166ZM228.009 138.362C226.954 139.317 225.36 139.229 224.395 138.177C223.459 137.076 223.56 135.463 224.627 134.501C225.081 134.076 225.67 133.846 226.299 133.846C226.341 133.846 226.383 133.848 226.426 133.85C227.107 133.883 227.754 134.191 228.197 134.698C228.646 135.206 228.869 135.828 228.869 136.445C228.869 137.149 228.579 137.847 228.009 138.362Z" fill="#141515"/>
<path d="M228.869 136.443C228.869 137.147 228.579 137.845 228.01 138.36C226.954 139.315 225.36 139.228 224.395 138.175C223.46 137.075 223.56 135.461 224.628 134.499C225.081 134.074 225.67 133.845 226.299 133.845C226.342 133.845 226.383 133.846 226.426 133.848C227.107 133.881 227.754 134.189 228.198 134.696C228.646 135.204 228.869 135.826 228.869 136.443Z" fill="#F2BF4E"/>
<path d="M329.603 51.5885C328.126 51.5885 327.409 50.2964 326.778 49.1562C326.178 48.0721 325.659 47.1369 324.66 47.1369C324.438 47.1369 324.259 46.9577 324.259 46.736C324.259 46.5144 324.438 46.3352 324.66 46.3352C326.131 46.3352 326.846 47.6273 327.479 48.7675C328.079 49.8516 328.598 50.7868 329.596 50.7868C330.592 50.7686 331.137 49.7863 331.714 48.7447C332.345 47.6075 333.06 46.317 334.524 46.2912C336 46.2912 336.728 47.5817 337.371 48.722C337.958 49.7605 338.512 50.7428 339.511 50.7428C340.506 50.7246 341.016 49.7878 341.607 48.7037C342.226 47.565 342.929 46.273 344.396 46.2471C345.872 46.2471 346.6 47.5377 347.243 48.6779C347.83 49.7164 348.384 50.6988 349.383 50.6988C350.378 50.6805 350.888 49.7438 351.479 48.6597C352.098 47.521 352.801 46.2289 354.268 46.2031H354.275C354.494 46.2031 354.671 46.3777 354.676 46.5964C354.679 46.818 354.503 47.0002 354.283 47.0048C353.282 47.023 352.772 47.9583 352.182 49.0423C351.562 50.1826 350.858 51.4731 349.391 51.5004C347.917 51.5004 347.188 50.2099 346.546 49.0712C345.958 48.0311 345.404 47.0488 344.403 47.0488C343.41 47.067 342.9 48.0023 342.31 49.0863C341.69 50.2266 340.986 51.5186 339.519 51.5444C338.045 51.5444 337.316 50.2539 336.674 49.1152C336.086 48.0752 335.532 47.0928 334.531 47.0928C333.537 47.1111 332.992 48.0934 332.415 49.1334C331.783 50.2721 331.068 51.5627 329.603 51.5885Z" fill="#141515"/>
<path d="M192.621 37.3054C192.4 37.3054 192.221 37.1262 192.221 36.9045C192.221 36.6829 192.4 36.5037 192.621 36.5037C193.668 36.5037 195.599 36.4734 197.761 36.4384C199.24 36.4141 200.828 36.3883 202.313 36.3701H202.317C202.536 36.3701 202.715 36.5462 202.718 36.7664C202.721 36.9865 202.544 37.1687 202.322 37.1718C200.838 37.19 199.252 37.2158 197.773 37.2386C195.606 37.2735 193.671 37.3054 192.621 37.3054Z" fill="#141515"/>
<path d="M234.751 33.7398C234.529 33.7398 234.35 33.5607 234.35 33.339C234.35 33.1173 234.529 32.9382 234.751 32.9382C235.451 32.9382 236.055 32.9382 236.523 32.8957C236.744 32.8729 236.937 33.0384 236.958 33.2585C236.978 33.4787 236.816 33.6745 236.596 33.6943C236.092 33.7398 235.471 33.7398 234.751 33.7398Z" fill="#141515"/>
<path d="M244.363 30.4951C244.19 30.4951 244.03 30.3828 243.979 30.2082C242.182 24.1927 236.578 19.9901 230.349 19.9901C224.145 19.9901 218.558 24.1927 216.762 30.2082C216.698 30.4207 216.476 30.5361 216.264 30.4784C216.051 30.4147 215.93 30.1915 215.994 29.9804C217.89 23.6264 223.793 19.1885 230.349 19.1885C236.929 19.1885 242.85 23.6264 244.747 29.9804C244.811 30.1915 244.689 30.4147 244.477 30.4784C244.439 30.4891 244.401 30.4951 244.363 30.4951Z" fill="#141515"/>
<path d="M205.359 33.6956C205.32 33.6956 205.28 33.6896 205.242 33.6774C205.03 33.6121 204.911 33.3889 204.976 33.1779C205.845 30.3448 208.408 28.4424 211.352 28.4424C214.271 28.4424 216.875 30.3919 217.686 33.1825C217.748 33.395 217.627 33.6182 217.414 33.6789C217.197 33.7503 216.978 33.6182 216.918 33.4072C216.206 30.9551 213.916 29.244 211.352 29.244C208.762 29.244 206.507 30.9187 205.742 33.4117C205.688 33.5848 205.531 33.6956 205.359 33.6956Z" fill="#141515"/>
<path d="M187.157 49.3687H184.557L185.879 46.2969L187.157 49.3687Z" fill="#F2BF4E"/>
<path d="M198.219 46.6968C198.219 47.1868 198.087 47.5432 197.823 47.7642C197.558 47.9424 197.074 48.0315 196.281 48.0315H195.575V45.2715H196.281C197.03 45.2715 197.558 45.3606 197.823 45.5833C198.087 45.806 198.219 46.1623 198.219 46.6968Z" fill="#F2BF4E"/>
<path d="M79.6668 49.3687H77.0239L78.3454 46.2969L79.6668 49.3687Z" fill="#F2BF4E"/>
<path d="M90.6405 46.7877C90.6405 47.2776 90.5085 47.6323 90.2 47.8105C89.9361 48.0332 89.3636 48.1223 88.5255 48.1223H88.0405V45.3623H88.5255C89.3636 45.3623 89.8915 45.4514 90.2 45.6741C90.5085 45.8968 90.6405 46.2532 90.6405 46.7877Z" fill="#F2BF4E"/>
<path d="M100.647 46.7877C100.647 47.2776 100.515 47.6323 100.207 47.8105C99.8984 48.0332 99.3705 48.1223 98.5325 48.1223H98.0029V45.3623H98.5325C99.326 45.3623 99.8984 45.4514 100.207 45.6741C100.471 45.8968 100.647 46.2532 100.647 46.7877Z" fill="#F2BF4E"/>
<path d="M279.66 63.5786C279.24 63.5786 278.795 63.4374 278.333 63.1534C276.007 61.7263 273.774 57.0894 273.318 54.6465C272.927 52.5482 273.112 51.1211 273.291 50.3771C272.794 50.3634 272.116 50.2359 271.677 49.7136C271.156 49.0911 271.136 48.1194 271.618 46.8228C272.433 44.5772 275.72 41.6515 279.308 40.8802C281.25 40.4612 284.089 40.4946 286.559 43.0332C289.461 46.0211 289.07 49.0759 288.619 52.6135C288.349 54.7254 288.044 57.1183 288.389 59.8648C288.416 60.085 288.26 60.2854 288.041 60.3127C287.825 60.331 287.62 60.1837 287.593 59.965C287.236 57.1183 287.549 54.6708 287.824 52.5133C288.267 49.0425 288.616 46.302 285.985 43.5919C283.772 41.319 281.227 41.2871 279.476 41.6637C276.147 42.3788 273.113 45.0525 272.369 47.0991C272 48.0921 271.973 48.8163 272.29 49.1959C272.655 49.6346 273.475 49.6028 273.771 49.5511C273.845 49.5344 273.93 49.5451 274.009 49.58C274.211 49.6711 274.299 49.9079 274.208 50.1099C274.203 50.122 273.567 51.616 274.105 54.5007C274.53 56.7751 276.718 61.2222 278.752 62.4702C279.202 62.7466 279.601 62.8316 279.946 62.7359C282.188 62.1195 284.883 57.4492 284.91 57.4022C285.021 57.2094 285.267 57.1426 285.457 57.2534C285.65 57.3627 285.715 57.6087 285.606 57.8C285.489 58.0034 282.718 62.8042 280.164 63.5057C280 63.5543 279.832 63.5786 279.66 63.5786Z" fill="#141515"/>
<path d="M284.955 56.784C284.742 56.784 284.549 56.6868 284.413 56.5076C283.931 55.9246 284.171 55.1639 284.391 54.8086C284.507 54.6219 284.759 54.5642 284.942 54.6796C285.131 54.795 285.188 55.0425 285.071 55.2307C285.07 55.2323 284.821 55.6559 285.003 55.9565C285.308 55.7758 286.04 54.7783 286.512 53.4179C286.802 52.5358 286.511 51.6263 286.071 51.2938C285.858 51.1329 285.718 51.1891 285.615 51.2559C284.997 51.6734 284.997 52.6876 285.07 52.9336C285.169 53.09 285.15 53.2995 285.014 53.4346C284.856 53.588 284.604 53.5879 284.446 53.4316C284.182 53.1628 284.238 52.4401 284.253 52.2974C284.296 51.8617 284.472 51.0615 285.167 50.5909C285.601 50.2994 286.118 50.3252 286.555 50.6546C287.218 51.1587 287.695 52.3885 287.271 53.676C286.878 54.8041 285.935 56.6367 285.068 56.7748C285.029 56.7809 284.991 56.784 284.955 56.784Z" fill="#141515"/>
<path d="M283.055 54.2201C282.852 54.2201 282.677 54.0652 282.656 53.8587C282.624 53.5323 282.749 53.1284 282.893 52.6623C283.048 52.1658 283.28 51.4158 283.083 51.1881C283.031 51.1289 282.846 50.9937 282.19 51.1C279.803 51.5008 279.316 49.7989 279.024 48.7816C278.945 48.5083 278.871 48.2502 278.784 48.0984C278.248 47.907 274.679 49.7912 274.141 50.2148C274.038 50.3287 273.88 50.3803 273.718 50.3272C273.508 50.2574 273.394 50.0311 273.463 49.8201C273.613 49.3646 277.321 47.4728 278.55 47.3483C279.135 47.28 279.369 47.5077 279.48 47.7006C279.615 47.9359 279.701 48.2396 279.794 48.5599C280.093 49.6045 280.377 50.5914 282.062 50.309C282.853 50.1921 283.379 50.3059 283.69 50.6643C284.176 51.2291 283.901 52.1173 283.658 52.8992C283.555 53.2347 283.438 53.6143 283.455 53.7798C283.476 53.9999 283.315 54.1958 283.095 54.2186C283.081 54.2186 283.067 54.2201 283.055 54.2201Z" fill="#141515"/>
<path d="M286.976 70.0214C286.829 70.0214 286.688 69.9394 286.618 69.7982C284.529 65.5804 282.425 63.804 282.403 63.7858C282.233 63.6446 282.209 63.3926 282.35 63.2225C282.49 63.0525 282.742 63.0282 282.914 63.1678C283.005 63.2438 285.164 65.0551 287.335 69.4429C287.433 69.6418 287.353 69.8817 287.154 69.9789C287.096 70.0077 287.037 70.0214 286.976 70.0214Z" fill="#141515"/>
<path d="M289.806 78.4653C284.988 78.4668 277.936 75.2481 274.158 70.8132C271.235 67.356 271.683 63.5846 272.576 61.0308C273.148 59.3896 274.214 57.5631 274.648 57.475C274.869 57.434 275.078 57.5722 275.121 57.7893C275.153 57.9518 275.083 58.1097 274.955 58.1977C274.714 58.4999 270.11 64.784 274.768 70.2954C279.656 76.03 289.338 79.0407 292.724 77.0199C295.631 75.286 299.362 68.4841 301.59 64.4197C302.09 63.5102 302.518 62.7313 302.851 62.162L303.312 61.3877C304.776 58.928 304.964 58.6122 307.185 57.3429C309.396 56.0615 310.257 53.4956 310.264 53.4698C310.334 53.2603 310.56 53.1419 310.77 53.2132C310.979 53.2815 311.095 53.5078 311.027 53.7188C310.989 53.8342 310.069 56.5959 307.585 58.0368C305.544 59.2028 305.429 59.3987 304.001 61.7976L303.54 62.5704C303.212 63.1306 302.788 63.9035 302.293 64.8053C300.025 68.9411 296.228 75.863 293.134 77.7092C292.265 78.2269 291.117 78.4653 289.806 78.4653Z" fill="#141515"/>
<path d="M308.838 55.0171C308.755 55.0171 308.673 54.9913 308.6 54.9381C308.422 54.8076 308.384 54.557 308.516 54.3779C308.516 54.3779 308.648 54.1987 309.092 53.6157C309.406 53.1708 309.687 52.1612 309.769 51.8104C309.819 51.5964 310.032 51.4552 310.249 51.5098C310.464 51.5599 310.599 51.774 310.549 51.9896C310.536 52.0473 310.218 53.4107 309.737 54.0894C309.295 54.6724 309.163 54.8516 309.16 54.8546C309.083 54.9609 308.961 55.0171 308.838 55.0171Z" fill="#141515"/>
<path d="M308.089 54.3095C307.868 54.3095 307.688 54.1303 307.688 53.9086C307.688 53.8145 307.688 53.7826 308.337 52.24C308.639 51.5872 308.698 51.2911 308.707 51.1803C308.639 51.0983 308.604 50.989 308.618 50.8736C308.647 50.6535 308.832 50.5062 309.067 50.5274C309.193 50.5441 309.366 50.6732 309.427 50.7855C309.553 51.0133 309.609 51.4035 309.069 52.5634C308.581 53.7265 308.49 53.9724 308.476 54.0149C308.429 54.185 308.275 54.3095 308.089 54.3095Z" fill="#141515"/>
<path d="M306.633 53.1455C306.411 53.1455 306.232 52.9664 306.232 52.7447C306.232 52.6293 306.281 52.5261 306.358 52.4532C306.391 52.4122 306.52 52.2346 306.909 51.6014C307.471 50.7497 307.6 49.7248 307.601 49.7157C307.627 49.4971 307.837 49.3453 308.046 49.365C308.266 49.3923 308.423 49.5912 308.397 49.8099C308.391 49.86 308.247 51.0291 307.585 52.0311C306.923 53.1091 306.874 53.1455 306.633 53.1455Z" fill="#141515"/>
<path d="M302.492 53.9033C302.344 53.9033 302.202 53.8213 302.132 53.6786C302.035 53.4797 302.116 53.2398 302.315 53.1426C302.329 53.1366 303.732 52.4427 304.818 51.4285C305.856 50.4583 305.923 49.6005 305.926 49.564C305.94 49.3439 306.129 49.1875 306.346 49.1875C306.567 49.1996 306.735 49.3834 306.726 49.602C306.723 49.6506 306.659 50.803 305.364 52.0146C304.189 53.1108 302.73 53.8319 302.668 53.8623C302.611 53.8896 302.551 53.9033 302.492 53.9033Z" fill="#141515"/>
<path d="M292.224 72.6032C292.214 72.6032 292.203 72.6032 292.191 72.6017C291.971 72.5835 291.807 72.3907 291.825 72.169C291.974 70.3729 292.334 68.8531 295.648 65.6389C299.084 62.2151 300.154 58.591 300.611 57.0439C301.166 55.0169 301.474 52.0274 301.478 51.9971C301.483 51.9515 301.495 51.906 301.516 51.8635C301.56 51.7724 302.613 49.6286 304.014 49.0425C305.213 48.5415 305.892 47.9949 305.898 47.9903C306.068 47.8522 306.322 47.8749 306.461 48.0465C306.601 48.2181 306.577 48.4701 306.405 48.6098C306.375 48.6356 305.638 49.2323 304.324 49.7819C303.425 50.1569 302.564 51.5644 302.266 52.152C302.215 52.6378 301.914 55.3191 301.383 57.264C300.906 58.8779 299.795 62.6387 296.21 66.2097C292.851 69.468 292.741 70.8117 292.624 72.2358C292.607 72.4453 292.431 72.6032 292.224 72.6032Z" fill="#141515"/>
<path d="M292.354 71.6643C292.254 71.6643 292.154 71.6263 292.077 71.5519C290.127 69.6647 287.056 70.0094 287.027 70.0154C286.804 70.0352 286.609 69.8864 286.58 69.6662C286.555 69.4461 286.709 69.2472 286.93 69.2198C287.071 69.2047 290.408 68.8236 292.632 70.975C292.792 71.1299 292.796 71.3834 292.643 71.5413C292.564 71.6233 292.459 71.6643 292.354 71.6643Z" fill="#141515"/>
<path d="M288.431 47.9418C288.404 47.9418 288.375 47.9388 288.348 47.9327C288.131 47.8856 287.992 47.6731 288.039 47.4575C288.085 47.248 289.196 42.2968 294.207 39.8797C294.406 39.7902 294.646 39.8676 294.743 40.0665C294.838 40.2669 294.755 40.5053 294.556 40.6024C289.893 42.8495 288.834 47.5774 288.823 47.6245C288.782 47.8128 288.616 47.9418 288.431 47.9418Z" fill="#141515"/>
<path d="M299.187 60.6273C299.173 60.6273 299.158 60.6258 299.143 60.6243C298.924 60.6015 298.765 60.4026 298.789 60.1825C299.579 52.9236 301.152 48.5448 302.672 44.3088C303.204 42.8255 303.708 41.4226 304.181 39.8997C305.986 34.0391 305.752 29.668 305.751 29.6255C305.744 29.5405 305.767 29.4555 305.814 29.3841C305.837 29.3477 308.159 25.7615 309.504 23.3945C309.835 22.8023 310.381 21.7471 311.037 20.4794C313.614 15.4979 316.023 10.9461 317.174 9.97586C318.911 8.51528 319.644 6.21052 319.239 3.48825C318.993 1.99273 318.74 1.10757 318.421 0.621729C318.298 0.438015 318.349 0.189023 318.535 0.0675531C318.721 -0.0569521 318.969 -0.00381666 319.089 0.181415C319.483 0.779624 319.757 1.70274 320.03 3.36374C320.636 7.42818 318.825 9.63577 317.69 10.5892C316.565 11.5351 313.55 17.3638 311.748 20.8468C311.087 22.1252 310.536 23.1895 310.201 23.7877C308.975 25.9437 306.956 29.0911 306.555 29.7105C306.586 30.5061 306.642 34.6328 304.946 40.1366C304.468 41.6776 303.938 43.1534 303.426 44.5791C301.921 48.771 300.365 53.1058 299.585 60.2705C299.564 60.4755 299.389 60.6273 299.187 60.6273ZM294.207 41.4423C294.193 41.4423 294.18 41.4408 294.166 41.4393C293.946 41.4165 293.787 41.2206 293.809 41.0005C293.834 40.7515 294.471 34.8757 297.42 31.1772C300.816 26.9275 301.203 25.9725 301.211 25.7584C301.14 25.0357 306.463 14.7038 310.788 11.1753C313.53 8.96318 312.978 7.52383 312.39 5.99796C312.099 5.23731 311.795 4.44931 311.924 3.59149C312.041 2.82322 312.466 2.16734 312.801 1.75133C312.941 1.58127 313.19 1.55091 313.365 1.69211C313.536 1.83028 313.564 2.08232 313.424 2.25539C313.038 2.73366 312.786 3.24987 312.716 3.71143C312.619 4.35974 312.871 5.01564 313.139 5.71101C313.74 7.27484 314.488 9.22128 311.294 11.7963C307.144 15.1821 302.183 24.9279 302.007 25.7675C302.04 26.0105 302.099 26.6056 298.045 31.6767C295.246 35.1885 294.611 41.0248 294.605 41.0825C294.584 41.289 294.411 41.4423 294.207 41.4423Z" fill="#141515"/>
<path d="M281.866 76.3833C281.661 76.3833 281.487 76.2269 281.467 76.0189C281.447 75.7988 281.61 75.6029 281.83 75.5832C281.901 75.5771 288.881 74.8817 289.002 69.9625C289.008 69.7454 289.186 69.5723 289.403 69.5723H289.414C289.634 69.5784 289.808 69.7621 289.804 69.9837C289.664 75.6166 281.98 76.3742 281.903 76.3818C281.891 76.3833 281.878 76.3833 281.866 76.3833Z" fill="#141515"/>
<path d="M305.442 34.1459C305.316 34.1459 305.191 34.0867 305.114 33.9744C302.352 30.0344 298.998 31.3842 298.855 31.4434C298.653 31.5299 298.417 31.4327 298.33 31.2308C298.245 31.0274 298.339 30.7936 298.541 30.7055C298.584 30.6903 302.622 29.0263 305.77 33.5158C305.897 33.6965 305.853 33.9455 305.671 34.073C305.601 34.1216 305.522 34.1459 305.442 34.1459Z" fill="#141515"/>
<path d="M317.694 5.7867C317.53 5.7867 317.377 5.68498 317.318 5.52253C316.336 2.83213 317.65 0.679206 317.707 0.588108C317.823 0.402876 318.072 0.343662 318.258 0.460562C318.446 0.577478 318.504 0.82344 318.387 1.01171C318.375 1.03144 317.227 2.93538 318.071 5.24924C318.147 5.45572 318.039 5.68649 317.831 5.76241C317.787 5.77911 317.74 5.7867 317.694 5.7867Z" fill="#141515"/>
<path d="M315.977 5.29782C315.805 5.29782 315.646 5.18699 315.594 5.0139C314.893 2.70611 315.757 0.920613 315.795 0.84621C315.894 0.647319 316.132 0.56381 316.329 0.665549C316.528 0.762718 316.61 1.00261 316.513 1.19998C316.505 1.21668 315.755 2.78962 316.36 4.78009C316.425 4.99264 316.305 5.21583 316.094 5.27961C316.055 5.29175 316.015 5.29782 315.977 5.29782Z" fill="#141515"/>
<path d="M313.86 5.07877C313.671 5.07877 313.502 4.94364 313.467 4.75082C313.1 2.76339 313.539 2.06346 313.63 1.94353C313.765 1.7674 314.017 1.73703 314.191 1.86761C314.363 1.9997 314.399 2.2411 314.276 2.41571C314.257 2.45062 313.959 3.00631 314.254 4.60507C314.295 4.82219 314.15 5.03171 313.933 5.07119C313.909 5.07574 313.885 5.07877 313.86 5.07877Z" fill="#141515"/>
<path d="M282.189 82.654C277.747 82.654 273.752 81.1433 270.968 77.337C268.258 73.5808 271.789 65.9893 271.941 65.6675C272.035 65.4671 272.273 65.3835 272.475 65.4762C272.674 65.5718 272.761 65.8102 272.667 66.0106C272.632 66.085 269.184 73.4942 271.616 76.8663C278.128 85.7726 291.868 81.3012 301.652 74.765C301.834 74.6451 302.086 74.6891 302.208 74.8743C302.331 75.0596 302.282 75.3071 302.099 75.43C296.115 79.4292 288.677 82.6525 282.189 82.654Z" fill="#141515"/>
<path d="M303.458 74.4705C303.312 74.4705 303.17 74.3901 303.1 74.2489C301.413 70.8859 300.879 66.1245 300.857 65.9241C300.833 65.704 300.993 65.5066 301.211 65.4823C301.46 65.4686 301.63 65.6174 301.653 65.8361C301.659 65.8846 302.195 70.6581 303.817 73.8906C303.915 74.0879 303.836 74.3278 303.637 74.428C303.58 74.4569 303.519 74.4705 303.458 74.4705Z" fill="#141515"/>
<path d="M264.282 101.715C264.224 101.715 264.165 101.701 264.108 101.675C263.91 101.58 263.825 101.341 263.92 101.141C263.934 101.114 265.271 98.2243 266.132 90.276C267.008 82.1714 270.004 74.3189 270.034 74.2399C270.115 74.0319 270.35 73.9332 270.552 74.0107C270.759 74.0896 270.862 74.3219 270.781 74.5284C270.752 74.6058 267.793 82.3643 266.928 90.3611C266.049 98.4824 264.699 101.369 264.643 101.487C264.575 101.631 264.43 101.715 264.282 101.715Z" fill="#141515"/>
<path d="M266.441 89.0726C266.276 89.0726 266.121 88.9693 266.063 88.8039C265.571 87.3994 264.504 86.3913 264.493 86.3822C264.331 86.2304 264.323 85.9768 264.473 85.8159C264.625 85.6534 264.877 85.6458 265.04 85.7961C265.09 85.8432 266.263 86.9515 266.819 88.5397C266.892 88.7477 266.783 88.9769 266.573 89.0498C266.529 89.065 266.485 89.0726 266.441 89.0726Z" fill="#141515"/>
<path d="M268.249 105.644C265.705 105.644 263.365 104.545 262.102 102.739C259.563 99.1153 256.993 94.5179 256.969 94.4723C256.861 94.278 256.929 94.0351 257.122 93.9273C257.316 93.821 257.561 93.8878 257.667 94.0806C257.693 94.1277 260.244 98.6901 262.758 102.281C263.912 103.925 266.116 104.909 268.476 104.839C270.806 104.774 272.833 103.708 273.9 101.988C276.365 97.972 282.271 82.6692 282.33 82.5143C282.409 82.3063 282.646 82.2077 282.848 82.2851C283.054 82.364 283.157 82.5963 283.077 82.8028C282.834 83.4344 277.086 98.3288 274.582 102.408C273.372 104.359 271.099 105.566 268.498 105.639C268.415 105.642 268.333 105.644 268.249 105.644Z" fill="#141515"/>
<path d="M256.657 93.7463C256.648 93.7463 256.638 93.7448 256.628 93.7448C256.408 93.7296 256.242 93.5383 256.257 93.3182C256.262 93.2453 256.857 86.0122 264.749 85.6888C264.997 85.6797 265.157 85.8528 265.167 86.0729C265.176 86.2946 265.003 86.4813 264.782 86.4905C257.618 86.782 257.076 93.1056 257.056 93.3744C257.041 93.5854 256.865 93.7463 256.657 93.7463Z" fill="#141515"/>
<path d="M265.188 85.9454C265.181 86.051 265.168 86.1253 265.16 86.1632C265.158 86.1764 265.155 86.1846 265.155 86.1879C265.155 86.1896 265.153 86.1929 265.153 86.1945C265.148 86.211 265.143 86.2275 265.136 86.2424C265.133 86.249 265.132 86.2539 265.128 86.2605C265.128 86.2622 265.127 86.2622 265.127 86.2638C265.118 86.2803 265.11 86.2968 265.099 86.3117C265.087 86.3298 265.072 86.348 265.057 86.3628C265.042 86.3793 265.026 86.3942 265.009 86.4074C264.915 86.4767 264.793 86.5063 264.668 86.4783C264.607 86.4618 264.551 86.4337 264.506 86.3958C264.505 86.3925 264.501 86.3909 264.5 86.3892L264.473 86.3628C264.463 86.3529 264.455 86.343 264.447 86.3315C264.435 86.3166 264.425 86.3001 264.416 86.2836C264.407 86.2704 264.401 86.2556 264.394 86.2391C264.389 86.2292 264.386 86.2176 264.384 86.2077C264.379 86.1962 264.376 86.183 264.374 86.1698C264.371 86.1566 264.369 86.1434 264.368 86.1302C264.363 86.0939 264.364 86.0543 264.373 86.0164C264.374 86.0081 264.376 85.9999 264.378 85.9916C264.378 85.99 264.379 85.985 264.381 85.9801C264.386 85.9454 264.399 85.8498 264.389 85.7079C264.387 85.6864 264.386 85.6633 264.383 85.6402C264.341 85.2888 264.152 84.7197 263.441 84.1406C263.234 83.9724 262.984 83.8024 262.68 83.6375C260.817 82.6146 258.727 84.4541 255.999 87.8393C255.999 87.8393 255.999 87.841 255.997 87.841C255.853 88.0191 255.708 88.2006 255.561 88.387C254.56 89.6524 253.615 90.4558 252.782 91.1635C252.731 91.2064 252.679 91.251 252.628 91.2922C251.186 92.518 249.938 93.6612 248.84 96.9871C247.931 99.8081 248.471 101.94 249.441 102.949C249.573 103.086 249.711 103.203 249.857 103.297C249.961 103.365 250.068 103.424 250.178 103.472C251.143 103.898 252.344 103.565 253.527 102.525C257.111 99.3742 257.765 97.3038 257.772 97.2824C257.835 97.0712 258.057 96.9475 258.269 97.0135C258.48 97.0762 258.602 97.2956 258.539 97.5068C258.514 97.5991 257.846 99.7949 254.055 103.126C253.052 104.01 252.016 104.46 251.051 104.46C250.474 104.46 249.921 104.299 249.416 103.969C247.606 102.781 247.069 99.8758 248.078 96.7396C249.286 93.0805 250.665 91.9076 252.264 90.5515C253.107 89.8355 253.979 89.0948 254.933 87.8888C257.563 84.5613 260.351 81.4384 263.066 82.9347C265.084 84.0334 265.224 85.3977 265.188 85.9454Z" fill="#141515"/>
<path d="M263.443 84.1357C262.946 83.9443 262.301 83.8503 261.509 84.045C260.275 84.3188 258.253 85.7442 256.001 87.8344C258.73 84.4491 260.82 82.6097 262.682 83.6325C262.986 83.7975 263.237 83.9674 263.443 84.1357Z" fill="#F2BF4E"/>
<path d="M251.24 92.9008C247.627 97.2082 248.942 101.651 249.443 102.941C248.473 101.931 247.934 99.7999 248.843 96.9789C249.94 93.653 251.188 92.5098 252.63 91.284C252.163 91.807 251.698 92.3464 251.24 92.9008Z" fill="#F2BF4E"/>
<path d="M264.565 85.5623C264.51 85.6036 264.448 85.6283 264.385 85.6366C264.245 85.6564 264.098 85.6019 264.005 85.4782C263.974 85.4386 263.195 84.4521 261.691 84.8265C260.076 85.1862 256.087 88.3174 251.855 93.42C247.939 98.0904 250.219 102.757 250.318 102.954C250.412 103.139 250.349 103.358 250.181 103.468C250.169 103.477 250.154 103.485 250.141 103.492C250.083 103.521 250.021 103.536 249.961 103.536C249.814 103.536 249.674 103.455 249.603 103.317C249.6 103.308 249.536 103.178 249.443 102.946C248.942 101.655 247.627 97.2127 251.24 92.9053C251.698 92.351 252.164 91.8115 252.631 91.2885C253.766 90.0183 254.909 88.8502 255.999 87.8373C256.001 87.8373 256.001 87.8357 256.001 87.8357C258.253 85.7454 260.275 84.3201 261.509 84.0462C262.301 83.8516 262.946 83.9456 263.443 84.137C264.215 84.4339 264.621 84.9651 264.649 85.0014C264.781 85.1796 264.743 85.4304 264.565 85.5623Z" fill="#141515"/>
<path d="M303.286 132.868C303.11 132.868 302.947 132.751 302.899 132.572C302.861 132.432 299.027 118.361 295.715 105.862C292.428 93.4986 283.891 83.0164 283.805 82.9132C283.665 82.7416 283.689 82.4896 283.859 82.3484C284.034 82.2102 284.284 82.2345 284.424 82.403C284.511 82.5093 293.157 93.1206 296.49 105.656C299.801 118.153 303.633 132.221 303.673 132.362C303.731 132.575 303.604 132.795 303.39 132.854C303.356 132.863 303.321 132.868 303.286 132.868Z" fill="#141515"/>
<path d="M305.115 102.858C305.106 102.858 305.097 102.856 305.088 102.856C304.655 102.82 304.646 102.82 304.646 99.753C304.646 99.4357 304.655 99.0849 304.665 98.6917C304.677 98.1983 304.69 97.6365 304.69 96.9928C304.734 90.8483 303.297 75.5515 303.281 75.3982C303.262 75.178 303.423 74.9822 303.643 74.9609C303.89 74.967 304.06 75.1036 304.08 75.3223C304.094 75.4771 305.536 90.8148 305.492 96.9958C305.492 97.6441 305.478 98.2119 305.466 98.7114C305.456 99.0971 305.448 99.4418 305.448 99.753C305.448 101.414 305.472 102.017 305.487 102.234C305.528 102.31 305.545 102.398 305.53 102.489C305.498 102.686 305.314 102.858 305.115 102.858Z" fill="#141515"/>
<path d="M311.039 133.714H311.031C310.809 133.709 310.633 133.526 310.638 133.305C310.639 133.242 310.755 126.878 309.496 118.863C308.193 110.838 304.912 99.4856 304.88 99.3733C304.818 99.1607 304.941 98.9375 305.152 98.8768C305.375 98.8085 305.588 98.9375 305.649 99.1485C305.682 99.2639 308.977 110.66 310.287 118.737C311.558 126.828 311.441 133.257 311.439 133.321C311.435 133.539 311.256 133.714 311.039 133.714Z" fill="#141515"/>
<path d="M310.777 141.807C310.729 139.639 310.467 137.456 310.233 135.892C310.188 135.604 310.145 135.336 310.105 135.094C309.959 134.201 309.845 133.649 309.843 133.634C309.799 133.418 309.592 133.271 309.371 133.322C309.196 133.358 309.071 133.504 309.053 133.672C309.012 133.665 308.969 133.667 308.926 133.678C305.475 134.439 303.099 133.197 303.074 133.185C302.932 133.111 302.756 133.126 302.629 133.228C302.504 133.332 302.454 133.502 302.502 133.657C302.507 133.67 302.678 134.228 302.825 135.094C302.866 135.338 302.906 135.607 302.941 135.894C303.096 137.229 303.121 138.979 302.591 140.624C301.92 142.717 301.707 143.768 302.23 144.476C302.312 144.588 302.409 144.684 302.523 144.766C303.084 145.175 304.018 145.253 305.269 145.243C305.922 145.228 306.507 145.269 307.039 145.302C307.44 145.327 307.814 145.349 308.16 145.349C308.931 145.349 309.561 145.236 310.028 144.786C310.046 144.77 310.064 144.751 310.079 144.733C310.594 144.197 310.807 143.29 310.777 141.807ZM309.096 134.462C309.126 134.455 309.154 134.446 309.18 134.432C309.292 135.059 309.467 136.104 309.625 137.359C309.761 138.436 309.884 139.67 309.944 140.927C309.959 141.226 309.969 141.526 309.975 141.825C310.002 143.097 309.843 143.854 309.474 144.209C309.046 144.619 308.225 144.57 307.087 144.502C306.601 144.473 306.057 144.44 305.465 144.44C305.395 144.44 305.328 144.441 305.257 144.441C303.838 144.459 303.117 144.329 302.873 144.001C302.659 143.707 302.71 143.128 302.951 142.219C303.051 141.83 303.188 141.381 303.353 140.87C303.391 140.751 303.427 140.634 303.459 140.515C304.15 138.03 303.756 135.477 303.474 134.216C304.511 134.573 306.514 135.026 309.096 134.462Z" fill="#141515"/>
<path d="M309.473 144.203C309.046 144.614 308.224 144.565 307.086 144.497C306.601 144.467 306.056 144.434 305.464 144.434C305.395 144.434 305.327 144.436 305.256 144.436C303.838 144.454 303.117 144.324 302.872 143.996C302.658 143.702 302.709 143.123 302.95 142.214C303.049 142.351 303.171 142.481 303.311 142.602C303.953 143.153 304.872 143.435 305.827 143.435C306.584 143.435 307.363 143.258 308.049 142.898C308.635 142.592 309.425 142.001 309.943 140.922C309.958 141.221 309.968 141.521 309.975 141.82C310.001 143.091 309.843 143.849 309.473 144.203Z" fill="#F2BF4E"/>
<path d="M309.947 140.931C309.429 142.01 308.639 142.6 308.053 142.907C307.367 143.267 306.588 143.443 305.831 143.443C304.876 143.443 303.957 143.161 303.315 142.61C303.175 142.49 303.053 142.359 302.954 142.222C302.553 141.685 302.456 141.025 302.685 140.353C302.758 140.145 302.977 140.038 303.195 140.104C303.373 140.165 303.479 140.338 303.462 140.518C303.462 140.55 303.456 140.583 303.444 140.614C303.258 141.153 303.391 141.62 303.837 142.003C304.624 142.679 306.278 142.932 307.679 142.198C309.179 141.411 309.87 139.726 309.629 137.455C309.626 137.423 309.626 137.392 309.629 137.362C309.65 137.181 309.796 137.034 309.984 137.014C310.226 136.989 310.403 137.151 310.424 137.369C310.591 138.928 310.353 140.081 309.947 140.931Z" fill="#141515"/>
<path d="M351.064 140.966C351.066 141.188 350.887 141.368 350.668 141.371H350.663C350.442 141.371 350.265 141.193 350.262 140.976C350.26 140.875 350.26 140.756 350.259 140.618C350.211 134.951 350.023 97.9011 350.001 93.3165L348.116 93.5969L348.723 140.301L348.726 140.52C348.729 140.74 348.553 140.923 348.33 140.926H348.325C348.108 140.926 347.928 140.75 347.924 140.528L347.92 140.134L347.317 93.9252L347.309 93.2571C347.309 93.2093 347.316 93.1647 347.331 93.1218C347.378 92.9849 347.499 92.8793 347.651 92.8562L347.66 92.8546L348.119 92.7869L350.34 92.4553C350.455 92.4388 350.572 92.4718 350.66 92.5477C350.747 92.6236 350.798 92.7341 350.8 92.8496C350.802 93.2818 351.014 135.456 351.062 140.783C351.062 140.85 351.064 140.911 351.064 140.966Z" fill="#141515"/>
<path d="M344.319 139.726C344.321 139.946 344.141 140.127 343.92 140.129H343.913C343.862 140.129 343.813 140.117 343.768 140.099L343.763 140.097C343.62 140.036 343.519 139.894 343.518 139.728C343.518 139.573 343.516 139.406 343.514 139.23C343.468 130.61 343.28 97.4914 343.255 93.2235L341.37 93.4726L341.98 138.913L341.982 139.008C341.985 139.231 341.807 139.413 341.587 139.416H341.581C341.363 139.416 341.183 139.239 341.18 139.022L341.177 138.748L340.569 93.537L340.565 93.1278C340.561 92.9282 340.705 92.7583 340.899 92.7253C340.903 92.7253 340.908 92.7236 340.911 92.7236L341.825 92.6032L342.222 92.5504L343.56 92.3739L343.6 92.369C343.724 92.3591 343.831 92.3904 343.917 92.4646C344.003 92.5405 344.054 92.6494 344.055 92.7633V92.9761C344.057 93.0404 344.057 93.1163 344.057 93.207C344.059 93.4099 344.06 93.6788 344.062 94.0088C344.1 100.601 344.275 131.435 344.318 139.395C344.318 139.51 344.319 139.621 344.319 139.726Z" fill="#141515"/>
<path d="M338.588 138.522C338.59 138.743 338.411 138.923 338.189 138.925H338.187C337.968 138.925 337.788 138.746 337.786 138.525C337.786 138.372 337.785 138.212 337.783 138.045C337.742 128.767 337.565 99.2139 337.529 93.2782C337.529 93.2336 337.529 93.1907 337.527 93.1478C337.527 92.9746 337.526 92.8229 337.526 92.6975L335.686 92.9746L336.25 137.73L336.254 138.03C336.257 138.25 336.079 138.431 335.858 138.435H335.853C335.633 138.435 335.455 138.26 335.452 138.039L335.445 137.564L334.879 92.6364C334.878 92.4368 335.023 92.2652 335.219 92.2355L337.654 91.866L337.862 91.8346C337.987 91.8198 338.095 91.8512 338.184 91.9254C338.273 92.0013 338.322 92.1118 338.324 92.2273C338.324 92.2273 338.324 92.3461 338.326 92.5721C338.326 92.6381 338.327 92.714 338.327 92.7981C338.329 93.0109 338.331 93.2798 338.332 93.5999C338.372 100.263 338.545 129.287 338.586 138.212C338.586 138.317 338.588 138.421 338.588 138.522Z" fill="#141515"/>
<path d="M347.889 93.514C347.894 93.7351 347.719 93.9199 347.5 93.9248L347.316 93.9298L344.063 94.0106L343.885 94.0156H343.875C343.657 94.0156 343.481 93.8423 343.474 93.6246C343.469 93.4035 343.644 93.2187 343.865 93.2138L344.058 93.2088L347.33 93.1263L347.478 93.123H347.488C347.706 93.123 347.884 93.2963 347.889 93.514Z" fill="#141515"/>
<path d="M347.66 92.8595L347.65 92.8611C347.498 92.8842 347.378 92.9898 347.33 93.1267L344.058 93.2092C344.058 93.1185 344.058 93.0426 344.057 92.9782C344.233 92.937 344.363 92.7786 344.363 92.5889V91.736L347.44 91.6651V92.5015C347.44 92.6582 347.529 92.7935 347.66 92.8595Z" fill="#F2BF4E"/>
<path d="M348.241 91.2515V92.4987C348.241 92.6125 348.193 92.7148 348.118 92.7891C348.045 92.8584 347.948 92.8996 347.84 92.8996C347.776 92.8996 347.713 92.8848 347.659 92.8567C347.529 92.7907 347.44 92.6554 347.44 92.4987V91.6623L344.363 91.7332V92.5862C344.363 92.7759 344.232 92.9342 344.056 92.9755C344.026 92.9837 343.995 92.987 343.962 92.987C343.741 92.987 343.561 92.8089 343.561 92.5862V91.3422C343.561 91.1245 343.736 90.9463 343.954 90.9414L347.831 90.8506C347.959 90.849 348.043 90.8902 348.119 90.9645C348.197 91.0404 348.241 91.1443 348.241 91.2515Z" fill="#141515"/>
<path d="M342.38 90.9425V92.2325C342.38 92.3612 342.319 92.4767 342.223 92.551C342.156 92.6021 342.072 92.6334 341.979 92.6334C341.925 92.6334 341.874 92.6235 341.826 92.6037C341.681 92.5427 341.578 92.3992 341.578 92.2325V91.3565L338.457 91.4621V92.2771C338.457 92.3942 338.408 92.4998 338.327 92.5741C338.256 92.6384 338.16 92.678 338.056 92.678C337.835 92.678 337.655 92.4982 337.655 92.2771V91.0761C337.655 90.86 337.827 90.6818 338.043 90.6752L341.966 90.5416C342.067 90.5267 342.179 90.5795 342.258 90.6538C342.337 90.7296 342.38 90.8319 342.38 90.9425Z" fill="#141515"/>
<path d="M370.492 145.604C370.466 145.604 370.439 145.601 370.411 145.595L315.808 134.332C315.591 134.288 315.451 134.076 315.496 133.86C315.539 133.645 315.742 133.496 315.969 133.549L370.572 144.812C370.789 144.856 370.929 145.068 370.883 145.284C370.845 145.474 370.678 145.604 370.492 145.604Z" fill="#141515"/>
<path d="M341.827 92.6005L340.913 92.7209C340.91 92.7209 340.905 92.7226 340.901 92.7226L338.329 92.7968C338.329 92.7127 338.328 92.6368 338.328 92.5708C338.408 92.4966 338.458 92.391 338.458 92.2739V91.4589L341.579 91.3533V92.2293C341.579 92.396 341.682 92.5395 341.827 92.6005Z" fill="#F2BF4E"/>
<path d="M341.5 93.1049C341.505 93.3243 341.332 93.5107 341.109 93.5157L340.571 93.5305L338.334 93.5948L337.936 93.6064H337.925C337.73 93.6064 337.564 93.4645 337.531 93.2731C337.527 93.255 337.524 93.2352 337.524 93.2154C337.524 93.1907 337.526 93.1676 337.529 93.1428C337.559 92.9564 337.717 92.8096 337.915 92.8046L338.329 92.7931L340.901 92.7188L341.087 92.7139C341.266 92.7056 341.493 92.8838 341.5 93.1049Z" fill="#141515"/>
<path d="M232.374 145.869C232.153 145.869 231.974 145.69 231.973 145.47C231.973 145.248 232.15 145.069 232.372 145.067L368.066 144.487H368.067C368.287 144.487 368.466 144.666 368.468 144.887C368.468 145.108 368.29 145.287 368.069 145.289L232.375 145.869H232.374Z" fill="#141515"/>
<path d="M234.975 135.944C234.753 135.944 234.574 135.765 234.574 135.543C234.574 135.321 234.753 135.142 234.975 135.142L303.019 135.097C303.241 135.097 303.42 135.276 303.42 135.498C303.42 135.719 303.241 135.898 303.019 135.898L234.975 135.944ZM309.894 135.898C309.674 135.898 309.495 135.719 309.493 135.499C309.493 135.277 309.671 135.098 309.893 135.097L322.586 135.053H322.587C322.807 135.053 322.986 135.232 322.988 135.452C322.988 135.674 322.81 135.853 322.589 135.854L309.896 135.898H309.894Z" fill="#141515"/>
<path d="M292.4 145.602C292.374 145.602 292.346 145.599 292.319 145.593L245.383 135.934C245.166 135.89 245.026 135.679 245.072 135.462C245.114 135.246 245.318 135.1 245.544 135.151L292.48 144.81C292.697 144.854 292.837 145.065 292.791 145.282C292.753 145.472 292.586 145.602 292.4 145.602Z" fill="#141515"/>
<path d="M298.717 52.4087C295.13 52.4087 292.722 50.1237 292.603 50.0098C292.445 49.855 292.441 49.603 292.594 49.4435C292.749 49.2826 293.003 49.2796 293.16 49.4329C293.192 49.4633 296.325 52.4239 300.588 51.3793C300.8 51.3277 301.019 51.4583 301.072 51.6724C301.125 51.888 300.993 52.1051 300.779 52.1567C300.058 52.3344 299.367 52.4087 298.717 52.4087Z" fill="black"/>
<path d="M286.158 64.1291C285.379 64.1291 284.677 63.9302 284.201 63.5096C284.034 63.3639 284.019 63.1103 284.164 62.9448C284.31 62.7763 284.564 62.7626 284.729 62.9084C285.613 63.6857 288.065 63.3897 289.56 61.9397C290.391 61.135 291.457 59.3905 289.269 56.7426C289.128 56.5726 289.152 56.319 289.322 56.1793C289.494 56.0381 289.747 56.064 289.885 56.2325C292.582 59.4938 290.946 61.7135 290.118 62.5152C289.05 63.5506 287.489 64.1291 286.158 64.1291Z" fill="black"/>
</g>
</svg>
