<svg width="27" height="27" viewBox="0 0 27 27" fill="none" xmlns="http://www.w3.org/2000/svg">
<path fill-rule="evenodd" clip-rule="evenodd" d="M2.24121 2.22974C0.818648 3.65505 0 4.55227 0 4.68611C0 4.82026 0.820125 5.71654 2.25155 7.1468C5.01483 9.90787 4.99458 9.90027 5.03972 8.19115L5.06967 7.05736H6.42326H7.77684L7.40348 7.45287C3.23768 11.8661 4.5051 18.7553 9.95182 21.3041C12.1789 22.3463 15.1819 22.2844 17.3496 21.1517L17.9824 20.821L20.3027 20.7683L22.623 20.7156L22.6538 19.8982C22.6708 19.4487 22.7177 19.0808 22.758 19.0808C22.876 19.0808 25.9453 22.1785 25.9453 22.2976C25.9453 22.4167 22.876 25.5144 22.758 25.5144C22.7177 25.5144 22.6708 25.1465 22.6538 24.697L22.623 23.8796L18.8386 23.8519C15.0163 23.8239 14.7656 23.8455 14.7656 24.2014C14.7656 24.6497 14.9334 24.6706 18.5138 24.6706H21.9303L21.9603 25.8044C22.0054 27.5136 21.9852 27.5212 24.7485 24.7601C26.1927 23.317 27 22.4341 27 22.2976C27 21.9893 22.5929 17.6042 22.2831 17.6042C21.9341 17.6042 21.832 17.9128 21.832 18.9684V19.9246L20.4873 19.9214C19.4989 19.919 19.1929 19.8889 19.3323 19.8077C20.077 19.3744 21.4656 17.0114 21.8356 15.5476C23.6055 8.54605 16.0239 2.49985 9.65039 5.83023L9.01758 6.16088L6.69727 6.21361L4.37695 6.26635L4.34616 7.08373C4.30713 8.11785 4.43739 8.17544 2.55635 6.29145L0.949219 4.68178L2.55888 3.07465C4.44371 1.19267 4.30724 1.25299 4.34616 2.2849L4.37695 3.10228L8.16138 3.13002C11.9837 3.15797 12.2344 3.13646 12.2344 2.7805C12.2344 2.33226 12.0666 2.31127 8.48623 2.31127H5.06967L5.03972 1.17748C4.99447 -0.535017 5.0047 -0.538814 2.24121 2.22974ZM15.4382 5.9993C21.2092 7.47533 23.1714 14.7163 18.9418 18.9289C14.0483 23.8028 5.75005 20.3651 5.78464 13.4783C5.81017 8.41728 10.546 4.74812 15.4382 5.9993ZM10.3947 8.97932C10.1475 9.33222 10.1475 17.6497 10.3947 18.0026C10.7024 18.4421 11.115 18.3192 11.9103 17.5515C12.7602 16.731 12.7617 16.7306 12.7617 17.377C12.7617 17.7381 12.8183 17.9391 12.9546 18.0625C13.3938 18.4599 13.579 18.3371 15.9234 16.0945C18.3155 13.8061 18.4021 13.7065 18.312 13.3479C18.2093 12.9385 13.7312 8.74486 13.3967 8.74486C12.9787 8.74486 12.7617 9.04492 12.7617 9.62331C12.7617 10.2493 12.7575 10.2483 11.9103 9.43041C11.115 8.6627 10.7024 8.53983 10.3947 8.97932ZM14.8711 13.491C14.8711 13.5354 14.0168 14.3897 12.9727 15.3894L11.0742 17.207V13.491V9.77487L12.9727 11.5925C14.0168 12.5923 14.8711 13.4466 14.8711 13.491ZM15.7781 11.8857L17.4527 13.4899L15.7233 15.1516C13.4751 17.3118 13.6055 17.2271 13.6055 16.5273V15.9657L14.7129 14.8621C15.5379 14.0399 15.8203 13.6902 15.8203 13.491C15.8203 13.2917 15.5379 12.942 14.7129 12.1199L13.6055 11.0162V10.4529V9.88973L13.8546 10.0857C13.9916 10.1934 14.8572 11.0035 15.7781 11.8857Z" fill="#FFD929"/>
</svg>
